<?xml version="1.0" standalone="no"?>
<!DOCTYPE svg PUBLIC "-//W3C//DTD SVG 1.1//EN" "http://www.w3.org/Graphics/SVG/1.1/DTD/svg11.dtd" >
<svg>
<metadata>
Created by FontForge 20120731 at Sun May 29 02:38:45 2016
 By www
Copyright 2004 - 2010 Monotype Imaging, Inc. All rights reserved.
</metadata>
<defs>
<font id="NeoSansArabic-Medium" horiz-adv-x="630" >
  <font-face 
    font-family="NeoSansArabic-Medium"
    font-weight="500"
    font-stretch="normal"
    units-per-em="1000"
    panose-1="2 11 7 4 3 5 4 4 2 4"
    ascent="765"
    descent="-235"
    x-height="564"
    cap-height="743"
    bbox="-159.222 -425 1408 1140"
    underline-thickness="71"
    underline-position="-78"
    unicode-range="U+0020-FEFC"
  />
<missing-glyph horiz-adv-x="500" 
d="M12 665h475v-665h-475v665zM250 375l161 243h-323zM60 91l7 10t18 27t25.5 39t29.5 45q35 54 81 121l-161 242v-484zM278 333l162 -243v485zM250 290l-162 -242h323z" />
    <glyph glyph-name="uniFB01" unicode="fi" horiz-adv-x="657" 
d="M375 690q0 -9 -5 -13t-10 -4h-45q-36 0 -47.5 -11.5t-11.5 -48.5v-49h313q8 0 14 -6t6 -14v-523q0 -8 -6 -14.5t-14 -6.5h-92q-8 0 -14 6.5t-6 14.5v444h-201v-444q0 -8 -6 -14.5t-14 -6.5h-91q-8 0 -14.5 6.5t-6.5 14.5v444l-89 14q-8 2 -14 6.5t-6 12.5v46q0 8 6 14
t14 6h89v49q0 48 12.5 79t35 49t54.5 25t71 7q18 0 32 -2.5t28 -5.5q6 -2 12 -5.5t6 -10.5v-59zM592 659q0 -8 -6 -14t-14 -6h-97q-8 0 -14.5 6t-6.5 14v88q0 8 6.5 14t14.5 6h97q8 0 14 -6t6 -14v-88z" />
    <glyph glyph-name="uniFB02" unicode="fl" horiz-adv-x="659" 
d="M589 21q0 -8 -5.5 -14.5t-13.5 -6.5h-93q-8 0 -14 6.5t-6 14.5v652h-112q-30 0 -47.5 -2.5t-26.5 -9t-12 -18.5t-3 -30v-49h96q8 0 14 -6t6 -14v-60q0 -8 -6 -13.5t-14 -5.5h-96v-444q0 -8 -6 -14.5t-14 -6.5h-91q-8 0 -14.5 6.5t-6.5 14.5v444l-89 14q-8 2 -14 6.5
t-6 12.5v46q0 8 6 14t14 6h89v49q0 48 10.5 79t34 49t62.5 25t96 7q9 0 32.5 -1t49 -2.5t48 -3.5t29.5 -5h84q8 0 13.5 -6t5.5 -14v-720z" />
    <glyph glyph-name="uniFDF2" unicode="&#x627;&#xfedf;&#xfee0;&#x670;&#x651;&#xfeea;" horiz-adv-x="1488" arabic-form="isolated" 
d="M58 240q0 118 68.5 183.5t200.5 65.5q39 0 79.5 -4t63.5 -11q11 -3 14 -7t3 -12v-274q0 -33 15 -43t48 -10h69q9 0 19 1t19 4.5t14.5 10t5.5 18.5v420q0 8 5.5 14t14.5 6h91q8 0 13.5 -6t5.5 -14v-437q3 -5 11 -8.5t17 -5.5t18.5 -2.5t16.5 -0.5h86q24 0 31.5 4.5
t7.5 28.5v579q0 9 6 15t14 6h91q8 0 13.5 -6t5.5 -15v-581q0 -27 -1 -59.5t-4 -59.5q-2 -10 -6.5 -17t-16.5 -12q-11 -3 -30.5 -5t-42.5 -3.5t-47.5 -2t-44.5 -0.5h-49q-38 0 -77 6.5t-65 27.5q-27 -20 -66 -27t-72 -7h-72q-52 0 -85 13t-50 43q-20 -20 -53.5 -30.5
t-68.5 -10.5h-13q-42 0 -79 11.5t-64.5 36.5t-43.5 64t-16 93v20zM1278 741q0 8 5.5 14t14.5 6h90q9 0 14.5 -6t5.5 -14v-720q0 -8 -5.5 -14.5t-14.5 -6.5h-90q-9 0 -14.5 6.5t-5.5 14.5v720zM184 244q0 -57 22 -81t68 -24h15q34 0 53 11t19 34v187q-6 1 -22.5 1.5
t-25.5 0.5q-61 0 -95 -28.5t-34 -86.5v-14zM681 654q-38 0 -52 22.5t-14 57.5q0 11 0.5 19.5t2.5 19.5q2 14 14 14h23q5 0 9 -4t3 -10q-1 -13 -1 -21v-16q0 -20 6 -27.5t17 -7.5h4q7 0 15.5 4t8.5 21v45q0 6 4.5 10t9.5 4h23q13 0 13 -14v-45q0 -17 9 -21t14 -4h4
q11 0 18 7.5t7 28.5q0 8 -0.5 16t-1.5 20q0 6 4 10.5t10 4.5h22q12 0 14 -15q2 -13 2 -20v-18q0 -36 -15.5 -58.5t-53.5 -22.5h-5q-16 0 -29 5t-22 17h-2q-9 -12 -24 -17t-32 -5h-5zM715 940q0 5 4 9.5t9 4.5h29q5 0 9 -4.5t4 -9.5v-104q0 -13 -13 -13h-29q-13 0 -13 13v104
z" />
    <glyph glyph-name="uniFEF5" unicode="&#xfedf;&#xfe82;" horiz-adv-x="678" arabic-form="isolated" 
d="M165 647q0 9 5.5 15t14.5 6h87q9 0 14 -6t5 -15v-423q0 -9 -5.5 -15t-13.5 -6h-88q-8 0 -13.5 6t-5.5 15v423zM47 110q0 8 5.5 13t13.5 5h369q24 0 31.5 4.5t7.5 28.5v580q0 8 6 14t14 6h91q8 0 13.5 -6t5.5 -14v-582q0 -38 -1.5 -65.5t-3.5 -53.5q-2 -10 -6 -17t-16 -12
q-11 -3 -32 -5t-45.5 -3.5t-51 -2t-47.5 -0.5h-335q-8 0 -13.5 5t-5.5 13v92zM81 732q-16 0 -14 13q3 35 19 57q14 19 31.5 26.5t37.5 7.5q18 0 35.5 -6.5t37.5 -14.5q15 -5 29.5 -8.5t30.5 -3.5q20 0 32.5 4t22.5 9q11 5 19.5 8.5t13.5 3.5q10 0 10 -9v-39q0 -12 -9 -19
q-16 -11 -40 -17.5t-50 -6.5q-23 0 -44 4.5t-55 19.5q-11 5 -17.5 6.5t-11.5 1.5q-16 0 -19 -12l-5 -11q-5 -14 -15 -14h-39z" />
    <glyph glyph-name="uniFEF6" unicode="&#xfee0;&#xfe82;" horiz-adv-x="693" arabic-form="final" 
d="M81 732q-16 0 -14 13q3 35 19 57q14 19 31.5 26.5t37.5 7.5q18 0 35.5 -6.5t37.5 -14.5q15 -5 29.5 -8.5t30.5 -3.5q20 0 32.5 4t22.5 9q11 5 19.5 8.5t13.5 3.5q10 0 10 -9v-39q0 -12 -9 -19q-16 -11 -40 -17.5t-50 -6.5q-23 0 -44 4.5t-55 19.5q-11 5 -17.5 6.5
t-11.5 1.5q-16 0 -19 -12l-5 -11q-5 -14 -15 -14h-39zM165 647q0 9 5.5 15t14.5 6h87q9 0 14 -6t5 -15v-423q0 -9 -5.5 -15t-13.5 -6h-88q-8 0 -13.5 6t-5.5 15v423zM47 110q0 8 5 13t14 5h351q9 0 19 1t18.5 4.5t14 10t5.5 18.5v578q0 9 6 15t14 6h91q8 0 13.5 -6t5.5 -15
v-595q3 -5 11 -8.5t17.5 -5.5t19 -2.5t16.5 -0.5h25v-128h-12q-36 0 -72.5 7t-65.5 27q-14 -11 -31 -18t-35 -10.5t-36.5 -4.5t-34.5 -1h-340q-9 0 -14 5t-5 13v92z" />
    <glyph glyph-name="uniFEF7" unicode="&#xfedf;&#xfe84;" horiz-adv-x="678" arabic-form="isolated" 
d="M165 647q0 9 5.5 15t14.5 6h87q9 0 14 -6t5 -15v-423q0 -9 -5.5 -15t-13.5 -6h-88q-8 0 -13.5 6t-5.5 15v423zM47 110q0 8 5.5 13t13.5 5h369q24 0 31.5 4.5t7.5 28.5v580q0 8 6 14t14 6h91q8 0 13.5 -6t5.5 -14v-582q0 -38 -1.5 -65.5t-3.5 -53.5q-2 -10 -6 -17t-16 -12
q-11 -3 -32 -5t-45.5 -3.5t-51 -2t-47.5 -0.5h-335q-8 0 -13.5 5t-5.5 13v92zM150 741q-16 0 -16 12v29q0 10 16 10h19q-8 12 -12 27t-4 30q0 84 100 84q8 0 21.5 -1t25.5 -5q11 -2 11 -10v-27q0 -10 -13 -10h-35q-26 0 -38 -9t-12 -31q0 -17 6 -29.5t15 -17.5h70
q16 0 16 -10v-30q0 -12 -16 -12h-154z" />
    <glyph glyph-name="uniFEF8" unicode="&#xfee0;&#xfe84;" horiz-adv-x="693" arabic-form="final" 
d="M165 647q0 9 5.5 15t14.5 6h87q9 0 14 -6t5 -15v-423q0 -9 -5.5 -15t-13.5 -6h-88q-8 0 -13.5 6t-5.5 15v423zM47 110q0 8 5 13t14 5h351q9 0 19 1t18.5 4.5t14 10t5.5 18.5v578q0 9 6 15t14 6h91q8 0 13.5 -6t5.5 -15v-595q3 -5 11 -8.5t17.5 -5.5t19 -2.5t16.5 -0.5h25
v-128h-12q-36 0 -72.5 7t-65.5 27q-14 -11 -31 -18t-35 -10.5t-36.5 -4.5t-34.5 -1h-340q-9 0 -14 5t-5 13v92zM150 741q-16 0 -16 12v29q0 10 16 10h19q-8 12 -12 27t-4 30q0 84 100 84q8 0 21.5 -1t25.5 -5q11 -2 11 -10v-27q0 -10 -13 -10h-35q-26 0 -38 -9t-12 -31
q0 -17 6 -29.5t15 -17.5h70q16 0 16 -10v-30q0 -12 -16 -12h-154z" />
    <glyph glyph-name="uniFEF9" unicode="&#xfedf;&#xfe88;" horiz-adv-x="678" arabic-form="isolated" 
d="M165 677q0 19 20 19h87q19 0 19 -19v-453q0 -9 -5.5 -15t-13.5 -6h-88q-8 0 -13.5 6t-5.5 15v453zM47 110q0 8 5.5 13t13.5 5h369q24 0 31.5 4.5t7.5 28.5v580q0 8 6 14t14 6h91q8 0 13.5 -6t5.5 -14v-582q0 -38 -1.5 -65.5t-3.5 -53.5q-2 -10 -6 -17t-16 -12
q-11 -3 -32 -5t-45.5 -3.5t-51 -2t-47.5 -0.5h-335q-8 0 -13.5 5t-5.5 13v92zM144 -253q-16 0 -16 12v29q0 10 16 10h19q-8 12 -12 27t-4 30q0 84 100 84q8 0 21.5 -1t25.5 -5q11 -2 11 -10v-27q0 -10 -13 -10h-35q-26 0 -38 -9t-12 -31q0 -17 6 -29.5t15 -17.5h70
q16 0 16 -10v-30q0 -12 -16 -12h-154z" />
    <glyph glyph-name="uniFEFA" unicode="&#xfee0;&#xfe88;" horiz-adv-x="693" arabic-form="final" 
d="M165 677q0 19 20 19h87q19 0 19 -19v-453q0 -9 -5.5 -15t-13.5 -6h-88q-8 0 -13.5 6t-5.5 15v453zM47 110q0 8 5 13t14 5h351q9 0 19 1t18.5 4.5t14 10t5.5 18.5v578q0 9 6 15t14 6h91q8 0 13.5 -6t5.5 -15v-595q3 -5 11 -8.5t17.5 -5.5t19 -2.5t16.5 -0.5h25v-128h-12
q-36 0 -72.5 7t-65.5 27q-14 -11 -31 -18t-35 -10.5t-36.5 -4.5t-34.5 -1h-340q-9 0 -14 5t-5 13v92zM144 -253q-16 0 -16 12v29q0 10 16 10h19q-8 12 -12 27t-4 30q0 84 100 84q8 0 21.5 -1t25.5 -5q11 -2 11 -10v-27q0 -10 -13 -10h-35q-26 0 -38 -9t-12 -31
q0 -17 6 -29.5t15 -17.5h70q16 0 16 -10v-30q0 -12 -16 -12h-154z" />
    <glyph glyph-name="uniFEFB" unicode="&#xfedf;&#xfe8e;" horiz-adv-x="678" arabic-form="isolated" 
d="M165 677q0 19 20 19h87q19 0 19 -19v-453q0 -9 -5.5 -15t-13.5 -6h-88q-8 0 -13.5 6t-5.5 15v453zM47 110q0 8 5.5 13t13.5 5h369q24 0 31.5 4.5t7.5 28.5v580q0 8 6 14t14 6h91q8 0 13.5 -6t5.5 -14v-582q0 -38 -1.5 -65.5t-3.5 -53.5q-2 -10 -6 -17t-16 -12
q-11 -3 -32 -5t-45.5 -3.5t-51 -2t-47.5 -0.5h-335q-8 0 -13.5 5t-5.5 13v92z" />
    <glyph glyph-name="uniFEFC" unicode="&#xfee0;&#xfe8e;" horiz-adv-x="693" arabic-form="final" 
d="M165 677q0 19 20 19h87q19 0 19 -19v-453q0 -9 -5.5 -15t-13.5 -6h-88q-8 0 -13.5 6t-5.5 15v453zM47 110q0 8 5 13t14 5h351q9 0 19 1t18.5 4.5t14 10t5.5 18.5v578q0 9 6 15t14 6h91q8 0 13.5 -6t5.5 -15v-595q3 -5 11 -8.5t17.5 -5.5t19 -2.5t16.5 -0.5h25v-128h-12
q-36 0 -72.5 7t-65.5 27q-14 -11 -31 -18t-35 -10.5t-36.5 -4.5t-34.5 -1h-340q-9 0 -14 5t-5 13v92z" />
    <glyph glyph-name="uniFEDF_uniFB51.rlig" unicode="&#xfedf;&#xfb51;" horiz-adv-x="678" 
d="M165 647q0 9 5.5 15t14.5 6h87q9 0 14 -6t5 -15v-423q0 -9 -5.5 -15t-13.5 -6h-88q-8 0 -13.5 6t-5.5 15v423zM47 110q0 8 5.5 13t13.5 5h369q24 0 31.5 4.5t7.5 28.5v580q0 8 6 14t14 6h91q8 0 13.5 -6t5.5 -14v-582q0 -38 -1.5 -65.5t-3.5 -53.5q-2 -10 -6 -17t-16 -12
q-11 -3 -32 -5t-45.5 -3.5t-51 -2t-47.5 -0.5h-335q-8 0 -13.5 5t-5.5 13v92zM276 900q40 0 62.5 -22t22.5 -57q0 -44 -25.5 -62t-73.5 -18h-150q-16 0 -16 11v26q0 11 16 11h54q17 65 44.5 88t65.5 23zM266 789q23 0 32.5 9t9.5 23t-9 22t-23 8q-15 0 -29.5 -11t-26.5 -51
h46z" />
    <glyph glyph-name="uniFEE0_uniFB51.rlig" unicode="&#xfee0;&#xfb51;" horiz-adv-x="693" 
d="M165 647q0 9 5.5 15t14.5 6h87q9 0 14 -6t5 -15v-423q0 -9 -5.5 -15t-13.5 -6h-88q-8 0 -13.5 6t-5.5 15v423zM47 110q0 8 5 13t14 5h351q9 0 19 1t18.5 4.5t14 10t5.5 18.5v578q0 9 6 15t14 6h91q8 0 13.5 -6t5.5 -15v-595q3 -5 11 -8.5t17.5 -5.5t19 -2.5t16.5 -0.5h25
v-128h-12q-36 0 -72.5 7t-65.5 27q-14 -11 -31 -18t-35 -10.5t-36.5 -4.5t-34.5 -1h-340q-9 0 -14 5t-5 13v92zM276 900q40 0 62.5 -22t22.5 -57q0 -44 -25.5 -62t-73.5 -18h-150q-16 0 -16 11v26q0 11 16 11h54q17 65 44.5 88t65.5 23zM266 789q23 0 32.5 9t9.5 23t-9 22
t-23 8q-15 0 -29.5 -11t-26.5 -51h46z" />
    <glyph glyph-name="uniFEDF_uniFEE0_uniFEEA.rlig" unicode="&#xfedf;&#xfee0;&#xfeea;" horiz-adv-x="1199" 
d="M58 240q0 118 68.5 183.5t200.5 65.5q39 0 79.5 -4t63.5 -11q11 -3 14 -7t3 -12v-274q0 -33 15 -43t48 -10h69q9 0 19 1t19 4.5t14.5 10t5.5 18.5v420q0 8 5.5 14t14.5 6h91q8 0 13.5 -6t5.5 -14v-437q3 -5 11 -8.5t17 -5.5t18.5 -2.5t16.5 -0.5h86q24 0 31.5 4.5
t7.5 28.5v579q0 9 6 15t14 6h91q8 0 13.5 -6t5.5 -15v-581q0 -27 -1 -59.5t-4 -59.5q-2 -10 -6.5 -17t-16.5 -12q-11 -3 -30.5 -5t-42.5 -3.5t-47.5 -2t-44.5 -0.5h-49q-38 0 -77 6.5t-65 27.5q-27 -20 -66 -27t-72 -7h-72q-52 0 -85 13t-50 43q-20 -20 -53.5 -30.5
t-68.5 -10.5h-13q-42 0 -79 11.5t-64.5 36.5t-43.5 64t-16 93v20zM184 244q0 -57 22 -81t68 -24h15q34 0 53 11t19 34v187q-6 1 -22.5 1.5t-25.5 0.5q-61 0 -95 -28.5t-34 -86.5v-14zM681 654q-38 0 -52 22.5t-14 57.5q0 11 0.5 19.5t2.5 19.5q2 14 14 14h23q5 0 9 -4t3 -10
q-1 -13 -1 -21v-16q0 -20 6 -27.5t17 -7.5h4q7 0 15.5 4t8.5 21v45q0 6 4.5 10t9.5 4h23q13 0 13 -14v-45q0 -17 9 -21t14 -4h4q11 0 18 7.5t7 28.5q0 8 -0.5 16t-1.5 20q0 6 4 10.5t10 4.5h22q12 0 14 -15q2 -13 2 -20v-18q0 -36 -15.5 -58.5t-53.5 -22.5h-5q-16 0 -29 5
t-22 17h-4q-7 -12 -22 -17t-32 -5h-5zM715 940q0 5 4 9.5t9 4.5h29q5 0 9 -4.5t4 -9.5v-104q0 -13 -13 -13h-29q-13 0 -13 13v104z" />
    <glyph glyph-name="uni06C2.fina" unicode="&#x6c2;" horiz-adv-x="607" 
d="M194 459q-16 0 -16 12v29q0 10 16 10h19q-8 12 -12 27t-4 30q0 84 100 84q8 0 21.5 -1t25.5 -5q11 -2 11 -10v-27q0 -10 -13 -10h-35q-26 0 -38 -9t-12 -31q0 -17 6 -29.5t15 -17.5h70q16 0 16 -10v-30q0 -12 -16 -12h-154zM349 360q20 0 42 -1t43 -2.5t39 -4t30 -4.5
q8 -2 14.5 -6t6.5 -15v-164q0 -22 9 -28.5t37 -6.5h37v-128h-70q-35 0 -61 5t-43 19t-26 38.5t-9 63.5v105q-8 2 -20 3t-36 1q-51 0 -83 -13t-50 -41.5t-24.5 -74.5t-6.5 -112v-77q0 -19 -18 -19h-86q-11 0 -15 6t-4 14q-1 6 -1.5 21.5t-1 32.5t-0.5 32.5v21.5
q0 175 71.5 254.5t225.5 79.5z" />
    <glyph glyph-name="uni06C3.fina" unicode="&#x6c3;" horiz-adv-x="607" 
d="M126 563q0 10 7 16.5t17 6.5h69q10 0 17.5 -6.5t7.5 -16.5v-78q0 -9 -8 -15.5t-17 -6.5h-69q-10 0 -17 6.5t-7 15.5v78zM311 563q0 10 7.5 16.5t16.5 6.5h70q10 0 16.5 -6.5t6.5 -16.5v-78q0 -9 -6.5 -15.5t-16.5 -6.5h-70q-9 0 -16.5 6.5t-7.5 15.5v78zM349 360
q20 0 42 -1t43 -2.5t39 -4t30 -4.5q8 -2 14.5 -6t6.5 -15v-164q0 -22 9 -28.5t37 -6.5h37v-128h-70q-35 0 -61 5t-43 19t-26 38.5t-9 63.5v105q-8 2 -20 3t-36 1q-51 0 -83 -13t-50 -41.5t-24.5 -74.5t-6.5 -112v-77q0 -19 -18 -19h-86q-11 0 -15 6t-4 14q-1 6 -1.5 21.5
t-1 32.5t-0.5 32.5v21.5q0 175 71.5 254.5t225.5 79.5z" />
    <glyph glyph-name="uniFB50" unicode="&#x671;" horiz-adv-x="292" arabic-form="isolated" 
d="M80 705q0 8 5.5 14t14.5 6h92q8 0 14 -6t6 -14v-684q0 -8 -6 -14.5t-14 -6.5h-92q-9 0 -14.5 6.5t-5.5 14.5v684zM193 956q40 0 62.5 -22t22.5 -57q0 -44 -25.5 -62t-73.5 -18h-150q-16 0 -16 11v26q0 11 16 11h54q17 65 44.5 88t65.5 23zM183 845q23 0 32.5 9t9.5 23
t-9 22t-23 8q-15 0 -29.5 -11t-26.5 -51h46z" />
    <glyph glyph-name="uniFB51" unicode="&#x671;" horiz-adv-x="293" arabic-form="final" 
d="M74 705q0 8 6 14t15 6h89q10 0 14.5 -6t4.5 -14v-526q0 -34 14.5 -42.5t42.5 -8.5h33v-128h-70q-34 0 -61.5 5.5t-47 21t-30 43t-10.5 71.5v564zM183 956q40 0 62.5 -22t22.5 -57q0 -44 -25.5 -62t-73.5 -18h-150q-16 0 -16 11v26q0 11 16 11h54q17 65 44.5 88t65.5 23z
M173 845q23 0 32.5 9t9.5 23t-9 22t-23 8q-15 0 -29.5 -11t-26.5 -51h46z" />
    <glyph glyph-name="uniFB56" unicode="&#x67e;" horiz-adv-x="927" arabic-form="isolated" 
d="M306 -110q0 9 7 16t17 7h69q9 0 17 -7t8 -16v-72q0 -11 -8 -16.5t-17 -5.5h-69q-10 0 -17 5.5t-7 16.5v72zM491 -110q0 9 7.5 16t16.5 7h70q10 0 16.5 -7t6.5 -16v-72q0 -11 -6.5 -16.5t-16.5 -5.5h-70q-10 0 -17 5.5t-7 16.5v72zM399 -262q0 9 7.5 14.5t15.5 5.5h66
q10 0 17 -5.5t7 -14.5v-62q0 -10 -7.5 -15.5t-17.5 -5.5h-66q-8 0 -15 5.5t-7 15.5v62zM687 128q24 0 32 4.5t8 28.5q0 57 0.5 117.5t-0.5 132.5q0 8 5.5 13.5t13.5 5.5h83q11 0 16.5 -5.5t5.5 -13.5q0 -32 0.5 -56t1 -45.5t0.5 -43v-48.5q0 -64 -1 -107.5t-4 -70.5
q-2 -10 -6 -17t-16 -12q-11 -3 -37 -5t-58.5 -3.5t-67 -2t-62.5 -0.5h-220q-100 0 -164.5 19t-102 54.5t-52.5 86.5t-15 116q0 47 10 106q2 11 6 15.5t15 4.5h75q19 0 17 -20q-3 -42 -3 -70q0 -45 9 -79.5t33 -57.5t67.5 -35t112.5 -12h298z" />
    <glyph glyph-name="uniFB57" unicode="&#x67e;" horiz-adv-x="945" arabic-form="final" 
d="M670 128q9 0 19.5 1t19 4.5t14.5 10t6 18.5v249q0 8 6 13.5t14 5.5h87q8 0 13.5 -5.5t5.5 -13.5v-266q3 -5 10.5 -8.5t17 -5.5t19 -2.5t16.5 -0.5h27v-128h-9q-15 0 -34 1t-38.5 4.5t-37.5 10.5t-32 18q-31 -23 -78 -28.5t-108 -5.5h-227q-100 0 -164.5 19t-102 54.5
t-52.5 86.5t-15 116q0 47 10 106q2 11 6 15.5t15 4.5h75q19 0 17 -20q-3 -42 -3 -70q0 -45 9 -79.5t33 -57.5t67.5 -35t112.5 -12h281zM308 -110q0 9 7 16t17 7h69q9 0 17 -7t8 -16v-72q0 -11 -8 -16.5t-17 -5.5h-69q-10 0 -17 5.5t-7 16.5v72zM493 -110q0 9 7.5 16t16.5 7
h70q10 0 16.5 -7t6.5 -16v-72q0 -11 -6.5 -16.5t-16.5 -5.5h-70q-10 0 -17 5.5t-7 16.5v72zM401 -262q0 9 7.5 14.5t15.5 5.5h66q10 0 17 -5.5t7 -14.5v-62q0 -10 -7.5 -15.5t-17.5 -5.5h-66q-8 0 -15 5.5t-7 15.5v62z" />
    <glyph glyph-name="uniFB58" unicode="&#x67e;" horiz-adv-x="296" arabic-form="initial" 
d="M-40 116q0 5 11 8.5t22 3.5h63q24 0 32 4.5t8 28.5v119t-2 134q0 8 5.5 13.5t14.5 5.5h84q11 0 16 -5.5t6 -13.5q1 -32 1.5 -56.5t0.5 -46.5v-44v-49q0 -64 -0.5 -107.5t-3.5 -70.5q-2 -10 -6.5 -17t-16.5 -12q-11 -3 -29.5 -5t-41 -3.5t-46.5 -2t-44 -0.5h-41
q-11 0 -22 3t-11 9v104zM-53 -110q0 9 7 16t17 7h69q9 0 17 -7t8 -16v-72q0 -11 -8 -16.5t-17 -5.5h-69q-10 0 -17 5.5t-7 16.5v72zM132 -110q0 9 7.5 16t16.5 7h70q10 0 16.5 -7t6.5 -16v-72q0 -11 -6.5 -16.5t-16.5 -5.5h-70q-10 0 -17 5.5t-7 16.5v72zM40 -262
q0 9 7.5 14.5t15.5 5.5h66q10 0 17 -5.5t7 -14.5v-62q0 -10 -7.5 -15.5t-17.5 -5.5h-66q-8 0 -15 5.5t-7 15.5v62z" />
    <glyph glyph-name="uniFB59" unicode="&#x67e;" horiz-adv-x="312" arabic-form="medial" 
d="M-40 116q0 5 11 8.5t22 3.5h46q9 0 19 1t18.5 4.5t14.5 10t6 18.5v249q0 8 5.5 13.5t14.5 5.5h87q8 0 13.5 -5.5t5.5 -13.5v-266q3 -5 11 -8.5t18 -5.5t19.5 -2.5t16.5 -0.5h24v-128h-12q-38 0 -77 6.5t-65 27.5q-14 -10 -31 -16.5t-35.5 -10.5t-37 -5.5t-34.5 -1.5h-27
q-11 0 -22 3t-11 9v104zM5 -110q0 9 7 16t17 7h69q9 0 17 -7t8 -16v-72q0 -11 -8 -16.5t-17 -5.5h-69q-10 0 -17 5.5t-7 16.5v72zM190 -110q0 9 7.5 16t16.5 7h70q10 0 16.5 -7t6.5 -16v-72q0 -11 -6.5 -16.5t-16.5 -5.5h-70q-10 0 -17 5.5t-7 16.5v72zM98 -262
q0 9 7.5 14.5t15.5 5.5h66q10 0 17 -5.5t7 -14.5v-62q0 -10 -7.5 -15.5t-17.5 -5.5h-66q-8 0 -15 5.5t-7 15.5v62z" />
    <glyph glyph-name="uniFB66" unicode="&#x679;" horiz-adv-x="927" arabic-form="isolated" 
d="M524 539q4 0 4 5v16q0 23 -14 33t-49 10q-7 0 -25 -0.5t-36 -3.5v-60h120zM310 527q0 12 15 12h21v181q0 6 4.5 9.5t9.5 3.5h31q13 0 13 -13v-71q18 4 38 6t31 2q49 0 80.5 -22t31.5 -73v-14q0 -10 -1 -24.5t-3 -25.5q-2 -9 -10 -10q-7 0 -17.5 -0.5t-21 -0.5h-20h-15.5
h-172q-15 0 -15 12v28zM687 128q24 0 32 4.5t8 28.5q0 57 0.5 117.5t-0.5 132.5q0 8 5.5 13.5t13.5 5.5h83q11 0 16.5 -5.5t5.5 -13.5q0 -32 0.5 -56t1 -45.5t0.5 -43v-48.5q0 -64 -1 -107.5t-4 -70.5q-2 -10 -6 -17t-16 -12q-11 -3 -37 -5t-58.5 -3.5t-67 -2t-62.5 -0.5
h-220q-100 0 -164.5 19t-102 54.5t-52.5 86.5t-15 116q0 47 10 106q2 11 6 15.5t15 4.5h75q19 0 17 -20q-3 -42 -3 -70q0 -45 9 -79.5t33 -57.5t67.5 -35t112.5 -12h298z" />
    <glyph glyph-name="uniFB67" unicode="&#x679;" horiz-adv-x="945" arabic-form="final" 
d="M524 539q4 0 4 5v16q0 23 -14 33t-49 10q-7 0 -25 -0.5t-36 -3.5v-60h120zM310 527q0 12 15 12h21v181q0 6 4.5 9.5t9.5 3.5h31q13 0 13 -13v-71q18 4 38 6t31 2q49 0 80.5 -22t31.5 -73v-14q0 -10 -1 -24.5t-3 -25.5q-2 -9 -10 -10q-7 0 -17.5 -0.5t-21 -0.5h-20h-15.5
h-172q-15 0 -15 12v28zM670 128q9 0 19.5 1t19 4.5t14.5 10t6 18.5v249q0 8 6 13.5t14 5.5h87q8 0 13.5 -5.5t5.5 -13.5v-266q3 -5 10.5 -8.5t17 -5.5t19 -2.5t16.5 -0.5h27v-128h-9q-15 0 -34 1t-38.5 4.5t-37.5 10.5t-32 18q-31 -23 -78 -28.5t-108 -5.5h-227
q-100 0 -164.5 19t-102 54.5t-52.5 86.5t-15 116q0 47 10 106q2 11 6 15.5t15 4.5h75q19 0 17 -20q-3 -42 -3 -70q0 -45 9 -79.5t33 -57.5t67.5 -35t112.5 -12h281z" />
    <glyph glyph-name="uniFB68" unicode="&#x679;" horiz-adv-x="296" arabic-form="initial" 
d="M228 591q4 0 4 5v16q0 23 -14 33t-49 10q-7 0 -25 -0.5t-36 -3.5v-60h120zM14 579q0 12 15 12h21v181q0 6 4.5 9.5t9.5 3.5h31q13 0 13 -13v-71q18 4 38 6t31 2q49 0 80.5 -22t31.5 -73v-14q0 -10 -1 -24.5t-3 -25.5q-2 -9 -10 -10q-7 0 -17.5 -0.5t-21 -0.5h-20h-15.5
h-172q-15 0 -15 12v28zM-40 116q0 5 11 8.5t22 3.5h63q24 0 32 4.5t8 28.5v119t-2 134q0 8 5.5 13.5t14.5 5.5h84q11 0 16 -5.5t6 -13.5q1 -32 1.5 -56.5t0.5 -46.5v-44v-49q0 -64 -0.5 -107.5t-3.5 -70.5q-2 -10 -6.5 -17t-16.5 -12q-11 -3 -29.5 -5t-41 -3.5t-46.5 -2
t-44 -0.5h-41q-11 0 -22 3t-11 9v104z" />
    <glyph glyph-name="uniFB69" unicode="&#x679;" horiz-adv-x="312" arabic-form="medial" 
d="M-40 116q0 5 11 8.5t22 3.5h46q9 0 19 1t18.5 4.5t14.5 10t6 18.5v249q0 8 5.5 13.5t14.5 5.5h87q8 0 13.5 -5.5t5.5 -13.5v-266q3 -5 11 -8.5t18 -5.5t19.5 -2.5t16.5 -0.5h24v-128h-12q-38 0 -77 6.5t-65 27.5q-14 -10 -31 -16.5t-35.5 -10.5t-37 -5.5t-34.5 -1.5h-27
q-11 0 -22 3t-11 9v104zM232 591q4 0 4 5v16q0 23 -14 33t-49 10q-7 0 -25 -0.5t-36 -3.5v-60h120zM18 579q0 12 15 12h21v181q0 6 4.5 9.5t9.5 3.5h31q13 0 13 -13v-71q18 4 38 6t31 2q49 0 80.5 -22t31.5 -73v-14q0 -10 -1 -24.5t-3 -25.5q-2 -9 -10 -10q-7 0 -17.5 -0.5
t-21 -0.5h-20h-15.5h-172q-15 0 -15 12v28z" />
    <glyph glyph-name="uniFB6A" unicode="&#x6a4;" horiz-adv-x="1057" arabic-form="isolated" 
d="M628 676q0 10 7 16t17 6h69q10 0 17.5 -6t7.5 -16v-73q0 -8 -8 -14.5t-17 -6.5h-69q-10 0 -17 6.5t-7 14.5v73zM813 676q0 10 7.5 16t16.5 6h70q10 0 16.5 -6t6.5 -16v-73q0 -8 -6.5 -14.5t-16.5 -6.5h-70q-9 0 -16.5 6.5t-7.5 14.5v73zM725 818q0 9 7.5 15.5t15.5 6.5
h66q10 0 17 -6.5t7 -15.5v-61q0 -9 -7.5 -15t-17.5 -6h-66q-8 0 -15 6t-7 15v61zM588 128q-40 37 -40 125v18q0 54 18.5 95.5t52 69.5t81 42.5t105.5 14.5q21 0 44 -1t44.5 -3.5t40.5 -5.5t32 -6q11 -3 14 -7.5t3 -12.5v-266v-39.5t-0.5 -43.5t-1.5 -44t-3 -41
q-1 -17 -23 -19q-43 -2 -83.5 -3t-78.5 -1h-408q-98 0 -163 18t-103.5 53.5t-54 87t-15.5 117.5q0 25 2.5 50.5t9.5 54.5q2 11 6 16t13 5h76q19 0 17 -20q-2 -21 -2 -38v-32q0 -47 9.5 -81.5t34 -57t67.5 -34t111 -11.5h195zM674 247q0 -60 25 -91.5t82 -31.5q16 0 39 0.5
t37 2.5v249q-30 3 -64 3q-60 0 -89.5 -29.5t-29.5 -85.5v-17z" />
    <glyph glyph-name="uniFB6B" unicode="&#x6a4;" horiz-adv-x="1071" arabic-form="final" 
d="M589 128q-41 37 -41 125v17q0 54 18.5 96t52 70t81 42.5t105.5 14.5q21 0 44 -1t45 -3.5t41 -5.5t31 -6q11 -3 14 -7.5t3 -12.5v-329h88v-128h-681q-100 0 -166 18t-105 53.5t-54.5 87t-15.5 117.5q0 25 2.5 50t9.5 55q2 11 6 16t13 5h76q19 0 17 -20q-2 -21 -2 -38v-32
q0 -47 9.5 -81.5t34.5 -57t69 -34t113 -11.5h192zM857 124v252q-30 3 -64 3q-119 0 -119 -115v-16q0 -60 25 -92t82 -32h76zM628 676q0 10 7 16t17 6h69q10 0 17.5 -6t7.5 -16v-73q0 -8 -8 -14.5t-17 -6.5h-69q-10 0 -17 6.5t-7 14.5v73zM813 676q0 10 7.5 16t16.5 6h70
q10 0 16.5 -6t6.5 -16v-73q0 -8 -6.5 -14.5t-16.5 -6.5h-70q-9 0 -16.5 6.5t-7.5 14.5v73zM725 818q0 9 7.5 15.5t15.5 6.5h66q10 0 17 -6.5t7 -15.5v-61q0 -9 -7.5 -15t-17.5 -6h-66q-8 0 -15 6t-7 15v61z" />
    <glyph glyph-name="uniFB6C" unicode="&#x6a4;" horiz-adv-x="574" arabic-form="initial" 
d="M190 245q0 -59 26 -90t81 -31q16 0 39.5 0.5t37.5 2.5v249q-30 3 -66 3q-118 0 -118 -115v-19zM-40 116q0 5 11 8.5t22 3.5h111q-40 37 -40 121v19q0 55 18.5 97.5t52 70.5t81 42.5t105.5 14.5q21 0 44 -1t45 -3.5t41 -5.5t31 -6q11 -3 14.5 -7.5t3.5 -12.5v-266
q0 -36 -1 -83t-4 -85q-1 -10 -7.5 -14t-16.5 -5q-42 -2 -81.5 -3t-79.5 -1h-317q-11 0 -22 3t-11 9v104zM144 676q0 10 7 16t17 6h69q10 0 17.5 -6t7.5 -16v-73q0 -8 -8 -14.5t-17 -6.5h-69q-10 0 -17 6.5t-7 14.5v73zM329 676q0 10 7.5 16t16.5 6h70q10 0 16.5 -6t6.5 -16
v-73q0 -8 -6.5 -14.5t-16.5 -6.5h-70q-9 0 -16.5 6.5t-7.5 14.5v73zM241 818q0 9 7.5 15.5t15.5 6.5h66q10 0 17 -6.5t7 -15.5v-61q0 -9 -7.5 -15t-17.5 -6h-66q-8 0 -15 6t-7 15v61z" />
    <glyph glyph-name="uniFB6D" unicode="&#x6a4;" horiz-adv-x="587" arabic-form="medial" 
d="M150 676q0 10 7 16t17 6h69q10 0 17.5 -6t7.5 -16v-73q0 -8 -8 -14.5t-17 -6.5h-69q-10 0 -17 6.5t-7 14.5v73zM335 676q0 10 7.5 16t16.5 6h70q10 0 16.5 -6t6.5 -16v-73q0 -8 -6.5 -14.5t-16.5 -6.5h-70q-9 0 -16.5 6.5t-7.5 14.5v73zM247 818q0 9 7.5 15.5t15.5 6.5
h66q10 0 17 -6.5t7 -15.5v-61q0 -9 -7.5 -15t-17.5 -6h-66q-8 0 -15 6t-7 15v61zM-40 116q0 5 11 8.5t22 3.5h111q-19 18 -29.5 48.5t-10.5 73.5v19q0 55 18.5 97t52.5 70t81.5 42.5t105.5 14.5q21 0 44 -1t44.5 -3.5t40.5 -5.5t32 -6q11 -3 14 -7.5t3 -12.5v-329h87v-128
h-594q-11 0 -22 3t-11 9v104zM374 124v252q-30 3 -65 3q-119 0 -119 -116v-18q0 -59 25.5 -90t82.5 -31h76z" />
    <glyph glyph-name="uniFB7A" unicode="&#x686;" horiz-adv-x="651" arabic-form="isolated" 
d="M52 -9q0 13 0.5 29t2 31.5t3.5 28.5t5 22q4 10 8 15t15 6q6 1 18 1.5t26.5 0.5h29.5h26h272l-29 66l-19 41q-15 31 -33.5 56.5t-44 43.5t-60.5 27.5t-82 9.5q-15 0 -29.5 -0.5t-34.5 -1.5q-21 -3 -21 16v74q0 14 20 19q25 5 47 7t47 2q56 0 103.5 -11.5t88 -39.5
t75.5 -74.5t65 -115.5l11 -24q3 -8 8.5 -21.5t11.5 -27.5t12 -26.5t9 -19.5q7 -13 7 -33v-69q0 -23 -26 -23h-337h-14t-19.5 -0.5t-20 -1t-15.5 -0.5q-1 -9 -1 -16v-12q0 -53 12.5 -79.5t31.5 -38.5q3 -2 9 -5t14 -6q7 -3 11 -7.5t4 -12.5v-68q0 -10 -6.5 -13t-20.5 -3
q-29 0 -64.5 12.5t-65.5 48.5q-26 31 -38 78.5t-12 114.5zM286 -75q0 9 6.5 15t14.5 6h62q9 0 16 -6t7 -15v-61q0 -10 -7 -15.5t-16 -5.5h-62q-8 0 -14.5 5.5t-6.5 15.5v61zM451 -75q0 9 7 15t15 6h63q8 0 15 -6t7 -15v-61q0 -10 -7 -15.5t-15 -5.5h-63q-9 0 -15.5 5.5
t-6.5 15.5v61zM367 -210q0 8 7 14t15 6h65q8 0 14.5 -6t6.5 -14v-58q0 -8 -6.5 -13.5t-14.5 -5.5h-65q-9 0 -15.5 5.5t-6.5 13.5v58z" />
    <glyph glyph-name="uniFB7B" unicode="&#x686;" horiz-adv-x="633" arabic-form="final" 
d="M52 -9q0 13 0.5 29t2 31.5t3.5 28.5t5 22q4 10 8 15t15 6q6 1 18 1.5t26.5 0.5h29.5h26h272l-29 66l-19 41q-15 31 -33.5 56.5t-44 43.5t-60.5 27.5t-82 9.5q-15 0 -29.5 -0.5t-34.5 -1.5q-21 -3 -21 16v74q0 14 20 19q25 5 47 7t47 2q56 0 103.5 -11.5t88 -39
t74.5 -73.5t64 -114l13 -28q3 -7 7.5 -18t9.5 -23t9.5 -22.5t7.5 -14.5q5 -8 10 -10.5t13 -2.5h14v-128h-386q-14 0 -34.5 -0.5t-34.5 -1.5q-1 -9 -1 -16v-12q0 -53 12.5 -79.5t31.5 -38.5q3 -2 12 -6t11 -5q7 -3 11 -7.5t4 -12.5v-68q0 -10 -6.5 -13t-20.5 -3
q-29 0 -64.5 12.5t-65.5 48.5q-26 31 -38 78.5t-12 114.5zM286 -75q0 9 6.5 15t14.5 6h62q9 0 16 -6t7 -15v-61q0 -10 -7 -15.5t-16 -5.5h-62q-8 0 -14.5 5.5t-6.5 15.5v61zM451 -75q0 9 7 15t15 6h63q8 0 15 -6t7 -15v-61q0 -10 -7 -15.5t-15 -5.5h-63q-9 0 -15.5 5.5
t-6.5 15.5v61zM367 -210q0 8 7 14t15 6h65q8 0 14.5 -6t6.5 -14v-58q0 -8 -6.5 -13.5t-14.5 -5.5h-65q-9 0 -15.5 5.5t-6.5 13.5v58z" />
    <glyph glyph-name="uniFB7C" unicode="&#x686;" horiz-adv-x="607" arabic-form="initial" 
d="M-40 116q0 5 11 8.5t22 3.5h425l-27 62l-20 42q-29 63 -84 100t-150 37q-7 0 -25 -0.5t-29 -1.5q-21 -2 -21 16v74q0 14 20 19q49 9 98 9q55 0 102 -11.5t87.5 -39t75.5 -73t65 -113.5l13 -28l38 -93q6 -14 6 -35v-69q0 -23 -26 -23h-548q-12 0 -22.5 3.5t-10.5 8.5v104z
M118 -110q0 9 7 16t17 7h69q9 0 17 -7t8 -16v-72q0 -11 -8 -16.5t-17 -5.5h-69q-10 0 -17 5.5t-7 16.5v72zM303 -110q0 9 7.5 16t16.5 7h70q10 0 16.5 -7t6.5 -16v-72q0 -11 -6.5 -16.5t-16.5 -5.5h-70q-10 0 -17 5.5t-7 16.5v72zM211 -262q0 9 7.5 14.5t15.5 5.5h66
q10 0 17 -5.5t7 -14.5v-62q0 -10 -7.5 -15.5t-17.5 -5.5h-66q-8 0 -15 5.5t-7 15.5v62z" />
    <glyph glyph-name="uniFB7D" unicode="&#x686;" horiz-adv-x="591" arabic-form="medial" 
d="M-7 0q-12 0 -22.5 4t-10.5 8v104q0 5 11 8.5t22 3.5h425l-27 62l-20 42q-29 64 -84 100.5t-150 36.5q-7 0 -25 -0.5t-29 -1.5q-21 -2 -21 16v74q0 15 20 19q25 5 48.5 7t49.5 2q55 0 102 -11.5t88 -39t76 -73t65 -113.5l13 -28q3 -8 8 -19.5l10 -23t9 -21.5t7 -14
q5 -8 10 -11t13 -3h10v-128h-598zM118 -110q0 9 7 16t17 7h69q9 0 17 -7t8 -16v-72q0 -11 -8 -16.5t-17 -5.5h-69q-10 0 -17 5.5t-7 16.5v72zM303 -110q0 9 7.5 16t16.5 7h70q10 0 16.5 -7t6.5 -16v-72q0 -11 -6.5 -16.5t-16.5 -5.5h-70q-10 0 -17 5.5t-7 16.5v72zM211 -262
q0 9 7.5 14.5t15.5 5.5h66q10 0 17 -5.5t7 -14.5v-62q0 -10 -7.5 -15.5t-17.5 -5.5h-66q-8 0 -15 5.5t-7 15.5v62z" />
    <glyph glyph-name="uniFB88" unicode="&#x688;" horiz-adv-x="507" arabic-form="isolated" 
d="M47 110q0 8 6 13t14 5h261l-2 91q-2 37 -11.5 65.5t-30 48.5t-53 30.5t-79.5 10.5h-12h-17t-18 -0.5t-15 -1.5q-19 0 -19 15v74q0 8 4.5 13.5t15.5 7.5q28 5 56 6t42 1q74 0 123.5 -22t79 -59t43 -85.5t15.5 -101.5q0 -8 0.5 -23t1 -33t0.5 -35.5v-28.5q0 -14 -0.5 -39
t-2.5 -43q0 -8 -5.5 -13.5t-16.5 -5.5h-360q-8 0 -14 5t-6 13v92zM312 644q4 0 4 5v16q0 23 -14 33t-49 10q-7 0 -25 -0.5t-36 -3.5v-60h120zM98 632q0 12 15 12h21v181q0 6 4.5 9.5t9.5 3.5h31q13 0 13 -13v-71q18 4 38 6t31 2q49 0 80.5 -22t31.5 -73v-14q0 -10 -1 -24.5
t-3 -25.5q-2 -9 -10 -10q-7 0 -17.5 -0.5t-21 -0.5h-20h-15.5h-172q-15 0 -15 12v28z" />
    <glyph glyph-name="uniFB89" unicode="&#x688;" horiz-adv-x="514" arabic-form="final" 
d="M312 644q4 0 4 5v16q0 23 -14 33t-49 10q-7 0 -25 -0.5t-36 -3.5v-60h120zM98 632q0 12 15 12h21v181q0 6 4.5 9.5t9.5 3.5h31q13 0 13 -13v-71q18 4 38 6t31 2q49 0 80.5 -22t31.5 -73v-14q0 -10 -1 -24.5t-3 -25.5q-2 -9 -10 -10q-7 0 -17.5 -0.5t-21 -0.5h-20h-15.5
h-172q-15 0 -15 12v28zM47 110q0 8 6 13t14 5h261l-2 91q-2 37 -11.5 65.5t-29.5 48.5t-52.5 30.5t-78.5 10.5h-12h-17.5t-19 -0.5t-15.5 -1.5q-19 0 -19 15v74q0 8 4.5 14t15.5 7q28 5 56 6t42 1q73 0 122.5 -22t79.5 -59t43.5 -85.5t15.5 -101.5l1 -93h63v-128h-447
q-8 0 -14 5t-6 13v92z" />
    <glyph glyph-name="uniFB8A" unicode="&#x698;" horiz-adv-x="303" arabic-form="isolated" 
d="M12 635q0 10 7 16t17 6h69q10 0 17.5 -6t7.5 -16v-73q0 -8 -8 -14.5t-17 -6.5h-69q-10 0 -17 6.5t-7 14.5v73zM197 635q0 10 7.5 16t16.5 6h70q10 0 16.5 -6t6.5 -16v-73q0 -8 -6.5 -14.5t-16.5 -6.5h-70q-9 0 -16.5 6.5t-7.5 14.5v73zM109 777q0 9 7.5 15.5t15.5 6.5h66
q10 0 17 -6.5t7 -15.5v-61q0 -9 -7.5 -15t-17.5 -6h-66q-8 0 -15 6t-7 15v61zM-37 -142q0 15 17 15h21q28 0 47.5 2.5t31.5 11.5t17.5 26.5t5.5 48.5v449q0 8 5.5 13.5t14.5 5.5h87q8 0 13.5 -5.5t5.5 -13.5v-434q0 -38 -4 -73t-19 -64q-23 -43 -63 -60.5t-103 -17.5
q-8 0 -29 0.5t-34 2.5q-14 3 -14 19v74z" />
    <glyph glyph-name="uniFB8B" unicode="&#x698;" horiz-adv-x="318" arabic-form="final" 
d="M12 635q0 10 7 16t17 6h69q10 0 17.5 -6t7.5 -16v-73q0 -8 -8 -14.5t-17 -6.5h-69q-10 0 -17 6.5t-7 14.5v73zM197 635q0 10 7.5 16t16.5 6h70q10 0 16.5 -6t6.5 -16v-73q0 -8 -6.5 -14.5t-16.5 -6.5h-70q-9 0 -16.5 6.5t-7.5 14.5v73zM109 777q0 9 7.5 15.5t15.5 6.5h66
q10 0 17 -6.5t7 -15.5v-61q0 -9 -7.5 -15t-17.5 -6h-66q-8 0 -15 6t-7 15v61zM-37 -142q0 15 17 15h21q28 0 47.5 2.5t31.5 11.5t17.5 26.5t5.5 48.5v449q0 8 5.5 13.5t14.5 5.5h87q8 0 13.5 -5.5t5.5 -13.5v-283h89v-128h-92v-47q0 -34 -4.5 -63t-15.5 -50
q-23 -43 -63 -60.5t-103 -17.5q-8 0 -29 0.5t-34 2.5q-14 3 -14 19v74z" />
    <glyph glyph-name="uniFB8C" unicode="&#x691;" horiz-adv-x="303" arabic-form="isolated" 
d="M238 596q4 0 4 5v16q0 23 -14 33t-49 10q-7 0 -25 -0.5t-36 -3.5v-60h120zM24 584q0 12 15 12h21v181q0 6 4.5 9.5t9.5 3.5h31q13 0 13 -13v-71q18 4 38 6t31 2q49 0 80.5 -22t31.5 -73v-14q0 -10 -1 -24.5t-3 -25.5q-2 -9 -10 -10q-7 0 -17.5 -0.5t-21 -0.5h-20h-15.5
h-172q-15 0 -15 12v28zM-37 -142q0 15 17 15h21q28 0 47.5 2.5t31.5 11.5t17.5 26.5t5.5 48.5v449q0 8 5.5 13.5t14.5 5.5h87q8 0 13.5 -5.5t5.5 -13.5v-434q0 -38 -4 -73t-19 -64q-23 -43 -63 -60.5t-103 -17.5q-8 0 -29 0.5t-34 2.5q-14 3 -14 19v74z" />
    <glyph glyph-name="uniFB8D" unicode="&#x691;" horiz-adv-x="318" arabic-form="final" 
d="M238 596q4 0 4 5v16q0 23 -14 33t-49 10q-7 0 -25 -0.5t-36 -3.5v-60h120zM24 584q0 12 15 12h21v181q0 6 4.5 9.5t9.5 3.5h31q13 0 13 -13v-71q18 4 38 6t31 2q49 0 80.5 -22t31.5 -73v-14q0 -10 -1 -24.5t-3 -25.5q-2 -9 -10 -10q-7 0 -17.5 -0.5t-21 -0.5h-20h-15.5
h-172q-15 0 -15 12v28zM-37 -142q0 15 17 15h21q28 0 47.5 2.5t31.5 11.5t17.5 26.5t5.5 48.5v449q0 8 5.5 13.5t14.5 5.5h87q8 0 13.5 -5.5t5.5 -13.5v-283h89v-128h-92v-47q0 -34 -4.5 -63t-15.5 -50q-23 -43 -63 -60.5t-103 -17.5q-8 0 -29 0.5t-34 2.5q-14 3 -14 19v74z
" />
    <glyph glyph-name="uniFB8E" unicode="&#x6a9;" horiz-adv-x="955" arabic-form="isolated" 
d="M39 215q0 10 2 29.5t5 34.5q3 11 7 15.5t13 4.5h75q19 0 17 -20q0 -11 -0.5 -20.5t-0.5 -14.5q0 -33 9.5 -55.5t30.5 -36t55 -19t82 -5.5h290h26h41t41.5 0.5t27.5 1.5q1 17 1 35.5v34.5q0 44 -13 73.5t-38.5 47.5t-62 26t-83.5 8h-201q-12 0 -17 4.5t-7 13.5q0 1 -0.5 6
t-0.5 10.5v10v5.5q0 25 4 48t12 46t20 48t28 54l76 140q5 8 11 14t17 6h89q8 0 11.5 -3.5t3.5 -8.5t-3 -11l-94 -179q-6 -11 -11.5 -24t-10.5 -25t-8.5 -22.5t-3.5 -14.5q35 2 59.5 3t42.5 1q84 0 143 -17.5t96 -53.5t54 -90t17 -127v-32q0 -13 -0.5 -31.5t-1.5 -37.5
t-2.5 -36t-3.5 -28q-2 -8 -6.5 -13t-15.5 -6q-48 -3 -107.5 -4t-113.5 -1h-328q-80 0 -132.5 14t-84 41.5t-44 67.5t-12.5 92z" />
    <glyph glyph-name="uniFB8F" unicode="&#x6a9;" horiz-adv-x="964" arabic-form="final" 
d="M39 215q0 10 2 29.5t5 34.5q3 11 7 15.5t13 4.5h75q19 0 17 -20q0 -11 -0.5 -20.5t-0.5 -14.5q0 -33 9.5 -55.5t30.5 -36t55 -19t82 -5.5h426q1 16 1 35.5v35.5q0 44 -13 74t-38.5 48t-62 26t-83.5 8h-201q-12 0 -17 4.5t-7 13.5q0 1 -0.5 6t-0.5 10v9.5v5.5q0 25 4 48
t12 46t20 48t28 54l76 141q5 8 11 14t17 6h89q8 0 11.5 -3.5t3.5 -8.5t-3 -11l-94 -179q-6 -11 -11.5 -23.5t-10.5 -25t-8.5 -22.5t-3.5 -15q32 2 58.5 3t43.5 1q155 0 231.5 -66.5t78.5 -194.5v-13v-17t-0.5 -20.5t-1 -20.5t-0.5 -17h75v-128h-652q-80 0 -132.5 14
t-84 41.5t-44 67.5t-12.5 92z" />
    <glyph glyph-name="uniFB90" unicode="&#x6a9;" horiz-adv-x="700" arabic-form="initial" 
d="M-40 110q0 8 10 13t23 5h378h25.5h40t40.5 0.5t27 1.5q1 17 1.5 35.5t0.5 34.5q0 44 -13.5 73.5t-39 47.5t-62 26t-83.5 8h-213q-22 0 -23 16q0 2 -0.5 7t-1 10.5t-0.5 10.5v6q0 25 4 48t12.5 46t20.5 48t28 54l75 140q5 8 11.5 14t16.5 6h90q8 0 11 -3.5t3 -8.5t-3 -11
l-94 -179q-6 -11 -12 -24t-11 -25t-8.5 -22.5t-3.5 -14.5q43 2 68.5 3t46.5 1q85 0 144 -19t96 -56t54 -92.5t17 -127.5v-25q0 -11 -0.5 -29t-1.5 -37.5t-2.5 -37.5t-2.5 -29q-3 -18 -24 -19q-17 -2 -43 -2.5t-57 -1.5t-62.5 -1h-58.5h-391q-13 0 -23 5t-10 13v92z" />
    <glyph glyph-name="uniFB91" unicode="&#x6a9;" horiz-adv-x="709" arabic-form="medial" 
d="M-40 110q0 8 10 13t23 5h510q1 16 1.5 36t0.5 36q0 44 -13 73.5t-38.5 47.5t-62 26t-83.5 8h-213q-22 0 -23 16q0 2 -0.5 7t-1 10.5t-0.5 10v5.5q0 25 4 48t12.5 46t20.5 48t28 54l75 141q5 8 11.5 14t16.5 6h90q8 0 11 -3.5t3 -8.5t-3 -11l-94 -178q-6 -11 -12 -24
t-11 -25.5t-8.5 -22.5t-3.5 -15q41 2 69 3t49 1q155 0 230 -66.5t77 -194.5v-13v-17v-20.5t-0.5 -20.5t-0.5 -17h75v-128h-716q-13 0 -23 5t-10 13v92z" />
    <glyph glyph-name="uniFB92" unicode="&#x6af;" horiz-adv-x="953" arabic-form="isolated" 
d="M39 215q0 10 2 29.5t5 34.5q3 11 7 15.5t13 4.5h75q19 0 17 -20q0 -11 -0.5 -20.5t-0.5 -14.5q0 -33 9.5 -55.5t30.5 -36t55 -19t82 -5.5h286h26.5h42t42 0.5t26.5 1.5q2 17 2 35.5v34.5q0 44 -13.5 73.5t-39 47.5t-62 26t-83.5 8h-187q-16 0 -19 15q-2 6 -3 11.5t-1 9.5
q-1 4 -1.5 8.5t0.5 7.5q2 8 6.5 19t14.5 28l154 287q5 8 11.5 14t17.5 6h75q7 0 10 -3.5t3 -8.5t-3 -11l-94 -178l-46 -87q29 2 46 3t33 1q85 0 144 -17.5t96 -53.5t54 -90t17 -127v-32q0 -11 -0.5 -29t-1.5 -37.5t-2.5 -37.5t-2.5 -29q-3 -18 -23 -19q-49 -3 -108 -4
t-114 -1h-325q-80 0 -132.5 14t-84 41.5t-44 67.5t-12.5 92zM303 529q-2 10 -2 14q0 6 1.5 10.5t4.5 11.5l96 177q5 8 10.5 13.5t16.5 5.5h31q8 0 11 -3.5t3 -8.5t-3 -11l-139 -259q-4 -7 -10 -7q-7 0 -10 9z" />
    <glyph glyph-name="uniFB93" unicode="&#x6af;" horiz-adv-x="962" arabic-form="final" 
d="M39 215q0 10 2 29.5t5 34.5q3 11 7 15.5t13 4.5h75q19 0 17 -20q0 -11 -0.5 -20.5t-0.5 -14.5q0 -33 9.5 -55.5t30.5 -36t55 -19t82 -5.5h422q2 16 2 35v36q0 44 -13 74t-38.5 48t-62 26t-83.5 8h-187q-16 0 -19 15q-2 6 -3 11.5t-1 9.5q-1 4 -1.5 8.5t0.5 7.5
q2 8 6.5 19t14.5 28l154 287q5 8 11.5 14t17.5 6h75q7 0 10 -3.5t3 -8.5t-3 -11l-94 -178l-46 -87q29 2 46.5 3t33.5 1q155 0 231.5 -66.5t77.5 -194.5v-13v-17v-20.5t-0.5 -20.5t-0.5 -17h75v-128h-650q-80 0 -132.5 14t-84 41.5t-44 67.5t-12.5 92zM303 529q-2 10 -2 14
q0 6 1.5 10.5t4.5 11.5l96 177q5 8 10.5 13.5t16.5 5.5h31q8 0 11 -3.5t3 -8.5t-3 -11l-139 -259q-4 -7 -10 -7q-7 0 -10 9z" />
    <glyph glyph-name="uniFB94" unicode="&#x6af;" horiz-adv-x="757" arabic-form="initial" 
d="M-7 0q-13 0 -23 5t-10 13v92q0 8 10 13t23 5h432h26.5h41.5t41.5 0.5t26.5 1.5q1 17 1.5 35.5t0.5 34.5q0 44 -13 73.5t-38.5 47.5t-62 26t-82.5 8h-203q-17 0 -20 15l-4 21q-2 8 0 17q3 14 21 45l154 288q5 8 11 14t17 6h75q7 0 10 -3.5t3 -8.5t-3 -11l-94 -179
q-6 -11 -12.5 -23.5t-13 -24.5t-11.5 -22l-8 -16q36 2 60 3t38 1q85 0 143.5 -18.5t94.5 -54.5t52 -90t16 -125v-32q0 -13 -0.5 -31.5t-2 -37.5t-3 -36t-3.5 -28q-3 -18 -23 -19q-48 -3 -107 -4t-113 -1h-448zM93 529q-2 10 -2 14q0 6 1 10.5t5 11.5l96 177q5 8 10.5 13.5
t15.5 5.5h31q8 0 11.5 -3.5t3.5 -8.5t-3 -11l-139 -259q-4 -7 -10 -7q-8 0 -9 9z" />
    <glyph glyph-name="uniFB95" unicode="&#x6af;" horiz-adv-x="765" arabic-form="medial" 
d="M-40 110q0 8 10 13t23 5h567q2 16 2.5 36t0.5 36q0 44 -13 73.5t-38.5 47.5t-62 26t-82.5 8h-204q-16 0 -19 15q-2 6 -3 11.5t-1 9.5q-1 4 -1.5 8.5t0.5 7.5q2 8 6.5 18.5t14.5 27.5l155 288q5 8 11 14t17 6h75q7 0 10 -3.5t3 -8.5t-3 -11l-94 -178l-46 -87q35 2 60 3
t39 1q155 0 229.5 -66.5t76.5 -194.5v-13v-17t-0.5 -20.5t-1 -20.5t-1.5 -17h75v-128h-772q-13 0 -23 5t-10 13v92zM92 529q-2 10 -2 14q0 6 1.5 10.5t4.5 11.5l96 177q5 8 10.5 13.5t16.5 5.5h31q8 0 11 -3.5t3 -8.5t-3 -11l-139 -259q-4 -7 -10 -7t-9 9z" />
    <glyph glyph-name="uniFB9E" unicode="&#x6ba;" horiz-adv-x="655" arabic-form="isolated" 
d="M156 298q19 0 17 -19q-2 -22 -3 -47t-1 -39q0 -56 7.5 -101t30 -76.5t64 -48.5t108.5 -17q19 0 35.5 1t39.5 4q1 49 1 85.5v78.5v292q0 8 6 13.5t14 5.5h87q8 0 13.5 -5.5t5.5 -13.5v-387q0 -36 -0.5 -80.5t-2.5 -79.5q0 -18 -22 -22q-43 -11 -87.5 -15t-91.5 -4
q-169 0 -249.5 75t-80.5 238q0 10 1 28t2.5 38.5t4 40.5t5.5 35q2 11 6 15.5t15 4.5h75z" />
    <glyph glyph-name="uniFB9F" unicode="&#x6ba;" horiz-adv-x="670" arabic-form="final" 
d="M156 298q19 0 17 -19q-2 -22 -3 -47t-1 -39q0 -56 7.5 -101t30 -76.5t64 -48.5t108.5 -17q19 0 35.5 1t39.5 4q1 49 1 86v78v292q0 8 6 13.5t14 5.5h87q9 0 14 -5.5t5 -13.5v-283h89v-128h-89v-70.5t-2 -65.5q0 -17 -21 -22q-43 -11 -88.5 -15t-92.5 -4q-169 0 -249.5 75
t-80.5 238q0 10 1 28t2.5 38.5t4 40.5t5.5 35q2 11 6 15.5t15 4.5h75z" />
    <glyph glyph-name="uniFBA4" unicode="&#x6c0;" horiz-adv-x="558" arabic-form="isolated" 
d="M55 240q0 118 65.5 182.5t197.5 64.5q20 0 41.5 -1.5t41.5 -3.5t37.5 -5t28.5 -7t14 -7.5t3 -11.5v-275q0 -33 -0.5 -74t-4.5 -78q0 -11 -6 -15t-16 -5q-43 -2 -78.5 -3t-68.5 -1h-20q-114 0 -174.5 55.5t-60.5 164.5v20zM181 236q0 -57 25 -84.5t82 -27.5h35.5t34.5 1
v243q-14 2 -26 2.5t-31 0.5q-61 0 -90.5 -32t-29.5 -90v-13zM200 583q-16 0 -16 12v29q0 10 16 10h19q-8 12 -12 27t-4 30q0 84 100 84q8 0 21.5 -1t25.5 -5q11 -2 11 -10v-27q0 -10 -13 -10h-35q-26 0 -38 -9t-12 -31q0 -17 6 -29.5t15 -17.5h70q16 0 16 -10v-30
q0 -12 -16 -12h-154z" />
    <glyph glyph-name="uniFBA5" unicode="&#x6c0;" horiz-adv-x="574" arabic-form="final" 
d="M55 240q0 118 68.5 183.5t200.5 65.5q39 0 79.5 -4t63.5 -11q11 -3 14 -7t3 -12v-274q0 -33 15 -43t48 -10h27v-128h-46q-52 0 -85 13t-50 43q-20 -20 -53.5 -30.5t-68.5 -10.5h-13q-42 0 -79 11.5t-64.5 36.5t-43.5 64t-16 93v20zM181 244q0 -57 22 -81t68 -24h15
q34 0 53 11t19 34v187q-6 1 -22.5 1.5t-25.5 0.5q-61 0 -95 -28.5t-34 -86.5v-14zM200 583q-16 0 -16 12v29q0 10 16 10h19q-8 12 -12 27t-4 30q0 84 100 84q8 0 21.5 -1t25.5 -5q11 -2 11 -10v-27q0 -10 -13 -10h-35q-26 0 -38 -9t-12 -31q0 -17 6 -29.5t15 -17.5h70
q16 0 16 -10v-30q0 -12 -16 -12h-154z" />
    <glyph glyph-name="uniFBA6" unicode="&#x6c1;" horiz-adv-x="558" arabic-form="isolated" 
d="M55 240q0 118 65.5 182.5t197.5 64.5q20 0 41.5 -1.5t41.5 -3.5t37.5 -5t28.5 -7t14 -7.5t3 -11.5v-275q0 -33 -0.5 -74t-4.5 -78q0 -11 -6 -15t-16 -5q-43 -2 -78.5 -3t-68.5 -1h-20q-114 0 -174.5 55.5t-60.5 164.5v20zM181 236q0 -57 25 -84.5t82 -27.5h35.5t34.5 1
v243q-14 2 -26 2.5t-31 0.5q-61 0 -90.5 -32t-29.5 -90v-13z" />
    <glyph glyph-name="uniFBA7" unicode="&#x6c1;" horiz-adv-x="607" arabic-form="final" 
d="M349 360q20 0 42 -1t43 -2.5t39 -4t30 -4.5q8 -2 14.5 -6t6.5 -15v-164q0 -22 9 -28.5t37 -6.5h37v-128h-70q-35 0 -61 5t-43 19t-26 38.5t-9 63.5v105q-8 2 -20 3t-36 1q-51 0 -83 -13t-50 -41.5t-24.5 -74.5t-6.5 -112v-77q0 -19 -18 -19h-86q-11 0 -15 6t-4 14
q-1 6 -1.5 21.5t-1 32.5t-0.5 32.5v21.5q0 175 71.5 254.5t225.5 79.5z" />
    <glyph glyph-name="uniFBA8" unicode="&#x6c1;" horiz-adv-x="296" arabic-form="initial" 
d="M95 -265q-15 0 -18 22q-1 7 -2 21t-1 28q0 32 2.5 58.5t7.5 47.5q3 11 6.5 17t12.5 6h63q8 0 12.5 -3.5t2.5 -16.5q-4 -29 -5 -52.5t-1 -52.5q0 -17 0.5 -31.5t1.5 -24.5q2 -12 -3.5 -15.5t-12.5 -3.5h-66zM-40 116q0 5 11 8.5t22 3.5h63q24 0 32 4.5t8 28.5v119t-2 134
q0 8 5.5 13.5t14.5 5.5h84q11 0 16 -5.5t6 -13.5q1 -32 1.5 -56.5t0.5 -46.5v-44v-49q0 -64 -0.5 -107.5t-3.5 -70.5q-2 -10 -6.5 -17t-16.5 -12q-11 -3 -29.5 -5t-41 -3.5t-46.5 -2t-44 -0.5h-41q-11 0 -22 3t-11 9v104z" />
    <glyph glyph-name="uniFBA9" unicode="&#x6c1;" horiz-adv-x="599" arabic-form="medial" 
d="M-40 110q0 8 10 13t23 5h79q0 6 0.5 20.5t1 29.5t1 28.5t1.5 18.5q0 8 5 14t14 6h87q9 0 13.5 -5.5t4.5 -13.5v-140q0 -64 9.5 -104.5t28 -64t45.5 -32t62 -8.5q13 0 29 1t29 3v64q1 43 11 77t31 57.5t55 36t83 12.5h16v-128h-8q-22 0 -35 -5t-20.5 -15.5t-10 -27
t-2.5 -39.5v-128q0 -11 -6 -15.5t-14 -6.5q-10 -2 -27.5 -3.5t-39 -3t-46 -2.5t-48.5 -1q-58 0 -105.5 13t-82 42t-55 76t-23.5 116h-84q-12 0 -22 5t-10 13v92z" />
    <glyph glyph-name="uniFBAA" unicode="&#x6be;" horiz-adv-x="833" arabic-form="isolated" 
d="M53 111q0 17 19 17h140q-5 6 -9 16.5t-6.5 23.5t-4 26t-1.5 24v17q0 85 52 129.5t136 44.5q89 0 136.5 -46t47.5 -128v-17q0 -11 -1.5 -24.5t-4.5 -26.5t-7 -24.5t-10 -17.5h84q7 0 11.5 2t7.5 8.5t4 19t1 32.5v43q0 99 -55 145t-146 46h-17h-25.5t-26 -0.5t-17.5 -0.5
q-8 0 -13 3t-5 11v72q0 18 19 21q25 4 47.5 5.5t35.5 1.5q67 0 127 -14.5t105 -49t71.5 -91t26.5 -140.5v-51q0 -33 -2 -72.5t-10 -81.5q-2 -10 -9 -18.5t-23 -10.5q-14 -2 -42 -2.5t-60.5 -1.5t-64 -1h-53.5h-439q-8 0 -13.5 5t-5.5 13v93zM307 203q0 -40 15 -62t54 -22
q38 0 54.5 22t16.5 62v27q0 42 -13 64t-55 22q-43 0 -57.5 -22t-14.5 -64v-27z" />
    <glyph glyph-name="uniFBAB" unicode="&#x6be;" horiz-adv-x="691" arabic-form="final" 
d="M67 0q-8 0 -14 5t-6 13v93q0 8 6 12.5t14 4.5h113v307q0 15 9.5 23t23.5 12q34 11 74 14t78 3q115 0 182 -50t67 -162q0 -7 -0.5 -25t-1.5 -30q-5 -52 -30 -98q15 4 33 5t36 1h40v-128h-18h-36t-26 -2v-30q-2 -112 -54.5 -167t-155.5 -55q-62 0 -104 15t-68 44
t-37.5 71.5t-11.5 96.5v27h-113zM363 127q36 0 60 9t38.5 25.5t20.5 40.5t6 53v15q0 60 -33 82.5t-90 22.5q-15 0 -29.5 -1t-29.5 -3v-244h57zM429 11q-24 -5 -57 -7.5t-66 -3.5v-19q0 -63 20 -92.5t74 -29.5q50 0 69 28t21 87q1 17 2 31.5t3 27.5q-14 -8 -31 -13t-35 -9z
" />
    <glyph glyph-name="uniFBAC" unicode="&#x6be;" horiz-adv-x="709" arabic-form="initial" 
d="M-40 110q0 8 10 13t23 5h94q-11 14 -15.5 39.5t-4.5 52.5v15q0 85 52.5 129.5t136.5 44.5q88 0 135.5 -46t47.5 -128v-15q0 -27 -5.5 -54t-17.5 -41h83q7 0 11.5 2t7.5 8.5t4.5 18.5t1.5 32v44q0 49 -14.5 85.5t-40.5 59.5t-63 34.5t-83 11.5h-17h-25.5t-25.5 -0.5
t-17 -0.5q-19 0 -19 14v72q0 18 20 21q24 4 46.5 5.5t36.5 1.5q66 0 126 -15t105 -49.5t71.5 -91t26.5 -139.5v-51q0 -33 -2 -72.5t-10 -81.5q-2 -10 -8.5 -18.5t-22.5 -10.5q-15 -2 -43 -2.5t-60.5 -1.5t-64 -1h-52.5h-395q-13 0 -23 5t-10 13v92zM183 203
q0 -39 15.5 -61.5t53.5 -22.5q39 0 55 22t16 62v27q0 42 -13 64t-55 22q-43 0 -57.5 -22t-14.5 -64v-27z" />
    <glyph glyph-name="uniFBAD" unicode="&#x6be;" horiz-adv-x="605" arabic-form="medial" 
d="M-7 0q-11 0 -22 3t-11 8v106q0 5 11 8t22 3h101v307q0 15 9 22.5t24 12.5q33 11 73 14t78 3q57 0 103 -12t79 -37.5t50.5 -66t17.5 -96.5v-27.5t-2 -27.5q-3 -27 -10 -51t-20 -47q16 4 33 5t35 1h41v-128h-19h-35.5t-25.5 -2v-30q-4 -222 -210 -222q-62 0 -104 15t-68 44
t-37.5 71t-11.5 97v27h-101zM276 127q72 0 99 34.5t27 93.5v14q0 61 -33 83.5t-90 22.5q-19 0 -32 -1t-27 -3v-244h56zM343 11q-23 -5 -56.5 -7.5t-67.5 -3.5v-19q0 -63 20.5 -92.5t74.5 -29.5q52 0 70 28t20 87q1 12 1.5 28.5t3.5 30.5q-27 -14 -66 -22z" />
    <glyph glyph-name="uniFBAE" unicode="&#x6d2;" horiz-adv-x="1035" arabic-form="isolated" 
d="M62 98q0 63 9 110t34 89q24 43 57.5 69.5t73.5 41t85.5 19.5t93.5 5h119q24 0 31.5 4.5t7.5 28.5v42.5v27.5v31t-1 54q0 8 5 13.5t14 5.5h86q10 0 15 -5.5t6 -13.5q2 -45 2.5 -69.5t0.5 -45.5v-22q0 -28 -0.5 -63.5t-3.5 -62.5q-2 -9 -6.5 -20.5t-16.5 -14.5
q-10 -3 -29.5 -5t-43 -3t-47 -1.5t-41.5 -0.5h-110q-42 0 -79 -6.5t-65.5 -23.5t-46 -45.5t-19.5 -71.5v-13q0 -14 3 -19t14 -5h760q8 0 14 -5t6 -13v-92q0 -8 -6 -13t-14 -5h-613q-21 0 -59 0.5t-77.5 1t-73.5 1.5t-46 2q-26 3 -32 27q-7 28 -7 66z" />
    <glyph glyph-name="uniFBAF" unicode="&#x6d2;" horiz-adv-x="779" arabic-form="final" 
d="M822 -143v-84q0 -8 -6 -13.5t-14 -5.5h-549h-50t-58.5 1t-54 1.5t-36.5 2.5q-14 2 -21 9t-11 17q-4 14 -5.5 38t-1.5 40q0 63 20.5 116.5t65.5 88.5q78 60 235 60h443v-128h-462q-38 0 -69 -4t-54 -14.5t-36 -29t-15 -48.5v-9q-1 -11 2 -15t12 -4h645q8 0 14 -5.5
t6 -13.5z" />
    <glyph glyph-name="uniFBB0" unicode="&#x6d3;" horiz-adv-x="1035" arabic-form="isolated" 
d="M62 98q0 63 9 110t34 89q24 43 57.5 69.5t73.5 41t85.5 19.5t93.5 5h119q24 0 31.5 4.5t7.5 28.5v42.5v27.5v31t-1 54q0 8 5 13.5t14 5.5h86q10 0 15 -5.5t6 -13.5q2 -45 2.5 -69.5t0.5 -45.5v-22q0 -28 -0.5 -63.5t-3.5 -62.5q-2 -9 -6.5 -20.5t-16.5 -14.5
q-10 -3 -29.5 -5t-43 -3t-47 -1.5t-41.5 -0.5h-110q-42 0 -79 -6.5t-65.5 -23.5t-46 -45.5t-19.5 -71.5v-13q0 -14 3 -19t14 -5h760q8 0 14 -5t6 -13v-92q0 -8 -6 -13t-14 -5h-613q-21 0 -59 0.5t-77.5 1t-73.5 1.5t-46 2q-26 3 -32 27q-7 28 -7 66zM548 702q-16 0 -16 12
v29q0 10 16 10h19q-8 12 -12 27t-4 30q0 84 100 84q8 0 21.5 -1t25.5 -5q11 -2 11 -10v-27q0 -10 -13 -10h-35q-26 0 -38 -9t-12 -31q0 -17 6 -29.5t15 -17.5h70q16 0 16 -10v-30q0 -12 -16 -12h-154z" />
    <glyph glyph-name="uniFBB1" unicode="&#x6d3;" horiz-adv-x="779" arabic-form="final" 
d="M54 213q-16 0 -16 12v29q0 10 16 10h19q-8 12 -12 27t-4 30q0 84 100 84q8 0 21.5 -1t25.5 -5q11 -2 11 -10v-27q0 -10 -13 -10h-35q-26 0 -38 -9t-12 -31q0 -17 6 -29.5t15 -17.5h70q16 0 16 -10v-30q0 -12 -16 -12h-154zM822 -143v-84q0 -8 -6 -13.5t-14 -5.5h-549h-50
t-58.5 1t-54 1.5t-36.5 2.5q-14 2 -21 9t-11 17q-4 14 -5.5 38t-1.5 40q0 63 20.5 116.5t65.5 88.5q78 60 235 60h443v-128h-462q-38 0 -69 -4t-54 -14.5t-36 -29t-15 -48.5v-9q-1 -11 2 -15t12 -4h645q8 0 14 -5.5t6 -13.5z" />
    <glyph glyph-name="uniFBE8" unicode="&#x649;" horiz-adv-x="296" arabic-form="initial" 
d="M-40 116q0 5 11 8.5t22 3.5h63q24 0 32 4.5t8 28.5v119t-2 134q0 8 5.5 13.5t14.5 5.5h84q11 0 16 -5.5t6 -13.5q1 -32 1.5 -56.5t0.5 -46.5v-44v-49q0 -64 -0.5 -107.5t-3.5 -70.5q-2 -10 -6.5 -17t-16.5 -12q-11 -3 -29.5 -5t-41 -3.5t-46.5 -2t-44 -0.5h-41
q-11 0 -22 3t-11 9v104z" />
    <glyph glyph-name="uniFBE9" unicode="&#x649;" horiz-adv-x="312" arabic-form="medial" 
d="M-40 116q0 5 11 8.5t22 3.5h46q9 0 19 1t18.5 4.5t14.5 10t6 18.5v249q0 8 5.5 13.5t14.5 5.5h87q8 0 13.5 -5.5t5.5 -13.5v-266q3 -5 11 -8.5t18 -5.5t19.5 -2.5t16.5 -0.5h24v-128h-12q-38 0 -77 6.5t-65 27.5q-14 -10 -31 -16.5t-35.5 -10.5t-37 -5.5t-34.5 -1.5h-27
q-11 0 -22 3t-11 9v104z" />
    <glyph glyph-name="uniFBFC" unicode="&#x6cc;" horiz-adv-x="965" arabic-form="isolated" 
d="M160 298q17 0 17 -19q-2 -22 -4 -44.5t-2 -36.5q0 -55 6 -101t27 -79t61 -51.5t109 -18.5q27 0 49.5 1t43.5 5q1 25 1.5 45t1 38t0.5 35.5v37.5v91q0 115 67 168.5t196 53.5q18 0 37.5 -1t38 -3t35.5 -4t30 -5q8 -2 12.5 -6t4.5 -14v-369q0 -9 -5.5 -15t-14.5 -6h-86
q-8 0 -14 6t-6 15v281q-18 2 -28.5 3t-24.5 1q-57 0 -86.5 -25.5t-29.5 -91.5v-165v-39.5t-0.5 -43.5t-1.5 -43t-2 -38q0 -19 -22 -22q-45 -8 -95 -11.5t-104 -3.5q-88 0 -149.5 20t-99.5 60.5t-55.5 101t-17.5 140.5q0 11 1 27.5t2.5 34.5t4.5 36.5t6 34.5q2 11 6 15.5
t15 4.5h76z" />
    <glyph glyph-name="uniFBFD" unicode="&#x6cc;" horiz-adv-x="977" arabic-form="final" 
d="M161 298q17 0 17 -19q-2 -22 -4 -44.5t-2 -36.5q0 -55 6 -101t26.5 -79t60.5 -51.5t109 -18.5q27 0 49.5 1t43.5 5q1 25 1.5 45t1 38t0.5 35.5v37.5v89q0 115 67 169.5t196 54.5q35 0 73 -4t64 -9q8 -2 12.5 -6t4.5 -14v-227q0 -22 10 -28.5t36 -6.5h44v-128h-77
q-34 0 -60 5t-43.5 19t-26.5 38.5t-9 63.5v176q-15 2 -25 3t-24 1q-57 0 -86.5 -25.5t-29.5 -91.5v-165v-39.5t-0.5 -43.5t-1.5 -43t-2 -38q0 -19 -24 -22q-89 -15 -197 -15q-88 0 -149.5 20t-99.5 60.5t-55.5 101t-17.5 140.5q0 11 1 27t2.5 34t4.5 37t6 35q2 11 6 15.5
t15 4.5h77z" />
    <glyph glyph-name="uniFBFE" unicode="&#x6cc;" horiz-adv-x="296" arabic-form="initial" 
d="M-40 116q0 5 11 8.5t22 3.5h63q24 0 32 4.5t8 28.5v119t-2 134q0 8 5.5 13.5t14.5 5.5h84q11 0 16 -5.5t6 -13.5q1 -32 1.5 -56.5t0.5 -46.5v-44v-49q0 -64 -0.5 -107.5t-3.5 -70.5q-2 -10 -6.5 -17t-16.5 -12q-11 -3 -29.5 -5t-41 -3.5t-46.5 -2t-44 -0.5h-41
q-11 0 -22 3t-11 9v104zM-53 -110q0 10 7 16.5t17 6.5h69q10 0 17.5 -6.5t7.5 -16.5v-80q0 -8 -8 -14.5t-17 -6.5h-69q-10 0 -17 6.5t-7 14.5v80zM132 -110q0 10 7.5 16.5t16.5 6.5h70q10 0 16.5 -6.5t6.5 -16.5v-80q0 -8 -6.5 -14.5t-16.5 -6.5h-70q-9 0 -16.5 6.5
t-7.5 14.5v80z" />
    <glyph glyph-name="uniFBFF" unicode="&#x6cc;" horiz-adv-x="312" arabic-form="medial" 
d="M-40 116q0 5 11 8.5t22 3.5h46q9 0 19 1t18.5 4.5t14.5 10t6 18.5v249q0 8 5.5 13.5t14.5 5.5h87q8 0 13.5 -5.5t5.5 -13.5v-266q3 -5 11 -8.5t18 -5.5t19.5 -2.5t16.5 -0.5h24v-128h-12q-38 0 -77 6.5t-65 27.5q-14 -10 -31 -16.5t-35.5 -10.5t-37 -5.5t-34.5 -1.5h-27
q-11 0 -22 3t-11 9v104zM-5 -110q0 10 7 16.5t17 6.5h69q10 0 17.5 -6.5t7.5 -16.5v-80q0 -8 -8 -14.5t-17 -6.5h-69q-10 0 -17 6.5t-7 14.5v80zM180 -110q0 10 7.5 16.5t16.5 6.5h70q10 0 16.5 -6.5t6.5 -16.5v-80q0 -8 -6.5 -14.5t-16.5 -6.5h-70q-9 0 -16.5 6.5
t-7.5 14.5v80z" />
    <glyph glyph-name="uniFC5E" unicode="&#xfc5e;" horiz-adv-x="0" arabic-form="isolated" 
d="M-57 755q-34 0 -46 20t-12 53v16.5t1 17.5q2 13 13 13h20q5 0 8.5 -3.5t3.5 -9.5q-1 -11 -1.5 -18.5t-0.5 -15.5q0 -18 6 -25t16 -7h3q7 0 15 4t8 21v40q0 5 3.5 8.5t9.5 3.5h20q6 0 9.5 -3.5t3.5 -8.5v-40q0 -17 8 -21t14 -4h3q10 0 16.5 7t6.5 26q0 8 -0.5 15.5
t-1.5 18.5q0 5 3.5 8.5t8.5 3.5h20q11 0 13 -12q1 -11 1 -18v-16q0 -33 -13.5 -53.5t-48.5 -20.5h-5q-14 0 -26 4t-19 16h-4q-8 -11 -21.5 -15.5t-29.5 -4.5h-5zM-137 993q0 12 17 12h36q8 0 10.5 -3.5t3.5 -7.5l5 -26q3 -8 10 -13t22 -5h9q-1 8 -1.5 14.5t-0.5 13.5
q0 32 21 50.5t54 18.5q35 0 54.5 -17t19.5 -48q0 -34 -20 -52.5t-73 -18.5h-61q-32 0 -51 11.5t-26 43.5h-12q-17 0 -17 11v16zM44 950q18 0 26 9t8 22q0 14 -8 20.5t-21 6.5q-12 0 -21 -8t-9 -25q0 -16 3 -25h22z" />
    <glyph glyph-name="uniFC5F" unicode="&#xfc5f;" horiz-adv-x="0" arabic-form="isolated" 
d="M-57 924q-34 0 -46 20t-12 53v16.5t1 17.5q2 13 13 13h20q5 0 8.5 -3.5t3.5 -9.5q-1 -11 -1.5 -18.5t-0.5 -15.5q0 -18 6 -25t16 -7h3q7 0 15 4t8 21v40q0 5 3.5 8.5t9.5 3.5h20q6 0 9.5 -3.5t3.5 -8.5v-40q0 -17 8 -21t14 -4h3q10 0 16.5 7t6.5 26q0 8 -0.5 15.5
t-1.5 18.5q0 5 3.5 8.5t8.5 3.5h20q11 0 13 -12q1 -11 1 -18v-16q0 -33 -13.5 -53.5t-48.5 -20.5h-5q-14 0 -26 4t-19 16h-4q-8 -11 -21.5 -15.5t-29.5 -4.5h-5zM-117 794q0 8 4.5 9.5t12.5 1.5h202q17 0 17 -11v-19q0 -8 -4.5 -9.5t-12.5 -1.5h-202q-17 0 -17 11v19z
M-117 875q0 8 4.5 9.5t12.5 1.5h202q17 0 17 -11v-19q0 -10 -17 -10h-202q-17 0 -17 10v19z" />
    <glyph glyph-name="uniFC60" unicode="&#xfc60;" horiz-adv-x="0" arabic-form="isolated" 
d="M-57 755q-34 0 -46 20t-12 53v16.5t1 17.5q2 13 13 13h20q5 0 8.5 -3.5t3.5 -9.5q-1 -11 -1.5 -18.5t-0.5 -15.5q0 -18 6 -25t16 -7h3q7 0 15 4t8 21v40q0 5 3.5 8.5t9.5 3.5h20q6 0 9.5 -3.5t3.5 -8.5v-40q0 -17 8 -21t14 -4h3q10 0 16.5 7t6.5 26q0 8 -0.5 15.5
t-1.5 18.5q0 5 3.5 8.5t8.5 3.5h20q11 0 13 -12q1 -11 1 -18v-16q0 -33 -13.5 -53.5t-48.5 -20.5h-5q-14 0 -26 4t-19 16h-4q-8 -11 -21.5 -15.5t-29.5 -4.5h-5zM-117 943q0 11 17 11h202q17 0 17 -11v-19q0 -11 -17 -11h-202q-17 0 -17 11v19z" />
    <glyph glyph-name="uniFC61" unicode="&#xfc61;" horiz-adv-x="0" arabic-form="isolated" 
d="M-57 755q-34 0 -46 20t-12 53v16.5t1 17.5q2 13 13 13h20q5 0 8.5 -3.5t3.5 -9.5q-1 -11 -1.5 -18.5t-0.5 -15.5q0 -18 6 -25t16 -7h3q7 0 15 4t8 21v40q0 5 3.5 8.5t9.5 3.5h20q6 0 9.5 -3.5t3.5 -8.5v-40q0 -17 8 -21t14 -4h3q10 0 16.5 7t6.5 26q0 8 -0.5 15.5
t-1.5 18.5q0 5 3.5 8.5t8.5 3.5h20q11 0 13 -12q1 -11 1 -18v-16q0 -33 -13.5 -53.5t-48.5 -20.5h-5q-14 0 -26 4t-19 16h-4q-8 -11 -21.5 -15.5t-29.5 -4.5h-5zM-122 940q0 7 4.5 8.5t12.5 1.5h80q-2 8 -2 14.5v13.5q0 32 20 50.5t53 18.5q35 0 55 -17t20 -48
q0 -34 -20.5 -52.5t-71.5 -18.5h-134q-17 0 -17 11v18zM40 950q20 0 28 9t8 22q0 14 -8.5 20.5t-20.5 6.5q-13 0 -21.5 -8t-8.5 -25q0 -16 3 -25h20z" />
    <glyph glyph-name="uniFC62" unicode="&#xfc62;" horiz-adv-x="0" arabic-form="isolated" 
d="M-57 845q-34 0 -46 20t-12 53v16.5t1 17.5q2 13 13 13h20q5 0 8.5 -3.5t3.5 -9.5q-1 -11 -1.5 -18.5t-0.5 -15.5q0 -18 6 -25t16 -7h3q7 0 15 4t8 21v40q0 5 3.5 8.5t9.5 3.5h20q6 0 9.5 -3.5t3.5 -8.5v-40q0 -17 8 -21t14 -4h3q10 0 16.5 7t6.5 26q0 8 -0.5 15.5
t-1.5 18.5q0 5 3.5 8.5t8.5 3.5h20q11 0 13 -12q1 -11 1 -18v-16q0 -33 -13.5 -53.5t-48.5 -20.5h-5q-14 0 -26 4t-19 16h-4q-8 -11 -21.5 -15.5t-29.5 -4.5h-5zM-118 795q0 8 4.5 9.5t12.5 1.5h202q17 0 17 -11v-19q0 -10 -17 -10h-202q-17 0 -17 10v19z" />
    <glyph glyph-name="uniFC63" unicode="&#xfc63;" horiz-adv-x="0" arabic-form="isolated" 
d="M-25 1016q0 5 3.5 8.5t8.5 3.5h26q5 0 8 -3.5t3 -8.5v-95q0 -13 -11 -13h-26q-12 0 -12 13v95zM-57 755q-34 0 -46 20t-12 53v16.5t1 17.5q2 13 13 13h20q5 0 8.5 -3.5t3.5 -9.5q-1 -11 -1.5 -18.5t-0.5 -15.5q0 -18 6 -25t16 -7h3q7 0 15 4t8 20v40q0 13 13 13h20
q13 0 13 -13v-40q0 -16 8 -20t14 -4h3q10 0 16.5 7t6.5 26q0 8 -0.5 15.5t-1.5 18.5q0 5 3.5 8.5t8.5 3.5h20q11 0 13 -12q1 -12 1 -18.5v-16.5q0 -33 -13.5 -53t-48.5 -20h-5q-14 0 -26 4t-19 15h-4q-8 -11 -21.5 -15t-29.5 -4h-5z" />
    <glyph glyph-name="uniFE80" unicode="&#x621;" horiz-adv-x="454" arabic-form="isolated" 
d="M60 19q-17 0 -17 16v73q0 16 17 16h45q-13 15 -20.5 43t-7.5 60q0 51 15.5 85t41.5 55t61.5 30t76.5 9q25 0 44 -1.5t42 -6.5q18 -3 18 -17v-61q0 -17 -17 -16q-22 2 -37 2.5t-26 0.5q-58 0 -84.5 -21t-26.5 -71q0 -37 11 -59t30 -32h156q17 0 17 -16v-73q0 -16 -17 -16
h-322z" />
    <glyph glyph-name="uniFE81" unicode="&#x622;" horiz-adv-x="290" arabic-form="isolated" 
d="M-3 821q-16 0 -14 13q3 35 19 57q14 19 31.5 26.5t37.5 7.5q18 0 35.5 -6.5t37.5 -14.5q15 -5 29.5 -8.5t30.5 -3.5q20 0 32.5 4t22.5 9q11 5 19.5 8.5t13.5 3.5q10 0 10 -9v-39q0 -12 -9 -19q-16 -11 -40 -17.5t-50 -6.5q-23 0 -44 4.5t-55 19.5q-11 5 -17.5 6.5
t-11.5 1.5q-16 0 -19 -12l-5 -11q-5 -14 -15 -14h-39zM80 741q0 8 5.5 14t14.5 6h90q9 0 14.5 -6t5.5 -14v-720q0 -8 -5.5 -14.5t-14.5 -6.5h-90q-9 0 -14.5 6.5t-5.5 14.5v720z" />
    <glyph glyph-name="uniFE82" unicode="&#x622;" horiz-adv-x="293" arabic-form="final" 
d="M-13 826q-16 0 -14 13q3 35 19 57q14 19 31.5 26.5t37.5 7.5q18 0 35.5 -6.5t37.5 -14.5q15 -5 29.5 -8.5t30.5 -3.5q20 0 32.5 4t22.5 9q11 5 19.5 8.5t13.5 3.5q10 0 10 -9v-39q0 -12 -9 -19q-16 -11 -40 -17.5t-50 -6.5q-23 0 -44 4.5t-55 19.5q-11 5 -17.5 6.5
t-11.5 1.5q-16 0 -19 -12l-5 -11q-5 -14 -15 -14h-39zM74 741q0 8 6 14t15 6h89q10 0 15 -6t5 -14v-562q0 -34 14 -42.5t42 -8.5h33v-128h-70q-34 0 -61.5 5.5t-47 21t-30 43t-10.5 71.5v600z" />
    <glyph glyph-name="uniFE83" unicode="&#x623;" horiz-adv-x="290" arabic-form="isolated" 
d="M62 765q-16 0 -16 12v29q0 10 16 10h19q-8 12 -12 27t-4 30q0 84 100 84q8 0 21.5 -1t25.5 -5q11 -2 11 -10v-27q0 -10 -13 -10h-35q-26 0 -38 -9t-12 -31q0 -17 6 -29.5t15 -17.5h70q16 0 16 -10v-30q0 -12 -16 -12h-154zM80 672q0 8 5.5 14t14.5 6h90q9 0 14.5 -6
t5.5 -14v-651q0 -8 -5.5 -14.5t-14.5 -6.5h-90q-9 0 -14.5 6.5t-5.5 14.5v651z" />
    <glyph glyph-name="uniFE84" unicode="&#x623;" horiz-adv-x="293" arabic-form="final" 
d="M74 672q0 8 6 14t15 6h89q10 0 15 -6t5 -14v-493q0 -34 14 -42.5t42 -8.5h33v-128h-70q-34 0 -61.5 5.5t-47 21t-30 43t-10.5 71.5v531zM54 765q-16 0 -16 12v29q0 10 16 10h19q-8 12 -12 27t-4 30q0 84 100 84q8 0 21.5 -1t25.5 -5q11 -2 11 -10v-27q0 -10 -13 -10h-35
q-26 0 -38 -9t-12 -31q0 -17 6 -29.5t15 -17.5h70q16 0 16 -10v-30q0 -12 -16 -12h-154z" />
    <glyph glyph-name="uniFE85" unicode="&#x624;" horiz-adv-x="561" arabic-form="isolated" 
d="M91 -141q0 17 18 17h91q39 0 68.5 4t49 14.5t29.5 28.5t11 47l1 46q-7 -5 -18 -8t-23 -5t-23.5 -2.5t-20.5 -0.5q-102 0 -161 55.5t-59 164.5v20q0 118 69.5 182.5t198.5 64.5q19 0 40.5 -1.5t41.5 -3.5t37.5 -5t28.5 -7t14 -7.5t3 -11.5v-456q0 -73 -21 -118.5t-57 -71
t-83 -34.5t-99 -9h-26.5t-36.5 1t-35 1.5t-22 2.5q-10 2 -13 6.5t-3 12.5v73zM361 368q-29 3 -61 3q-58 0 -89 -32t-31 -90v-13q0 -57 25 -84.5t81 -27.5q32 0 53.5 4t21.5 23v217zM197 583q-16 0 -16 12v29q0 10 16 10h19q-8 12 -12 27t-4 30q0 84 100 84q8 0 21.5 -1
t25.5 -5q11 -2 11 -10v-27q0 -10 -13 -10h-35q-26 0 -38 -9t-12 -31q0 -17 6 -29.5t15 -17.5h70q16 0 16 -10v-30q0 -12 -16 -12h-154z" />
    <glyph glyph-name="uniFE86" unicode="&#x624;" horiz-adv-x="574" arabic-form="final" 
d="M91 -141q0 17 18 17h91q39 0 68.5 4t50 14.5t30.5 28.5t10 47v30h-73q-109 0 -170.5 55.5t-61.5 164.5v20q0 118 69.5 182.5t198.5 64.5q19 0 40.5 -1.5t41.5 -3.5t37 -5t28 -7q10 -4 13.5 -7.5t3.5 -11.5v-323h88v-128h-90v-34q-5 -62 -26.5 -101.5t-55.5 -62t-79 -31.5
t-96 -9h-26.5t-36.5 1t-35 1.5t-22 2.5q-10 2 -13 6.5t-3 12.5v73zM180 236q0 -57 25 -84.5t81 -27.5h75v244q-29 3 -61 3q-57 0 -88.5 -32t-31.5 -90v-13zM197 583q-16 0 -16 12v29q0 10 16 10h19q-8 12 -12 27t-4 30q0 84 100 84q8 0 21.5 -1t25.5 -5q11 -2 11 -10v-27
q0 -10 -13 -10h-35q-26 0 -38 -9t-12 -31q0 -17 6 -29.5t15 -17.5h70q16 0 16 -10v-30q0 -12 -16 -12h-154z" />
    <glyph glyph-name="uniFE87" unicode="&#x625;" horiz-adv-x="290" arabic-form="isolated" 
d="M80 741q0 8 5.5 14t14.5 6h90q9 0 14.5 -6t5.5 -14v-720q0 -8 -5.5 -14.5t-14.5 -6.5h-90q-9 0 -14.5 6.5t-5.5 14.5v720zM59 -258q-16 0 -16 12v29q0 10 16 10h19q-8 12 -12 27t-4 30q0 84 100 84q8 0 21.5 -1t25.5 -5q11 -2 11 -10v-27q0 -10 -13 -10h-35q-26 0 -38 -9
t-12 -31q0 -17 6 -29.5t15 -17.5h70q16 0 16 -10v-30q0 -12 -16 -12h-154z" />
    <glyph glyph-name="uniFE88" unicode="&#x625;" horiz-adv-x="293" arabic-form="final" 
d="M68 -258q-16 0 -16 12v29q0 10 16 10h19q-8 12 -12 27t-4 30q0 84 100 84q8 0 21.5 -1t25.5 -5q11 -2 11 -10v-27q0 -10 -13 -10h-35q-26 0 -38 -9t-12 -31q0 -17 6 -29.5t15 -17.5h70q16 0 16 -10v-30q0 -12 -16 -12h-154zM74 741q0 8 6 14t15 6h89q10 0 15 -6t5 -14
v-562q0 -34 14 -42.5t42 -8.5h33v-128h-70q-34 0 -61.5 5.5t-47 21t-30 43t-10.5 71.5v600z" />
    <glyph glyph-name="uniFE89" unicode="&#x626;" horiz-adv-x="965" arabic-form="isolated" 
d="M160 298q17 0 17 -19q-2 -22 -4 -44.5t-2 -36.5q0 -55 6 -101t27 -79t61 -51.5t109 -18.5q27 0 49.5 1t43.5 5q1 25 1.5 45t1 38t0.5 35.5v37.5v91q0 115 67 168.5t196 53.5q18 0 37.5 -1t38 -3t35.5 -4t30 -5q8 -2 12.5 -6t4.5 -14v-369q0 -9 -5.5 -15t-14.5 -6h-86
q-8 0 -14 6t-6 15v281q-18 2 -28.5 3t-24.5 1q-57 0 -86.5 -25.5t-29.5 -91.5v-165v-39.5t-0.5 -43.5t-1.5 -43t-2 -38q0 -19 -22 -22q-45 -8 -95 -11.5t-104 -3.5q-88 0 -149.5 20t-99.5 60.5t-55.5 101t-17.5 140.5q0 11 1 27.5t2.5 34.5t4.5 36.5t6 34.5q2 11 6 15.5
t15 4.5h76zM51 397q-16 0 -16 12v29q0 10 16 10h19q-8 12 -12 27t-4 30q0 84 100 84q8 0 21.5 -1t25.5 -5q11 -2 11 -10v-27q0 -10 -13 -10h-35q-26 0 -38 -9t-12 -31q0 -17 6 -29.5t15 -17.5h70q16 0 16 -10v-30q0 -12 -16 -12h-154z" />
    <glyph glyph-name="uniFE8A" unicode="&#x626;" horiz-adv-x="977" arabic-form="final" 
d="M51 397q-16 0 -16 12v29q0 10 16 10h19q-8 12 -12 27t-4 30q0 84 100 84q8 0 21.5 -1t25.5 -5q11 -2 11 -10v-27q0 -10 -13 -10h-35q-26 0 -38 -9t-12 -31q0 -17 6 -29.5t15 -17.5h70q16 0 16 -10v-30q0 -12 -16 -12h-154zM161 298q17 0 17 -19q-2 -22 -4 -44.5t-2 -36.5
q0 -55 6 -101t26.5 -79t60.5 -51.5t109 -18.5q27 0 49.5 1t43.5 5q1 25 1.5 45t1 38t0.5 35.5v37.5v89q0 115 67 169.5t196 54.5q35 0 73 -4t64 -9q8 -2 12.5 -6t4.5 -14v-227q0 -22 10 -28.5t36 -6.5h44v-128h-77q-34 0 -60 5t-43.5 19t-26.5 38.5t-9 63.5v176q-15 2 -25 3
t-24 1q-57 0 -86.5 -25.5t-29.5 -91.5v-165v-39.5t-0.5 -43.5t-1.5 -43t-2 -38q0 -19 -24 -22q-89 -15 -197 -15q-88 0 -149.5 20t-99.5 60.5t-55.5 101t-17.5 140.5q0 11 1 27t2.5 34t4.5 37t6 35q2 11 6 15.5t15 4.5h77z" />
    <glyph glyph-name="uniFE8B" unicode="&#x626;" horiz-adv-x="296" arabic-form="initial" 
d="M-40 116q0 5 11 8.5t22 3.5h63q24 0 32 4.5t8 28.5v119t-2 134q0 8 5.5 13.5t14.5 5.5h84q11 0 16 -5.5t6 -13.5q1 -32 1.5 -56.5t0.5 -46.5v-44v-49q0 -64 -0.5 -107.5t-3.5 -70.5q-2 -10 -6.5 -17t-16.5 -12q-11 -3 -29.5 -5t-41 -3.5t-46.5 -2t-44 -0.5h-41
q-11 0 -22 3t-11 9v104zM72 539q-16 0 -16 12v29q0 10 16 10h19q-8 12 -12 27t-4 30q0 84 100 84q8 0 21.5 -1t25.5 -5q11 -2 11 -10v-27q0 -10 -13 -10h-35q-26 0 -38 -9t-12 -31q0 -17 6 -29.5t15 -17.5h70q16 0 16 -10v-30q0 -12 -16 -12h-154z" />
    <glyph glyph-name="uniFE8C" unicode="&#x626;" horiz-adv-x="312" arabic-form="medial" 
d="M-40 116q0 5 11 8.5t22 3.5h46q9 0 19 1t18.5 4.5t14.5 10t6 18.5v249q0 8 5.5 13.5t14.5 5.5h87q8 0 13.5 -5.5t5.5 -13.5v-266q3 -5 11 -8.5t18 -5.5t19.5 -2.5t16.5 -0.5h24v-128h-12q-38 0 -77 6.5t-65 27.5q-14 -10 -31 -16.5t-35.5 -10.5t-37 -5.5t-34.5 -1.5h-27
q-11 0 -22 3t-11 9v104zM75 539q-16 0 -16 12v29q0 10 16 10h19q-8 12 -12 27t-4 30q0 84 100 84q8 0 21.5 -1t25.5 -5q11 -2 11 -10v-27q0 -10 -13 -10h-35q-26 0 -38 -9t-12 -31q0 -17 6 -29.5t15 -17.5h70q16 0 16 -10v-30q0 -12 -16 -12h-154z" />
    <glyph glyph-name="uniFE8D" unicode="&#x627;" horiz-adv-x="290" arabic-form="isolated" 
d="M80 741q0 8 5.5 14t14.5 6h90q9 0 14.5 -6t5.5 -14v-720q0 -8 -5.5 -14.5t-14.5 -6.5h-90q-9 0 -14.5 6.5t-5.5 14.5v720z" />
    <glyph glyph-name="uniFE8E" unicode="&#x627;" horiz-adv-x="293" arabic-form="final" 
d="M74 741q0 8 6 14t15 6h89q10 0 15 -6t5 -14v-562q0 -34 14 -42.5t42 -8.5h33v-128h-70q-34 0 -61.5 5.5t-47 21t-30 43t-10.5 71.5v600z" />
    <glyph glyph-name="uniFE8F" unicode="&#x628;" horiz-adv-x="927" arabic-form="isolated" 
d="M395 -110q0 10 7 16.5t16 6.5h77q10 0 17.5 -6.5t7.5 -16.5v-80q0 -8 -7.5 -14.5t-17.5 -6.5h-77q-9 0 -16 6.5t-7 14.5v80zM687 128q24 0 32 4.5t8 28.5q0 57 0.5 117.5t-0.5 132.5q0 8 5.5 13.5t13.5 5.5h83q11 0 16.5 -5.5t5.5 -13.5q0 -32 0.5 -56t1 -45.5t0.5 -43
v-48.5q0 -64 -1 -107.5t-4 -70.5q-2 -10 -6 -17t-16 -12q-11 -3 -37 -5t-58.5 -3.5t-67 -2t-62.5 -0.5h-220q-100 0 -164.5 19t-102 54.5t-52.5 86.5t-15 116q0 47 10 106q2 11 6 15.5t15 4.5h75q19 0 17 -20q-3 -42 -3 -70q0 -45 9 -79.5t33 -57.5t67.5 -35t112.5 -12h298z
" />
    <glyph glyph-name="uniFE90" unicode="&#x628;" horiz-adv-x="945" arabic-form="final" 
d="M395 -110q0 10 7 16.5t16 6.5h77q10 0 17.5 -6.5t7.5 -16.5v-80q0 -8 -7.5 -14.5t-17.5 -6.5h-77q-9 0 -16 6.5t-7 14.5v80zM670 128q9 0 19.5 1t19 4.5t14.5 10t6 18.5v249q0 8 6 13.5t14 5.5h87q8 0 13.5 -5.5t5.5 -13.5v-266q3 -5 10.5 -8.5t17 -5.5t19 -2.5
t16.5 -0.5h27v-128h-9q-15 0 -34 1t-38.5 4.5t-37.5 10.5t-32 18q-31 -23 -78 -28.5t-108 -5.5h-227q-100 0 -164.5 19t-102 54.5t-52.5 86.5t-15 116q0 47 10 106q2 11 6 15.5t15 4.5h75q19 0 17 -20q-3 -42 -3 -70q0 -45 9 -79.5t33 -57.5t67.5 -35t112.5 -12h281z" />
    <glyph glyph-name="uniFE91" unicode="&#x628;" horiz-adv-x="296" arabic-form="initial" 
d="M22 -110q0 10 7 16.5t16 6.5h77q10 0 17.5 -6.5t7.5 -16.5v-80q0 -8 -7.5 -14.5t-17.5 -6.5h-77q-9 0 -16 6.5t-7 14.5v80zM-40 116q0 5 11 8.5t22 3.5h63q24 0 32 4.5t8 28.5v119t-2 134q0 8 5.5 13.5t14.5 5.5h84q11 0 16 -5.5t6 -13.5q1 -32 1.5 -56.5t0.5 -46.5v-44
v-49q0 -64 -0.5 -107.5t-3.5 -70.5q-2 -10 -6.5 -17t-16.5 -12q-11 -3 -29.5 -5t-41 -3.5t-46.5 -2t-44 -0.5h-41q-11 0 -22 3t-11 9v104z" />
    <glyph glyph-name="uniFE92" unicode="&#x628;" horiz-adv-x="312" arabic-form="medial" 
d="M-40 116q0 5 11 8.5t22 3.5h46q9 0 19 1t18.5 4.5t14.5 10t6 18.5v249q0 8 5.5 13.5t14.5 5.5h87q8 0 13.5 -5.5t5.5 -13.5v-266q3 -5 11 -8.5t18 -5.5t19.5 -2.5t16.5 -0.5h24v-128h-12q-38 0 -77 6.5t-65 27.5q-14 -10 -31 -16.5t-35.5 -10.5t-37 -5.5t-34.5 -1.5h-27
q-11 0 -22 3t-11 9v104zM93 -110q0 10 7 16.5t16 6.5h77q10 0 17.5 -6.5t7.5 -16.5v-80q0 -8 -7.5 -14.5t-17.5 -6.5h-77q-9 0 -16 6.5t-7 14.5v80z" />
    <glyph glyph-name="uniFE93" unicode="&#x629;" horiz-adv-x="558" arabic-form="isolated" 
d="M129 685q0 10 7 16.5t17 6.5h69q10 0 17.5 -6.5t7.5 -16.5v-78q0 -9 -8 -15.5t-17 -6.5h-69q-10 0 -17 6.5t-7 15.5v78zM314 685q0 10 7.5 16.5t16.5 6.5h70q10 0 16.5 -6.5t6.5 -16.5v-78q0 -9 -6.5 -15.5t-16.5 -6.5h-70q-9 0 -16.5 6.5t-7.5 15.5v78zM55 240
q0 118 65.5 182.5t197.5 64.5q20 0 41.5 -1.5t41.5 -3.5t37.5 -5t28.5 -7t14 -7.5t3 -11.5v-275q0 -33 -0.5 -74t-4.5 -78q0 -11 -6 -15t-16 -5q-43 -2 -78.5 -3t-68.5 -1h-20q-114 0 -174.5 55.5t-60.5 164.5v20zM181 236q0 -57 25 -84.5t82 -27.5h35.5t34.5 1v243
q-14 2 -26 2.5t-31 0.5q-61 0 -90.5 -32t-29.5 -90v-13z" />
    <glyph glyph-name="uniFE94" unicode="&#x629;" horiz-adv-x="574" arabic-form="final" 
d="M55 240q0 118 68.5 183.5t200.5 65.5q39 0 79.5 -4t63.5 -11q11 -3 14 -7t3 -12v-274q0 -33 15 -43t48 -10h27v-128h-46q-52 0 -85 13t-50 43q-20 -20 -53.5 -30.5t-68.5 -10.5h-13q-42 0 -79 11.5t-64.5 36.5t-43.5 64t-16 93v20zM181 244q0 -57 22 -81t68 -24h15
q34 0 53 11t19 34v187q-6 1 -22.5 1.5t-25.5 0.5q-61 0 -95 -28.5t-34 -86.5v-14zM129 685q0 10 7 16.5t17 6.5h69q10 0 17.5 -6.5t7.5 -16.5v-78q0 -9 -8 -15.5t-17 -6.5h-69q-10 0 -17 6.5t-7 15.5v78zM314 685q0 10 7.5 16.5t16.5 6.5h70q10 0 16.5 -6.5t6.5 -16.5v-78
q0 -9 -6.5 -15.5t-16.5 -6.5h-70q-9 0 -16.5 6.5t-7.5 15.5v78z" />
    <glyph glyph-name="uniFE95" unicode="&#x62a;" horiz-adv-x="927" arabic-form="isolated" 
d="M301 590q0 10 7 16.5t17 6.5h69q10 0 17.5 -6.5t7.5 -16.5v-78q0 -9 -8 -15.5t-17 -6.5h-69q-10 0 -17 6.5t-7 15.5v78zM486 590q0 10 7.5 16.5t16.5 6.5h70q10 0 16.5 -6.5t6.5 -16.5v-78q0 -9 -6.5 -15.5t-16.5 -6.5h-70q-9 0 -16.5 6.5t-7.5 15.5v78zM687 128
q24 0 32 4.5t8 28.5q0 57 0.5 117.5t-0.5 132.5q0 8 5.5 13.5t13.5 5.5h83q11 0 16.5 -5.5t5.5 -13.5q0 -32 0.5 -56t1 -45.5t0.5 -43v-48.5q0 -64 -1 -107.5t-4 -70.5q-2 -10 -6 -17t-16 -12q-11 -3 -37 -5t-58.5 -3.5t-67 -2t-62.5 -0.5h-220q-100 0 -164.5 19t-102 54.5
t-52.5 86.5t-15 116q0 47 10 106q2 11 6 15.5t15 4.5h75q19 0 17 -20q-3 -42 -3 -70q0 -45 9 -79.5t33 -57.5t67.5 -35t112.5 -12h298z" />
    <glyph glyph-name="uniFE96" unicode="&#x62a;" horiz-adv-x="945" arabic-form="final" 
d="M304 590q0 10 7 16.5t17 6.5h69q10 0 17.5 -6.5t7.5 -16.5v-78q0 -9 -8 -15.5t-17 -6.5h-69q-10 0 -17 6.5t-7 15.5v78zM489 590q0 10 7.5 16.5t16.5 6.5h70q10 0 16.5 -6.5t6.5 -16.5v-78q0 -9 -6.5 -15.5t-16.5 -6.5h-70q-9 0 -16.5 6.5t-7.5 15.5v78zM670 128
q9 0 19.5 1t19 4.5t14.5 10t6 18.5v249q0 8 6 13.5t14 5.5h87q8 0 13.5 -5.5t5.5 -13.5v-266q3 -5 10.5 -8.5t17 -5.5t19 -2.5t16.5 -0.5h27v-128h-9q-15 0 -34 1t-38.5 4.5t-37.5 10.5t-32 18q-31 -23 -78 -28.5t-108 -5.5h-227q-100 0 -164.5 19t-102 54.5t-52.5 86.5
t-15 116q0 47 10 106q2 11 6 15.5t15 4.5h75q19 0 17 -20q-3 -42 -3 -70q0 -45 9 -79.5t33 -57.5t67.5 -35t112.5 -12h281z" />
    <glyph glyph-name="uniFE97" unicode="&#x62a;" horiz-adv-x="296" arabic-form="initial" 
d="M5 641q0 10 7 16.5t17 6.5h69q10 0 17.5 -6.5t7.5 -16.5v-78q0 -9 -8 -15.5t-17 -6.5h-69q-10 0 -17 6.5t-7 15.5v78zM190 641q0 10 7.5 16.5t16.5 6.5h70q10 0 16.5 -6.5t6.5 -16.5v-78q0 -9 -6.5 -15.5t-16.5 -6.5h-70q-9 0 -16.5 6.5t-7.5 15.5v78zM-40 116
q0 5 11 8.5t22 3.5h63q24 0 32 4.5t8 28.5v119t-2 134q0 8 5.5 13.5t14.5 5.5h84q11 0 16 -5.5t6 -13.5q1 -32 1.5 -56.5t0.5 -46.5v-44v-49q0 -64 -0.5 -107.5t-3.5 -70.5q-2 -10 -6.5 -17t-16.5 -12q-11 -3 -29.5 -5t-41 -3.5t-46.5 -2t-44 -0.5h-41q-11 0 -22 3t-11 9
v104z" />
    <glyph glyph-name="uniFE98" unicode="&#x62a;" horiz-adv-x="312" arabic-form="medial" 
d="M-40 116q0 5 11 8.5t22 3.5h46q9 0 19 1t18.5 4.5t14.5 10t6 18.5v249q0 8 5.5 13.5t14.5 5.5h87q8 0 13.5 -5.5t5.5 -13.5v-266q3 -5 11 -8.5t18 -5.5t19.5 -2.5t16.5 -0.5h24v-128h-12q-38 0 -77 6.5t-65 27.5q-14 -10 -31 -16.5t-35.5 -10.5t-37 -5.5t-34.5 -1.5h-27
q-11 0 -22 3t-11 9v104zM7 641q0 10 7 16.5t17 6.5h69q10 0 17.5 -6.5t7.5 -16.5v-78q0 -9 -8 -15.5t-17 -6.5h-69q-10 0 -17 6.5t-7 15.5v78zM192 641q0 10 7.5 16.5t16.5 6.5h70q10 0 16.5 -6.5t6.5 -16.5v-78q0 -9 -6.5 -15.5t-16.5 -6.5h-70q-9 0 -16.5 6.5t-7.5 15.5
v78z" />
    <glyph glyph-name="uniFE99" unicode="&#x62b;" horiz-adv-x="927" arabic-form="isolated" 
d="M304 584q0 10 7 16t17 6h69q10 0 17.5 -6t7.5 -16v-73q0 -8 -8 -14.5t-17 -6.5h-69q-10 0 -17 6.5t-7 14.5v73zM489 584q0 10 7.5 16t16.5 6h70q10 0 16.5 -6t6.5 -16v-73q0 -8 -6.5 -14.5t-16.5 -6.5h-70q-9 0 -16.5 6.5t-7.5 14.5v73zM401 726q0 9 7.5 15.5t15.5 6.5
h66q10 0 17 -6.5t7 -15.5v-61q0 -9 -7.5 -15t-17.5 -6h-66q-8 0 -15 6t-7 15v61zM687 128q24 0 32 4.5t8 28.5q0 57 0.5 117.5t-0.5 132.5q0 8 5.5 13.5t13.5 5.5h83q11 0 16.5 -5.5t5.5 -13.5q0 -32 0.5 -56t1 -45.5t0.5 -43v-48.5q0 -64 -1 -107.5t-4 -70.5q-2 -10 -6 -17
t-16 -12q-11 -3 -37 -5t-58.5 -3.5t-67 -2t-62.5 -0.5h-220q-100 0 -164.5 19t-102 54.5t-52.5 86.5t-15 116q0 47 10 106q2 11 6 15.5t15 4.5h75q19 0 17 -20q-3 -42 -3 -70q0 -45 9 -79.5t33 -57.5t67.5 -35t112.5 -12h298z" />
    <glyph glyph-name="uniFE9A" unicode="&#x62b;" horiz-adv-x="945" arabic-form="final" 
d="M304 584q0 10 7 16t17 6h69q10 0 17.5 -6t7.5 -16v-73q0 -8 -8 -14.5t-17 -6.5h-69q-10 0 -17 6.5t-7 14.5v73zM489 584q0 10 7.5 16t16.5 6h70q10 0 16.5 -6t6.5 -16v-73q0 -8 -6.5 -14.5t-16.5 -6.5h-70q-9 0 -16.5 6.5t-7.5 14.5v73zM401 726q0 9 7.5 15.5t15.5 6.5
h66q10 0 17 -6.5t7 -15.5v-61q0 -9 -7.5 -15t-17.5 -6h-66q-8 0 -15 6t-7 15v61zM670 128q9 0 19.5 1t19 4.5t14.5 10t6 18.5v249q0 8 6 13.5t14 5.5h87q8 0 13.5 -5.5t5.5 -13.5v-266q3 -5 10.5 -8.5t17 -5.5t19 -2.5t16.5 -0.5h27v-128h-9q-15 0 -34 1t-38.5 4.5
t-37.5 10.5t-32 18q-31 -23 -78 -28.5t-108 -5.5h-227q-100 0 -164.5 19t-102 54.5t-52.5 86.5t-15 116q0 47 10 106q2 11 6 15.5t15 4.5h75q19 0 17 -20q-3 -42 -3 -70q0 -45 9 -79.5t33 -57.5t67.5 -35t112.5 -12h281z" />
    <glyph glyph-name="uniFE9B" unicode="&#x62b;" horiz-adv-x="296" arabic-form="initial" 
d="M5 635q0 10 7 16t17 6h69q10 0 17.5 -6t7.5 -16v-73q0 -8 -8 -14.5t-17 -6.5h-69q-10 0 -17 6.5t-7 14.5v73zM190 635q0 10 7.5 16t16.5 6h70q10 0 16.5 -6t6.5 -16v-73q0 -8 -6.5 -14.5t-16.5 -6.5h-70q-9 0 -16.5 6.5t-7.5 14.5v73zM102 777q0 9 7.5 15.5t15.5 6.5h66
q10 0 17 -6.5t7 -15.5v-61q0 -9 -7.5 -15t-17.5 -6h-66q-8 0 -15 6t-7 15v61zM-40 116q0 5 11 8.5t22 3.5h63q24 0 32 4.5t8 28.5v119t-2 134q0 8 5.5 13.5t14.5 5.5h84q11 0 16 -5.5t6 -13.5q1 -32 1.5 -56.5t0.5 -46.5v-44v-49q0 -64 -0.5 -107.5t-3.5 -70.5
q-2 -10 -6.5 -17t-16.5 -12q-11 -3 -29.5 -5t-41 -3.5t-46.5 -2t-44 -0.5h-41q-11 0 -22 3t-11 9v104z" />
    <glyph glyph-name="uniFE9C" unicode="&#x62b;" horiz-adv-x="312" arabic-form="medial" 
d="M-40 116q0 5 11 8.5t22 3.5h46q9 0 19 1t18.5 4.5t14.5 10t6 18.5v249q0 8 5.5 13.5t14.5 5.5h87q8 0 13.5 -5.5t5.5 -13.5v-266q3 -5 11 -8.5t18 -5.5t19.5 -2.5t16.5 -0.5h24v-128h-12q-38 0 -77 6.5t-65 27.5q-14 -10 -31 -16.5t-35.5 -10.5t-37 -5.5t-34.5 -1.5h-27
q-11 0 -22 3t-11 9v104zM6 635q0 10 7 16t17 6h69q10 0 17.5 -6t7.5 -16v-73q0 -8 -8 -14.5t-17 -6.5h-69q-10 0 -17 6.5t-7 14.5v73zM191 635q0 10 7.5 16t16.5 6h70q10 0 16.5 -6t6.5 -16v-73q0 -8 -6.5 -14.5t-16.5 -6.5h-70q-9 0 -16.5 6.5t-7.5 14.5v73zM103 777
q0 9 7.5 15.5t15.5 6.5h66q10 0 17 -6.5t7 -15.5v-61q0 -9 -7.5 -15t-17.5 -6h-66q-8 0 -15 6t-7 15v61z" />
    <glyph glyph-name="uniFE9D" unicode="&#x62c;" horiz-adv-x="621" arabic-form="isolated" 
d="M52 -14q0 13 0.5 29.5t2 32.5t3 30t3.5 24t7 15.5t16 5.5q6 0 18 0.5t27 1t30.5 0.5h26.5h246l-29 66l-19 41q-15 31 -35 56.5t-47 43.5t-62.5 27.5t-83.5 9.5q-7 0 -22.5 -0.5t-26.5 -1.5q-22 -1 -22 16v73q0 16 20 20q26 5 48 7t48 2q52 0 97.5 -11t85 -38.5t74 -73
t65.5 -114.5l13 -26l38 -95q6 -14 6 -35v-69q0 -23 -26 -23h-300h-36t-36 -1q-1 -5 -1 -16.5v-16.5q2 -60 25 -88t56 -33l6 -1q16 -3 16 -19v-63q0 -18 -20 -21q-5 -1 -10.5 -1h-8.5q-41 0 -76 15t-61 45t-41 76.5t-15 109.5zM325 -86q0 10 7.5 16.5t16.5 6.5h65
q10 0 17.5 -6.5t7.5 -16.5v-64q0 -9 -7.5 -15.5t-17.5 -6.5h-65q-9 0 -16.5 6.5t-7.5 15.5v64z" />
    <glyph glyph-name="uniFE9E" unicode="&#x62c;" horiz-adv-x="611" arabic-form="final" 
d="M52 -14q0 13 0.5 29.5t2 32.5t3 30t3.5 24q5 21 22 21q6 0 18.5 0.5t27.5 1t30.5 0.5h26.5h253l-28 65l-19 42q-29 63 -84 100t-150 37q-6 0 -23 -0.5t-28 -1.5q-22 -1 -22 16v73q0 16 20 20q26 5 48 7t48 2q55 0 102.5 -11.5t88 -39t75 -73t64.5 -113.5l13 -28
q2 -5 7 -16.5t10 -23.5t10 -23t7 -15q5 -8 10 -11t14 -3h9v-128h-357h-36t-36 -1q-1 -5 -1 -16.5v-16.5q2 -60 25 -88t56 -33l6 -1q16 -3 16 -19v-63q0 -20 -21 -21q-4 -1 -9.5 -1h-8.5q-40 0 -75 15t-61.5 45t-41.5 76.5t-15 109.5zM325 -86q0 10 7.5 16.5t16.5 6.5h65
q10 0 17.5 -6.5t7.5 -16.5v-64q0 -9 -7.5 -15.5t-17.5 -6.5h-65q-9 0 -16.5 6.5t-7.5 15.5v64z" />
    <glyph glyph-name="uniFE9F" unicode="&#x62c;" horiz-adv-x="608" arabic-form="initial" 
d="M193 -110q0 10 7 16.5t16 6.5h77q10 0 17.5 -6.5t7.5 -16.5v-80q0 -8 -7.5 -14.5t-17.5 -6.5h-77q-9 0 -16 6.5t-7 14.5v80zM-40 116q0 5 11 8.5t22 3.5h425l-27 62l-20 42q-29 63 -84 100t-150 37q-7 0 -25 -0.5t-29 -1.5q-21 -2 -21 16v74q0 14 20 19q49 9 98 9
q55 0 102 -11.5t87.5 -39t75.5 -73t65 -113.5l13 -28l38 -93q6 -14 6 -35v-69q0 -23 -26 -23h-548q-12 0 -22.5 3.5t-10.5 8.5v104z" />
    <glyph glyph-name="uniFEA0" unicode="&#x62c;" horiz-adv-x="591" arabic-form="medial" 
d="M-7 0q-12 0 -22.5 4t-10.5 8v104q0 5 11 8.5t22 3.5h425l-27 62l-20 42q-29 64 -84 100.5t-150 36.5q-7 0 -25 -0.5t-29 -1.5q-21 -2 -21 16v74q0 15 20 19q25 5 48.5 7t49.5 2q55 0 102 -11.5t88 -39t76 -73t65 -113.5l13 -28q3 -8 8 -19.5l10 -23t9 -21.5t7 -14
q5 -8 10 -11t13 -3h10v-128h-598zM193 -110q0 10 7 16.5t16 6.5h77q10 0 17.5 -6.5t7.5 -16.5v-80q0 -8 -7.5 -14.5t-17.5 -6.5h-77q-9 0 -16 6.5t-7 14.5v80z" />
    <glyph glyph-name="uniFEA1" unicode="&#x62d;" horiz-adv-x="621" arabic-form="isolated" 
d="M52 -12q0 13 0.5 29t2 31.5t3 29.5t3.5 24t7 15.5t16 5.5q6 0 18 0.5t27 1t30.5 0.5h26.5h246l-29 66l-19 41q-15 31 -35 56.5t-47 43.5t-62.5 27.5t-83.5 9.5q-7 0 -22.5 -0.5t-26.5 -1.5q-22 -1 -22 16v73q0 16 20 20q26 5 48 7t48 2q52 0 97.5 -11t85 -38.5t74 -73
t65.5 -114.5l13 -26l38 -95q6 -14 6 -35v-69q0 -23 -26 -23h-300h-36t-36 -1q-1 -5 -1 -15v-15q2 -60 31.5 -89.5t91.5 -29.5h7.5t9.5 -1q16 -1 16 -18v-69q0 -20 -22 -21q-3 -1 -12 -1h-12q-118 0 -178.5 60.5t-60.5 187.5z" />
    <glyph glyph-name="uniFEA2" unicode="&#x62d;" horiz-adv-x="611" arabic-form="final" 
d="M52 -12q0 13 0.5 29t2 31.5t3 29.5t3.5 24q5 21 22 21q6 0 18.5 0.5t27.5 1t30.5 0.5h26.5h253l-28 65l-19 42q-29 63 -84 100t-150 37q-6 0 -23 -0.5t-28 -1.5q-22 -1 -22 16v73q0 16 20 20q26 5 48 7t48 2q55 0 102.5 -11.5t88 -39t75 -73t64.5 -113.5l13 -28
q2 -5 7 -16.5t10 -23.5t10 -23t7 -15q5 -8 10 -11t14 -3h9v-128h-357h-36t-36 -1q-1 -5 -1 -15v-15q3 -119 121 -119h8.5t10.5 -1q16 -1 16 -18v-69q0 -20 -21 -21q-4 -1 -13.5 -1h-12.5q-117 0 -177.5 60.5t-60.5 187.5z" />
    <glyph glyph-name="uniFEA3" unicode="&#x62d;" horiz-adv-x="607" arabic-form="initial" 
d="M-40 116q0 5 11 8.5t22 3.5h425l-27 62l-20 42q-29 63 -84 100t-150 37q-7 0 -25 -0.5t-29 -1.5q-21 -2 -21 16v74q0 14 20 19q49 9 98 9q55 0 102 -11.5t87.5 -39t75.5 -73t65 -113.5l13 -28l38 -93q6 -14 6 -35v-69q0 -23 -26 -23h-548q-12 0 -22.5 3.5t-10.5 8.5v104z
" />
    <glyph glyph-name="uniFEA4" unicode="&#x62d;" horiz-adv-x="591" arabic-form="medial" 
d="M-7 0q-12 0 -22.5 4t-10.5 8v104q0 5 11 8.5t22 3.5h425l-27 62l-20 42q-29 64 -84 100.5t-150 36.5q-7 0 -25 -0.5t-29 -1.5q-21 -2 -21 16v74q0 15 20 19q25 5 48.5 7t49.5 2q55 0 102 -11.5t88 -39t76 -73t65 -113.5l13 -28q3 -8 8 -19.5l10 -23t9 -21.5t7 -14
q5 -8 10 -11t13 -3h10v-128h-598z" />
    <glyph glyph-name="uniFEA5" unicode="&#x62e;" horiz-adv-x="621" arabic-form="isolated" 
d="M52 -12q0 13 0.5 29t2 31.5t3 29.5t3.5 24t7 15.5t16 5.5q6 0 18 0.5t27 1t30.5 0.5h26.5h246l-29 66l-19 41q-15 31 -35 56.5t-47 43.5t-62.5 27.5t-83.5 9.5q-7 0 -22.5 -0.5t-26.5 -1.5q-22 -1 -22 16v73q0 16 20 20q26 5 48 7t48 2q52 0 97.5 -11t85 -38.5t74 -73
t65.5 -114.5l13 -26l38 -95q6 -14 6 -35v-69q0 -23 -26 -23h-300h-36t-36 -1q-1 -5 -1 -15v-15q2 -60 31.5 -89.5t91.5 -29.5h7.5t9.5 -1q16 -1 16 -18v-69q0 -20 -22 -21q-3 -1 -12 -1h-12q-118 0 -178.5 60.5t-60.5 187.5zM203 681q0 10 7 16.5t17 6.5h79q9 0 15.5 -6.5
t6.5 -16.5v-78q0 -9 -6.5 -15.5t-16.5 -6.5h-78q-11 0 -17.5 6.5t-6.5 15.5v78z" />
    <glyph glyph-name="uniFEA6" unicode="&#x62e;" horiz-adv-x="611" arabic-form="final" 
d="M204 681q0 10 7 16.5t17 6.5h79q9 0 15.5 -6.5t6.5 -16.5v-78q0 -9 -6.5 -15.5t-16.5 -6.5h-78q-11 0 -17.5 6.5t-6.5 15.5v78zM52 -12q0 13 0.5 29t2 31.5t3 29.5t3.5 24q5 21 22 21q6 0 18.5 0.5t27.5 1t30.5 0.5h26.5h253l-28 65l-19 42q-29 63 -84 100t-150 37
q-6 0 -23 -0.5t-28 -1.5q-22 -1 -22 16v73q0 16 20 20q26 5 48 7t48 2q55 0 102.5 -11.5t88 -39t75 -73t64.5 -113.5l13 -28q2 -5 7 -16.5t10 -23.5t10 -23t7 -15q5 -8 10 -11t14 -3h9v-128h-357h-36t-36 -1q-1 -5 -1 -15v-15q3 -119 121 -119h8.5t10.5 -1q16 -1 16 -18v-69
q0 -20 -21 -21q-4 -1 -13.5 -1h-12.5q-117 0 -177.5 60.5t-60.5 187.5z" />
    <glyph glyph-name="uniFEA7" unicode="&#x62e;" horiz-adv-x="616" arabic-form="initial" 
d="M183 681q0 10 7 16.5t17 6.5h79q9 0 15.5 -6.5t6.5 -16.5v-78q0 -9 -6.5 -15.5t-16.5 -6.5h-78q-11 0 -17.5 6.5t-6.5 15.5v78zM-40 116q0 5 11 8.5t22 3.5h425l-27 62l-20 42q-29 63 -84 100t-150 37q-7 0 -25 -0.5t-29 -1.5q-21 -2 -21 16v74q0 14 20 19q49 9 98 9
q55 0 102 -11.5t87.5 -39t75.5 -73t65 -113.5l13 -28l38 -93q6 -14 6 -35v-69q0 -23 -26 -23h-548q-12 0 -22.5 3.5t-10.5 8.5v104z" />
    <glyph glyph-name="uniFEA8" unicode="&#x62e;" horiz-adv-x="591" arabic-form="medial" 
d="M-7 0q-12 0 -22.5 4t-10.5 8v104q0 5 11 8.5t22 3.5h425l-27 62l-20 42q-29 64 -84 100.5t-150 36.5q-7 0 -25 -0.5t-29 -1.5q-21 -2 -21 16v74q0 15 20 19q25 5 48.5 7t49.5 2q55 0 102 -11.5t88 -39t76 -73t65 -113.5l13 -28q3 -8 8 -19.5l10 -23t9 -21.5t7 -14
q5 -8 10 -11t13 -3h10v-128h-598zM183 681q0 10 7 16.5t17 6.5h79q9 0 15.5 -6.5t6.5 -16.5v-78q0 -9 -6.5 -15.5t-16.5 -6.5h-78q-11 0 -17.5 6.5t-6.5 15.5v78z" />
    <glyph glyph-name="uniFEA9" unicode="&#x62f;" horiz-adv-x="507" arabic-form="isolated" 
d="M47 110q0 8 6 13t14 5h261l-2 91q-2 37 -11.5 65.5t-30 48.5t-53 30.5t-79.5 10.5h-12h-17t-18 -0.5t-15 -1.5q-19 0 -19 15v74q0 8 4.5 13.5t15.5 7.5q28 5 56 6t42 1q74 0 123.5 -22t79 -59t43 -85.5t15.5 -101.5q0 -8 0.5 -23t1 -33t0.5 -35.5v-28.5q0 -14 -0.5 -39
t-2.5 -43q0 -8 -5.5 -13.5t-16.5 -5.5h-360q-8 0 -14 5t-6 13v92z" />
    <glyph glyph-name="uniFEAA" unicode="&#x62f;" horiz-adv-x="514" arabic-form="final" 
d="M47 110q0 8 6 13t14 5h261l-2 91q-2 37 -11.5 65.5t-29.5 48.5t-52.5 30.5t-78.5 10.5h-12h-17.5t-19 -0.5t-15.5 -1.5q-19 0 -19 15v74q0 8 4.5 14t15.5 7q28 5 56 6t42 1q73 0 122.5 -22t79.5 -59t43.5 -85.5t15.5 -101.5l1 -93h63v-128h-447q-8 0 -14 5t-6 13v92z" />
    <glyph glyph-name="uniFEAB" unicode="&#x630;" horiz-adv-x="507" arabic-form="isolated" 
d="M47 110q0 8 6 13t14 5h261l-2 91q-2 37 -11.5 65.5t-30 48.5t-53 30.5t-79.5 10.5h-12h-17t-18 -0.5t-15 -1.5q-19 0 -19 15v74q0 8 4.5 13.5t15.5 7.5q28 5 56 6t42 1q74 0 123.5 -22t79 -59t43 -85.5t15.5 -101.5q0 -8 0.5 -23t1 -33t0.5 -35.5v-28.5q0 -14 -0.5 -39
t-2.5 -43q0 -8 -5.5 -13.5t-16.5 -5.5h-360q-8 0 -14 5t-6 13v92zM169 689q0 10 7 16.5t17 6.5h79q9 0 15.5 -6.5t6.5 -16.5v-78q0 -9 -6.5 -15.5t-16.5 -6.5h-78q-11 0 -17.5 6.5t-6.5 15.5v78z" />
    <glyph glyph-name="uniFEAC" unicode="&#x630;" horiz-adv-x="514" arabic-form="final" 
d="M169 689q0 10 7 16.5t17 6.5h79q9 0 15.5 -6.5t6.5 -16.5v-78q0 -9 -6.5 -15.5t-16.5 -6.5h-78q-11 0 -17.5 6.5t-6.5 15.5v78zM47 110q0 8 6 13t14 5h261l-2 91q-2 37 -11.5 65.5t-29.5 48.5t-52.5 30.5t-78.5 10.5h-12h-17.5t-19 -0.5t-15.5 -1.5q-19 0 -19 15v74
q0 8 4.5 14t15.5 7q28 5 56 6t42 1q73 0 122.5 -22t79.5 -59t43.5 -85.5t15.5 -101.5l1 -93h63v-128h-447q-8 0 -14 5t-6 13v92z" />
    <glyph glyph-name="uniFEAD" unicode="&#x631;" horiz-adv-x="303" arabic-form="isolated" 
d="M-37 -142q0 15 17 15h21q28 0 47.5 2.5t31.5 11.5t17.5 26.5t5.5 48.5v449q0 8 5.5 13.5t14.5 5.5h87q8 0 13.5 -5.5t5.5 -13.5v-434q0 -38 -4 -73t-19 -64q-23 -43 -63 -60.5t-103 -17.5q-8 0 -29 0.5t-34 2.5q-14 3 -14 19v74z" />
    <glyph glyph-name="uniFEAE" unicode="&#x631;" horiz-adv-x="318" arabic-form="final" 
d="M-37 -142q0 15 17 15h21q28 0 47.5 2.5t31.5 11.5t17.5 26.5t5.5 48.5v449q0 8 5.5 13.5t14.5 5.5h87q8 0 13.5 -5.5t5.5 -13.5v-283h89v-128h-92v-47q0 -34 -4.5 -63t-15.5 -50q-23 -43 -63 -60.5t-103 -17.5q-8 0 -29 0.5t-34 2.5q-14 3 -14 19v74z" />
    <glyph glyph-name="uniFEAF" unicode="&#x632;" horiz-adv-x="303" arabic-form="isolated" 
d="M-37 -142q0 15 17 15h21q28 0 47.5 2.5t31.5 11.5t17.5 26.5t5.5 48.5v449q0 8 5.5 13.5t14.5 5.5h87q8 0 13.5 -5.5t5.5 -13.5v-434q0 -38 -4 -73t-19 -64q-23 -43 -63 -60.5t-103 -17.5q-8 0 -29 0.5t-34 2.5q-14 3 -14 19v74zM104 641q0 10 7 16.5t17 6.5h79
q9 0 15.5 -6.5t6.5 -16.5v-78q0 -9 -6.5 -15.5t-16.5 -6.5h-78q-11 0 -17.5 6.5t-6.5 15.5v78z" />
    <glyph glyph-name="uniFEB0" unicode="&#x632;" horiz-adv-x="318" arabic-form="final" 
d="M-37 -142q0 15 17 15h21q28 0 47.5 2.5t31.5 11.5t17.5 26.5t5.5 48.5v449q0 8 5.5 13.5t14.5 5.5h87q8 0 13.5 -5.5t5.5 -13.5v-283h89v-128h-92v-47q0 -34 -4.5 -63t-15.5 -50q-23 -43 -63 -60.5t-103 -17.5q-8 0 -29 0.5t-34 2.5q-14 3 -14 19v74zM104 641
q0 10 7 16.5t17 6.5h79q9 0 15.5 -6.5t6.5 -16.5v-78q0 -9 -6.5 -15.5t-16.5 -6.5h-78q-11 0 -17.5 6.5t-6.5 15.5v78z" />
    <glyph glyph-name="uniFEB1" unicode="&#x633;" horiz-adv-x="1146" arabic-form="isolated" 
d="M156 298q19 0 17 -19q-2 -22 -3 -47t-1 -39q0 -56 5.5 -101t25 -76.5t58 -48.5t105.5 -17q15 0 30.5 1t38.5 5q1 49 1.5 85.5t0.5 77.5v249q0 9 6 15t14 6h86q9 0 14.5 -6t5.5 -15v-226q7 -12 24.5 -15t31.5 -3h22q9 0 18 1t17 4.5t13 10t5 17.5v244q0 8 6 13.5t14 5.5
h84q8 0 14 -5.5t6 -13.5v-259q6 -12 27.5 -15t41.5 -3h21q25 0 33 4t8 28v62.5t-0.5 71.5t-1 75t-0.5 74q0 7 5.5 13t13.5 6h84q11 0 16 -5.5t5 -13.5q1 -33 2 -62t1.5 -55t0.5 -51.5v-52.5v-56q0 -28 -0.5 -60t-3.5 -60q-2 -9 -7 -16.5t-16 -12.5q-22 -6 -54.5 -8.5
t-60.5 -2.5h-12q-18 0 -39 1t-42 4t-41.5 9.5t-36.5 17.5q-24 -19 -58.5 -25.5t-72.5 -6.5h-19q-12 0 -25 1.5t-24 8.5q0 -39 -0.5 -78t-2.5 -67q-2 -20 -23 -23q-41 -11 -81.5 -16t-85.5 -5q-84 0 -144.5 18t-99.5 56t-57.5 97t-18.5 140q0 10 1 28t2.5 38.5t4 41t5.5 36.5
q2 11 6 15.5t15 4.5h75z" />
    <glyph glyph-name="uniFEB2" unicode="&#x633;" horiz-adv-x="1164" arabic-form="final" 
d="M156 298q19 0 17 -19q-2 -22 -3 -47t-1 -39q0 -56 5.5 -101t25 -76.5t58 -48.5t105.5 -17q16 0 32.5 1t36.5 5q1 49 1.5 85.5t0.5 77.5v249q0 9 6 15t14 6h86q9 0 14.5 -6t5.5 -15v-226q3 -6 10.5 -9.5t16.5 -5.5t18.5 -2.5t16.5 -0.5h16q9 0 18 1t17 4.5t13 10t5 17.5
v244q0 8 6 13.5t14 5.5h85q8 0 13.5 -5.5t5.5 -13.5v-259q6 -12 25 -15t39 -3h8q9 0 19.5 1t19.5 4t14.5 9.5t5.5 18.5v280q0 9 6 15t14 6h86q8 0 14 -6t6 -15v-292q3 -5 11 -8.5t17.5 -5.5t19 -2.5t16.5 -0.5h28v-128h-17q-15 0 -32.5 1.5t-35.5 5.5t-35 10.5t-31 16.5
q-23 -20 -54 -27t-67 -7h-12q-36 0 -66 7t-56 27q-24 -19 -58.5 -25.5t-72.5 -6.5h-17q-10 0 -24.5 1.5t-25.5 8.5q0 -39 -0.5 -78.5t-2.5 -66.5q-1 -17 -23 -23q-75 -21 -167 -21q-84 0 -144.5 18t-99.5 56t-57.5 97t-18.5 140q0 10 1 28t2.5 38.5t4 41t5.5 36.5
q2 11 6 15.5t15 4.5h75z" />
    <glyph glyph-name="uniFEB3" unicode="&#x633;" horiz-adv-x="792" arabic-form="initial" 
d="M-40 116q0 5 11 8.5t22 3.5h32q19 0 37.5 5.5t18.5 28.5v203q0 9 6 15t14 6h85q8 0 13.5 -6t5.5 -15v-223q3 -6 11 -9.5t17 -5.5t18.5 -2.5t16.5 -0.5h15q9 0 18.5 1t17.5 4.5t13 10t5 17.5v244q0 8 6 13.5t14 5.5h84q8 0 14 -5.5t6 -13.5v-259q6 -12 27 -15t41 -3h23
q24 0 32 4t8 28v62.5v71.5t-0.5 75t-1.5 74q0 7 5 13t14 6h85q11 0 16 -5.5t5 -13.5q1 -33 1.5 -62t1 -55t0.5 -51.5v-52.5v-56q0 -28 -0.5 -60t-3.5 -60q-2 -9 -6 -16.5t-16 -12.5q-21 -6 -51 -8.5t-65 -2.5h-13q-35 0 -76 5.5t-70 26.5q-23 -19 -55.5 -26.5t-67.5 -7.5
h-13q-37 0 -69 7t-59 27q-26 -20 -62.5 -27t-70.5 -7h-27q-11 0 -22 3t-11 9v104z" />
    <glyph glyph-name="uniFEB4" unicode="&#x633;" horiz-adv-x="811" arabic-form="medial" 
d="M-40 116q0 5 11 8.5t22 3.5h32q19 0 37.5 5.5t18.5 28.5v203q0 9 6 15t14 6h85q8 0 13.5 -6t5.5 -15v-223q3 -6 11 -9.5t17 -5.5t18.5 -2.5t16.5 -0.5h14q9 0 18.5 1t17.5 4.5t13.5 10t5.5 17.5v244q0 8 6 13.5t14 5.5h84q8 0 14 -5.5t6 -13.5v-259q6 -12 24.5 -15
t38.5 -3h10q9 0 19 1t18.5 4t14.5 9.5t6 18.5v280q0 9 6 15t14 6h87q8 0 13.5 -6t5.5 -15v-292q3 -5 11.5 -8.5t19 -5.5t21 -2.5t17.5 -0.5h24v-128h-13q-30 0 -69 7t-69 27q-26 -22 -59 -28t-66 -6h-11q-35 0 -64 7t-59 27q-24 -19 -53.5 -26.5t-67.5 -7.5h-13
q-30 0 -60 6.5t-58 27.5q-14 -11 -30.5 -17.5t-34 -10.5t-34.5 -5t-31 -1h-26q-11 0 -22 3t-11 9v104z" />
    <glyph glyph-name="uniFEB5" unicode="&#x634;" horiz-adv-x="1146" arabic-form="isolated" 
d="M156 298q19 0 17 -19q-2 -22 -3 -47t-1 -39q0 -56 5.5 -101t25 -76.5t58 -48.5t105.5 -17q15 0 30.5 1t38.5 5q1 49 1.5 85.5t0.5 77.5v249q0 9 6 15t14 6h86q9 0 14.5 -6t5.5 -15v-226q7 -12 24.5 -15t31.5 -3h22q9 0 18 1t17 4.5t13 10t5 17.5v244q0 8 6 13.5t14 5.5
h84q8 0 14 -5.5t6 -13.5v-259q6 -12 27.5 -15t41.5 -3h21q25 0 33 4t8 28v62.5t-0.5 71.5t-1 75t-0.5 74q0 7 5.5 13t13.5 6h84q11 0 16 -5.5t5 -13.5q1 -33 2 -62t1.5 -55t0.5 -51.5v-52.5v-56q0 -28 -0.5 -60t-3.5 -60q-2 -9 -7 -16.5t-16 -12.5q-22 -6 -54.5 -8.5
t-60.5 -2.5h-12q-18 0 -39 1t-42 4t-41.5 9.5t-36.5 17.5q-24 -19 -58.5 -25.5t-72.5 -6.5h-19q-12 0 -25 1.5t-24 8.5q0 -39 -0.5 -78t-2.5 -67q-2 -20 -23 -23q-41 -11 -81.5 -16t-85.5 -5q-84 0 -144.5 18t-99.5 56t-57.5 97t-18.5 140q0 10 1 28t2.5 38.5t4 41t5.5 36.5
q2 11 6 15.5t15 4.5h75zM592 625q0 10 7 16t17 6h69q10 0 17.5 -6t7.5 -16v-73q0 -8 -8 -14.5t-17 -6.5h-69q-10 0 -17 6.5t-7 14.5v73zM777 625q0 10 7.5 16t16.5 6h70q10 0 16.5 -6t6.5 -16v-73q0 -8 -6.5 -14.5t-16.5 -6.5h-70q-9 0 -16.5 6.5t-7.5 14.5v73zM689 767
q0 9 7.5 15.5t15.5 6.5h66q10 0 17 -6.5t7 -15.5v-61q0 -9 -7.5 -15t-17.5 -6h-66q-8 0 -15 6t-7 15v61z" />
    <glyph glyph-name="uniFEB6" unicode="&#x634;" horiz-adv-x="1164" arabic-form="final" 
d="M591 625q0 10 7 16t17 6h69q10 0 17.5 -6t7.5 -16v-73q0 -8 -8 -14.5t-17 -6.5h-69q-10 0 -17 6.5t-7 14.5v73zM776 625q0 10 7.5 16t16.5 6h70q10 0 16.5 -6t6.5 -16v-73q0 -8 -6.5 -14.5t-16.5 -6.5h-70q-9 0 -16.5 6.5t-7.5 14.5v73zM688 767q0 9 7.5 15.5t15.5 6.5
h66q10 0 17 -6.5t7 -15.5v-61q0 -9 -7.5 -15t-17.5 -6h-66q-8 0 -15 6t-7 15v61zM156 298q19 0 17 -19q-2 -22 -3 -47t-1 -39q0 -56 5.5 -101t25 -76.5t58 -48.5t105.5 -17q16 0 32.5 1t36.5 5q1 49 1.5 85.5t0.5 77.5v249q0 9 6 15t14 6h86q9 0 14.5 -6t5.5 -15v-226
q3 -6 10.5 -9.5t16.5 -5.5t18.5 -2.5t16.5 -0.5h16q9 0 18 1t17 4.5t13 10t5 17.5v244q0 8 6 13.5t14 5.5h85q8 0 13.5 -5.5t5.5 -13.5v-259q6 -12 25 -15t39 -3h8q9 0 19.5 1t19.5 4t14.5 9.5t5.5 18.5v280q0 9 6 15t14 6h86q8 0 14 -6t6 -15v-292q3 -5 11 -8.5t17.5 -5.5
t19 -2.5t16.5 -0.5h28v-128h-17q-15 0 -32.5 1.5t-35.5 5.5t-35 10.5t-31 16.5q-23 -20 -54 -27t-67 -7h-12q-36 0 -66 7t-56 27q-24 -19 -58.5 -25.5t-72.5 -6.5h-17q-10 0 -24.5 1.5t-25.5 8.5q0 -39 -0.5 -78.5t-2.5 -66.5q-1 -17 -23 -23q-75 -21 -167 -21
q-84 0 -144.5 18t-99.5 56t-57.5 97t-18.5 140q0 10 1 28t2.5 38.5t4 41t5.5 36.5q2 11 6 15.5t15 4.5h75z" />
    <glyph glyph-name="uniFEB7" unicode="&#x634;" horiz-adv-x="792" arabic-form="initial" 
d="M237 625q0 10 7 16t17 6h69q10 0 17.5 -6t7.5 -16v-73q0 -8 -8 -14.5t-17 -6.5h-69q-10 0 -17 6.5t-7 14.5v73zM422 625q0 10 7.5 16t16.5 6h70q10 0 16.5 -6t6.5 -16v-73q0 -8 -6.5 -14.5t-16.5 -6.5h-70q-9 0 -16.5 6.5t-7.5 14.5v73zM334 767q0 9 7.5 15.5t15.5 6.5
h66q10 0 17 -6.5t7 -15.5v-61q0 -9 -7.5 -15t-17.5 -6h-66q-8 0 -15 6t-7 15v61zM-40 116q0 5 11 8.5t22 3.5h32q19 0 37.5 5.5t18.5 28.5v203q0 9 6 15t14 6h85q8 0 13.5 -6t5.5 -15v-223q3 -6 11 -9.5t17 -5.5t18.5 -2.5t16.5 -0.5h15q9 0 18.5 1t17.5 4.5t13 10t5 17.5
v244q0 8 6 13.5t14 5.5h84q8 0 14 -5.5t6 -13.5v-259q6 -12 27 -15t41 -3h23q24 0 32 4t8 28v62.5v71.5t-0.5 75t-1.5 74q0 7 5 13t14 6h85q11 0 16 -5.5t5 -13.5q1 -33 1.5 -62t1 -55t0.5 -51.5v-52.5v-56q0 -28 -0.5 -60t-3.5 -60q-2 -9 -6 -16.5t-16 -12.5
q-21 -6 -51 -8.5t-65 -2.5h-13q-35 0 -76 5.5t-70 26.5q-23 -19 -55.5 -26.5t-67.5 -7.5h-13q-37 0 -69 7t-59 27q-26 -20 -62.5 -27t-70.5 -7h-27q-11 0 -22 3t-11 9v104z" />
    <glyph glyph-name="uniFEB8" unicode="&#x634;" horiz-adv-x="811" arabic-form="medial" 
d="M237 625q0 10 7 16t17 6h69q10 0 17.5 -6t7.5 -16v-73q0 -8 -8 -14.5t-17 -6.5h-69q-10 0 -17 6.5t-7 14.5v73zM422 625q0 10 7.5 16t16.5 6h70q10 0 16.5 -6t6.5 -16v-73q0 -8 -6.5 -14.5t-16.5 -6.5h-70q-9 0 -16.5 6.5t-7.5 14.5v73zM334 767q0 9 7.5 15.5t15.5 6.5
h66q10 0 17 -6.5t7 -15.5v-61q0 -9 -7.5 -15t-17.5 -6h-66q-8 0 -15 6t-7 15v61zM-40 116q0 5 11 8.5t22 3.5h32q19 0 37.5 5.5t18.5 28.5v203q0 9 6 15t14 6h85q8 0 13.5 -6t5.5 -15v-223q3 -6 11 -9.5t17 -5.5t18.5 -2.5t16.5 -0.5h14q9 0 18.5 1t17.5 4.5t13.5 10
t5.5 17.5v244q0 8 6 13.5t14 5.5h84q8 0 14 -5.5t6 -13.5v-259q6 -12 24.5 -15t38.5 -3h10q9 0 19 1t18.5 4t14.5 9.5t6 18.5v280q0 9 6 15t14 6h87q8 0 13.5 -6t5.5 -15v-292q3 -5 11.5 -8.5t19 -5.5t21 -2.5t17.5 -0.5h24v-128h-13q-30 0 -69 7t-69 27q-26 -22 -59 -28
t-66 -6h-11q-35 0 -64 7t-59 27q-24 -19 -53.5 -26.5t-67.5 -7.5h-13q-30 0 -60 6.5t-58 27.5q-14 -11 -30.5 -17.5t-34 -10.5t-34.5 -5t-31 -1h-26q-11 0 -22 3t-11 9v104z" />
    <glyph glyph-name="uniFEB9" unicode="&#x635;" horiz-adv-x="1138" arabic-form="isolated" 
d="M47 140q0 10 1 28t2.5 38t4 40.5t5.5 37.5q2 10 6 14.5t15 4.5h78q18 0 17 -20q-2 -21 -3 -45.5t-1 -38.5q0 -56 6.5 -102t27 -78.5t60 -50.5t105.5 -18q15 0 35 1t43 5q1 49 1 85.5v77.5v348q0 8 6 14t15 6h86q8 0 13.5 -6t5.5 -14v-37q26 19 57 30.5t61.5 18t57.5 8.5
t44 2q64 0 116.5 -14t89.5 -45.5t57 -83t20 -125.5v-41q0 -33 -3.5 -74.5t-10.5 -71.5q-2 -10 -9 -18.5t-23 -10.5q-15 -2 -46.5 -2.5t-68 -1.5t-72 -1h-56.5h-214q0 -32 -0.5 -68.5t-2.5 -64.5q-1 -17 -23 -23q-41 -11 -86 -16t-90 -5q-167 0 -247 77t-80 240zM576 127
q23 -1 52.5 -1.5t69.5 -0.5h233q13 0 17.5 12.5t4.5 53.5v15q0 45 -11.5 76t-34.5 50t-59 27t-85 8q-16 0 -40 -2t-50.5 -7.5t-52 -15t-44.5 -23.5v-192z" />
    <glyph glyph-name="uniFEBA" unicode="&#x635;" horiz-adv-x="1153" arabic-form="final" 
d="M47 139q0 10 1 28t2.5 38.5t4 41t5.5 37.5q2 10 6 14.5t15 4.5h78q18 0 17 -20q-2 -21 -3 -45.5t-1 -39.5q0 -56 6 -101.5t26 -78t59.5 -50.5t105.5 -18q15 0 36 1t44 5q1 49 1 85.5v77.5v348q0 8 6 14t15 6h86q8 0 13.5 -6t5.5 -14v-37q26 19 57 30.5t61.5 18t57.5 8.5
t44 2q64 0 116.5 -14t89.5 -45.5t57 -83t20 -125.5v-22q0 -7 -0.5 -17t-1 -20.5t-2 -19.5t-3.5 -14h81v-128h-577q0 -32 -0.5 -68.5t-3.5 -64.5q-1 -17 -22 -23q-41 -11 -87 -16t-91 -5q-167 0 -246 76.5t-79 239.5zM576 127q23 -1 52.5 -1.5t69.5 -0.5h230q14 0 19.5 13
t5.5 53v15q0 45 -11.5 76t-34.5 50t-59 27t-85 8q-16 0 -40 -2t-50.5 -7.5t-52 -15t-44.5 -23.5v-192z" />
    <glyph glyph-name="uniFEBB" unicode="&#x635;" horiz-adv-x="782" arabic-form="initial" 
d="M-40 116q0 5 11 8.5t22 3.5h100v339q0 8 6 14t14 6h86q8 0 14 -6t6 -14v-37q26 19 57 30.5t61.5 18t57.5 8.5t44 2q64 0 116.5 -14t89.5 -45.5t57 -83t20 -125.5v-41q0 -33 -3 -74.5t-10 -71.5q-3 -10 -9.5 -18.5t-22.5 -10.5q-14 -2 -46 -2.5t-69 -1.5t-72 -1h-56h-441
q-11 0 -22 3t-11 9v104zM219 127q23 -1 53 -1.5t69 -0.5h235q13 0 16.5 12.5t3.5 53.5v15q0 45 -11.5 76t-34.5 50t-59 27t-85 8q-16 0 -40 -2t-50.5 -7.5t-52 -15t-44.5 -23.5v-192z" />
    <glyph glyph-name="uniFEBC" unicode="&#x635;" horiz-adv-x="796" arabic-form="medial" 
d="M-40 116q0 5 11 8.5t22 3.5h100v339q0 8 6 14t14 6h86q8 0 14 -6t6 -14v-37q26 19 57 30.5t61.5 18t57.5 8.5t44 2q64 0 116.5 -14t89.5 -45.5t57 -83t20 -125.5v-22v-17t-0.5 -20.5t-2 -19.5t-3.5 -14h80v-128h-803q-11 0 -22 3t-11 9v104zM219 127q23 -1 53 -1.5
t69 -0.5h231q12 0 18 13t6 53v15q0 45 -11.5 76t-34.5 50t-59 27t-85 8q-16 0 -40 -2t-50.5 -7.5t-52 -15t-44.5 -23.5v-192z" />
    <glyph glyph-name="uniFEBD" unicode="&#x636;" horiz-adv-x="1138" arabic-form="isolated" 
d="M700 690q0 10 7 16.5t17 6.5h79q9 0 15.5 -6.5t6.5 -16.5v-78q0 -9 -6.5 -15.5t-16.5 -6.5h-78q-11 0 -17.5 6.5t-6.5 15.5v78zM47 140q0 10 1 28t2.5 38t4 40.5t5.5 37.5q2 10 6 14.5t15 4.5h78q18 0 17 -20q-2 -21 -3 -45.5t-1 -38.5q0 -56 6.5 -102t27 -78.5t60 -50.5
t105.5 -18q15 0 35 1t43 5q1 49 1 85.5v77.5v348q0 8 6 14t15 6h86q8 0 13.5 -6t5.5 -14v-37q26 19 57 30.5t61.5 18t57.5 8.5t44 2q64 0 116.5 -14t89.5 -45.5t57 -83t20 -125.5v-41q0 -33 -3.5 -74.5t-10.5 -71.5q-2 -10 -9 -18.5t-23 -10.5q-15 -2 -46.5 -2.5t-68 -1.5
t-72 -1h-56.5h-214q0 -32 -0.5 -68.5t-2.5 -64.5q-1 -17 -23 -23q-41 -11 -86 -16t-90 -5q-167 0 -247 77t-80 240zM576 127q23 -1 52.5 -1.5t69.5 -0.5h233q13 0 17.5 12.5t4.5 53.5v15q0 45 -11.5 76t-34.5 50t-59 27t-85 8q-16 0 -40 -2t-50.5 -7.5t-52 -15t-44.5 -23.5
v-192z" />
    <glyph glyph-name="uniFEBE" unicode="&#x636;" horiz-adv-x="1153" arabic-form="final" 
d="M701 690q0 10 7 16.5t17 6.5h79q9 0 15.5 -6.5t6.5 -16.5v-78q0 -9 -6.5 -15.5t-16.5 -6.5h-78q-11 0 -17.5 6.5t-6.5 15.5v78zM47 139q0 10 1 28t2.5 38.5t4 41t5.5 37.5q2 10 6 14.5t15 4.5h78q18 0 17 -20q-2 -21 -3 -45.5t-1 -39.5q0 -56 6 -101.5t26 -78t59.5 -50.5
t105.5 -18q15 0 36 1t44 5q1 49 1 85.5v77.5v348q0 8 6 14t15 6h86q8 0 13.5 -6t5.5 -14v-37q26 19 57 30.5t61.5 18t57.5 8.5t44 2q64 0 116.5 -14t89.5 -45.5t57 -83t20 -125.5v-22q0 -7 -0.5 -17t-1 -20.5t-2 -19.5t-3.5 -14h81v-128h-577q0 -32 -0.5 -68.5t-3.5 -64.5
q-1 -17 -22 -23q-41 -11 -87 -16t-91 -5q-167 0 -246 76.5t-79 239.5zM576 127q23 -1 52.5 -1.5t69.5 -0.5h230q14 0 19.5 13t5.5 53v15q0 45 -11.5 76t-34.5 50t-59 27t-85 8q-16 0 -40 -2t-50.5 -7.5t-52 -15t-44.5 -23.5v-192z" />
    <glyph glyph-name="uniFEBF" unicode="&#x636;" horiz-adv-x="782" arabic-form="initial" 
d="M349 690q0 10 7 16.5t17 6.5h79q9 0 15.5 -6.5t6.5 -16.5v-78q0 -9 -6.5 -15.5t-16.5 -6.5h-78q-11 0 -17.5 6.5t-6.5 15.5v78zM-40 116q0 5 11 8.5t22 3.5h100v339q0 8 6 14t14 6h86q8 0 14 -6t6 -14v-37q26 19 57 30.5t61.5 18t57.5 8.5t44 2q64 0 116.5 -14
t89.5 -45.5t57 -83t20 -125.5v-41q0 -33 -3 -74.5t-10 -71.5q-3 -10 -9.5 -18.5t-22.5 -10.5q-14 -2 -46 -2.5t-69 -1.5t-72 -1h-56h-441q-11 0 -22 3t-11 9v104zM219 127q23 -1 53 -1.5t69 -0.5h235q13 0 16.5 12.5t3.5 53.5v15q0 45 -11.5 76t-34.5 50t-59 27t-85 8
q-16 0 -40 -2t-50.5 -7.5t-52 -15t-44.5 -23.5v-192z" />
    <glyph glyph-name="uniFEC0" unicode="&#x636;" horiz-adv-x="796" arabic-form="medial" 
d="M-40 116q0 5 11 8.5t22 3.5h100v339q0 8 6 14t14 6h86q8 0 14 -6t6 -14v-37q26 19 57 30.5t61.5 18t57.5 8.5t44 2q64 0 116.5 -14t89.5 -45.5t57 -83t20 -125.5v-22v-17t-0.5 -20.5t-2 -19.5t-3.5 -14h80v-128h-803q-11 0 -22 3t-11 9v104zM219 127q23 -1 53 -1.5
t69 -0.5h231q12 0 18 13t6 53v15q0 45 -11.5 76t-34.5 50t-59 27t-85 8q-16 0 -40 -2t-50.5 -7.5t-52 -15t-44.5 -23.5v-192zM349 690q0 10 7 16.5t17 6.5h79q9 0 15.5 -6.5t6.5 -16.5v-78q0 -9 -6.5 -15.5t-16.5 -6.5h-78q-11 0 -17.5 6.5t-6.5 15.5v78z" />
    <glyph glyph-name="uniFEC1" unicode="&#x637;" horiz-adv-x="866" arabic-form="isolated" 
d="M45 110q0 8 6 13t14 5h110v612q0 9 5.5 15t14.5 6h91q8 0 13.5 -6t5.5 -15v-305q26 18 57 29t61.5 16.5t57.5 7t44 1.5q64 0 116 -14t88.5 -45.5t56.5 -83t20 -125.5v-41q0 -33 -3 -74.5t-10 -71.5q-2 -10 -9 -18.5t-23 -10.5q-14 -2 -45.5 -2.5t-68.5 -1.5t-72 -1h-57
h-453q-8 0 -14 5t-6 13v92zM660 125q13 0 16.5 12.5t3.5 53.5v15q0 46 -11 76.5t-34 49.5t-58.5 27t-84.5 8q-17 0 -41 -1.5t-50.5 -6t-51.5 -13t-44 -22.5v-197q23 -1 52.5 -1.5t67.5 -0.5h235z" />
    <glyph glyph-name="uniFEC2" unicode="&#x637;" horiz-adv-x="880" arabic-form="final" 
d="M45 110q0 8 6 13t14 5h110v612q0 9 5.5 15t14.5 6h91q8 0 13.5 -6t5.5 -15v-305q26 18 57 29t61.5 16.5t57.5 7t44 1.5q64 0 116 -14t88.5 -45.5t56.5 -83t20 -125.5v-22q0 -15 -1 -37.5t-6 -33.5h81v-128h-815q-8 0 -14 5t-6 13v92zM655 125q13 0 19 13t6 53v15
q0 46 -11 76.5t-34 49.5t-58.5 27t-84.5 8q-17 0 -41 -1.5t-50.5 -6t-51.5 -13t-44 -22.5v-197q23 -1 49.5 -1.5t65.5 -0.5h235z" />
    <glyph glyph-name="uniFEC3" unicode="&#x637;" horiz-adv-x="796" arabic-form="initial" 
d="M-40 116q0 5 11 8.5t22 3.5h113v612q0 9 5.5 15t13.5 6h91q8 0 14 -6t6 -15v-305q26 18 57 29t61.5 16.5t57.5 7t44 1.5q64 0 116 -14t88.5 -45.5t56.5 -83t20 -125.5v-41q0 -33 -3.5 -74.5t-10.5 -71.5q-2 -10 -9 -18.5t-23 -10.5q-14 -2 -46 -2.5t-69 -1.5t-72 -1h-56
h-455q-11 0 -22 3t-11 9v104zM589 125q13 0 17.5 12.5t4.5 53.5v15q0 46 -11 76.5t-34 49.5t-58.5 27t-84.5 8q-17 0 -41 -1.5t-50.5 -6t-51.5 -13t-44 -22.5v-197q23 -1 52 -1.5t68 -0.5h233z" />
    <glyph glyph-name="uniFEC4" unicode="&#x637;" horiz-adv-x="811" arabic-form="medial" 
d="M-40 116q0 5 11 8.5t22 3.5h113v612q0 9 6 15t14 6h90q8 0 14 -6t6 -15v-305q26 18 57 29t61.5 16.5t57.5 7t44 1.5q64 0 116 -14t88.5 -45.5t56.5 -83t20 -125.5v-22q0 -7 -0.5 -17t-1 -20.5t-2 -19.5t-3.5 -14h81v-128h-818q-11 0 -22 3t-11 9v104zM587 125
q13 0 18.5 13t5.5 53v15q0 46 -11 76.5t-34 49.5t-58.5 27t-84.5 8q-17 0 -41 -1.5t-50.5 -6t-51.5 -13t-44 -22.5v-197q23 -1 49.5 -1.5t65.5 -0.5h236z" />
    <glyph glyph-name="uniFEC5" unicode="&#x638;" horiz-adv-x="866" arabic-form="isolated" 
d="M452 690q0 10 7 16.5t17 6.5h79q9 0 15.5 -6.5t6.5 -16.5v-78q0 -9 -6.5 -15.5t-16.5 -6.5h-78q-11 0 -17.5 6.5t-6.5 15.5v78zM45 110q0 8 6 13t14 5h110v612q0 9 5.5 15t14.5 6h91q8 0 13.5 -6t5.5 -15v-305q26 18 57 29t61.5 16.5t57.5 7t44 1.5q64 0 116 -14
t88.5 -45.5t56.5 -83t20 -125.5v-41q0 -33 -3 -74.5t-10 -71.5q-2 -10 -9 -18.5t-23 -10.5q-14 -2 -45.5 -2.5t-68.5 -1.5t-72 -1h-57h-453q-8 0 -14 5t-6 13v92zM660 125q13 0 16.5 12.5t3.5 53.5v15q0 46 -11 76.5t-34 49.5t-58.5 27t-84.5 8q-17 0 -41 -1.5t-50.5 -6
t-51.5 -13t-44 -22.5v-197q23 -1 52.5 -1.5t67.5 -0.5h235z" />
    <glyph glyph-name="uniFEC6" unicode="&#x638;" horiz-adv-x="880" arabic-form="final" 
d="M45 110q0 8 6 13t14 5h110v612q0 9 5.5 15t14.5 6h91q8 0 13.5 -6t5.5 -15v-305q26 18 57 29t61.5 16.5t57.5 7t44 1.5q64 0 116 -14t88.5 -45.5t56.5 -83t20 -125.5v-22q0 -15 -1 -37.5t-6 -33.5h81v-128h-815q-8 0 -14 5t-6 13v92zM655 125q13 0 19 13t6 53v15
q0 46 -11 76.5t-34 49.5t-58.5 27t-84.5 8q-17 0 -41 -1.5t-50.5 -6t-51.5 -13t-44 -22.5v-197q23 -1 49.5 -1.5t65.5 -0.5h235zM452 690q0 10 7 16.5t17 6.5h79q9 0 15.5 -6.5t6.5 -16.5v-78q0 -9 -6.5 -15.5t-16.5 -6.5h-78q-11 0 -17.5 6.5t-6.5 15.5v78z" />
    <glyph glyph-name="uniFEC7" unicode="&#x638;" horiz-adv-x="796" arabic-form="initial" 
d="M-40 116q0 5 11 8.5t22 3.5h113v612q0 9 5.5 15t13.5 6h91q8 0 14 -6t6 -15v-305q26 18 57 29t61.5 16.5t57.5 7t44 1.5q64 0 116 -14t88.5 -45.5t56.5 -83t20 -125.5v-41q0 -33 -3.5 -74.5t-10.5 -71.5q-2 -10 -9 -18.5t-23 -10.5q-14 -2 -46 -2.5t-69 -1.5t-72 -1h-56
h-455q-11 0 -22 3t-11 9v104zM589 125q13 0 17.5 12.5t4.5 53.5v15q0 46 -11 76.5t-34 49.5t-58.5 27t-84.5 8q-17 0 -41 -1.5t-50.5 -6t-51.5 -13t-44 -22.5v-197q23 -1 52 -1.5t68 -0.5h233zM383 690q0 10 7 16.5t17 6.5h79q9 0 15.5 -6.5t6.5 -16.5v-78q0 -9 -6.5 -15.5
t-16.5 -6.5h-78q-11 0 -17.5 6.5t-6.5 15.5v78z" />
    <glyph glyph-name="uniFEC8" unicode="&#x638;" horiz-adv-x="811" arabic-form="medial" 
d="M383 690q0 10 7 16.5t17 6.5h79q9 0 15.5 -6.5t6.5 -16.5v-78q0 -9 -6.5 -15.5t-16.5 -6.5h-78q-11 0 -17.5 6.5t-6.5 15.5v78zM-40 116q0 5 11 8.5t22 3.5h113v612q0 9 6 15t14 6h90q8 0 14 -6t6 -15v-305q26 18 57 29t61.5 16.5t57.5 7t44 1.5q64 0 116 -14t88.5 -45.5
t56.5 -83t20 -125.5v-22q0 -7 -0.5 -17t-1 -20.5t-2 -19.5t-3.5 -14h81v-128h-818q-11 0 -22 3t-11 9v104zM587 125q13 0 18.5 13t5.5 53v15q0 46 -11 76.5t-34 49.5t-58.5 27t-84.5 8q-17 0 -41 -1.5t-50.5 -6t-51.5 -13t-44 -22.5v-197q23 -1 49.5 -1.5t65.5 -0.5h236z
" />
    <glyph glyph-name="uniFEC9" unicode="&#x639;" horiz-adv-x="602" arabic-form="isolated" 
d="M349 -238q0 -19 -20 -21q-8 -1 -14.5 -1h-8.5q-128 0 -189.5 60.5t-61.5 187.5q0 27 2.5 59t4.5 52q3 21 24 21q2 0 13.5 0.5t25.5 1t27.5 0.5h19.5q-17 23 -28.5 57.5t-11.5 78.5v17q0 58 20.5 98.5t56 66t82 37.5t98.5 12q35 0 63 -2.5t61 -8.5q11 -2 17.5 -5.5
t6.5 -13.5v-73q0 -20 -23 -18q-31 2 -54.5 3.5t-54.5 1.5q-71 0 -109 -26t-38 -90v-10q0 -23 6 -42.5t15 -35t20.5 -26.5t23.5 -15h209q9 0 14.5 -5t5.5 -13v-91q0 -8 -5.5 -13.5t-14.5 -5.5h-275h-16.5h-20t-20.5 -0.5t-17 -0.5q0 -5 -0.5 -15t-0.5 -15q2 -57 34 -86.5
t100 -29.5h12q21 0 21 -18v-73z" />
    <glyph glyph-name="uniFECA" unicode="&#x639;" horiz-adv-x="660" arabic-form="final" 
d="M328 -147q21 0 21 -18v-73q0 -19 -20 -21q-8 -1 -14 -1h-9q-128 0 -189.5 60.5t-61.5 187.5q0 27 2.5 60.5t4.5 54.5q3 21 24 21q13 1 34 1h42h22l-74 195q-3 5 -4 13.5t0 13.5l2 51q1 13 19 28q18 14 44 26t55.5 21t60.5 14t60 5q50 0 94 -10.5t76.5 -34t51.5 -62
t19 -93.5v-22q0 -20 -3.5 -41t-10 -40.5t-16 -35.5t-21.5 -25h123v-128h-403h-16.5h-20t-20.5 -0.5t-17 -0.5q0 -5 -0.5 -15t-0.5 -15q2 -57 34 -86.5t100 -29.5h12zM370 125q24 4 41 17t28.5 32t17 42t5.5 48v9q0 106 -115 106q-23 0 -54 -4.5t-62 -24.5l88 -225h51z" />
    <glyph glyph-name="uniFECB" unicode="&#x639;" horiz-adv-x="527" arabic-form="initial" 
d="M-40 116q0 5 11 8.5t22 3.5h108q-17 20 -27.5 55.5t-10.5 79.5v11q0 58 20 98.5t54.5 66.5t80 38t96.5 12q36 0 62.5 -2.5t59.5 -8.5q11 -2 17 -5.5t6 -13.5v-73q0 -20 -21 -18q-16 1 -28.5 2t-24 1.5t-24 1t-28.5 0.5q-69 0 -106.5 -26.5t-37.5 -89.5v-11
q0 -42 18 -75.5t41 -42.5h209q8 0 14 -5t6 -13v-93q0 -8 -6 -12.5t-14 -4.5h-464q-11 0 -22 3t-11 9v104z" />
    <glyph glyph-name="uniFECC" unicode="&#x639;" horiz-adv-x="608" arabic-form="medial" 
d="M-40 116q0 5 11 8.5t22 3.5h139l-75 192q-3 5 -4 13.5t0 13.5l2 51q1 8 6 14t14 14q18 14 44 26t55 21t60 14t60 5q51 0 95 -10.5t76.5 -34t51 -62t18.5 -93.5v-22q0 -20 -3.5 -41t-10 -40.5t-16 -35.5t-21.5 -25h124v-128h-615q-11 0 -22 3t-11 9v104zM318 125
q23 4 40 17t28.5 31.5t17 42t5.5 48.5v9q0 55 -30 80.5t-85 25.5q-23 0 -54.5 -5t-60.5 -24l89 -225h50z" />
    <glyph glyph-name="uniFECD" unicode="&#x63a;" horiz-adv-x="602" arabic-form="isolated" 
d="M349 -238q0 -19 -20 -21q-8 -1 -14.5 -1h-8.5q-128 0 -189.5 60.5t-61.5 187.5q0 27 2.5 59t4.5 52q3 21 24 21q2 0 13.5 0.5t25.5 1t27.5 0.5h19.5q-17 23 -28.5 57.5t-11.5 78.5v17q0 58 20.5 98.5t56 66t82 37.5t98.5 12q35 0 63 -2.5t61 -8.5q11 -2 17.5 -5.5
t6.5 -13.5v-73q0 -20 -23 -18q-31 2 -54.5 3.5t-54.5 1.5q-71 0 -109 -26t-38 -90v-10q0 -23 6 -42.5t15 -35t20.5 -26.5t23.5 -15h209q9 0 14.5 -5t5.5 -13v-91q0 -8 -5.5 -13.5t-14.5 -5.5h-275h-16.5h-20t-20.5 -0.5t-17 -0.5q0 -5 -0.5 -15t-0.5 -15q2 -57 34 -86.5
t100 -29.5h12q21 0 21 -18v-73zM294 690q0 10 7 16.5t17 6.5h79q9 0 15.5 -6.5t6.5 -16.5v-78q0 -9 -6.5 -15.5t-16.5 -6.5h-78q-11 0 -17.5 6.5t-6.5 15.5v78z" />
    <glyph glyph-name="uniFECE" unicode="&#x63a;" horiz-adv-x="660" arabic-form="final" 
d="M328 -147q21 0 21 -18v-73q0 -19 -20 -21q-8 -1 -14 -1h-9q-128 0 -189.5 60.5t-61.5 187.5q0 27 2.5 60.5t4.5 54.5q3 21 24 21q13 1 34 1h42h22l-74 195q-3 5 -4 13.5t0 13.5l2 51q1 13 19 28q18 14 44 26t55.5 21t60.5 14t60 5q50 0 94 -10.5t76.5 -34t51.5 -62
t19 -93.5v-22q0 -20 -3.5 -41t-10 -40.5t-16 -35.5t-21.5 -25h123v-128h-403h-16.5h-20t-20.5 -0.5t-17 -0.5q0 -5 -0.5 -15t-0.5 -15q2 -57 34 -86.5t100 -29.5h12zM370 125q24 4 41 17t28.5 32t17 42t5.5 48v9q0 106 -115 106q-23 0 -54 -4.5t-62 -24.5l88 -225h51z
M283 690q0 10 7 16.5t17 6.5h79q9 0 15.5 -6.5t6.5 -16.5v-78q0 -9 -6.5 -15.5t-16.5 -6.5h-78q-11 0 -17.5 6.5t-6.5 15.5v78z" />
    <glyph glyph-name="uniFECF" unicode="&#x63a;" horiz-adv-x="527" arabic-form="initial" 
d="M-40 116q0 5 11 8.5t22 3.5h108q-17 20 -27.5 55.5t-10.5 79.5v11q0 58 20 98.5t54.5 66.5t80 38t96.5 12q36 0 62.5 -2.5t59.5 -8.5q11 -2 17 -5.5t6 -13.5v-73q0 -20 -21 -18q-16 1 -28.5 2t-24 1.5t-24 1t-28.5 0.5q-69 0 -106.5 -26.5t-37.5 -89.5v-11
q0 -42 18 -75.5t41 -42.5h209q8 0 14 -5t6 -13v-93q0 -8 -6 -12.5t-14 -4.5h-464q-11 0 -22 3t-11 9v104zM225 690q0 10 7 16.5t17 6.5h79q9 0 15.5 -6.5t6.5 -16.5v-78q0 -9 -6.5 -15.5t-16.5 -6.5h-78q-11 0 -17.5 6.5t-6.5 15.5v78z" />
    <glyph glyph-name="uniFED0" unicode="&#x63a;" horiz-adv-x="608" arabic-form="medial" 
d="M231 690q0 10 7 16.5t17 6.5h79q9 0 15.5 -6.5t6.5 -16.5v-78q0 -9 -6.5 -15.5t-16.5 -6.5h-78q-11 0 -17.5 6.5t-6.5 15.5v78zM-40 116q0 5 11 8.5t22 3.5h139l-75 192q-3 5 -4 13.5t0 13.5l2 51q1 8 6 14t14 14q18 14 44 26t55 21t60 14t60 5q51 0 95 -10.5t76.5 -34
t51 -62t18.5 -93.5v-22q0 -20 -3.5 -41t-10 -40.5t-16 -35.5t-21.5 -25h124v-128h-615q-11 0 -22 3t-11 9v104zM318 125q23 4 40 17t28.5 31.5t17 42t5.5 48.5v9q0 55 -30 80.5t-85 25.5q-23 0 -54.5 -5t-60.5 -24l89 -225h50z" />
    <glyph glyph-name="uniFED1" unicode="&#x641;" horiz-adv-x="1057" arabic-form="isolated" 
d="M588 128q-40 37 -40 125v18q0 54 18.5 95.5t52 69.5t81 42.5t105.5 14.5q21 0 44 -1t44.5 -3.5t40.5 -5.5t32 -6q11 -3 14 -7.5t3 -12.5v-266v-39.5t-0.5 -43.5t-1.5 -44t-3 -41q-1 -17 -23 -19q-43 -2 -83.5 -3t-78.5 -1h-408q-98 0 -163 18t-103.5 53.5t-54 87
t-15.5 117.5q0 25 2.5 50.5t9.5 54.5q2 11 6 16t13 5h76q19 0 17 -20q-2 -21 -2 -38v-32q0 -47 9.5 -81.5t34 -57t67.5 -34t111 -11.5h195zM674 247q0 -60 25 -91.5t82 -31.5q16 0 39 0.5t37 2.5v249q-30 3 -64 3q-60 0 -89.5 -29.5t-29.5 -85.5v-17zM715 690q0 10 7 16.5
t17 6.5h79q9 0 15.5 -6.5t6.5 -16.5v-78q0 -9 -6.5 -15.5t-16.5 -6.5h-78q-11 0 -17.5 6.5t-6.5 15.5v78z" />
    <glyph glyph-name="uniFED2" unicode="&#x641;" horiz-adv-x="1071" arabic-form="final" 
d="M589 128q-41 37 -41 125v17q0 54 18.5 96t52 70t81 42.5t105.5 14.5q21 0 44 -1t45 -3.5t41 -5.5t31 -6q11 -3 14 -7.5t3 -12.5v-329h88v-128h-681q-100 0 -166 18t-105 53.5t-54.5 87t-15.5 117.5q0 25 2.5 50t9.5 55q2 11 6 16t13 5h76q19 0 17 -20q-2 -21 -2 -38v-32
q0 -47 9.5 -81.5t34.5 -57t69 -34t113 -11.5h192zM857 124v252q-30 3 -64 3q-119 0 -119 -115v-16q0 -60 25 -92t82 -32h76zM714 690q0 10 7 16.5t17 6.5h79q9 0 15.5 -6.5t6.5 -16.5v-78q0 -9 -6.5 -15.5t-16.5 -6.5h-78q-11 0 -17.5 6.5t-6.5 15.5v78z" />
    <glyph glyph-name="uniFED3" unicode="&#x641;" horiz-adv-x="574" arabic-form="initial" 
d="M190 245q0 -59 26 -90t81 -31q16 0 39.5 0.5t37.5 2.5v249q-30 3 -66 3q-118 0 -118 -115v-19zM-40 116q0 5 11 8.5t22 3.5h111q-40 37 -40 121v19q0 55 18.5 97.5t52 70.5t81 42.5t105.5 14.5q21 0 44 -1t45 -3.5t41 -5.5t31 -6q11 -3 14.5 -7.5t3.5 -12.5v-266
q0 -36 -1 -83t-4 -85q-1 -10 -7.5 -14t-16.5 -5q-42 -2 -81.5 -3t-79.5 -1h-317q-11 0 -22 3t-11 9v104zM230 690q0 10 7 16.5t17 6.5h79q9 0 15.5 -6.5t6.5 -16.5v-78q0 -9 -6.5 -15.5t-16.5 -6.5h-78q-11 0 -17.5 6.5t-6.5 15.5v78z" />
    <glyph glyph-name="uniFED4" unicode="&#x641;" horiz-adv-x="587" arabic-form="medial" 
d="M230 690q0 10 7 16.5t17 6.5h79q9 0 15.5 -6.5t6.5 -16.5v-78q0 -9 -6.5 -15.5t-16.5 -6.5h-78q-11 0 -17.5 6.5t-6.5 15.5v78zM-40 116q0 5 11 8.5t22 3.5h111q-19 18 -29.5 48.5t-10.5 73.5v19q0 55 18.5 97t52.5 70t81.5 42.5t105.5 14.5q21 0 44 -1t44.5 -3.5
t40.5 -5.5t32 -6q11 -3 14 -7.5t3 -12.5v-329h87v-128h-594q-11 0 -22 3t-11 9v104zM374 124v252q-30 3 -65 3q-119 0 -119 -116v-18q0 -59 25.5 -90t82.5 -31h76z" />
    <glyph glyph-name="uniFED5" unicode="&#x642;" horiz-adv-x="781" arabic-form="isolated" 
d="M348 685q0 10 7 16.5t17 6.5h69q10 0 17.5 -6.5t7.5 -16.5v-78q0 -9 -8 -15.5t-17 -6.5h-69q-10 0 -17 6.5t-7 15.5v78zM533 685q0 10 7.5 16.5t16.5 6.5h70q10 0 16.5 -6.5t6.5 -16.5v-78q0 -9 -6.5 -15.5t-16.5 -6.5h-70q-9 0 -16.5 6.5t-7.5 15.5v78zM50 68q0 22 2 58
t9 69q3 19 20 19h75q18 0 18 -19q-2 -23 -2.5 -45.5t-0.5 -38.5q0 -56 11.5 -99.5t40.5 -73.5t78 -46t124 -16h31.5t45.5 1t45.5 1.5t31.5 2.5v135q-7 -5 -18.5 -8t-25 -5t-26.5 -2.5t-23 -0.5q-100 0 -157.5 55t-57.5 163v21q0 119 70 183.5t198 64.5q20 0 42 -1.5
t42.5 -3.5t38 -5t28.5 -7t14 -7.5t3 -11.5v-469v-44.5t-0.5 -54.5t-1.5 -54t-2 -44q0 -18 -21 -21q-54 -8 -121.5 -10.5t-130.5 -2.5q-191 0 -285.5 77t-94.5 240zM581 368q-14 2 -29 2.5t-35 0.5q-57 0 -88.5 -32t-31.5 -90v-13q0 -57 25 -84.5t79 -27.5q35 0 57.5 4
t22.5 23v217z" />
    <glyph glyph-name="uniFED6" unicode="&#x642;" horiz-adv-x="796" arabic-form="final" 
d="M580 124v244q-29 3 -63 3q-57 0 -88.5 -32t-31.5 -90v-13q0 -57 25 -84.5t79 -27.5h79zM50 68q0 22 2.5 57.5t8.5 69.5q3 19 20 19h76q17 0 17 -19q-2 -23 -2.5 -46t-0.5 -38q0 -56 11.5 -99.5t40.5 -73.5t78 -46t124 -16h31.5t45 1t45 1.5t31.5 2.5q1 29 1 62v57h-83
q-106 0 -165.5 55.5t-59.5 164.5v20q0 118 70 182.5t198 64.5q20 0 41.5 -1.5t42 -3.5t38 -5t28.5 -7q10 -4 13.5 -7.5t3.5 -11.5v-323h90v-128h-91q0 -64 -0.5 -122t-2.5 -93q0 -18 -21 -21q-54 -8 -121 -10.5t-130 -2.5q-191 0 -285.5 77t-94.5 240zM348 685q0 10 7 16.5
t17 6.5h69q10 0 17.5 -6.5t7.5 -16.5v-78q0 -9 -8 -15.5t-17 -6.5h-69q-10 0 -17 6.5t-7 15.5v78zM533 685q0 10 7.5 16.5t16.5 6.5h70q10 0 16.5 -6.5t6.5 -16.5v-78q0 -9 -6.5 -15.5t-16.5 -6.5h-70q-9 0 -16.5 6.5t-7.5 15.5v78z" />
    <glyph glyph-name="uniFED7" unicode="&#x642;" horiz-adv-x="574" arabic-form="initial" 
d="M190 245q0 -59 26 -90t81 -31q16 0 39.5 0.5t37.5 2.5v249q-30 3 -66 3q-118 0 -118 -115v-19zM-40 116q0 5 11 8.5t22 3.5h111q-40 37 -40 121v19q0 55 18.5 97.5t52 70.5t81 42.5t105.5 14.5q21 0 44 -1t45 -3.5t41 -5.5t31 -6q11 -3 14.5 -7.5t3.5 -12.5v-266
q0 -36 -1 -83t-4 -85q-1 -10 -7.5 -14t-16.5 -5q-42 -2 -81.5 -3t-79.5 -1h-317q-11 0 -22 3t-11 9v104zM142 690q0 10 7 16.5t17 6.5h69q10 0 17.5 -6.5t7.5 -16.5v-78q0 -9 -8 -15.5t-17 -6.5h-69q-10 0 -17 6.5t-7 15.5v78zM327 690q0 10 7.5 16.5t16.5 6.5h70
q10 0 16.5 -6.5t6.5 -16.5v-78q0 -9 -6.5 -15.5t-16.5 -6.5h-70q-9 0 -16.5 6.5t-7.5 15.5v78z" />
    <glyph glyph-name="uniFED8" unicode="&#x642;" horiz-adv-x="587" arabic-form="medial" 
d="M142 690q0 10 7 16.5t17 6.5h69q10 0 17.5 -6.5t7.5 -16.5v-78q0 -9 -8 -15.5t-17 -6.5h-69q-10 0 -17 6.5t-7 15.5v78zM327 690q0 10 7.5 16.5t16.5 6.5h70q10 0 16.5 -6.5t6.5 -16.5v-78q0 -9 -6.5 -15.5t-16.5 -6.5h-70q-9 0 -16.5 6.5t-7.5 15.5v78zM-40 116
q0 5 11 8.5t22 3.5h111q-19 18 -29.5 48.5t-10.5 73.5v19q0 55 18.5 97t52.5 70t81.5 42.5t105.5 14.5q21 0 44 -1t44.5 -3.5t40.5 -5.5t32 -6q11 -3 14 -7.5t3 -12.5v-329h87v-128h-594q-11 0 -22 3t-11 9v104zM374 124v252q-30 3 -65 3q-119 0 -119 -116v-18
q0 -59 25.5 -90t82.5 -31h76z" />
    <glyph glyph-name="uniFED9" unicode="&#x643;" horiz-adv-x="841" arabic-form="isolated" 
d="M141 316q17 0 17 -19q-1 -11 -1 -25.5v-19.5q0 -36 9.5 -60t31 -38t56 -20t84.5 -6h260q24 0 31.5 4.5t7.5 28.5v579q0 9 6 15t14 6h91q8 0 13.5 -6t5.5 -15v-581q0 -27 -1.5 -59.5t-4.5 -59.5q-2 -10 -6 -17t-16 -12q-11 -3 -32 -5t-46.5 -3.5t-51.5 -2t-46 -0.5h-247
q-80 0 -133.5 14.5t-85.5 42.5t-45 68.5t-13 92.5q0 5 0.5 15t1 21.5t1.5 22.5t3 19q3 11 7 15.5t14 4.5h75zM284 397q0 12 18 12h15q-6 10 -9.5 26t-3.5 30q0 49 29.5 74.5t83.5 25.5q9 0 22.5 -1t27.5 -5q13 -3 13 -17v-36q0 -13 -13 -13q-6 0 -20 1t-20 1
q-23 0 -34 -11.5t-11 -30.5q0 -16 5.5 -27t10.5 -14h75q18 0 18 -14v-41q0 -14 -18 -14h-171q-18 0 -18 14v40z" />
    <glyph glyph-name="uniFEDA" unicode="&#x643;" horiz-adv-x="856" arabic-form="final" 
d="M141 316q17 0 17 -19q-1 -11 -1 -25.5v-19.5q0 -36 9.5 -60t31 -38t56 -20t84.5 -6h242q9 0 19 1t18.5 4.5t14 10t5.5 18.5v578q0 9 6 15t14 6h90q8 0 14 -6t6 -15v-595q3 -5 10.5 -8.5t17 -5.5t19 -2.5t16.5 -0.5h26v-128h-12q-30 0 -69 5.5t-69 22.5
q-27 -17 -65.5 -22.5t-72.5 -5.5h-252q-80 0 -133.5 14.5t-85.5 42.5t-45 68.5t-13 92.5q0 5 0.5 15t1 21.5t1.5 22.5t3 19q3 11 7 15.5t14 4.5h75zM284 397q0 12 18 12h15q-6 10 -9.5 26t-3.5 30q0 49 29.5 74.5t83.5 25.5q9 0 22.5 -1t27.5 -5q13 -3 13 -17v-36
q0 -13 -13 -13q-6 0 -20 1t-20 1q-23 0 -34 -11.5t-11 -30.5q0 -16 5.5 -27t10.5 -14h75q18 0 18 -14v-41q0 -14 -18 -14h-171q-18 0 -18 14v40z" />
    <glyph glyph-name="uniFEDB" unicode="&#x643;" horiz-adv-x="700" arabic-form="initial" 
d="M-40 110q0 8 10 13t23 5h378h25.5h40t40.5 0.5t27 1.5q1 17 1.5 35.5t0.5 34.5q0 44 -13.5 73.5t-39 47.5t-62 26t-83.5 8h-213q-22 0 -23 16q0 2 -0.5 7t-1 10.5t-0.5 10.5v6q0 25 4 48t12.5 46t20.5 48t28 54l75 140q5 8 11.5 14t16.5 6h90q8 0 11 -3.5t3 -8.5t-3 -11
l-94 -179q-6 -11 -12 -24t-11 -25t-8.5 -22.5t-3.5 -14.5q43 2 68.5 3t46.5 1q85 0 144 -19t96 -56t54 -92.5t17 -127.5v-25q0 -11 -0.5 -29t-1.5 -37.5t-2.5 -37.5t-2.5 -29q-3 -18 -24 -19q-17 -2 -43 -2.5t-57 -1.5t-62.5 -1h-58.5h-391q-13 0 -23 5t-10 13v92z" />
    <glyph glyph-name="uniFEDC" unicode="&#x643;" horiz-adv-x="709" arabic-form="medial" 
d="M-40 110q0 8 10 13t23 5h510q1 16 1.5 36t0.5 36q0 44 -13 73.5t-38.5 47.5t-62 26t-83.5 8h-213q-22 0 -23 16q0 2 -0.5 7t-1 10.5t-0.5 10v5.5q0 25 4 48t12.5 46t20.5 48t28 54l75 141q5 8 11.5 14t16.5 6h90q8 0 11 -3.5t3 -8.5t-3 -11l-94 -178q-6 -11 -12 -24
t-11 -25.5t-8.5 -22.5t-3.5 -15q41 2 69 3t49 1q155 0 230 -66.5t77 -194.5v-13v-17v-20.5t-0.5 -20.5t-0.5 -17h75v-128h-716q-13 0 -23 5t-10 13v92z" />
    <glyph glyph-name="uniFEDD" unicode="&#x644;" horiz-adv-x="654" arabic-form="isolated" 
d="M156 298q17 0 17 -20q-2 -22 -3 -43.5t-1 -36.5q0 -56 7.5 -101.5t29 -78t62 -50.5t106.5 -18q17 0 37 1t37 5q1 49 1.5 85t0.5 78v621q0 9 6 15t14 6h90q8 0 14 -6t6 -15v-697q0 -14 -0.5 -38.5t-1.5 -51t-1.5 -51t-1.5 -38.5q-1 -18 -22 -22q-39 -9 -86.5 -14t-93.5 -5
q-167 0 -246.5 77t-79.5 239q0 11 1 28.5t2.5 37.5t3.5 39.5t5 34.5q2 10 6 14.5t14 4.5h77z" />
    <glyph glyph-name="uniFEDE" unicode="&#x644;" horiz-adv-x="668" arabic-form="final" 
d="M156 298q17 0 17 -20q-2 -22 -3 -43.5t-1 -36.5q0 -56 7 -101.5t29 -78t62 -50.5t106 -18q17 0 37.5 1t37.5 5q1 49 1.5 85t0.5 78v621q0 9 6 15t14 6h90q9 0 14.5 -6t5.5 -15v-612h88v-128h-88q-1 -33 -2 -70.5t-3 -65.5q-1 -18 -22 -22q-39 -9 -86.5 -14t-93.5 -5
q-167 0 -246.5 77t-79.5 239q0 11 1 28t2.5 36.5t3.5 39t5 35.5q2 10 6 15t14 5h77z" />
    <glyph glyph-name="uniFEDF" unicode="&#x644;" horiz-adv-x="304" arabic-form="initial" 
d="M-40 116q0 5 11 8.5t22 3.5h68q24 0 31.5 4.5t7.5 28.5v579q0 9 6 15t14 6h91q8 0 13.5 -6t5.5 -15v-581q0 -27 -1 -59.5t-4 -59.5q-2 -10 -6.5 -17t-16.5 -12q-11 -3 -30.5 -5t-42.5 -3.5t-47.5 -2t-44.5 -0.5h-44q-11 0 -22 3t-11 9v104z" />
    <glyph glyph-name="uniFEE0" unicode="&#x644;" horiz-adv-x="319" arabic-form="medial" 
d="M-40 116q0 5 11 8.5t22 3.5h50q9 0 19 1t18.5 4.5t14 10t5.5 18.5v578q0 9 6 15t14 6h91q9 0 14 -6t5 -15v-595q8 -11 29 -14t35 -3h25v-128h-12q-38 0 -77 6.5t-64 27.5q-14 -10 -31 -16.5t-35.5 -10.5t-37 -5.5t-34.5 -1.5h-35q-11 0 -22 3t-11 9v104z" />
    <glyph glyph-name="uniFEE1" unicode="&#x645;" horiz-adv-x="652" arabic-form="isolated" 
d="M42 11q0 71 31.5 104.5t86.5 35.5q-4 11 -6 29.5t-2 34.5v54q0 55 16 96.5t45.5 69.5t71 42.5t92.5 14.5q103 0 161.5 -55.5t58.5 -166.5v-59q0 -113 -57.5 -166t-165.5 -53q-48 0 -89 10.5t-70 36.5q-26 0 -37 -8t-11 -33v-229q0 -9 -5.5 -15t-14.5 -6h-86q-8 0 -13.5 6
t-5.5 15v242zM278 222q0 -60 21 -86t75 -26q51 0 74 25t23 87v38q0 61 -22 88.5t-73 27.5q-52 0 -75 -28t-23 -88v-38z" />
    <glyph glyph-name="uniFEE2" unicode="&#x645;" horiz-adv-x="679" arabic-form="final" 
d="M42 4q0 70 31.5 104t86.5 36q-4 11 -6 29.5t-2 34.5v55q0 109 61.5 165.5t163.5 56.5q103 0 161.5 -55t58.5 -165v-63q0 -26 -3 -47q3 -8 10 -13t16 -8t18.5 -4.5t16.5 -1.5h24v-128h-15q-32 0 -68.5 7t-63.5 27q-50 -50 -158 -50q-48 0 -89 11.5t-70 37.5
q-26 0 -37 -8.5t-11 -34.5v-230q0 -8 -5.5 -13.5t-14.5 -5.5h-86q-8 0 -13.5 5.5t-5.5 13.5v244zM278 214q0 -58 21 -85t75 -27q25 0 43.5 5t30.5 17t17.5 32t5.5 51v46q0 60 -22 88t-73 28q-52 0 -75 -28t-23 -88v-39z" />
    <glyph glyph-name="uniFEE3" unicode="&#x645;" horiz-adv-x="582" arabic-form="initial" 
d="M-40 116q0 5 11 8.5t22 3.5h30q7 0 16 1t17.5 4t15 8.5t8.5 14.5q3 10 3 23v84q0 109 61 165.5t164 56.5q102 0 160.5 -55t58.5 -165v-59q0 -112 -57.5 -166t-163.5 -54q-51 0 -98.5 12.5t-71.5 41.5q-20 -23 -52.5 -31.5t-74.5 -8.5h-16q-11 0 -22 3t-11 9v104zM209 212
q0 -23 3 -44q8 -37 32 -50.5t62 -13.5q51 0 73 25t22 88v37q0 60 -22 87.5t-73 27.5t-74 -28t-23 -87v-42z" />
    <glyph glyph-name="uniFEE4" unicode="&#x645;" horiz-adv-x="610" arabic-form="medial" 
d="M-40 116q0 5 11 8.5t22 3.5h30q7 0 16.5 0.5t18 2.5t14.5 7t8 13q3 9 3 24v84q0 110 61 166.5t164 56.5q102 0 161 -55.5t59 -166.5v-59v-20.5t-2 -20.5q2 -10 9.5 -16t16.5 -9.5t19 -5t16 -1.5h23v-128h-20q-34 0 -67 8t-59 26q-26 -29 -66.5 -43t-91.5 -14t-98.5 14
t-71.5 43q-20 -20 -52 -27t-65 -7h-26q-11 0 -22 3t-11 9v104zM209 250v-43q0 -24 3 -45q8 -36 32 -51.5t62 -15.5q50 0 73 26.5t23 85.5v43q0 61 -22.5 88.5t-73.5 27.5t-74 -27.5t-23 -88.5z" />
    <glyph glyph-name="uniFEE5" unicode="&#x646;" horiz-adv-x="655" arabic-form="isolated" 
d="M251 590q0 10 7 16.5t17 6.5h79q9 0 15.5 -6.5t6.5 -16.5v-78q0 -9 -6.5 -15.5t-16.5 -6.5h-78q-11 0 -17.5 6.5t-6.5 15.5v78zM156 298q19 0 17 -19q-2 -22 -3 -47t-1 -39q0 -56 7.5 -101t30 -76.5t64 -48.5t108.5 -17q19 0 35.5 1t39.5 4q1 49 1 85.5v78.5v292
q0 8 6 13.5t14 5.5h87q8 0 13.5 -5.5t5.5 -13.5v-387q0 -36 -0.5 -80.5t-2.5 -79.5q0 -18 -22 -22q-43 -11 -87.5 -15t-91.5 -4q-169 0 -249.5 75t-80.5 238q0 10 1 28t2.5 38.5t4 40.5t5.5 35q2 11 6 15.5t15 4.5h75z" />
    <glyph glyph-name="uniFEE6" unicode="&#x646;" horiz-adv-x="670" arabic-form="final" 
d="M251 590q0 10 7 16.5t17 6.5h79q9 0 15.5 -6.5t6.5 -16.5v-78q0 -9 -6.5 -15.5t-16.5 -6.5h-78q-11 0 -17.5 6.5t-6.5 15.5v78zM156 298q19 0 17 -19q-2 -22 -3 -47t-1 -39q0 -56 7.5 -101t30 -76.5t64 -48.5t108.5 -17q19 0 35.5 1t39.5 4q1 49 1 86v78v292q0 8 6 13.5
t14 5.5h87q9 0 14 -5.5t5 -13.5v-283h89v-128h-89v-70.5t-2 -65.5q0 -17 -21 -22q-43 -11 -88.5 -15t-92.5 -4q-169 0 -249.5 75t-80.5 238q0 10 1 28t2.5 38.5t4 40.5t5.5 35q2 11 6 15.5t15 4.5h75z" />
    <glyph glyph-name="uniFEE7" unicode="&#x646;" horiz-adv-x="296" arabic-form="initial" 
d="M94 641q0 10 7 16.5t17 6.5h79q9 0 15.5 -6.5t6.5 -16.5v-78q0 -9 -6.5 -15.5t-16.5 -6.5h-78q-11 0 -17.5 6.5t-6.5 15.5v78zM-40 116q0 5 11 8.5t22 3.5h63q24 0 32 4.5t8 28.5v119t-2 134q0 8 5.5 13.5t14.5 5.5h84q11 0 16 -5.5t6 -13.5q1 -32 1.5 -56.5t0.5 -46.5
v-44v-49q0 -64 -0.5 -107.5t-3.5 -70.5q-2 -10 -6.5 -17t-16.5 -12q-11 -3 -29.5 -5t-41 -3.5t-46.5 -2t-44 -0.5h-41q-11 0 -22 3t-11 9v104z" />
    <glyph glyph-name="uniFEE8" unicode="&#x646;" horiz-adv-x="312" arabic-form="medial" 
d="M-40 116q0 5 11 8.5t22 3.5h46q9 0 19 1t18.5 4.5t14.5 10t6 18.5v249q0 8 5.5 13.5t14.5 5.5h87q8 0 13.5 -5.5t5.5 -13.5v-266q3 -5 11 -8.5t18 -5.5t19.5 -2.5t16.5 -0.5h24v-128h-12q-38 0 -77 6.5t-65 27.5q-14 -10 -31 -16.5t-35.5 -10.5t-37 -5.5t-34.5 -1.5h-27
q-11 0 -22 3t-11 9v104zM97 641q0 10 7 16.5t17 6.5h79q9 0 15.5 -6.5t6.5 -16.5v-78q0 -9 -6.5 -15.5t-16.5 -6.5h-78q-11 0 -17.5 6.5t-6.5 15.5v78z" />
    <glyph glyph-name="uniFEE9" unicode="&#x647;" horiz-adv-x="558" arabic-form="isolated" 
d="M55 240q0 118 65.5 182.5t197.5 64.5q20 0 41.5 -1.5t41.5 -3.5t37.5 -5t28.5 -7t14 -7.5t3 -11.5v-275q0 -33 -0.5 -74t-4.5 -78q0 -11 -6 -15t-16 -5q-43 -2 -78.5 -3t-68.5 -1h-20q-114 0 -174.5 55.5t-60.5 164.5v20zM181 236q0 -57 25 -84.5t82 -27.5h35.5t34.5 1
v243q-14 2 -26 2.5t-31 0.5q-61 0 -90.5 -32t-29.5 -90v-13z" />
    <glyph glyph-name="uniFEEA" unicode="&#x647;" horiz-adv-x="574" arabic-form="final" 
d="M55 240q0 118 68.5 183.5t200.5 65.5q39 0 79.5 -4t63.5 -11q11 -3 14 -7t3 -12v-274q0 -33 15 -43t48 -10h27v-128h-46q-52 0 -85 13t-50 43q-20 -20 -53.5 -30.5t-68.5 -10.5h-13q-42 0 -79 11.5t-64.5 36.5t-43.5 64t-16 93v20zM181 244q0 -57 22 -81t68 -24h15
q34 0 53 11t19 34v187q-6 1 -22.5 1.5t-25.5 0.5q-61 0 -95 -28.5t-34 -86.5v-14z" />
    <glyph glyph-name="uniFEEB" unicode="&#x647;" horiz-adv-x="709" arabic-form="initial" 
d="M-40 110q0 8 10 13t23 5h94q-11 14 -15.5 39.5t-4.5 52.5v15q0 85 52.5 129.5t136.5 44.5q88 0 135.5 -46t47.5 -128v-15q0 -27 -5.5 -54t-17.5 -41h83q7 0 11.5 2t7.5 8.5t4.5 18.5t1.5 32v44q0 49 -14.5 85.5t-40.5 59.5t-63 34.5t-83 11.5h-17h-25.5t-25.5 -0.5
t-17 -0.5q-19 0 -19 14v72q0 18 20 21q24 4 46.5 5.5t36.5 1.5q66 0 126 -15t105 -49.5t71.5 -91t26.5 -139.5v-51q0 -33 -2 -72.5t-10 -81.5q-2 -10 -8.5 -18.5t-22.5 -10.5q-15 -2 -43 -2.5t-60.5 -1.5t-64 -1h-52.5h-395q-13 0 -23 5t-10 13v92zM183 203
q0 -39 15.5 -61.5t53.5 -22.5q39 0 55 22t16 62v27q0 42 -13 64t-55 22q-43 0 -57.5 -22t-14.5 -64v-27z" />
    <glyph glyph-name="uniFEEC" unicode="&#x647;" horiz-adv-x="605" arabic-form="medial" 
d="M-7 0q-11 0 -22 3t-11 8v106q0 5 11 8t22 3h101v307q0 15 9 22.5t24 12.5q33 11 73 14t78 3q57 0 103 -12t79 -37.5t50.5 -66t17.5 -96.5v-27.5t-2 -27.5q-3 -27 -10 -51t-20 -47q16 4 33 5t35 1h41v-128h-19h-35.5t-25.5 -2v-30q-4 -222 -210 -222q-62 0 -104 15t-68 44
t-37.5 71t-11.5 97v27h-101zM276 127q72 0 99 34.5t27 93.5v14q0 61 -33 83.5t-90 22.5q-19 0 -32 -1t-27 -3v-244h56zM343 11q-23 -5 -56.5 -7.5t-67.5 -3.5v-19q0 -63 20.5 -92.5t74.5 -29.5q52 0 70 28t20 87q1 12 1.5 28.5t3.5 30.5q-27 -14 -66 -22z" />
    <glyph glyph-name="uniFEED" unicode="&#x648;" horiz-adv-x="561" arabic-form="isolated" 
d="M91 -141q0 17 18 17h91q39 0 68.5 4t49 14.5t29.5 28.5t11 47l1 46q-7 -5 -18 -8t-23 -5t-23.5 -2.5t-20.5 -0.5q-102 0 -161 55.5t-59 164.5v20q0 118 69.5 182.5t198.5 64.5q19 0 40.5 -1.5t41.5 -3.5t37.5 -5t28.5 -7t14 -7.5t3 -11.5v-456q0 -73 -21 -118.5t-57 -71
t-83 -34.5t-99 -9h-26.5t-36.5 1t-35 1.5t-22 2.5q-10 2 -13 6.5t-3 12.5v73zM361 368q-29 3 -61 3q-58 0 -89 -32t-31 -90v-13q0 -57 25 -84.5t81 -27.5q32 0 53.5 4t21.5 23v217z" />
    <glyph glyph-name="uniFEEE" unicode="&#x648;" horiz-adv-x="574" arabic-form="final" 
d="M91 -141q0 17 18 17h91q39 0 68.5 4t50 14.5t30.5 28.5t10 47v30h-73q-109 0 -170.5 55.5t-61.5 164.5v20q0 118 69.5 182.5t198.5 64.5q19 0 40.5 -1.5t41.5 -3.5t37 -5t28 -7q10 -4 13.5 -7.5t3.5 -11.5v-323h88v-128h-90v-34q-5 -62 -26.5 -101.5t-55.5 -62t-79 -31.5
t-96 -9h-26.5t-36.5 1t-35 1.5t-22 2.5q-10 2 -13 6.5t-3 12.5v73zM180 236q0 -57 25 -84.5t81 -27.5h75v244q-29 3 -61 3q-57 0 -88.5 -32t-31.5 -90v-13z" />
    <glyph glyph-name="uniFEEF" unicode="&#x649;" horiz-adv-x="965" arabic-form="isolated" 
d="M160 298q17 0 17 -19q-2 -22 -4 -44.5t-2 -36.5q0 -55 6 -101t27 -79t61 -51.5t109 -18.5q27 0 49.5 1t43.5 5q1 25 1.5 45t1 38t0.5 35.5v37.5v91q0 115 67 168.5t196 53.5q18 0 37.5 -1t38 -3t35.5 -4t30 -5q8 -2 12.5 -6t4.5 -14v-369q0 -9 -5.5 -15t-14.5 -6h-86
q-8 0 -14 6t-6 15v281q-18 2 -28.5 3t-24.5 1q-57 0 -86.5 -25.5t-29.5 -91.5v-165v-39.5t-0.5 -43.5t-1.5 -43t-2 -38q0 -19 -22 -22q-45 -8 -95 -11.5t-104 -3.5q-88 0 -149.5 20t-99.5 60.5t-55.5 101t-17.5 140.5q0 11 1 27.5t2.5 34.5t4.5 36.5t6 34.5q2 11 6 15.5
t15 4.5h76z" />
    <glyph glyph-name="uniFEF0" unicode="&#x649;" horiz-adv-x="977" arabic-form="final" 
d="M161 298q17 0 17 -19q-2 -22 -4 -44.5t-2 -36.5q0 -55 6 -101t26.5 -79t60.5 -51.5t109 -18.5q27 0 49.5 1t43.5 5q1 25 1.5 45t1 38t0.5 35.5v37.5v89q0 115 67 169.5t196 54.5q35 0 73 -4t64 -9q8 -2 12.5 -6t4.5 -14v-227q0 -22 10 -28.5t36 -6.5h44v-128h-77
q-34 0 -60 5t-43.5 19t-26.5 38.5t-9 63.5v176q-15 2 -25 3t-24 1q-57 0 -86.5 -25.5t-29.5 -91.5v-165v-39.5t-0.5 -43.5t-1.5 -43t-2 -38q0 -19 -24 -22q-89 -15 -197 -15q-88 0 -149.5 20t-99.5 60.5t-55.5 101t-17.5 140.5q0 11 1 27t2.5 34t4.5 37t6 35q2 11 6 15.5
t15 4.5h77z" />
    <glyph glyph-name="uniFEF1" unicode="&#x64a;" horiz-adv-x="966" arabic-form="isolated" 
d="M49 146q0 11 1 27t2.5 34t4.5 36.5t6 34.5q2 11 6 15.5t15 4.5h77q17 0 17 -19q-2 -22 -4 -44.5t-2 -36.5q0 -52 6.5 -96.5t27.5 -77t61 -51t107 -18.5q27 0 49.5 1.5t43.5 4.5q1 25 1.5 44.5t1 36.5t0.5 34v37v88q0 115 67 168.5t196 53.5q35 0 74.5 -3.5t67.5 -9.5
q8 -2 12.5 -6t4.5 -14v-369q0 -9 -5.5 -15t-14.5 -6h-88q-8 0 -13.5 6t-5.5 15v281q-18 2 -28.5 3t-24.5 1q-57 0 -86 -25.5t-29 -91.5v-165q0 -36 -1 -79t-3 -78q0 -18 -22 -22q-42 -7 -94 -11t-106 -4q-86 0 -147 20.5t-100 60t-57 98.5t-18 137zM181 -260q0 10 6.5 15.5
t16.5 5.5h66q10 0 16.5 -5.5t6.5 -15.5v-71q0 -8 -7 -14t-16 -6h-66q-10 0 -16.5 6t-6.5 14v71zM366 -260q0 10 7 15.5t16 5.5h68q8 0 15 -5.5t7 -15.5v-71q0 -8 -7 -14t-15 -6h-68q-9 0 -16 6t-7 14v71z" />
    <glyph glyph-name="uniFEF2" unicode="&#x64a;" horiz-adv-x="979" arabic-form="final" 
d="M49 146q0 11 1 27t2.5 34t4 36.5t5.5 34.5q3 20 20 20h77q19 0 17 -19q-2 -22 -3.5 -44.5t-1.5 -36.5q0 -52 6.5 -96.5t27.5 -77t61 -51t107 -18.5q27 0 49.5 1.5t43.5 4.5q1 25 1.5 44.5t1 36.5t0.5 34v37v88q0 114 66.5 168t190.5 54q40 0 79 -4t65 -9q8 -2 12.5 -6
t4.5 -14v-227q0 -22 10 -28.5t36 -6.5h46v-128h-79q-35 0 -61 5t-43.5 19t-26.5 38.5t-9 63.5v176q-15 2 -25 3t-24 1q-57 0 -86 -25.5t-29 -91.5v-165q0 -36 -1 -79t-3 -78q0 -18 -22 -22q-42 -7 -93.5 -11t-106.5 -4q-86 0 -147 20.5t-99.5 60t-56.5 98.5t-18 137z
M180 -260q0 10 7 15.5t16 5.5h67q9 0 16 -5.5t7 -15.5v-71q0 -8 -7.5 -14t-15.5 -6h-67q-9 0 -16 6t-7 14v71zM366 -260q0 10 7 15.5t15 5.5h68q8 0 15 -5.5t7 -15.5v-71q0 -8 -7 -14t-15 -6h-68q-8 0 -15 6t-7 14v71z" />
    <glyph glyph-name="uniFEF3" unicode="&#x64a;" horiz-adv-x="296" arabic-form="initial" 
d="M-40 116q0 5 11 8.5t22 3.5h63q24 0 32 4.5t8 28.5v119t-2 134q0 8 5.5 13.5t14.5 5.5h84q11 0 16 -5.5t6 -13.5q1 -32 1.5 -56.5t0.5 -46.5v-44v-49q0 -64 -0.5 -107.5t-3.5 -70.5q-2 -10 -6.5 -17t-16.5 -12q-11 -3 -29.5 -5t-41 -3.5t-46.5 -2t-44 -0.5h-41
q-11 0 -22 3t-11 9v104zM-53 -110q0 10 7 16.5t17 6.5h69q10 0 17.5 -6.5t7.5 -16.5v-80q0 -8 -8 -14.5t-17 -6.5h-69q-10 0 -17 6.5t-7 14.5v80zM132 -110q0 10 7.5 16.5t16.5 6.5h70q10 0 16.5 -6.5t6.5 -16.5v-80q0 -8 -6.5 -14.5t-16.5 -6.5h-70q-9 0 -16.5 6.5
t-7.5 14.5v80z" />
    <glyph glyph-name="uniFEF4" unicode="&#x64a;" horiz-adv-x="312" arabic-form="medial" 
d="M-40 116q0 5 11 8.5t22 3.5h46q9 0 19 1t18.5 4.5t14.5 10t6 18.5v249q0 8 5.5 13.5t14.5 5.5h87q8 0 13.5 -5.5t5.5 -13.5v-266q3 -5 11 -8.5t18 -5.5t19.5 -2.5t16.5 -0.5h24v-128h-12q-38 0 -77 6.5t-65 27.5q-14 -10 -31 -16.5t-35.5 -10.5t-37 -5.5t-34.5 -1.5h-27
q-11 0 -22 3t-11 9v104zM-5 -110q0 10 7 16.5t17 6.5h69q10 0 17.5 -6.5t7.5 -16.5v-80q0 -8 -8 -14.5t-17 -6.5h-69q-10 0 -17 6.5t-7 14.5v80zM180 -110q0 10 7.5 16.5t16.5 6.5h70q10 0 16.5 -6.5t6.5 -16.5v-80q0 -8 -6.5 -14.5t-16.5 -6.5h-70q-9 0 -16.5 6.5
t-7.5 14.5v80z" />
    <glyph glyph-name=".notdef" horiz-adv-x="500" 
d="M12 665h475v-665h-475v665zM250 375l161 243h-323zM60 91l7 10t18 27t25.5 39t29.5 45q35 54 81 121l-161 242v-484zM278 333l162 -243v485zM250 290l-162 -242h323z" />
    <glyph glyph-name=".null" horiz-adv-x="0" 
 />
    <glyph glyph-name="nonmarkingreturn" horiz-adv-x="333" 
 />
    <glyph glyph-name="space" unicode=" " horiz-adv-x="250" 
 />
    <glyph glyph-name="exclam" unicode="!" horiz-adv-x="376" 
d="M241 234q0 -8 -6 -14t-14 -6h-65q-8 0 -14.5 6t-6.5 14l-15 508q0 8 6.5 13.5t14.5 5.5h95q8 0 14 -5.5t6 -13.5zM252 17q0 -8 -5.5 -14t-13.5 -6h-90q-8 0 -13.5 6t-5.5 14v113q0 19 19 19h90q19 0 19 -19v-113z" />
    <glyph glyph-name="quotedbl" unicode="&#x22;" horiz-adv-x="420" 
d="M407 750q0 -2 -2 -8l-68 -207q-5 -19 -19 -19h-80q-9 0 -9 10q0 6 1 9l51 207q4 19 20 19h94q12 0 12 -11zM207 750q0 -2 -2 -8l-68 -207q-5 -19 -19 -19h-80q-9 0 -9 10q0 6 1 9l51 207q4 19 20 19h94q12 0 12 -11z" />
    <glyph glyph-name="numbersign" unicode="#" horiz-adv-x="684" 
d="M634 524l-5 -45q-1 -8 -6.5 -14t-13.5 -6h-13t-23 -0.5t-27.5 -0.5h-25.5l-16 -177h85q8 0 14 -5t6 -13v-2l-5 -46q-1 -8 -6.5 -14t-13.5 -6h-88l-15 -176q-1 -8 -5.5 -13.5t-12.5 -5.5h-79q-8 0 -12 5t-4 12v2l15 176h-130l-15 -176q-1 -8 -5.5 -13.5t-12.5 -5.5h-80
q-7 0 -11.5 5t-4.5 12v2l15 176h-83q-8 0 -14 5t-6 13v2l5 46q1 8 6.5 14t13.5 6h86l16 177l-81 1q-8 0 -14 5t-6 13v2l5 45q1 8 6.5 14t13.5 6h83l16 180q1 8 6 13.5t13 5.5h80q7 0 11 -5t4 -12v-2l-16 -180h130l16 180q1 8 6 13.5t13 5.5h79q8 0 11.5 -5t3.5 -12v-2
l-16 -180h87q8 0 14 -5t6 -13v-2zM277 458l-16 -177h130l16 177h-130z" />
    <glyph glyph-name="dollar" unicode="$" 
d="M555 201q0 -32 -9 -64t-30 -59.5t-55.5 -48t-84.5 -30.5v-91q0 -8 -6 -14t-14 -6h-91q-8 0 -14 6t-6 14v85q-39 2 -70.5 6.5t-59.5 10.5q-8 2 -13.5 7t-5.5 13v72q0 8 5.5 13.5t13.5 5.5h2q15 -2 39.5 -3.5t50.5 -3t49.5 -2.5t37.5 -1q67 0 91.5 23t24.5 67q0 15 -4 26.5
t-14 22.5t-26 22.5t-41 26.5l-132 79q-35 21 -57.5 42t-36 43.5t-19 47t-5.5 50.5q0 34 9 64.5t29 54.5t52.5 40.5t79.5 24.5v84q0 8 6 14t14 6h91q8 0 14 -6t6 -14v-80q42 -2 81.5 -6.5t59.5 -9.5q8 -2 13 -6.5t5 -12.5v-74q0 -8 -4.5 -13t-12.5 -5h-2q-50 5 -99 7.5
t-98 2.5q-56 0 -80.5 -18.5t-24.5 -52.5q0 -12 3.5 -22.5t13 -21t25.5 -21.5t40 -24l120 -67q41 -23 68 -46.5t42.5 -48.5t22 -52t6.5 -57z" />
    <glyph glyph-name="percent" unicode="%" horiz-adv-x="811" 
d="M772 162q0 -86 -37 -127t-105 -41t-105.5 41t-37.5 127v82q0 86 37.5 127t105.5 41t105 -41t37 -127v-82zM674 735q0 -5 -4 -12l-417 -705q-6 -11 -10.5 -16t-12.5 -5h-84q-10 0 -10 9q0 7 4 12l417 705q7 11 11.5 15.5t12.5 4.5h84q9 0 9 -8zM325 499q0 -86 -37 -127
t-105 -41t-105.5 41t-37.5 127v82q0 86 37.5 126.5t105.5 40.5t105 -40.5t37 -126.5v-82zM687 244q0 53 -15 73t-42 20t-42.5 -20t-15.5 -73v-82q0 -53 15.5 -73t42.5 -20t42 20t15 73v82zM240 581q0 53 -15 73t-42 20t-42.5 -20t-15.5 -73v-82q0 -54 15.5 -74t42.5 -20
t42 20t15 74v82z" />
    <glyph glyph-name="ampersand" unicode="&#x26;" horiz-adv-x="718" 
d="M687 11q0 -11 -11 -11h-112q-5 0 -8.5 1.5t-8.5 6.5l-37 39q-38 -26 -85.5 -40.5t-104.5 -14.5q-54 0 -102 10.5t-84.5 34t-57.5 60t-21 87.5v10q0 31 9 57.5t26.5 49t43 43t58.5 40.5l-7 8q-32 37 -51 64t-28.5 48.5t-12.5 38.5t-3 34v9q0 74 57 119.5t171 45.5
q100 0 157.5 -45t57.5 -120v-9q0 -36 -12.5 -65t-33.5 -53t-47.5 -44t-54.5 -37l-24 -15l150 -160q14 31 20 67t6 76v12q0 8 4.5 14t12.5 6h73q8 0 13 -6t5 -14v-12q0 -64 -15 -120t-45 -101l98 -104q4 -4 4 -10zM414 586q0 34 -24 52.5t-72 18.5q-51 0 -80.5 -18t-29.5 -53
v-9q0 -12 1.5 -23.5t8 -25.5t20.5 -33t40 -44l9 -9l30 18q28 17 46.5 30.5t30 27t16 27.5t4.5 32v9zM266 306q-45 -27 -59.5 -52t-14.5 -60v-10q0 -48 36.5 -71t91.5 -23q38 0 68 8t53 22z" />
    <glyph glyph-name="quotesingle" unicode="'" horiz-adv-x="220" 
d="M207 750q0 -2 -2 -8l-68 -207q-5 -19 -19 -19h-80q-9 0 -9 10q0 6 1 9l51 207q4 19 20 19h94q12 0 12 -11z" />
    <glyph glyph-name="parenleft" unicode="(" horiz-adv-x="333" 
d="M303 -185q0 -10 -12 -10h-71q-11 0 -19.5 3t-14.5 11q-32 45 -56.5 92.5t-41 101.5t-25 116t-8.5 135v19q0 145 33.5 251t97.5 195q6 8 14.5 11t19.5 3h71q12 0 12 -10q0 -8 -5 -16q-21 -38 -40.5 -83.5t-34.5 -99.5t-24 -116.5t-9 -134.5v-19q0 -72 9 -134.5t24 -116
t34.5 -99t40.5 -83.5q5 -8 5 -16z" />
    <glyph glyph-name="parenright" unicode=")" horiz-adv-x="333" 
d="M278 264q0 -73 -8.5 -135t-25 -116t-41 -101.5t-56.5 -92.5q-6 -8 -14.5 -11t-19.5 -3h-71q-12 0 -12 10q0 8 5 16q21 38 40.5 83.5t34.5 99t24 116t9 134.5v19q0 72 -9 134.5t-24 116.5t-34.5 99.5t-40.5 83.5q-5 8 -5 16q0 10 12 10h71q11 0 19.5 -3t14.5 -11
q64 -89 97.5 -195t33.5 -251v-19z" />
    <glyph glyph-name="asterisk" unicode="*" horiz-adv-x="473" 
d="M435 583q0 -11 -15 -16l-119 -36l74 -101q5 -7 5 -14t-6 -11l-41 -30q-5 -3 -9 -3q-8 0 -15 10l-72 102l-72 -102q-7 -10 -15 -10q-5 0 -9 3l-42 30q-6 4 -6 11t5 14l75 101l-118 36q-16 5 -16 16q0 3 1 5l16 49q3 10 13 10q4 0 10 -2l119 -39l-2 125q0 8 3.5 13.5
t11.5 5.5h52q8 0 11.5 -6t3.5 -14l-1 -124l118 39q6 2 10 2q10 0 13 -10l16 -49q1 -2 1 -5z" />
    <glyph glyph-name="plus" unicode="+" 
d="M548 356q0 -8 -6 -12t-14 -4h-162v-161q0 -8 -4 -14t-12 -6h-70q-8 0 -12 6t-4 14v161h-161q-8 0 -14 4t-6 12v70q0 8 6 12t14 4h161v162q0 8 4 14t12 6h70q8 0 12 -6t4 -14v-162h162q8 0 14 -4t6 -12v-70z" />
    <glyph glyph-name="comma" unicode="," horiz-adv-x="259" 
d="M203 140q0 -1 -2 -7l-87 -210q-4 -9 -7.5 -14.5t-11.5 -5.5h-69q-15 0 -15 14q0 4 1 6l61 210q6 19 20 19h96q14 0 14 -12z" />
    <glyph glyph-name="hyphen" unicode="-" horiz-adv-x="321" 
d="M278 276q0 -18 -19 -18h-196q-8 0 -14 5t-6 13v63q0 8 6 13.5t14 5.5h196q19 0 19 -19v-63z" />
    <glyph glyph-name="period" unicode="." horiz-adv-x="259" 
d="M194 20q0 -8 -6 -14t-14 -6h-89q-8 0 -14 6t-6 14v113q0 8 6 13.5t14 5.5h89q8 0 14 -5.5t6 -13.5v-113z" />
    <glyph glyph-name="slash" unicode="/" horiz-adv-x="365" 
d="M234 723q2 8 6.5 14t12.5 6h81q8 0 13 -4.5t2 -15.5l-217 -702q-2 -8 -6.5 -14.5t-12.5 -6.5h-81q-11 0 -14.5 6.5t-1.5 14.5z" />
    <glyph glyph-name="zero" unicode="0" 
d="M576 334q0 -93 -18 -158.5t-52 -106t-82 -59t-109 -18.5t-109.5 18.5t-82 59t-51.5 106t-18 158.5v74q0 93 18 158.5t51.5 106.5t82 59.5t109.5 18.5t109 -18.5t82 -59.5t52 -106.5t18 -158.5v-74zM437 408q0 68 -9.5 112.5t-26 70.5t-38.5 36.5t-48 10.5t-48 -10.5
t-38.5 -36.5t-26 -70.5t-9.5 -112.5v-74q0 -68 9.5 -112t26 -70t38.5 -36.5t48 -10.5t48 10.5t38.5 36.5t26 70t9.5 112v74z" />
    <glyph glyph-name="one" unicode="1" 
d="M129 0q-8 0 -14 6t-6 14v76q0 8 6 13t14 5h134v492l-131 -40q-5 -2 -12 -2q-11 0 -11 12v94q0 8 7 11l177 58q5 2 10 3t13 1h66q19 0 19 -19v-610h134q8 0 14 -5t6 -13v-76q0 -8 -6 -14t-14 -6h-406z" />
    <glyph glyph-name="two" unicode="2" 
d="M553 568q0 -63 -31.5 -107.5t-93.5 -86.5l-90 -60q-71 -47 -106.5 -90.5t-35.5 -105.5v-4h329q8 0 14 -5t6 -13v-76q0 -8 -6 -14t-14 -6h-424q-8 0 -14 6t-6 14v98q0 41 12 79.5t33 72t48.5 61.5t58.5 49l99 66q29 19 47 33t28 26.5t13.5 27t3.5 35.5q0 41 -27 57.5
t-90 16.5q-22 0 -47.5 -1.5t-52 -3.5t-52.5 -4.5t-48 -5.5h-2q-8 0 -13 6t-5 14v60q0 8 5.5 12.5t13.5 6.5q19 5 44 9.5t51.5 8t54 5.5t51.5 2q131 0 188.5 -45t57.5 -138z" />
    <glyph glyph-name="three" unicode="3" 
d="M546 208q0 -56 -19.5 -96.5t-53 -67t-79.5 -39.5t-99 -13q-56 0 -102.5 7t-89.5 18q-8 2 -13.5 6.5t-5.5 12.5v62q0 8 5 13t13 5h2q60 -6 107.5 -10t83.5 -4q61 0 86.5 26.5t25.5 79.5v21q0 20 -3.5 38t-14 32t-28.5 22.5t-46 8.5h-177q-19 0 -19 19v63q0 19 19 19h177
q28 0 46 8t28.5 21.5t14 31t3.5 37.5v16q0 19 -4.5 36.5t-17 30.5t-34.5 21t-56 8q-27 0 -47.5 -1t-41.5 -2.5t-45 -4.5t-57 -6h-2q-8 0 -13 5t-5 13v62q0 8 5.5 12.5t13.5 6.5q43 11 89.5 18t102.5 7q54 0 100 -11t79.5 -35.5t52.5 -63.5t19 -96v-16q0 -53 -22.5 -89.5
t-63.5 -58.5q42 -23 64 -63.5t22 -88.5v-21z" />
    <glyph glyph-name="four" unicode="4" 
d="M592 199q0 -8 -6 -14t-14 -6h-74v-159q0 -8 -5 -14t-13 -6h-103q-8 0 -13 6t-5 14v159h-300q-8 0 -14 6t-6 14v81q0 18 11 32l308 413q5 8 11.5 13t17.5 5h91q8 0 14 -6t6 -14v-434h74q8 0 14 -6t6 -14v-70zM360 543q0 6 -3 6t-7 -6l-175 -243q-3 -3 -3 -6q0 -5 8 -5h180
v254z" />
    <glyph glyph-name="five" unicode="5" 
d="M552 237q0 -113 -63 -179t-194 -66q-45 0 -97 7t-95 18q-8 2 -13.5 6.5t-5.5 15.5v59q0 8 5 13t13 5h2q60 -8 107.5 -11t83.5 -3q35 0 58 9.5t36.5 27t18.5 42.5t5 56v5q0 62 -41.5 87t-135.5 25h-135q-5 0 -8 4.5t-3 8.5v2l32 356q1 8 6.5 13t13.5 5h363q8 0 14 -5.5
t6 -13.5v-76q0 -8 -6 -13.5t-14 -5.5h-271l-15 -166h17q57 0 113.5 -7.5t101.5 -31t73 -67t28 -115.5v-5z" />
    <glyph glyph-name="six" unicode="6" 
d="M580 240q0 -56 -17 -101.5t-50 -78t-81 -50.5t-110 -18q-56 0 -104 18t-83 55.5t-55 96t-20 139.5v115q0 90 17.5 154t52.5 104t86.5 58.5t120.5 18.5q66 0 113 -7t72 -12q11 -2 17 -6.5t6 -14.5v-62q0 -21 -19 -21h-4q-14 2 -36.5 4.5t-48 4.5t-52 3t-48.5 1
q-38 0 -64.5 -9t-43 -30.5t-24.5 -56.5t-9 -86q24 5 61 8t78 3q49 0 93 -11.5t78 -37t54 -68t20 -103.5v-10zM444 250q0 35 -11 58t-30 36.5t-44 19t-52 5.5q-22 0 -55 -3t-56 -8v-57q0 -63 9.5 -102t26 -61t40 -30t50.5 -8q25 0 47.5 6.5t39 22.5t26 43t9.5 68v10z" />
    <glyph glyph-name="seven" unicode="7" 
d="M554 649q0 -8 -5 -18.5t-13 -27.5l-270 -584q-5 -11 -11 -15t-16 -4h-104q-7 0 -10.5 4.5t-3.5 10.5q0 3 2 9l287 598v2q0 5 -5 5h-308q-8 0 -14 5t-6 13v77q0 8 6 13.5t14 5.5h417q17 0 28.5 -11.5t11.5 -28.5v-54z" />
    <glyph glyph-name="eight" unicode="8" 
d="M577 215q0 -59 -21 -101.5t-56.5 -69.5t-82 -39.5t-97.5 -12.5h-10q-51 0 -97.5 12.5t-81.5 39.5t-56 69.5t-21 101.5v9q0 51 25 92.5t66 70.5q-46 30 -66.5 69.5t-20.5 86.5v4q0 56 20 95t54.5 63t80.5 35t97 11h10q51 0 97.5 -11t81 -35t55 -63t20.5 -95v-4
q0 -47 -21 -86.5t-67 -69.5q41 -29 66 -70.5t25 -92.5v-9zM445 543q0 51 -29.5 78.5t-95.5 27.5h-10q-66 0 -94.5 -27.5t-28.5 -78.5v-4q0 -44 25 -73.5t83 -29.5h41q58 0 83.5 29.5t25.5 73.5v4zM442 224q0 18 -5.5 37.5t-18 35.5t-32.5 26.5t-50 10.5h-41q-30 0 -50 -10.5
t-32.5 -26.5t-18 -35.5t-5.5 -37.5v-9q0 -51 30 -85t91 -34h10q61 0 91.5 34t30.5 85v9z" />
    <glyph glyph-name="nine" unicode="9" 
d="M569 327q0 -90 -17.5 -154t-52.5 -104t-86.5 -58.5t-120.5 -18.5q-66 0 -113 7t-72 12q-11 2 -17 6.5t-6 14.5v62q0 21 19 21h4q14 -2 36.5 -4.5t48 -4.5t51.5 -3t49 -1q38 0 64.5 9t43 30.5t24.5 56.5t9 86q-24 -5 -61 -8t-78 -3q-49 0 -93.5 11.5t-78 37t-53.5 67.5
t-20 104v10q0 55 17 101t50 78.5t81 50.5t110 18q56 0 104 -18t83 -55.5t55 -96t20 -139.5v-115zM433 442q0 63 -9.5 102t-26 61t-40 30t-50.5 8q-26 0 -48 -6.5t-38.5 -22.5t-26 -43t-9.5 -68v-10q0 -35 11 -58t30 -36.5t44 -19t52 -5.5q22 0 55 3t56 8v57z" />
    <glyph glyph-name="colon" unicode=":" horiz-adv-x="259" 
d="M194 414q0 -8 -6 -13.5t-14 -5.5h-89q-8 0 -14 5.5t-6 13.5v113q0 8 6 14t14 6h89q8 0 14 -6t6 -14v-113zM194 20q0 -8 -6 -14t-14 -6h-89q-8 0 -14 6t-6 14v113q0 8 6 13.5t14 5.5h89q8 0 14 -5.5t6 -13.5v-113z" />
    <glyph glyph-name="semicolon" unicode=";" horiz-adv-x="259" 
d="M194 414q0 -8 -6 -13.5t-14 -5.5h-89q-8 0 -14 5.5t-6 13.5v113q0 8 6 14t14 6h89q8 0 14 -6t6 -14v-113zM196 140q0 -1 -2 -7l-87 -210q-4 -9 -7.5 -14.5t-11.5 -5.5h-69q-15 0 -15 14q0 4 1 6l61 210q6 19 20 19h96q14 0 14 -12z" />
    <glyph glyph-name="less" unicode="&#x3c;" 
d="M514 153q0 -5 -3.5 -9.5t-8.5 -4.5h-110q-8 0 -12.5 3t-9.5 8l-231 202q-12 11 -17.5 19t-5.5 20t5.5 20t17.5 19l231 202q5 5 9.5 8t12.5 3h110q5 0 8.5 -4.5t3.5 -9.5q0 -8 -6 -12l-260 -226l260 -226q6 -5 6 -12z" />
    <glyph glyph-name="equal" unicode="=" 
d="M538 477q0 -8 -6 -12t-14 -4h-405q-8 0 -14 4t-6 12v70q0 8 6 12t14 4h405q8 0 14 -4t6 -12v-70zM538 235q0 -8 -6 -12t-14 -4h-405q-8 0 -14 4t-6 12v70q0 8 6 12t14 4h405q8 0 14 -4t6 -12v-70z" />
    <glyph glyph-name="greater" unicode="&#x3e;" 
d="M514 391q0 -12 -5.5 -20t-17.5 -19l-231 -202q-5 -5 -9.5 -8t-12.5 -3h-110q-5 0 -8.5 4.5t-3.5 9.5q0 7 6 12l260 226l-260 226q-6 4 -6 12q0 5 3.5 9.5t8.5 4.5h110q8 0 12.5 -3t9.5 -8l231 -202q12 -11 17.5 -19t5.5 -20z" />
    <glyph glyph-name="question" unicode="?" horiz-adv-x="437" 
d="M407 579q0 -14 -1.5 -28.5t-8.5 -32.5t-21.5 -40.5t-39.5 -52.5l-61 -72q-20 -24 -33 -41t-13 -41v-38q0 -8 -6 -13.5t-14 -5.5h-83q-19 0 -19 19v38q0 24 2.5 42t9.5 34.5t18 33t29 37.5l64 74q18 21 23.5 42t5.5 45v16q0 18 -13.5 27.5t-44.5 9.5q-37 0 -77 -3.5
t-73 -7.5h-4q-17 0 -17 22v62q0 12 2.5 18.5t15.5 9.5q32 8 73 13t80 5q48 0 86.5 -7.5t65 -25.5t40.5 -48t14 -75v-16zM233 19q0 -8 -6 -13.5t-14 -5.5h-90q-8 0 -14 5.5t-6 13.5v113q0 8 6 14t14 6h90q8 0 14 -6t6 -14v-113z" />
    <glyph glyph-name="at" unicode="@" horiz-adv-x="772" 
d="M737 362q0 -91 -26.5 -151.5t-75.5 -96.5t-117 -51t-150 -15q-76 0 -123 35.5t-47 107.5q0 5 0.5 9t0.5 9l9 117q7 85 59 125t135 40q10 0 26 -1.5t34.5 -3.5t37.5 -4.5t34 -5.5q23 -3 23 -26v-4l-29 -302q39 6 64.5 24.5t40.5 47t21 65.5t6 81q0 45 -14 87t-43.5 73.5
t-75 50.5t-107.5 19q-132 0 -206 -65t-85 -183l-15 -158q-1 -9 -1.5 -17t-0.5 -16q0 -44 15 -81t46 -64t78 -42t111 -15q35 0 75.5 2t69.5 5h6q7 0 7 -9v-37q0 -12 -13 -13q-23 -3 -60 -6.5t-85 -3.5q-72 0 -132 18t-103 51.5t-67 83t-24 112.5v16t1 16l15 163
q6 70 34 127.5t75 98.5t112.5 63t147.5 22q80 0 139.5 -25t98.5 -66.5t58.5 -95.5t19.5 -111zM446 397q-14 2 -27.5 3.5t-27.5 1.5q-38 0 -55 -18t-22 -62l-11 -112q-1 -5 -1 -9v-8q0 -31 17 -43.5t56 -12.5h20h14.5t13.5 1z" />
    <glyph glyph-name="A" unicode="A" horiz-adv-x="646" 
d="M627 17q0 -8 -5 -12.5t-13 -4.5h-106q-7 0 -12 5t-7 12l-46 190h-230l-46 -190q-2 -7 -7 -12t-12 -5h-106q-8 0 -13 4.5t-5 12.5q0 1 0.5 2t0.5 3l164 627q9 35 26 55t36.5 30.5t40 13.5t36.5 3t36.5 -3t40 -13.5t36.5 -30.5t26 -55l164 -627q0 -2 0.5 -3t0.5 -2z
M339 618q-2 9 -5 12.5t-11 3.5t-11 -3.5t-5 -12.5l-72 -297h176z" />
    <glyph glyph-name="B" unicode="B" horiz-adv-x="650" 
d="M600 208q0 -60 -21.5 -101t-61 -66.5t-95.5 -37t-126 -11.5q-61 0 -105.5 3t-67.5 8q-25 5 -36.5 15.5t-11.5 38.5v630q0 27 10.5 38.5t34.5 15.5q20 3 64 6.5t103 3.5q68 0 124.5 -10.5t97.5 -34.5t63.5 -62.5t22.5 -95.5v-20q0 -50 -23 -90.5t-69 -60.5
q46 -20 71.5 -57.5t25.5 -94.5v-17zM460 540q0 52 -38.5 74t-134.5 22q-18 0 -37.5 -0.5t-35.5 -1.5v-203h127q35 0 58 7.5t36.5 20.5t19 30.5t5.5 36.5v14zM464 223q0 21 -6 40t-20.5 33.5t-38 23.5t-58.5 9h-127v-220q18 0 42 -1t40 -1q48 0 80 6t51.5 19t28 32.5
t8.5 45.5v13z" />
    <glyph glyph-name="C" unicode="C" horiz-adv-x="563" 
d="M518 31q0 -11 -6 -15.5t-16 -7.5q-6 -2 -20.5 -4.5t-35.5 -5t-47 -4.5t-55 -2q-45 0 -95 13t-91.5 47.5t-69 93.5t-27.5 152v147q0 94 27.5 153.5t69 93.5t91.5 46.5t95 12.5q29 0 55 -2t47 -4.5t35.5 -5.5t20.5 -4q10 -3 16 -7.5t6 -15.5v-67q0 -9 -4.5 -15t-15.5 -6h-2
q-13 1 -31.5 2.5t-39.5 2.5t-43 2t-42 1q-32 0 -58.5 -9.5t-45.5 -31t-30 -57.5t-11 -89v-147q0 -52 11 -88t30 -58t45.5 -31.5t58.5 -9.5q20 0 42 1t43 2t39.5 2.5t31.5 2.5h2q11 0 15.5 -6t4.5 -15v-67z" />
    <glyph glyph-name="D" unicode="D" horiz-adv-x="667" 
d="M612 298q0 -149 -81.5 -227.5t-232.5 -78.5q-27 0 -56.5 1t-57 3t-50 4t-33.5 4q-13 2 -19.5 9t-6.5 22v673q0 15 6.5 22t19.5 9q11 2 33.5 4t50 4t57 3t56.5 1q151 0 232.5 -78.5t81.5 -227.5v-147zM474 445q0 56 -13.5 92.5t-37 58t-56 30t-69.5 8.5q-28 0 -48 -1
t-36 -2v-519q16 -1 36 -2t48 -1q37 0 69.5 8.5t56 30t37 58t13.5 92.5v147z" />
    <glyph glyph-name="E" unicode="E" horiz-adv-x="576" 
d="M516 27q0 -11 -4.5 -15t-15.5 -6q-12 -2 -26.5 -4.5t-36 -4.5t-52 -3.5t-75.5 -1.5q-49 0 -91 8t-73 30.5t-49 62.5t-18 104v349q0 64 18 104t49 62.5t73 30.5t91 8q45 0 75.5 -1.5t52 -3.5t36 -4.5t26.5 -4.5q11 -2 15.5 -6t4.5 -15v-64q0 -8 -6 -14t-14 -6h-204
q-44 0 -61.5 -18t-17.5 -68v-108h271q8 0 14 -6t6 -14v-72q0 -8 -6 -14t-14 -6h-271v-129q0 -50 17.5 -68t61.5 -18h204q8 0 14 -6t6 -14v-64z" />
    <glyph glyph-name="F" unicode="F" horiz-adv-x="576" 
d="M516 652q0 -8 -6 -14t-14 -6h-204q-44 0 -61.5 -18t-17.5 -68v-108h271q8 0 14 -6t6 -14v-72q0 -8 -6 -14t-14 -6h-271v-306q0 -8 -6 -14t-14 -6h-98q-8 0 -14 6t-6 14v526q0 64 18 104t49 62.5t73 30.5t91 8q45 0 75.5 -1.5t52 -3.5t36 -4.5t26.5 -4.5q11 -2 15.5 -6
t4.5 -15v-64z" />
    <glyph glyph-name="G" unicode="G" horiz-adv-x="635" 
d="M560 33q0 -20 -19 -24q-38 -8 -89 -12.5t-129 -4.5q-41 0 -87.5 15t-87 50t-67 94t-26.5 148v144q0 89 25.5 148t65.5 94.5t87.5 50.5t92.5 15q36 0 69.5 -2t61.5 -5t50 -6t34 -5q19 -4 19 -21v-67q0 -11 -4 -16t-16 -5h-3q-35 3 -87 5.5t-124 2.5q-25 0 -48.5 -9.5
t-42 -31.5t-29.5 -58.5t-11 -89.5v-144q0 -53 11.5 -89t30 -58t41.5 -31.5t45 -9.5q28 0 52 0.5t47 2.5v255q0 8 5.5 14t13.5 6h99q8 0 14 -6t6 -14v-336z" />
    <glyph glyph-name="H" unicode="H" horiz-adv-x="712" 
d="M637 20q0 -8 -6 -14t-14 -6h-99q-8 0 -14 6t-6 14v306h-284v-306q0 -8 -6 -14t-14 -6h-99q-8 0 -14 6t-6 14v704q0 8 6 13.5t14 5.5h99q8 0 14 -5.5t6 -13.5v-276h284v276q0 8 6 13.5t14 5.5h99q8 0 14 -5.5t6 -13.5v-704z" />
    <glyph glyph-name="I" unicode="I" horiz-adv-x="289" 
d="M214 20q0 -8 -6 -14t-14 -6h-99q-8 0 -14 6t-6 14v704q0 8 6 13.5t14 5.5h99q8 0 14 -5.5t6 -13.5v-704z" />
    <glyph glyph-name="J" unicode="J" horiz-adv-x="289" 
d="M214 -21q0 -80 -39.5 -113t-120.5 -33q-11 0 -24 1t-24.5 2.5t-20 2.5t-11.5 2q-10 3 -10 14v71q0 8 6 13t14 5h66q14 0 19.5 6.5t5.5 28.5v745q0 8 6 13.5t14 5.5h99q8 0 14 -5.5t6 -13.5v-745z" />
    <glyph glyph-name="K" unicode="K" horiz-adv-x="643" 
d="M615 9q0 -9 -15 -9h-134q-16 0 -23 11l-229 341v-332q0 -8 -6 -14t-14 -6h-99q-8 0 -14 6t-6 14v703q0 8 6 13.5t14 5.5h99q8 0 14 -5.5t6 -13.5v-318l245 329q4 5 9.5 6.5t13.5 1.5h114q19 0 19 -12q0 -7 -7 -16l-256 -331l258 -362q5 -8 5 -12z" />
    <glyph glyph-name="L" unicode="L" horiz-adv-x="516" 
d="M496 27q0 -11 -4.5 -15t-15.5 -6q-11 -3 -31.5 -5.5t-44.5 -4.5t-49 -3t-45 -1q-49 0 -91 8t-73 30.5t-49 62.5t-18 104v526q0 8 6 14t14 6h99q8 0 14 -6t6 -14v-526q0 -50 17 -68t61 -18h184q8 0 14 -6t6 -14v-64z" />
    <glyph glyph-name="M" unicode="M" horiz-adv-x="792" 
d="M717 15q0 -8 -5 -11.5t-12 -3.5h-101q-7 0 -11.5 6t-4.5 14v465q0 10 -3 10q-1 0 -5 -6l-96 -191q-5 -8 -13.5 -12.5t-18.5 -4.5h-101q-10 0 -18.5 4.5t-13.5 12.5l-97 191q-4 6 -5 6q-3 0 -3 -10v-465q0 -8 -4.5 -14t-11.5 -6h-101q-7 0 -12 3.5t-5 11.5v688
q0 17 11.5 28.5t28.5 11.5h82q12 0 22 -6.5t15 -17.5l151 -306l6 -10.5t5 -3.5t5 3.5l6 10.5l151 306q5 11 15 17.5t22 6.5h82q17 0 28.5 -11.5t11.5 -28.5v-688z" />
    <glyph glyph-name="N" unicode="N" horiz-adv-x="712" 
d="M637 40q0 -17 -11.5 -28.5t-28.5 -11.5h-101q-18 0 -33.5 4.5t-27.5 31.5l-222 487q-4 8 -9 8t-5 -8v-503q0 -8 -5.5 -14t-13.5 -6h-85q-8 0 -14 6t-6 14v683q0 17 11.5 28.5t28.5 11.5h108q16 0 25.5 -6t18.5 -26l233 -514q3 -8 8 -8t5 9v526q0 19 19 19h86q19 0 19 -19
v-684z" />
    <glyph glyph-name="O" unicode="O" horiz-adv-x="680" 
d="M625 304q0 -83 -21.5 -142t-59.5 -96.5t-90 -55.5t-114 -18t-114 18t-90 55.5t-59.5 96.5t-21.5 142v135q0 82 21.5 141.5t59.5 97t90 55.5t114 18t114 -18t90 -55.5t59.5 -97t21.5 -141.5v-135zM485 439q0 100 -35.5 145.5t-109.5 45.5t-109.5 -45.5t-35.5 -145.5v-135
q0 -100 35.5 -145.5t109.5 -45.5t109.5 45.5t35.5 145.5v135z" />
    <glyph glyph-name="P" unicode="P" horiz-adv-x="626" 
d="M591 511q0 -66 -23.5 -111t-63 -72.5t-91.5 -39t-110 -11.5q-20 0 -46 1.5t-43 2.5v-261q0 -8 -5.5 -14t-13.5 -6h-100q-8 0 -14 6t-6 14v688q0 15 8.5 21.5t23.5 8.5q39 6 90 9.5t106 3.5q58 0 110 -11t91.5 -38t63 -71.5t23.5 -110.5v-9zM453 520q0 63 -37.5 89.5
t-112.5 26.5q-8 0 -20.5 -0.5t-25.5 -1t-24.5 -1t-18.5 -1.5v-238q6 0 18.5 -0.5t26 -1t26 -1t18.5 -0.5q81 0 115.5 30t34.5 90v9z" />
    <glyph glyph-name="Q" unicode="Q" horiz-adv-x="690" 
d="M630 304q0 -71 -16 -124.5t-45 -91t-69 -60t-89 -31.5v-21q0 -20 8.5 -26t21.5 -6h97q11 0 17.5 -4t6.5 -12v-62q0 -15 -22 -21q-15 -4 -45 -7.5t-54 -3.5q-36 0 -65.5 7.5t-51 24.5t-33.5 43.5t-12 64.5v23q-49 9 -89 31.5t-69 60t-45 91t-16 124.5v135q0 82 21.5 141.5
t59.5 97t90 55.5t114 18t114 -18t90 -55.5t59.5 -97t21.5 -141.5v-135zM490 439q0 100 -35.5 145.5t-109.5 45.5t-109.5 -45.5t-35.5 -145.5v-135q0 -100 35.5 -145.5t109.5 -45.5t109.5 45.5t35.5 145.5v135z" />
    <glyph glyph-name="R" unicode="R" horiz-adv-x="653" 
d="M615 12q0 -12 -12 -12h-122q-8 0 -12 6t-8 14l-144 267h-14q-20 0 -46 1.5t-43 2.5v-271q0 -8 -5.5 -14t-13.5 -6h-100q-8 0 -14 6t-6 14v688q0 15 8.5 21.5t23.5 8.5q39 6 90 9.5t106 3.5q58 0 110 -11.5t91.5 -37.5t63 -69.5t23.5 -107.5v-9q0 -80 -36.5 -130
t-98.5 -74l157 -292q2 -3 2 -8zM453 525q0 57 -37.5 82t-112.5 25q-8 0 -20.5 -0.5t-25.5 -1t-24.5 -1t-18.5 -1.5v-225q6 0 18.5 -0.5t26 -1t26 -1t18.5 -0.5q78 0 114 25t36 91v9z" />
    <glyph glyph-name="S" unicode="S" horiz-adv-x="570" 
d="M525 201q0 -38 -13 -75.5t-43.5 -67t-81 -48t-125.5 -18.5q-57 0 -99 5t-78 13q-8 2 -13.5 7t-5.5 13v72q0 8 5.5 13.5t13.5 5.5h2q15 -2 39.5 -3.5t50.5 -3t49.5 -2.5t37.5 -1q67 0 91.5 23t24.5 67q0 15 -4 26.5t-14 22.5t-26 22.5t-41 26.5l-132 79q-35 21 -57.5 42
t-36 43.5t-19 47t-5.5 50.5q0 41 13 76t42.5 60.5t77 39.5t117.5 14q25 0 53 -1.5t55 -4.5t49 -6t35 -6q8 -2 13 -6.5t5 -12.5v-74q0 -8 -4.5 -13t-12.5 -5h-2q-50 5 -99 7.5t-98 2.5q-56 0 -80.5 -18.5t-24.5 -52.5q0 -12 3.5 -22.5t13 -21t25.5 -21.5t40 -24l120 -67
q41 -23 68 -46.5t42.5 -48.5t22 -52t6.5 -57z" />
    <glyph glyph-name="T" unicode="T" horiz-adv-x="579" 
d="M554 645q0 -8 -6 -13t-14 -5h-175v-607q0 -8 -6 -14t-14 -6h-99q-8 0 -14 6t-6 14v607h-175q-8 0 -14 5t-6 13v79q0 8 6 13.5t14 5.5h489q8 0 14 -5.5t6 -13.5v-79z" />
    <glyph glyph-name="U" unicode="U" horiz-adv-x="690" 
d="M620 275q0 -80 -20.5 -134t-57 -87t-87 -47.5t-110.5 -14.5t-110.5 14.5t-87 47.5t-57 87t-20.5 134v449q0 8 6 13.5t14 5.5h99q8 0 14 -5.5t6 -13.5v-449q0 -43 6 -74.5t21.5 -52.5t41.5 -31t67 -10q40 0 66.5 10t42 31t21.5 52.5t6 74.5v449q0 8 6 13.5t14 5.5h99
q8 0 14 -5.5t6 -13.5v-449z" />
    <glyph glyph-name="V" unicode="V" horiz-adv-x="656" 
d="M632 726q0 -2 -0.5 -2.5t-0.5 -2.5l-164 -627q-9 -35 -26 -55t-36.5 -30.5t-40 -13.5t-36.5 -3t-36.5 3t-40 13.5t-36.5 30.5t-26 55l-164 627q0 2 -0.5 2.5t-0.5 2.5q0 8 5 12.5t13 4.5h106q7 0 12 -5t7 -12l145 -601q2 -9 5 -12.5t11 -3.5t11 3.5t5 12.5l145 601
q2 7 7 12t12 5h106q8 0 13 -4.5t5 -12.5z" />
    <glyph glyph-name="W" unicode="W" horiz-adv-x="862" 
d="M838 726l-94 -653q-7 -47 -29 -64t-61 -17h-54q-34 0 -53 18t-30 62l-79 330q-2 11 -6 11q-5 0 -7 -11l-79 -330q-11 -44 -30 -62t-53 -18h-54q-39 0 -61 17t-29 64l-94 653v3q0 7 5 10.5t12 3.5h106q6 0 11 -5t6 -13l72 -597q1 -7 1.5 -11t3.5 -4t3.5 4t2.5 11l86 351
q5 18 18 31.5t45 13.5h69q32 0 45 -13.5t18 -31.5l86 -351q2 -7 2.5 -11t3.5 -4t3.5 4t1.5 11l72 597q1 8 6 13t11 5h106q7 0 12 -3.5t5 -10.5v-3z" />
    <glyph glyph-name="X" unicode="X" horiz-adv-x="650" 
d="M627 12q0 -5 -4 -8.5t-12 -3.5h-118q-8 0 -14 5.5t-12 14.5l-147 236l-138 -236q-11 -20 -26 -20h-109q-16 0 -16 13q0 3 2 7l213 355l-219 349q-2 4 -2 6q0 13 16 13h118q8 0 14.5 -6t11.5 -13l146 -233l135 233q4 7 11 13t15 6h109q16 0 16 -13q0 -2 -2 -6l-210 -352
l220 -352q2 -3 2 -8z" />
    <glyph glyph-name="Y" unicode="Y" horiz-adv-x="615" 
d="M590 728q0 -2 -2 -8l-152 -347q-14 -33 -29 -49.5t-32 -23.5v-280q0 -8 -5.5 -14t-13.5 -6h-100q-8 0 -13.5 6t-5.5 14v280q-17 7 -32 23.5t-29 49.5l-151 347q-2 6 -2 8q0 6 4 10.5t12 4.5h111q7 0 12 -5t7 -11l120 -298q5 -13 9.5 -16.5t7.5 -3.5q4 0 8.5 3.5t9.5 16.5
l120 298q2 6 7 11t12 5h110q8 0 12.5 -4.5t4.5 -10.5z" />
    <glyph glyph-name="Z" unicode="Z" horiz-adv-x="588" 
d="M548 20q0 -8 -6 -14t-14 -6h-437q-22 0 -36.5 8.5t-14.5 28.5v55q0 9 2.5 18t10.5 20l317 475q3 4 3 9q0 8 -10 8h-278q-19 0 -19 18v84q0 19 19 19h403q22 0 37.5 -9t15.5 -29v-58q0 -11 -4 -21.5t-10 -19.5l-312 -467q-4 -5 -4 -11t9 -6h308q8 0 14 -5t6 -13v-84z" />
    <glyph glyph-name="bracketleft" unicode="[" horiz-adv-x="356" 
d="M328 -178q0 -16 -19 -16h-222q-8 0 -12.5 5.5t-4.5 13.5v899q0 8 4.5 13.5t12.5 5.5h222q19 0 19 -16v-73q0 -17 -19 -17h-105v-725h105q19 0 19 -17v-73z" />
    <glyph glyph-name="backslash" unicode="\" horiz-adv-x="385" 
d="M371 8q0 -6 -5 -11t-12 -5h-101q-8 0 -12 6.5t-6 14.5l-219 710q0 2 -0.5 2.5t-0.5 2.5q0 6 5 10.5t12 4.5h100q8 0 13 -6t7 -14l218 -710q0 -2 0.5 -2.5t0.5 -2.5z" />
    <glyph glyph-name="bracketright" unicode="]" horiz-adv-x="356" 
d="M286 -175q0 -8 -4.5 -13.5t-12.5 -5.5h-222q-19 0 -19 16v73q0 17 19 17h105v725h-105q-19 0 -19 16v73q0 17 19 17h222q8 0 12.5 -5.5t4.5 -13.5v-899z" />
    <glyph glyph-name="asciicircum" unicode="^" 
d="M548 573q0 -9 -12 -9h-102q-11 0 -16.5 4t-13.5 12l-89 102l-89 -102q-8 -8 -13.5 -12t-16.5 -4h-102q-12 0 -12 9q0 5 5 12l113 148q8 11 14 14.5t18 3.5h166q12 0 18 -3.5t14 -14.5l113 -148q5 -7 5 -12z" />
    <glyph glyph-name="underscore" unicode="_" horiz-adv-x="523" 
d="M554 -98q0 -8 -6 -12t-14 -4h-545q-8 0 -14 4t-6 12v39q0 8 6 12t14 4h545q8 0 14 -4t6 -12v-39z" />
    <glyph glyph-name="grave" unicode="`" horiz-adv-x="415" 
d="M273 634q0 -7 -9 -7h-86q-9 0 -13 3t-10 10l-119 124q-4 4 -4 8q0 7 11 7h106q10 0 14.5 -3.5t11.5 -11.5l94 -120q4 -4 4 -10z" />
    <glyph glyph-name="a" unicode="a" horiz-adv-x="548" 
d="M483 20q0 -8 -6 -14t-14 -6h-85q-8 0 -14 6t-6 14v16q-35 -21 -70 -32.5t-71 -11.5q-31 0 -62 7t-55.5 26t-40 51t-15.5 83v4q0 43 13.5 75t43 54t76 33t111.5 11h63v44q0 49 -21.5 65t-66.5 16q-48 0 -93 -2.5t-70 -5.5h-5q-8 0 -13 3t-5 14v64q0 17 19 21q30 6 72.5 11
t94.5 5q107 0 163.5 -47t56.5 -144v-360zM351 248h-63q-34 0 -55.5 -5.5t-34 -16t-17 -26.5t-4.5 -37v-4q0 -37 17 -49.5t55 -12.5q27 0 53.5 8t48.5 20v123z" />
    <glyph glyph-name="b" unicode="b" horiz-adv-x="577" 
d="M532 243q0 -118 -59 -184.5t-180 -66.5q-48 0 -101 7t-100 19q-17 5 -22 10.5t-5 16.5v696q0 8 6 14t14 6h92q8 0 14 -6t6 -14v-177q28 4 53 5.5t43 1.5q121 0 180 -66.5t59 -184.5v-77zM400 320q0 31 -4.5 57t-16.5 45t-33 30t-53 11q-18 0 -46.5 -2t-49.5 -5v-349
q14 -3 41.5 -5t54.5 -2q32 0 53 11t33 30t16.5 45t4.5 57v77z" />
    <glyph glyph-name="c" unicode="c" horiz-adv-x="468" 
d="M423 31q0 -12 -4 -17.5t-17 -8.5q-17 -5 -50 -9t-79 -4q-49 0 -90.5 15t-72 45.5t-48 76t-17.5 106.5v93q0 61 17.5 106.5t48 76t72 45.5t90.5 15q46 0 79 -4t50 -9q13 -3 17 -8.5t4 -17.5v-65q0 -8 -5 -11.5t-13 -3.5h-3q-15 2 -28 3.5t-27 2t-32 1t-42 0.5
q-18 0 -35 -6t-30.5 -20.5t-22 -40t-8.5 -64.5v-93q0 -39 8.5 -64.5t22 -40t30.5 -20.5t35 -6q24 0 42 0.5t32 1t27 2t28 3.5h3q8 0 13 -3.5t5 -11.5v-65z" />
    <glyph glyph-name="d" unicode="d" horiz-adv-x="577" 
d="M512 45q0 -11 -5 -16.5t-22 -10.5q-47 -12 -100 -19t-101 -7q-121 0 -180 66.5t-59 184.5v77q0 118 59 184.5t180 66.5q18 0 43 -1.5t53 -5.5v177q0 8 6 14t14 6h92q8 0 14 -6t6 -14v-696zM380 456q-21 3 -49.5 5t-46.5 2q-32 0 -53 -11t-33 -30t-16.5 -45t-4.5 -57v-77
q0 -31 4.5 -57t16.5 -45t33 -30t53 -11q27 0 54.5 2t41.5 5v349z" />
    <glyph glyph-name="e" unicode="e" horiz-adv-x="574" 
d="M526 261q0 -25 -20 -25h-326v-3q0 -22 5 -44.5t18.5 -41t37 -30t59.5 -11.5q55 0 103.5 3.5t80.5 6.5h3q8 0 13 -3.5t5 -11.5v-66q0 -12 -3.5 -18t-17.5 -8q-24 -5 -45 -8t-42.5 -5t-47 -3t-59.5 -1q-38 0 -80.5 11.5t-78.5 40t-59.5 77t-23.5 122.5v74q0 58 16 105
t46.5 80t75.5 51t102 18q58 0 102.5 -18.5t74.5 -52.5t45.5 -80.5t15.5 -102.5v-56zM393 334q0 59 -29 91t-76 32t-77 -31.5t-30 -91.5v-4h212v4z" />
    <glyph glyph-name="f" unicode="f" horiz-adv-x="395" 
d="M375 690q0 -9 -5 -13t-10 -4h-45q-36 0 -47.5 -11.5t-11.5 -48.5v-49h96q8 0 14 -6t6 -14v-60q0 -8 -6 -13.5t-14 -5.5h-96v-444q0 -8 -6 -14.5t-14 -6.5h-91q-8 0 -14.5 6.5t-6.5 14.5v444l-89 14q-8 2 -14 6.5t-6 12.5v46q0 8 6 14t14 6h89v49q0 48 12.5 79t35 49
t54.5 25t71 7q18 0 32 -2.5t28 -5.5q6 -2 12 -5.5t6 -10.5v-59z" />
    <glyph glyph-name="g" unicode="g" horiz-adv-x="584" 
d="M556 495q0 -11 -3.5 -14.5t-12.5 -7.5l-33 -13q12 -17 18.5 -35.5t6.5 -44.5v-7q0 -94 -61.5 -138t-175.5 -44q-40 0 -67 5.5t-42 11.5q-17 -11 -17 -26t8.5 -22t25.5 -11l118 -28q51 -12 92.5 -23.5t70.5 -28.5t45 -42.5t16 -65.5v-7q0 -77 -58.5 -117t-186.5 -40
q-122 0 -185 43.5t-63 122.5v9q0 31 13.5 59.5t37.5 50.5q-21 16 -33 40.5t-12 51.5v1q0 23 10 45t30 36q-23 23 -32 51t-9 66v7q0 37 13 70.5t41.5 59t73.5 40t110 14.5h234q11 0 19 -8t8 -19v-42zM402 378q0 18 -4.5 33.5t-16.5 27t-33 18t-53 6.5t-53 -6.5t-33 -18
t-17 -27t-5 -33.5v-8q0 -14 4 -28t15.5 -25.5t32.5 -18.5t56 -7q62 0 84.5 20.5t22.5 58.5v8zM413 -39q0 8 -3.5 15t-16 14t-36 14.5t-62.5 16.5l-89 21q-11 -16 -18 -29.5t-7 -40.5v-9q0 -15 5.5 -27.5t19 -21t36.5 -13t58 -4.5q36 0 58 4t34.5 11t16.5 17.5t4 24.5v7z" />
    <glyph glyph-name="h" unicode="h" horiz-adv-x="592" 
d="M527 21q0 -8 -6 -14.5t-14 -6.5h-92q-8 0 -14 6.5t-6 14.5v329q0 33 -3.5 54t-12.5 33t-25 17t-41 5q-51 0 -116 -34v-404q0 -8 -6 -14.5t-14 -6.5h-92q-8 0 -14 6.5t-6 14.5v720q0 8 6 14t14 6h92q8 0 14 -6t6 -14v-207q29 17 63 27t88 10q52 0 86.5 -17t55 -47
t29 -70.5t8.5 -86.5v-329z" />
    <glyph glyph-name="i" unicode="i" horiz-adv-x="268" 
d="M203 659q0 -8 -6 -14t-14 -6h-97q-8 0 -14.5 6t-6.5 14v88q0 8 6.5 14t14.5 6h97q8 0 14 -6t6 -14v-88zM200 21q0 -8 -6 -14.5t-14 -6.5h-92q-8 0 -14 6.5t-6 14.5v523q0 8 6 14t14 6h92q8 0 14 -6t6 -14v-523z" />
    <glyph glyph-name="j" unicode="j" horiz-adv-x="268" 
d="M203 659q0 -8 -6.5 -14t-14.5 -6h-96q-8 0 -14 6t-6 14v88q0 8 6 14t14 6h96q8 0 14.5 -6t6.5 -14v-88zM200 -42q0 -46 -10 -76.5t-29 -48.5t-46.5 -25.5t-62.5 -7.5q-17 0 -32.5 1.5t-33.5 4.5q-19 3 -19 18v65q0 16 21 16h45q24 0 29.5 11.5t5.5 41.5v586q0 8 6 14
t14 6h92q8 0 14 -6t6 -14v-586z" />
    <glyph glyph-name="k" unicode="k" horiz-adv-x="549" 
d="M519 12q0 -5 -4 -8.5t-10 -3.5h-122q-8 0 -16 6.5t-13 13.5l-157 228v-227q0 -8 -6 -14.5t-14 -6.5h-92q-8 0 -14 6.5t-6 14.5v720q0 8 6 14t14 6h92q8 0 14 -6t6 -14v-417l171 228q5 7 11.5 9.5t11.5 2.5h112q15 0 15 -11q0 -5 -4 -10l-201 -247l203 -276q3 -5 3 -8z
" />
    <glyph glyph-name="l" unicode="l" horiz-adv-x="272" 
d="M202 21q0 -8 -5.5 -14.5t-13.5 -6.5h-93q-8 0 -14 6.5t-6 14.5v720q0 8 6 14t14 6h93q8 0 13.5 -6t5.5 -14v-720z" />
    <glyph glyph-name="m" unicode="m" horiz-adv-x="848" 
d="M783 21q0 -8 -6 -14.5t-14 -6.5h-92q-8 0 -14 6.5t-6 14.5v340q0 29 -3.5 47.5t-11.5 29.5t-22 15.5t-35 4.5q-14 0 -40 -5.5t-53 -19.5q2 -17 3 -35t1 -37v-340q0 -8 -6 -14.5t-14 -6.5h-92q-8 0 -14 6.5t-6 14.5v340q0 29 -3 47.5t-10.5 29.5t-21 15.5t-34.5 4.5
q-31 0 -92 -33v-404q0 -8 -6 -14.5t-14 -6.5h-92q-8 0 -14 6.5t-6 14.5v523q0 8 6 14t14 6h87q8 0 14 -6t6 -14v-21q32 20 65 34t78 14q43 0 71.5 -12t45.5 -33q38 21 75.5 33t89.5 12q51 0 83.5 -16.5t50.5 -45t25 -66.5t7 -82v-340z" />
    <glyph glyph-name="n" unicode="n" horiz-adv-x="592" 
d="M527 21q0 -8 -6 -14.5t-14 -6.5h-92q-8 0 -14 6.5t-6 14.5v326q0 33 -2.5 54.5t-11 34t-25.5 18t-46 5.5q-26 0 -53.5 -9.5t-59.5 -26.5v-402q0 -8 -6 -14.5t-14 -6.5h-92q-8 0 -14 6.5t-6 14.5v523q0 8 6 14t14 6h87q8 0 14 -6t6 -14v-21q22 14 40.5 23t37.5 14.5t39 8
t45 2.5q54 0 88 -17t52.5 -47t25.5 -71t7 -89v-326z" />
    <glyph glyph-name="o" unicode="o" horiz-adv-x="574" 
d="M526 241q0 -54 -15.5 -99.5t-45.5 -78.5t-74.5 -52t-103.5 -19t-103.5 19t-74.5 52t-45.5 78.5t-15.5 99.5v81q0 54 15.5 99.5t45.5 78.5t74.5 52t103.5 19t103.5 -19t74.5 -52t45.5 -78.5t15.5 -99.5v-81zM394 322q0 62 -27 98.5t-80 36.5t-80 -36.5t-27 -98.5v-81
q0 -62 27 -98.5t80 -36.5t80 36.5t27 98.5v81z" />
    <glyph glyph-name="p" unicode="p" horiz-adv-x="577" 
d="M532 243q0 -118 -59 -184.5t-180 -66.5q-18 0 -43 1.5t-53 5.5v-177q0 -8 -6 -14t-14 -6h-92q-8 0 -14 6t-6 14v696q0 11 5 16.5t22 10.5q47 12 100 19t101 7q121 0 180 -66.5t59 -184.5v-77zM400 320q0 31 -4.5 57t-16.5 45t-33 30t-53 11q-27 0 -54.5 -2t-41.5 -5v-349
q21 -3 49.5 -5t46.5 -2q32 0 53 11t33 30t16.5 45t4.5 57v77z" />
    <glyph glyph-name="q" unicode="q" horiz-adv-x="577" 
d="M512 -178q0 -8 -6 -14t-14 -6h-92q-8 0 -14 6t-6 14v177q-28 -4 -53 -5.5t-43 -1.5q-121 0 -180 66.5t-59 184.5v77q0 118 59 184.5t180 66.5q48 0 101 -7t100 -19q17 -5 22 -10.5t5 -16.5v-696zM380 456q-14 3 -41.5 5t-54.5 2q-32 0 -53 -11t-33 -30t-16.5 -45
t-4.5 -57v-77q0 -31 4.5 -57t16.5 -45t33 -30t53 -11q18 0 46.5 2t49.5 5v349z" />
    <glyph glyph-name="r" unicode="r" horiz-adv-x="375" 
d="M355 479q0 -8 -6 -14t-14 -6q-41 0 -73.5 -9.5t-64.5 -26.5v-402q0 -8 -6 -14.5t-14 -6.5h-92q-8 0 -14 6.5t-6 14.5v523q0 8 6 14t14 6h87q8 0 14 -6t6 -14v-21q37 29 75 38.5t68 9.5q8 0 14 -6t6 -14v-72z" />
    <glyph glyph-name="s" unicode="s" horiz-adv-x="489" 
d="M444 148q0 -33 -12 -61.5t-36.5 -49.5t-61.5 -33t-86 -12q-15 0 -36.5 1t-46.5 3.5t-50 6t-46 9.5q-19 5 -19 23v60q0 6 4.5 11t12.5 5h4q18 -2 42.5 -4t48.5 -3.5t45 -2.5t32 -1q23 0 37 3.5t21.5 10t10 15.5t2.5 19q0 14 -10 25t-34 26l-137 84q-37 23 -60.5 58.5
t-23.5 79.5q0 150 190 150q30 0 54.5 -1.5t45.5 -4.5t40 -6.5t38 -7.5q18 -5 18 -23v-58q0 -19 -16 -19h-4q-11 1 -30 3.5t-42 4t-47.5 3t-45.5 1.5q-36 0 -52.5 -9.5t-16.5 -32.5q0 -12 10.5 -21t29.5 -20l131 -80q31 -19 50 -38t29.5 -38t13.5 -38t3 -38z" />
    <glyph glyph-name="t" unicode="t" horiz-adv-x="405" 
d="M380 17q0 -15 -19 -18q-18 -3 -34.5 -5t-33.5 -2q-42 0 -72.5 6t-49.5 23t-28 48.5t-9 81.5v314l-94 14q-8 2 -14 7t-6 13v45q0 8 6 14t14 6h94v82q0 8 6 13t14 7l93 16h4q16 0 16 -15v-103h90q8 0 14 -6t6 -14v-59q0 -8 -6 -14t-14 -6h-90v-314q0 -19 1 -30t5 -17
t11.5 -7.5t21.5 -1.5h53q21 0 21 -15v-63z" />
    <glyph glyph-name="u" unicode="u" horiz-adv-x="592" 
d="M527 20q0 -8 -6 -14t-14 -6h-92q-8 0 -14 6t-6 14v23q-39 -26 -74 -38t-83 -12q-38 0 -69.5 10t-53.5 32q-28 28 -39 73.5t-11 108.5v326q0 8 6 14.5t14 6.5h92q8 0 14 -6.5t6 -14.5v-326q0 -38 4.5 -60.5t18.5 -35.5q11 -9 25 -13.5t37 -4.5q14 0 29.5 4t30.5 10
t28.5 13t24.5 13v400q0 8 6 14.5t14 6.5h92q8 0 14 -6.5t6 -14.5v-523z" />
    <glyph glyph-name="v" unicode="v" horiz-adv-x="551" 
d="M527 548q0 -5 -1 -7l-126 -455q-8 -28 -21 -46t-30 -28.5t-36 -15t-38 -4.5t-38 4.5t-35.5 15t-30 28.5t-20.5 46l-126 455q-1 2 -1 7q0 16 16 16h100q15 0 20 -20l96 -419q3 -14 8 -19.5t11 -5.5t11 5.5t8 19.5l96 419q5 20 21 20h100q16 0 16 -16z" />
    <glyph glyph-name="w" unicode="w" horiz-adv-x="819" 
d="M793 541l-91 -460q-5 -23 -10.5 -38.5t-15.5 -26t-25 -15t-38 -4.5h-27q-41 0 -63 19.5t-32 58.5l-79 306q-1 5 -3 5t-3 -5l-79 -306q-10 -39 -32 -58.5t-63 -19.5h-27q-23 0 -38 4.5t-25 15t-16 26t-10 38.5l-91 460v3q0 8 6 14t14 6h97q8 0 12.5 -5.5t5.5 -12.5
l63 -423q2 -14 5 -14q4 0 7 14l83 336q8 29 19 36t37 7h70q26 0 37 -7t19 -36l83 -336q3 -14 7 -14q3 0 5 14l63 423q1 7 5.5 12.5t12.5 5.5h97q8 0 14 -6t6 -14v-3z" />
    <glyph glyph-name="x" unicode="x" horiz-adv-x="557" 
d="M537 13q0 -5 -4.5 -9t-10.5 -4h-114q-8 0 -13.5 3.5t-13.5 16.5l-114 176l-108 -176q-8 -13 -13.5 -16.5t-13.5 -3.5h-103q-12 0 -12 11q0 4 3 9l179 271l-169 253q-2 4 -2 6q0 5 4.5 9.5t11.5 4.5h114q8 0 13 -4.5t13 -15.5l101 -156l94 156q8 14 13.5 17t13.5 3h103
q12 0 12 -11q0 -5 -3 -9l-165 -252l182 -272q2 -4 2 -7z" />
    <glyph glyph-name="y" unicode="y" horiz-adv-x="560" 
d="M535 547q0 -4 -1 -6l-167 -584q-12 -41 -26 -70.5t-36.5 -49t-56.5 -28.5t-85 -9q-12 0 -27 1t-29.5 3t-27.5 4t-22 5q-8 2 -14.5 5.5t-6.5 11.5v64q0 8 6 13t14 5h2q10 0 25.5 -1l31 -2t30.5 -2t26 -1q32 0 50 12.5t29 51.5l8 30h-15q-11 0 -23 2.5t-23.5 10.5t-22 24.5
t-18.5 45.5l-131 458q-1 3 -1 7q0 16 19 16h101q7 0 12 -5.5t7 -12.5l101 -407q3 -13 6 -17.5t8 -4.5h9l108 430q2 7 7 12t13 5h102q8 0 13 -5t5 -12z" />
    <glyph glyph-name="z" unicode="z" horiz-adv-x="490" 
d="M450 20q0 -8 -6 -14t-14 -6h-350q-17 0 -28.5 11.5t-11.5 28.5v43q0 15 13 32l242 333q3 4 3 6q0 3 -6 3h-226q-8 0 -13 4t-5 12v71q0 8 6 14t14 6h340q17 0 28.5 -12t11.5 -29v-57q0 -4 -1.5 -12t-3.5 -11l-233 -319l-2 -3q0 -4 6 -4h218q8 0 13 -4t5 -12v-81z" />
    <glyph glyph-name="braceleft" unicode="{" horiz-adv-x="363" 
d="M353 -181q0 -17 -19 -17h-56q-56 0 -91.5 8t-55.5 27.5t-27.5 51.5t-7.5 80v152q0 40 -14 65.5t-45 46.5v80q31 21 44.5 46.5t13.5 65.5v151q0 48 7.5 80t27.5 51.5t55.5 27.5t91.5 8h57q19 0 19 -17v-73q0 -16 -19 -16h-47q-38 0 -48 -13t-10 -48v-151q0 -52 -17.5 -89
t-60.5 -63q43 -26 61 -63t18 -89v-152q0 -35 10 -48t48 -13h46q19 0 19 -16v-73z" />
    <glyph glyph-name="bar" unicode="|" horiz-adv-x="274" 
d="M204 -174q0 -8 -5.5 -14t-13.5 -6h-95q-8 0 -14 6t-6 14v897q0 8 6 14t14 6h95q8 0 13.5 -6t5.5 -14v-897z" />
    <glyph glyph-name="braceright" unicode="}" horiz-adv-x="363" 
d="M326 233q-31 -21 -45 -46.5t-14 -65.5v-152q0 -48 -7.5 -80t-27.5 -51.5t-55.5 -27.5t-91.5 -8h-56q-19 0 -19 17v73q0 16 19 16h46q38 0 48 13t10 48v152q0 52 18 89t61 63q-43 26 -60.5 63t-17.5 89v151q0 35 -10 48t-48 13h-47q-19 0 -19 16v73q0 17 19 17h57
q56 0 91.5 -8t55.5 -27.5t27.5 -51.5t7.5 -80v-151q0 -40 13.5 -65.5t44.5 -46.5v-80z" />
    <glyph glyph-name="asciitilde" unicode="~" 
d="M552 475q0 -76 -32 -107.5t-97 -31.5q-17 0 -38.5 4.5t-36.5 15.5l-88 61q-12 8 -21.5 10.5t-17.5 2.5q-16 0 -26 -9t-10 -33v-26q0 -20 -17 -20h-71q-18 0 -18 20v26q0 75 32.5 107.5t97.5 32.5q17 0 38 -5t36 -16l88 -60q12 -8 22 -10.5t18 -2.5q18 0 26.5 9t8.5 32v26
q0 20 17 20h70q19 0 19 -20v-26z" />
    <glyph glyph-name="exclamdown" unicode="&#xa1;" horiz-adv-x="256" 
d="M192 431q0 -19 -19 -19h-90q-19 0 -19 19v113q0 8 5.5 14t13.5 6h90q8 0 13.5 -6t5.5 -14v-113zM196 -181q0 -8 -6.5 -13.5t-14.5 -5.5h-95q-8 0 -14 5.5t-6 13.5l15 508q0 8 6 14t14 6h65q8 0 14.5 -6t6.5 -14z" />
    <glyph glyph-name="cent" unicode="&#xa2;" 
d="M494 31q0 -12 -4 -17.5t-17 -8.5t-34.5 -6.5t-50.5 -5.5v-80q0 -8 -6 -14t-14 -6h-82q-8 0 -14 6t-6 14v90q-67 20 -108.5 77.5t-41.5 154.5v93q0 97 41.5 154.5t108.5 77.5v88q0 8 6 14t14 6h82q8 0 14 -6t6 -14v-78q29 -2 50.5 -5.5t34.5 -6.5t17 -8.5t4 -17.5v-65
q0 -8 -5 -11.5t-13 -3.5h-3q-15 2 -28 3.5t-27 2t-32 1t-42 0.5q-18 0 -35 -6t-30.5 -20.5t-22 -40t-8.5 -64.5v-93q0 -39 8.5 -64.5t22 -40t30.5 -20.5t35 -6q24 0 42 0.5t32 1t27 2t28 3.5h3q8 0 13 -3.5t5 -11.5v-65z" />
    <glyph glyph-name="sterling" unicode="&#xa3;" 
d="M562 629q0 -18 -17 -18h-2q-15 1 -34.5 3t-41.5 3.5t-44 2.5t-42 1q-56 0 -81.5 -18t-25.5 -70v-96h185q8 0 14 -5.5t6 -13.5v-75q0 -18 -19 -18h-186v-125q0 -31 -7 -51.5t-17 -37.5h291q8 0 14 -4.5t6 -12.5v-76q0 -8 -6 -13t-14 -5h-427q-12 0 -15 9t-3 17v51
q0 8 2.5 13t5.5 10q11 17 22.5 44t11.5 56v125h-50q-19 0 -19 18v75q0 8 6 13.5t14 5.5h49v96q0 49 12 86.5t40 63t74.5 39t116.5 13.5q19 0 42.5 -1.5t46 -3.5t42.5 -4.5t32 -4.5q14 -2 16 -6.5t2 -12.5v-73z" />
    <glyph glyph-name="currency" unicode="&#xa4;" 
d="M571 562q0 -8 -7 -15l-85 -84q26 -43 26 -91q0 -52 -27 -95l83 -84q7 -7 7 -15q0 -6 -5 -11l-47 -48q-5 -5 -11 -5q-8 0 -15 7l-86 86q-41 -24 -88 -24q-50 0 -91 25l-85 -84q-4 -3 -7.5 -5.5t-8.5 -2.5t-10 5l-47 48q-5 7 -5 12q0 8 7 15l84 83q-27 44 -27 93
q0 47 24 88l-84 84q-7 7 -7 15q0 7 5 12l48 48q5 5 10 5q8 0 16 -8l82 -82q22 14 46.5 20.5t49.5 6.5q49 0 92 -26l84 84q7 7 15 7q6 0 11 -5l48 -48q5 -5 5 -11zM409 374q0 19 -7 35.5t-19.5 29t-29.5 19.5t-36 7t-36 -7t-29.5 -19.5t-20 -29t-7.5 -35.5t7.5 -36t20 -29.5
t29.5 -20t36 -7.5t36 7.5t29.5 20t19.5 29.5t7 36z" />
    <glyph glyph-name="yen" unicode="&#xa5;" 
d="M601 730q0 -4 -3 -10l-114 -227h93q8 0 14 -5t6 -13v-63q0 -18 -19 -18h-143l-50 -99v-12h192q8 0 14 -5t6 -13v-63q0 -18 -19 -18h-193v-164q0 -8 -5.5 -14t-13.5 -6h-103q-8 0 -13 6t-5 14v164h-194q-19 0 -19 18v63q0 8 6 13t14 5h193v12l-50 99h-144q-19 0 -19 18v63
q0 8 6 13t14 5h94l-114 227q-3 6 -3 10q0 13 16 13h114q7 0 11 -5t7 -11l138 -294l138 294q3 6 7.5 11t11.5 5h113q16 0 16 -13z" />
    <glyph glyph-name="brokenbar" unicode="&#xa6;" horiz-adv-x="274" 
d="M204 363q0 -8 -5.5 -14.5t-13.5 -6.5h-95q-8 0 -14 6.5t-6 14.5v345q0 8 6 14t14 6h95q8 0 13.5 -6t5.5 -14v-345zM204 -190q0 -8 -5.5 -14.5t-13.5 -6.5h-95q-8 0 -14 6.5t-6 14.5v345q0 8 6 14t14 6h95q8 0 13.5 -6t5.5 -14v-345z" />
    <glyph glyph-name="section" unicode="&#xa7;" horiz-adv-x="573" 
d="M529 -3q0 -40 -12.5 -78t-43 -68t-81 -48.5t-125.5 -18.5q-57 0 -102.5 5.5t-81.5 13.5q-8 2 -14 6.5t-6 12.5v78q0 8 6 13t14 5h2q45 -5 88.5 -8.5t88.5 -3.5h7q33 0 54.5 6.5t33.5 18t17 27.5t5 36q0 15 -3.5 26.5t-12.5 22t-24.5 22t-40.5 26.5l-125 74
q-39 23 -64 45.5t-39.5 46t-20 49t-5.5 54.5q0 30 6.5 56t21.5 47q-16 24 -22 49.5t-6 55.5q0 41 12.5 75t42 58t77 37t117.5 13q25 0 54 -1.5t56.5 -4.5t50.5 -6t36 -6q8 -2 13.5 -6.5t5.5 -12.5v-79q0 -8 -5.5 -13t-13.5 -5h-1q-48 3 -96.5 7t-97.5 4h-3
q-56 0 -79.5 -16.5t-23.5 -50.5q0 -12 3.5 -22.5t12.5 -21t24.5 -21.5t39.5 -24l120 -67q41 -23 68 -46t43 -47.5t22.5 -50.5t6.5 -56q0 -28 -6 -55t-20 -52q15 -23 20.5 -47.5t5.5 -53.5zM411 206q0 19 -4.5 34t-16 29t-32 29t-52.5 34l-79 47q-17 10 -30 18.5t-24 18.5
q-19 -22 -19 -60q0 -17 4.5 -30t15 -26t29 -26t46.5 -30l77 -46q48 -29 73 -52q7 13 9.5 28t2.5 32z" />
    <glyph glyph-name="dieresis" unicode="&#xa8;" horiz-adv-x="415" 
d="M365 659q0 -8 -6.5 -14t-14.5 -6h-72q-8 0 -14.5 6t-6.5 14v88q0 8 6.5 14t14.5 6h72q8 0 14.5 -6t6.5 -14v-88zM165 659q0 -8 -6.5 -14t-14.5 -6h-72q-8 0 -14.5 6t-6.5 14v88q0 8 6.5 14t14.5 6h72q8 0 14.5 -6t6.5 -14v-88z" />
    <glyph glyph-name="copyright" unicode="&#xa9;" horiz-adv-x="750" 
d="M705 374q0 -68 -26 -128t-71 -104.5t-105.5 -70.5t-128.5 -26t-128 26t-104.5 70.5t-70.5 104.5t-26 128t26 128.5t70.5 105.5t104.5 71.5t128 26.5t128.5 -26.5t105.5 -71.5t71 -105.5t26 -128.5zM656 374q0 58 -22.5 109.5t-60.5 90t-89.5 61t-109.5 22.5t-109 -22.5
t-89.5 -61t-60.5 -90t-22 -109.5t22 -109t60.5 -89t89.5 -60t109 -22t109.5 22t89.5 60t60.5 89t22.5 109zM477 183q0 -11 -14 -14q-12 -3 -33.5 -6t-52.5 -3q-74 0 -118.5 44.5t-44.5 142.5v60q0 98 44.5 142.5t118.5 44.5q31 0 53 -3t33 -6q6 -2 10 -4t4 -9v-49
q0 -8 -4 -10t-9 -2h-2q-17 2 -36.5 3.5t-48.5 1.5q-15 0 -29 -5t-24.5 -17.5t-16.5 -33.5t-6 -53v-60q0 -33 6 -54t16.5 -33.5t24.5 -17t29 -4.5q26 0 47 1.5t38 3.5h2q5 0 9 -2t4 -10v-48z" />
    <glyph glyph-name="ordfeminine" unicode="&#xaa;" horiz-adv-x="335" 
d="M298 431q0 -13 -9 -16q-56 -15 -116 -15q-74 0 -107.5 26t-33.5 80v7q0 53 39.5 74.5t112.5 21.5h26v13q0 30 -12 41t-35 11q-29 0 -53 -1.5t-40 -3.5h-1q-5 0 -9.5 3.5t-4.5 10.5v38q0 11 14 15q16 4 41 8t53 4q64 0 99.5 -28.5t35.5 -97.5v-191zM210 557q-2 0 -7.5 0.5
t-11.5 0.5t-7 -1q-37 0 -52.5 -10t-15.5 -34v-7q0 -23 12.5 -32.5t44.5 -9.5q11 0 20.5 1.5t16.5 2.5v89z" />
    <glyph glyph-name="guillemotleft" unicode="&#xab;" horiz-adv-x="689" 
d="M652 77q0 -4 -3.5 -7.5t-11.5 -3.5h-95q-13 0 -18 3t-12 10l-162 178q-5 5 -6.5 12.5t-1.5 12.5t1.5 12.5t6.5 12.5l162 178q7 7 12 10t18 3h95q8 0 11.5 -3.5t3.5 -7.5t-3 -7l-181 -198l181 -198q3 -3 3 -7zM365 77q0 -4 -3.5 -7.5t-11.5 -3.5h-95q-13 0 -18 3t-12 10
l-162 178q-5 5 -6.5 12.5t-1.5 12.5t1.5 12.5t6.5 12.5l162 178q7 7 12 10t18 3h95q8 0 11.5 -3.5t3.5 -7.5t-3 -7l-181 -198l181 -198q3 -3 3 -7z" />
    <glyph glyph-name="logicalnot" unicode="&#xac;" 
d="M538 203q0 -8 -6 -14t-14 -6h-62q-8 0 -14 6t-6 14v259h-323q-8 0 -14 4t-6 12v70q0 8 6 12t14 4h407q8 0 13 -4.5t5 -12.5v-344z" />
    <glyph glyph-name="uni00AD" unicode="&#xad;" horiz-adv-x="321" 
d="M278 276q0 -18 -19 -18h-196q-8 0 -14 5t-6 13v63q0 8 6 13.5t14 5.5h196q19 0 19 -19v-63z" />
    <glyph glyph-name="registered" unicode="&#xae;" horiz-adv-x="598" 
d="M575 484q0 -57 -22 -107t-59.5 -87.5t-87.5 -59t-107 -21.5t-107 21.5t-87.5 59t-59 87.5t-21.5 107t21.5 107t59 87.5t87.5 59t107 21.5t107 -21.5t87.5 -59t59.5 -87.5t22 -107zM528 484q0 47 -18 89t-49 73t-73 49t-89 18t-88.5 -18t-72.5 -49t-49 -73t-18 -89
t18 -88.5t49 -72.5t72.5 -49t88.5 -18t89 18t73 49t49 72.5t18 88.5zM432 330q0 -4 -2.5 -7.5t-8.5 -3.5h-51q-7 0 -11 8l-70 118q-3 5 -10 5h-31v-118q0 -5 -3.5 -9t-8.5 -4h-46q-5 0 -8.5 4t-3.5 9v297q0 14 5 19.5t17 7.5q6 1 16 1.5t22 1t24.5 1t21.5 0.5q64 0 100 -23
t36 -82v-6q0 -37 -17 -57.5t-45 -30.5l72 -123q2 -4 2 -8zM353 555q0 25 -15 35t-49 10h-43v-96h9t13 -0.5t13 -0.5h8q35 0 49.5 11.5t14.5 34.5v6z" />
    <glyph glyph-name="macron" unicode="&#xaf;" horiz-adv-x="415" 
d="M383 680q0 -8 -6 -13t-14 -5h-310q-8 0 -14 5t-6 13v57q0 8 6 13t14 5h310q8 0 14 -5t6 -13v-57z" />
    <glyph glyph-name="degree" unicode="&#xb0;" horiz-adv-x="353" 
d="M326 602q0 -31 -12 -58t-32 -47.5t-47 -32t-58 -11.5t-58 11.5t-47.5 32t-32 47.5t-11.5 58t11.5 58t32 47t47.5 32t58 12t58 -12t47 -32t32 -47t12 -58zM256 602q0 32 -23.5 55.5t-55.5 23.5t-55 -23.5t-23 -55.5t23 -55t55 -23t55.5 23t23.5 55z" />
    <glyph glyph-name="plusminus" unicode="&#xb1;" 
d="M548 356q0 -8 -6 -12t-14 -4h-162v-161q0 -8 -4 -14t-12 -6h-70q-8 0 -12 6t-4 14v161h-161q-8 0 -14 4t-6 12v70q0 8 6 12t14 4h161v162q0 8 4 14t12 6h70q8 0 12 -6t4 -14v-162h162q8 0 14 -4t6 -12v-70zM548 1q0 -8 -6 -12t-14 -4h-425q-8 0 -14 4t-6 12v56q0 8 6 12
t14 4h425q8 0 14 -4t6 -12v-56z" />
    <glyph glyph-name="uni00B2" unicode="&#xb2;" horiz-adv-x="347" 
d="M58 744q21 6 52.5 10t58.5 4q74 0 106.5 -25.5t32.5 -79.5q0 -35 -18.5 -60.5t-52.5 -48.5l-48 -33q-20 -14 -34 -25t-22.5 -22t-12.5 -23t-5 -27h172q7 0 12 -3t5 -13v-41q0 -9 -5 -13t-12 -4h-229q-7 0 -12 5t-5 12v53q0 45 20 80.5t65 65.5l54 36q26 17 36 29t10 32
q0 19 -13 26.5t-44 7.5q-23 0 -53 -2.5t-55 -5.5q-11 -2 -14 4t-3 13v32q0 12 14 16z" />
    <glyph glyph-name="uni00B3" unicode="&#xb3;" horiz-adv-x="347" 
d="M304 458q0 -32 -11 -55t-30 -38t-45 -22t-56 -7q-29 0 -55 4t-49 9q-6 2 -11 5.5t-5 11.5v33q0 8 3.5 13t14.5 3q32 -4 58 -6t44 -2q30 0 42.5 13t12.5 38v12q0 19 -8.5 34t-35.5 15h-95q-7 0 -12 4t-5 12v34q0 8 5 12t12 4h95q27 0 35.5 13.5t8.5 33.5v9q0 18 -10.5 32
t-44.5 14q-28 0 -51.5 -2.5t-52.5 -5.5q-6 0 -11 4t-5 12v33q0 5 5 9.5t11 6.5q23 6 49 10t55 4q30 0 56 -6.5t45 -20.5t30 -36t11 -54v-9q0 -55 -41 -80q20 -14 30.5 -35.5t10.5 -46.5v-12z" />
    <glyph glyph-name="acute" unicode="&#xb4;" horiz-adv-x="415" 
d="M383 772q0 -4 -4 -8l-118 -124q-6 -7 -10.5 -10t-13.5 -3h-86q-9 0 -9 7q0 6 4 10l95 120q7 8 11.5 11.5t14.5 3.5h105q11 0 11 -7z" />
    <glyph glyph-name="mu" unicode="&#xb5;" horiz-adv-x="587" 
d="M527 42q0 -10 -6 -16t-21 -10q-38 -10 -89 -17t-114 -7q-34 0 -59.5 8.5t-43.5 22.5v-195q0 -8 -5 -14t-13 -6h-97q-8 0 -13.5 6t-5.5 14v715q0 8 6 14.5t14 6.5h93q8 0 14 -6.5t6 -14.5v-346q0 -96 104 -96q24 0 50 3t46 8v431q0 8 6 14.5t14 6.5h93q8 0 14.5 -6.5
t6.5 -14.5v-501z" />
    <glyph glyph-name="paragraph" unicode="&#xb6;" horiz-adv-x="644" 
d="M584 -176q0 -8 -4.5 -13.5t-12.5 -5.5h-35q-8 0 -12.5 5.5t-4.5 13.5v852h-61v-852q0 -8 -4.5 -13.5t-12.5 -5.5h-35q-8 0 -12.5 5.5t-4.5 13.5v426h-99q-52 0 -96 14.5t-76.5 43t-50.5 70t-18 95.5v47q0 54 18 95.5t50.5 70t76.5 43t96 14.5h282q16 0 16 -19v-900z" />
    <glyph glyph-name="periodcentered" unicode="&#xb7;" horiz-adv-x="259" 
d="M194 329q0 -8 -6 -14t-14 -6h-89q-8 0 -14 6t-6 14v113q0 8 6 13.5t14 5.5h89q8 0 14 -5.5t6 -13.5v-113z" />
    <glyph glyph-name="cedilla" unicode="&#xb8;" horiz-adv-x="403" 
d="M296 -41q0 -4 -4 -8l-119 -123q-6 -7 -10 -10.5t-13 -3.5h-86q-9 0 -9 7q0 6 4 10l94 120q7 8 11.5 11.5t14.5 3.5h106q11 0 11 -7z" />
    <glyph glyph-name="uni00B9" unicode="&#xb9;" horiz-adv-x="254" 
d="M113 751q3 2 9.5 2.5t11.5 0.5h36q10 0 13.5 -5t3.5 -12v-380q0 -7 -5 -12t-12 -5h-53q-7 0 -12 5t-5 12v307l-56 -19q-7 -2 -14 -0.5t-7 11.5v53q0 5 2 7t7 4z" />
    <glyph glyph-name="ordmasculine" unicode="&#xba;" horiz-adv-x="357" 
d="M325 557q0 -78 -37.5 -117.5t-108.5 -39.5t-108.5 39.5t-37.5 117.5v34q0 78 37.5 117.5t108.5 39.5t108.5 -39.5t37.5 -117.5v-34zM236 591q0 43 -13.5 62.5t-43.5 19.5t-44 -19.5t-14 -62.5v-34q0 -83 58 -83q30 0 43.5 20t13.5 63v34z" />
    <glyph glyph-name="guillemotright" unicode="&#xbb;" horiz-adv-x="689" 
d="M649 282q0 -5 -1.5 -12.5t-6.5 -12.5l-162 -178q-7 -7 -12 -10t-18 -3h-95q-8 0 -11.5 3.5t-3.5 7.5t3 7l181 198l-181 198q-3 3 -3 7t3.5 7.5t11.5 3.5h95q13 0 18 -3t12 -10l162 -178q5 -5 6.5 -12.5t1.5 -12.5zM362 282q0 -5 -1.5 -12.5t-6.5 -12.5l-162 -178
q-7 -7 -12 -10t-18 -3h-95q-8 0 -11.5 3.5t-3.5 7.5t3 7l181 198l-181 198q-3 3 -3 7t3.5 7.5t11.5 3.5h95q13 0 18 -3t12 -10l162 -178q5 -5 6.5 -12.5t1.5 -12.5z" />
    <glyph glyph-name="onequarter" unicode="&#xbc;" horiz-adv-x="709" 
d="M120 751q3 2 9.5 2.5t11.5 0.5h36q10 0 13.5 -5t3.5 -12v-380q0 -7 -5 -12t-12 -5h-53q-7 0 -12 5t-5 12v307l-56 -19q-7 -2 -14 -0.5t-7 11.5v53q0 5 2 7t7 4zM600 735q0 -7 -4 -12l-419 -709q-6 -11 -9.5 -14t-11.5 -3h-82q-10 0 -10 9q0 7 4 12l419 708q6 10 10 13.5
t12 3.5h81q10 0 10 -8zM679 113q0 -7 -5 -12t-11 -5h-35v-79q0 -7 -4 -12t-12 -5h-56q-7 0 -11 5t-4 12v79h-157q-6 0 -11 5t-5 12v44q0 11 8 22l166 223q4 5 8 8.5t12 3.5h49q7 0 12 -5t5 -12v-229h35q6 0 11 -5t5 -12v-38zM542 288l-87 -120h87v120z" />
    <glyph glyph-name="onehalf" unicode="&#xbd;" horiz-adv-x="751" 
d="M120 751q3 2 9.5 2.5t11.5 0.5h36q10 0 13.5 -5t3.5 -12v-380q0 -7 -5 -12t-12 -5h-53q-7 0 -12 5t-5 12v307l-56 -19q-7 -2 -14 -0.5t-7 11.5v53q0 5 2 7t7 4zM600 735q0 -7 -4 -12l-419 -709q-6 -11 -9.5 -14t-11.5 -3h-82q-10 0 -10 9q0 7 4 12l419 708q6 10 10 13.5
t12 3.5h81q10 0 10 -8zM721 313q0 -35 -18.5 -60.5t-52.5 -48.5l-48 -33q-34 -23 -53 -45t-21 -52h172q7 0 12 -4t5 -12v-41q0 -7 -5 -12t-12 -5h-229q-7 0 -12 5t-5 12v53q0 45 25.5 84t59.5 62l54 36q26 17 36 29t10 32q0 19 -13 26.5t-44 7.5q-23 0 -53 -2.5t-55 -5.5
q-8 0 -12.5 5t-4.5 12v32q0 6 4.5 10t10.5 6h-1q21 6 52.5 10t58.5 4q74 0 106.5 -25.5t32.5 -79.5z" />
    <glyph glyph-name="threequarters" unicode="&#xbe;" horiz-adv-x="770" 
d="M661 735q0 -7 -4 -12l-419 -709q-6 -11 -9.5 -14t-11.5 -3h-82q-10 0 -10 9q0 7 4 12l419 708q6 10 10 13.5t12 3.5h81q10 0 10 -8zM740 113q0 -7 -5 -12t-11 -5h-35v-79q0 -7 -4 -12t-12 -5h-56q-7 0 -11 5t-4 12v79h-157q-6 0 -11 5t-5 12v44q0 11 8 22l166 223
q4 5 8 8.5t12 3.5h49q7 0 12 -5t5 -12v-229h35q6 0 11 -5t5 -12v-38zM603 288l-87 -120h87v120zM292 458q0 -32 -11 -55t-30 -38t-45 -22t-56 -7q-29 0 -55 4t-49 9q-6 2 -11 6.5t-5 10.5v33q0 8 5 12t13 4q32 -4 58 -6t44 -2q30 0 42.5 13t12.5 38v12q0 19 -8.5 34
t-35.5 15h-95q-7 0 -12 4t-5 12v34q0 8 5 12t12 4h95q27 0 35.5 13.5t8.5 33.5v9q0 18 -10.5 32t-44.5 14q-28 0 -51.5 -2.5t-52.5 -5.5q-6 0 -11 4t-5 12v33q0 5 5 9.5t11 6.5q23 6 49 10t55 4q30 0 56 -6.5t45 -20.5t30 -36t11 -54v-9q0 -55 -41 -80q20 -14 30.5 -35.5
t10.5 -46.5v-12z" />
    <glyph glyph-name="questiondown" unicode="&#xbf;" horiz-adv-x="437" 
d="M407 -144q0 -12 -2.5 -18.5t-15.5 -9.5q-32 -8 -73 -13t-80 -5q-48 0 -86.5 7.5t-65 25.5t-40.5 48t-14 75v16q0 13 1.5 28t8.5 33t21.5 40.5t39.5 52.5l61 72q20 24 33 41t13 41v38q0 8 6 13.5t14 5.5h83q19 0 19 -19v-38q0 -24 -2.5 -42t-9.5 -34.5t-18 -33t-29 -37.5
l-64 -74q-18 -21 -23.5 -42t-5.5 -45v-16q0 -22 13.5 -29.5t44.5 -7.5q37 0 77 3.5t73 7.5h4q17 0 17 -22v-62zM334 432q0 -8 -6 -14t-14 -6h-90q-8 0 -14 6t-6 14v113q0 8 6 13.5t14 5.5h90q8 0 14 -5.5t6 -13.5v-113z" />
    <glyph glyph-name="Agrave" unicode="&#xc0;" horiz-adv-x="646" 
d="M627 17q0 -8 -5 -12.5t-13 -4.5h-106q-7 0 -12 5t-7 12l-46 190h-230l-46 -190q-2 -7 -7 -12t-12 -5h-106q-8 0 -13 4.5t-5 12.5q0 1 0.5 2t0.5 3l164 627q9 35 26 55t36.5 30.5t40 13.5t36.5 3t36.5 -3t40 -13.5t36.5 -30.5t26 -55l164 -627q0 -2 0.5 -3t0.5 -2z
M339 618q-2 9 -5 12.5t-11 3.5t-11 -3.5t-5 -12.5l-72 -297h176zM434 801q0 -7 -9 -7h-86q-9 0 -13 3t-10 10l-119 124q-4 4 -4 8q0 7 11 7h106q10 0 14.5 -3.5t11.5 -11.5l94 -120q4 -4 4 -10z" />
    <glyph glyph-name="Aacute" unicode="&#xc1;" horiz-adv-x="646" 
d="M627 17q0 -8 -5 -12.5t-13 -4.5h-106q-7 0 -12 5t-7 12l-46 190h-230l-46 -190q-2 -7 -7 -12t-12 -5h-106q-8 0 -13 4.5t-5 12.5q0 1 0.5 2t0.5 3l164 627q9 35 26 55t36.5 30.5t40 13.5t36.5 3t36.5 -3t40 -13.5t36.5 -30.5t26 -55l164 -627q0 -2 0.5 -3t0.5 -2z
M339 618q-2 9 -5 12.5t-11 3.5t-11 -3.5t-5 -12.5l-72 -297h176zM491 939q0 -4 -4 -8l-118 -124q-6 -7 -10.5 -10t-13.5 -3h-86q-9 0 -9 7q0 6 4 10l95 120q7 8 11.5 11.5t14.5 3.5h105q11 0 11 -7z" />
    <glyph glyph-name="Acircumflex" unicode="&#xc2;" horiz-adv-x="646" 
d="M627 17q0 -8 -5 -12.5t-13 -4.5h-106q-7 0 -12 5t-7 12l-46 190h-230l-46 -190q-2 -7 -7 -12t-12 -5h-106q-8 0 -13 4.5t-5 12.5q0 1 0.5 2t0.5 3l164 627q9 35 26 55t36.5 30.5t40 13.5t36.5 3t36.5 -3t40 -13.5t36.5 -30.5t26 -55l164 -627q0 -2 0.5 -3t0.5 -2z
M339 618q-2 9 -5 12.5t-11 3.5t-11 -3.5t-5 -12.5l-72 -297h176zM509 801q0 -7 -9 -7h-83q-9 0 -13 3t-10 10l-71 81l-71 -81q-6 -7 -10.5 -10t-13.5 -3h-83q-9 0 -9 7q0 6 4 10l92 120q7 8 11.5 11.5t14.5 3.5h130q10 0 14.5 -3.5t11.5 -11.5l91 -120q4 -4 4 -10z" />
    <glyph glyph-name="Atilde" unicode="&#xc3;" horiz-adv-x="646" 
d="M627 17q0 -8 -5 -12.5t-13 -4.5h-106q-7 0 -12 5t-7 12l-46 190h-230l-46 -190q-2 -7 -7 -12t-12 -5h-106q-8 0 -13 4.5t-5 12.5q0 1 0.5 2t0.5 3l164 627q9 35 26 55t36.5 30.5t40 13.5t36.5 3t36.5 -3t40 -13.5t36.5 -30.5t26 -55l164 -627q0 -2 0.5 -3t0.5 -2z
M339 618q-2 9 -5 12.5t-11 3.5t-11 -3.5t-5 -12.5l-72 -297h176zM531 900q0 -61 -29.5 -86.5t-81.5 -25.5q-17 0 -36 6t-34 17l-44 33q-13 10 -23 15.5t-19 5.5q-12 0 -20 -7t-8 -27v-21q0 -16 -14 -16h-57q-14 0 -14 16v21q0 60 30 86t82 26q17 0 35.5 -5.5t33.5 -16.5
l44 -33q26 -20 42 -20q13 0 20.5 6.5t7.5 26.5v21q0 16 14 16h57q14 0 14 -16v-22z" />
    <glyph glyph-name="Adieresis" unicode="&#xc4;" horiz-adv-x="646" 
d="M627 17q0 -8 -5 -12.5t-13 -4.5h-106q-7 0 -12 5t-7 12l-46 190h-230l-46 -190q-2 -7 -7 -12t-12 -5h-106q-8 0 -13 4.5t-5 12.5q0 1 0.5 2t0.5 3l164 627q9 35 26 55t36.5 30.5t40 13.5t36.5 3t36.5 -3t40 -13.5t36.5 -30.5t26 -55l164 -627q0 -2 0.5 -3t0.5 -2z
M339 618q-2 9 -5 12.5t-11 3.5t-11 -3.5t-5 -12.5l-72 -297h176zM479 824q0 -8 -6.5 -14t-14.5 -6h-72q-8 0 -14.5 6t-6.5 14v88q0 8 6.5 14t14.5 6h72q8 0 14.5 -6t6.5 -14v-88zM279 824q0 -8 -6.5 -14t-14.5 -6h-72q-8 0 -14.5 6t-6.5 14v88q0 8 6.5 14t14.5 6h72
q8 0 14.5 -6t6.5 -14v-88z" />
    <glyph glyph-name="Aring" unicode="&#xc5;" horiz-adv-x="646" 
d="M627 17q0 -8 -5 -12.5t-13 -4.5h-106q-7 0 -12 5t-7 12l-46 190h-230l-46 -190q-2 -7 -7 -12t-12 -5h-106q-8 0 -13 4.5t-5 12.5q0 1 0.5 2t0.5 3l164 627q9 35 26 55t36.5 30.5t40 13.5t36.5 3t36.5 -3t40 -13.5t36.5 -30.5t26 -55l164 -627q0 -2 0.5 -3t0.5 -2z
M339 618q-2 9 -5 12.5t-11 3.5t-11 -3.5t-5 -12.5l-72 -297h176zM432 889q0 -23 -8.5 -43t-23.5 -35t-35 -23.5t-43 -8.5t-43 8.5t-35 23.5t-24 35t-9 43t9 43t24 35t35 24t43 9t43 -9t35 -24t23.5 -35t8.5 -43zM370 890q0 20 -14 33.5t-34 13.5t-33 -13.5t-13 -33.5t13 -34
t33 -14t34 14t14 34z" />
    <glyph glyph-name="AE" unicode="&#xc6;" horiz-adv-x="880" 
d="M820 27q0 -11 -4.5 -15t-15.5 -6q-12 -3 -23.5 -5.5t-28 -4.5t-42.5 -3t-66 -1q-49 0 -91 8t-73 30.5t-49 62.5t-18 104v10h-201l-46 -190q-2 -7 -7 -12t-12 -5h-106q-8 0 -13 4.5t-5 12.5q0 1 0.5 2t0.5 3l164 627q9 35 26 54t36.5 28t40 10.5t36.5 1.5h477q20 0 20 -21
v-70q0 -8 -6 -14t-14 -6h-253v-194h241q8 0 14 -6t6 -14v-72q0 -8 -6 -14t-14 -6h-241v-129q0 -50 17.5 -68t61.5 -18h174q8 0 14 -6t6 -14v-64zM409 634h-86q-8 0 -11 -3.5t-5 -12.5l-72 -297h174v313z" />
    <glyph glyph-name="Ccedilla" unicode="&#xc7;" horiz-adv-x="563" 
d="M518 31q0 -11 -6 -15.5t-16 -7.5q-6 -2 -20.5 -4.5t-35.5 -5t-47 -4.5t-55 -2q-45 0 -95 13t-91.5 47.5t-69 93.5t-27.5 152v147q0 94 27.5 153.5t69 93.5t91.5 46.5t95 12.5q29 0 55 -2t47 -4.5t35.5 -5.5t20.5 -4q10 -3 16 -7.5t6 -15.5v-67q0 -9 -4 -15t-15 -6h-3
q-13 1 -31.5 2.5t-39.5 2.5t-43 2t-42 1q-32 0 -58.5 -9.5t-45.5 -31t-30 -57.5t-11 -89v-147q0 -52 11 -88t30 -58t45.5 -31.5t58.5 -9.5q20 0 42 1t43 2t39.5 2.5t31.5 2.5h3q11 0 15 -6t4 -15v-67zM420 -41q0 -3 -5 -8l-119 -123q-6 -7 -9.5 -10.5t-13.5 -3.5h-86
q-9 0 -9 7q0 4 4 10l94 120q7 8 11.5 11.5t14.5 3.5h106q12 0 12 -7z" />
    <glyph glyph-name="Egrave" unicode="&#xc8;" horiz-adv-x="576" 
d="M516 27q0 -11 -4.5 -15t-15.5 -6q-12 -2 -26.5 -4.5t-36 -4.5t-52 -3.5t-75.5 -1.5q-49 0 -91 8t-73 30.5t-49 62.5t-18 104v349q0 64 18 104t49 62.5t73 30.5t91 8q45 0 75.5 -1.5t52 -3.5t36 -4.5t26.5 -4.5q11 -2 15.5 -6t4.5 -15v-64q0 -8 -6 -14t-14 -6h-204
q-44 0 -61.5 -18t-17.5 -68v-108h271q8 0 14 -6t6 -14v-72q0 -8 -6 -14t-14 -6h-271v-129q0 -50 17.5 -68t61.5 -18h204q8 0 14 -6t6 -14v-64zM403 801q0 -7 -9 -7h-86q-9 0 -13 3t-10 10l-119 124q-4 4 -4 8q0 7 11 7h106q10 0 14.5 -3.5t11.5 -11.5l94 -120q4 -4 4 -10z
" />
    <glyph glyph-name="Eacute" unicode="&#xc9;" horiz-adv-x="576" 
d="M516 27q0 -11 -4.5 -15t-15.5 -6q-12 -2 -26.5 -4.5t-36 -4.5t-52 -3.5t-75.5 -1.5q-49 0 -91 8t-73 30.5t-49 62.5t-18 104v349q0 64 18 104t49 62.5t73 30.5t91 8q45 0 75.5 -1.5t52 -3.5t36 -4.5t26.5 -4.5q11 -2 15.5 -6t4.5 -15v-64q0 -8 -6 -14t-14 -6h-204
q-44 0 -61.5 -18t-17.5 -68v-108h271q8 0 14 -6t6 -14v-72q0 -8 -6 -14t-14 -6h-271v-129q0 -50 17.5 -68t61.5 -18h204q8 0 14 -6t6 -14v-64zM454 939q0 -4 -4 -8l-118 -124q-6 -7 -10.5 -10t-13.5 -3h-86q-9 0 -9 7q0 6 4 10l95 120q7 8 11.5 11.5t14.5 3.5h105
q11 0 11 -7z" />
    <glyph glyph-name="Ecircumflex" unicode="&#xca;" horiz-adv-x="576" 
d="M516 27q0 -11 -4.5 -15t-15.5 -6q-12 -2 -26.5 -4.5t-36 -4.5t-52 -3.5t-75.5 -1.5q-49 0 -91 8t-73 30.5t-49 62.5t-18 104v349q0 64 18 104t49 62.5t73 30.5t91 8q45 0 75.5 -1.5t52 -3.5t36 -4.5t26.5 -4.5q11 -2 15.5 -6t4.5 -15v-64q0 -8 -6 -14t-14 -6h-204
q-44 0 -61.5 -18t-17.5 -68v-108h271q8 0 14 -6t6 -14v-72q0 -8 -6 -14t-14 -6h-271v-129q0 -50 17.5 -68t61.5 -18h204q8 0 14 -6t6 -14v-64zM484 802q0 -7 -9 -7h-83q-9 0 -13 3t-10 10l-71 81l-71 -81q-6 -7 -10.5 -10t-13.5 -3h-83q-9 0 -9 7q0 6 4 10l92 120
q7 8 11.5 11.5t14.5 3.5h130q10 0 14.5 -3.5t11.5 -11.5l91 -120q4 -4 4 -10z" />
    <glyph glyph-name="Edieresis" unicode="&#xcb;" horiz-adv-x="576" 
d="M516 27q0 -11 -4.5 -15t-15.5 -6q-12 -2 -26.5 -4.5t-36 -4.5t-52 -3.5t-75.5 -1.5q-49 0 -91 8t-73 30.5t-49 62.5t-18 104v349q0 64 18 104t49 62.5t73 30.5t91 8q45 0 75.5 -1.5t52 -3.5t36 -4.5t26.5 -4.5q11 -2 15.5 -6t4.5 -15v-64q0 -8 -6 -14t-14 -6h-204
q-44 0 -61.5 -18t-17.5 -68v-108h271q8 0 14 -6t6 -14v-72q0 -8 -6 -14t-14 -6h-271v-129q0 -50 17.5 -68t61.5 -18h204q8 0 14 -6t6 -14v-64zM448 824q0 -8 -6.5 -14t-14.5 -6h-72q-8 0 -14.5 6t-6.5 14v88q0 8 6.5 14t14.5 6h72q8 0 14.5 -6t6.5 -14v-88zM248 824
q0 -8 -6.5 -14t-14.5 -6h-72q-8 0 -14.5 6t-6.5 14v88q0 8 6.5 14t14.5 6h72q8 0 14.5 -6t6.5 -14v-88z" />
    <glyph glyph-name="Igrave" unicode="&#xcc;" horiz-adv-x="289" 
d="M214 20q0 -8 -6 -14t-14 -6h-99q-8 0 -14 6t-6 14v704q0 8 6 13.5t14 5.5h99q8 0 14 -5.5t6 -13.5v-704zM231 801q0 -7 -9 -7h-86q-9 0 -13 3t-10 10l-119 124q-4 4 -4 8q0 7 11 7h106q10 0 14.5 -3.5t11.5 -11.5l94 -120q4 -4 4 -10z" />
    <glyph glyph-name="Iacute" unicode="&#xcd;" horiz-adv-x="289" 
d="M214 20q0 -8 -6 -14t-14 -6h-99q-8 0 -14 6t-6 14v704q0 8 6 13.5t14 5.5h99q8 0 14 -5.5t6 -13.5v-704zM303 939q0 -4 -4 -8l-118 -124q-6 -7 -10.5 -10t-13.5 -3h-86q-9 0 -9 7q0 6 4 10l95 120q7 8 11.5 11.5t14.5 3.5h105q11 0 11 -7z" />
    <glyph glyph-name="Icircumflex" unicode="&#xce;" horiz-adv-x="289" 
d="M214 20q0 -8 -6 -14t-14 -6h-99q-8 0 -14 6t-6 14v704q0 8 6 13.5t14 5.5h99q8 0 14 -5.5t6 -13.5v-704zM332 801q0 -7 -9 -7h-83q-9 0 -13 3t-10 10l-71 81l-71 -81q-6 -7 -10.5 -10t-13.5 -3h-83q-9 0 -9 7q0 6 4 10l92 120q7 8 11.5 11.5t14.5 3.5h130q10 0 14.5 -3.5
t11.5 -11.5l91 -120q4 -4 4 -10z" />
    <glyph glyph-name="Idieresis" unicode="&#xcf;" horiz-adv-x="289" 
d="M214 20q0 -8 -6 -14t-14 -6h-99q-8 0 -14 6t-6 14v704q0 8 6 13.5t14 5.5h99q8 0 14 -5.5t6 -13.5v-704zM301 824q0 -8 -6.5 -14t-14.5 -6h-72q-8 0 -14.5 6t-6.5 14v88q0 8 6.5 14t14.5 6h72q8 0 14.5 -6t6.5 -14v-88zM101 824q0 -8 -6.5 -14t-14.5 -6h-72q-8 0 -14.5 6
t-6.5 14v88q0 8 6.5 14t14.5 6h72q8 0 14.5 -6t6.5 -14v-88z" />
    <glyph glyph-name="Eth" unicode="&#xd0;" horiz-adv-x="667" 
d="M612 298q0 -149 -81.5 -227.5t-232.5 -78.5q-27 0 -56.5 1t-57 3t-50 4t-33.5 4q-13 2 -19.5 9t-6.5 22v291h-58q-19 0 -19 19v75q0 18 19 18h58v270q0 15 6.5 22t19.5 9q11 2 33.5 4t50 4t57 3t56.5 1q151 0 232.5 -78.5t81.5 -227.5v-147zM474 445q0 56 -13.5 92.5
t-37 58t-56 30t-69.5 8.5q-28 0 -48 -1t-36 -2v-193h71q19 0 19 -18v-75q0 -19 -19 -19h-71v-214q16 -1 36 -2t48 -1q37 0 69.5 8.5t56 30t37 58t13.5 92.5v147z" />
    <glyph glyph-name="Ntilde" unicode="&#xd1;" horiz-adv-x="712" 
d="M637 40q0 -17 -11.5 -28.5t-28.5 -11.5h-101q-18 0 -33.5 4.5t-27.5 31.5l-222 487q-4 8 -9 8t-5 -8v-503q0 -8 -5.5 -14t-13.5 -6h-85q-8 0 -14 6t-6 14v683q0 17 11.5 28.5t28.5 11.5h108q16 0 25.5 -6t18.5 -26l233 -514q3 -8 8 -8t5 9v526q0 19 19 19h86q19 0 19 -19
v-684zM539 900q0 -61 -29.5 -86.5t-81.5 -25.5q-17 0 -36 6t-34 17l-44 33q-13 10 -23 15.5t-19 5.5q-12 0 -20 -7t-8 -27v-21q0 -16 -14 -16h-57q-14 0 -14 16v21q0 60 30 86t82 26q17 0 35.5 -5.5t33.5 -16.5l44 -33q26 -20 42 -20q13 0 20.5 6.5t7.5 26.5v21q0 16 14 16
h57q14 0 14 -16v-22z" />
    <glyph glyph-name="Ograve" unicode="&#xd2;" horiz-adv-x="680" 
d="M625 304q0 -83 -21.5 -142t-59.5 -96.5t-90 -55.5t-114 -18t-114 18t-90 55.5t-59.5 96.5t-21.5 142v135q0 82 21.5 141.5t59.5 97t90 55.5t114 18t114 -18t90 -55.5t59.5 -97t21.5 -141.5v-135zM485 439q0 100 -35.5 145.5t-109.5 45.5t-109.5 -45.5t-35.5 -145.5v-135
q0 -100 35.5 -145.5t109.5 -45.5t109.5 45.5t35.5 145.5v135zM426 801q0 -7 -9 -7h-86q-9 0 -13 3t-10 10l-119 124q-4 4 -4 8q0 7 11 7h106q10 0 14.5 -3.5t11.5 -11.5l94 -120q4 -4 4 -10z" />
    <glyph glyph-name="Oacute" unicode="&#xd3;" horiz-adv-x="680" 
d="M625 304q0 -83 -21.5 -142t-59.5 -96.5t-90 -55.5t-114 -18t-114 18t-90 55.5t-59.5 96.5t-21.5 142v135q0 82 21.5 141.5t59.5 97t90 55.5t114 18t114 -18t90 -55.5t59.5 -97t21.5 -141.5v-135zM485 439q0 100 -35.5 145.5t-109.5 45.5t-109.5 -45.5t-35.5 -145.5v-135
q0 -100 35.5 -145.5t109.5 -45.5t109.5 45.5t35.5 145.5v135zM488 939q0 -4 -4 -8l-118 -124q-6 -7 -10.5 -10t-13.5 -3h-86q-9 0 -9 7q0 6 4 10l95 120q7 8 11.5 11.5t14.5 3.5h105q11 0 11 -7z" />
    <glyph glyph-name="Ocircumflex" unicode="&#xd4;" horiz-adv-x="680" 
d="M625 304q0 -83 -21.5 -142t-59.5 -96.5t-90 -55.5t-114 -18t-114 18t-90 55.5t-59.5 96.5t-21.5 142v135q0 82 21.5 141.5t59.5 97t90 55.5t114 18t114 -18t90 -55.5t59.5 -97t21.5 -141.5v-135zM485 439q0 100 -35.5 145.5t-109.5 45.5t-109.5 -45.5t-35.5 -145.5v-135
q0 -100 35.5 -145.5t109.5 -45.5t109.5 45.5t35.5 145.5v135zM524 802q0 -7 -9 -7h-83q-9 0 -13 3t-10 10l-71 81l-71 -81q-6 -7 -10.5 -10t-13.5 -3h-83q-9 0 -9 7q0 6 4 10l92 120q7 8 11.5 11.5t14.5 3.5h130q10 0 14.5 -3.5t11.5 -11.5l91 -120q4 -4 4 -10z" />
    <glyph glyph-name="Otilde" unicode="&#xd5;" horiz-adv-x="680" 
d="M625 304q0 -83 -21.5 -142t-59.5 -96.5t-90 -55.5t-114 -18t-114 18t-90 55.5t-59.5 96.5t-21.5 142v135q0 82 21.5 141.5t59.5 97t90 55.5t114 18t114 -18t90 -55.5t59.5 -97t21.5 -141.5v-135zM485 439q0 100 -35.5 145.5t-109.5 45.5t-109.5 -45.5t-35.5 -145.5v-135
q0 -100 35.5 -145.5t109.5 -45.5t109.5 45.5t35.5 145.5v135zM535 901q0 -61 -29.5 -86.5t-81.5 -25.5q-17 0 -36 6t-34 17l-44 33q-13 10 -23 15.5t-19 5.5q-12 0 -20 -7t-8 -27v-21q0 -16 -14 -16h-57q-14 0 -14 16v21q0 60 30 86t82 26q17 0 35.5 -5.5t33.5 -16.5l44 -33
q26 -20 42 -20q13 0 20.5 6.5t7.5 26.5v21q0 16 14 16h57q14 0 14 -16v-22z" />
    <glyph glyph-name="Odieresis" unicode="&#xd6;" horiz-adv-x="680" 
d="M625 304q0 -83 -21.5 -142t-59.5 -96.5t-90 -55.5t-114 -18t-114 18t-90 55.5t-59.5 96.5t-21.5 142v135q0 82 21.5 141.5t59.5 97t90 55.5t114 18t114 -18t90 -55.5t59.5 -97t21.5 -141.5v-135zM485 439q0 100 -35.5 145.5t-109.5 45.5t-109.5 -45.5t-35.5 -145.5v-135
q0 -100 35.5 -145.5t109.5 -45.5t109.5 45.5t35.5 145.5v135zM491 824q0 -8 -6.5 -14t-14.5 -6h-72q-8 0 -14.5 6t-6.5 14v88q0 8 6.5 14t14.5 6h72q8 0 14.5 -6t6.5 -14v-88zM291 824q0 -8 -6.5 -14t-14.5 -6h-72q-8 0 -14.5 6t-6.5 14v88q0 8 6.5 14t14.5 6h72
q8 0 14.5 -6t6.5 -14v-88z" />
    <glyph glyph-name="multiply" unicode="&#xd7;" 
d="M520 531q0 -8 -8 -16l-125 -125l125 -124q7 -7 7 -15q0 -6 -5 -11l-49 -49q-5 -5 -10 -5q-7 0 -15 8l-125 124l-124 -124q-8 -8 -16 -8q-5 0 -10 5l-49 49q-5 5 -5 10q0 8 8 16l124 124l-125 125q-8 8 -8 16q0 5 5 10l49 49q5 5 10 5q8 0 16 -8l125 -125l125 125
q8 8 16 8q5 0 10 -5l49 -49q5 -5 5 -10z" />
    <glyph glyph-name="Oslash" unicode="&#xd8;" horiz-adv-x="680" 
d="M656 737q0 -4 -3 -8l-72 -100q21 -36 32.5 -83t11.5 -107v-135q0 -83 -21.5 -142t-59.5 -96.5t-90 -55.5t-114 -18q-53 0 -98 12.5t-81 39.5l-29 -40q-5 -6 -8.5 -9t-11.5 -3h-76q-11 0 -11 11q0 3 3 8l72 100q-45 74 -45 193v135q0 82 21.5 141.5t59.5 97t90 55.5
t114 18q54 0 100 -13t82 -41l29 41q5 6 8 8t11 2h75q11 0 11 -11zM444 590q-36 40 -104 40q-74 0 -109.5 -45.5t-35.5 -145.5v-135q0 -31 3 -56zM485 439q0 28 -3 52l-244 -340q35 -38 102 -38q74 0 109.5 45.5t35.5 145.5v135z" />
    <glyph glyph-name="Ugrave" unicode="&#xd9;" horiz-adv-x="690" 
d="M620 275q0 -80 -20.5 -134t-57 -87t-87 -47.5t-110.5 -14.5t-110.5 14.5t-87 47.5t-57 87t-20.5 134v449q0 8 6 13.5t14 5.5h99q8 0 14 -5.5t6 -13.5v-449q0 -43 6 -74.5t21.5 -52.5t41.5 -31t67 -10q40 0 66.5 10t42 31t21.5 52.5t6 74.5v449q0 8 6 13.5t14 5.5h99
q8 0 14 -5.5t6 -13.5v-449zM424 801q0 -7 -9 -7h-86q-9 0 -13 3t-10 10l-119 124q-4 4 -4 8q0 7 11 7h106q10 0 14.5 -3.5t11.5 -11.5l94 -120q4 -4 4 -10z" />
    <glyph glyph-name="Uacute" unicode="&#xda;" horiz-adv-x="690" 
d="M620 275q0 -80 -20.5 -134t-57 -87t-87 -47.5t-110.5 -14.5t-110.5 14.5t-87 47.5t-57 87t-20.5 134v449q0 8 6 13.5t14 5.5h99q8 0 14 -5.5t6 -13.5v-449q0 -43 6 -74.5t21.5 -52.5t41.5 -31t67 -10q40 0 66.5 10t42 31t21.5 52.5t6 74.5v449q0 8 6 13.5t14 5.5h99
q8 0 14 -5.5t6 -13.5v-449zM512 939q0 -4 -4 -8l-118 -124q-6 -7 -10.5 -10t-13.5 -3h-86q-9 0 -9 7q0 6 4 10l95 120q7 8 11.5 11.5t14.5 3.5h105q11 0 11 -7z" />
    <glyph glyph-name="Ucircumflex" unicode="&#xdb;" horiz-adv-x="690" 
d="M620 275q0 -80 -20.5 -134t-57 -87t-87 -47.5t-110.5 -14.5t-110.5 14.5t-87 47.5t-57 87t-20.5 134v449q0 8 6 13.5t14 5.5h99q8 0 14 -5.5t6 -13.5v-449q0 -43 6 -74.5t21.5 -52.5t41.5 -31t67 -10q40 0 66.5 10t42 31t21.5 52.5t6 74.5v449q0 8 6 13.5t14 5.5h99
q8 0 14 -5.5t6 -13.5v-449zM531 801q0 -7 -9 -7h-83q-9 0 -13 3t-10 10l-71 81l-71 -81q-6 -7 -10.5 -10t-13.5 -3h-83q-9 0 -9 7q0 6 4 10l92 120q7 8 11.5 11.5t14.5 3.5h130q10 0 14.5 -3.5t11.5 -11.5l91 -120q4 -4 4 -10z" />
    <glyph glyph-name="Udieresis" unicode="&#xdc;" horiz-adv-x="690" 
d="M620 275q0 -80 -20.5 -134t-57 -87t-87 -47.5t-110.5 -14.5t-110.5 14.5t-87 47.5t-57 87t-20.5 134v449q0 8 6 13.5t14 5.5h99q8 0 14 -5.5t6 -13.5v-449q0 -43 6 -74.5t21.5 -52.5t41.5 -31t67 -10q40 0 66.5 10t42 31t21.5 52.5t6 74.5v449q0 8 6 13.5t14 5.5h99
q8 0 14 -5.5t6 -13.5v-449zM503 824q0 -8 -6.5 -14t-14.5 -6h-72q-8 0 -14.5 6t-6.5 14v88q0 8 6.5 14t14.5 6h72q8 0 14.5 -6t6.5 -14v-88zM303 824q0 -8 -6.5 -14t-14.5 -6h-72q-8 0 -14.5 6t-6.5 14v88q0 8 6.5 14t14.5 6h72q8 0 14.5 -6t6.5 -14v-88z" />
    <glyph glyph-name="Yacute" unicode="&#xdd;" horiz-adv-x="615" 
d="M590 728q0 -2 -2 -8l-152 -347q-14 -33 -29 -49.5t-32 -23.5v-280q0 -8 -5.5 -14t-13.5 -6h-100q-8 0 -13.5 6t-5.5 14v280q-17 7 -32 23.5t-29 49.5l-151 347q-2 6 -2 8q0 6 4 10.5t12 4.5h111q7 0 12 -5t7 -11l120 -298q5 -13 9.5 -16.5t7.5 -3.5q4 0 8.5 3.5t9.5 16.5
l120 298q2 6 7 11t12 5h110q8 0 12.5 -4.5t4.5 -10.5zM481 939q0 -4 -4 -8l-118 -124q-6 -7 -10.5 -10t-13.5 -3h-86q-9 0 -9 7q0 6 4 10l95 120q7 8 11.5 11.5t14.5 3.5h105q11 0 11 -7z" />
    <glyph glyph-name="Thorn" unicode="&#xde;" horiz-adv-x="626" 
d="M591 419q0 -68 -24 -114t-64 -73.5t-93 -39t-111 -11.5q-23 0 -44 1l-42 2v-164q0 -8 -5 -14t-13 -6h-101q-8 0 -13.5 6t-5.5 14v704q0 19 19 19h101q18 0 18 -19v-63q13 1 38.5 1.5t44.5 0.5q59 0 112.5 -11.5t94 -38.5t64.5 -71.5t24 -110.5v-12zM452 431q0 64 -39 89
t-114 25h-20.5t-25 -0.5t-23.5 -1t-17 -0.5v-242q6 0 17.5 -0.5t24.5 -1t25.5 -0.5h18.5q78 0 115.5 28t37.5 92v12z" />
    <glyph glyph-name="germandbls" unicode="&#xdf;" horiz-adv-x="624" 
d="M570 221q0 -60 -19.5 -103t-53 -71t-77 -41.5t-91.5 -13.5q-12 0 -26 1.5t-30 3.5q-8 2 -14 6.5t-6 12.5v74q0 15 17 15q34 0 64 3t52.5 14.5t36 34.5t13.5 64v19q0 45 -30.5 74t-96.5 29h-32q-8 0 -14 5t-6 13v62q0 8 6 13t14 5h32q32 0 54 8t36 21.5t20 31t6 36.5v17
q0 43 -25.5 70.5t-85.5 27.5q-39 0 -62.5 -11.5t-36 -30.5t-17 -44t-4.5 -51v-495q0 -8 -5.5 -14.5t-13.5 -6.5h-95q-8 0 -14 6.5t-6 14.5v494q0 130 66 191.5t188 61.5q52 0 97 -11.5t77 -37t50.5 -66t18.5 -98.5v-17q0 -45 -26 -83.5t-67 -58.5q48 -20 77 -60.5t29 -95.5
v-19z" />
    <glyph glyph-name="agrave" unicode="&#xe0;" horiz-adv-x="548" 
d="M483 20q0 -8 -6 -14t-14 -6h-85q-8 0 -14 6t-6 14v16q-35 -21 -70 -32.5t-71 -11.5q-31 0 -62 7t-55.5 26t-40 51t-15.5 83v4q0 43 13.5 75t43 54t76 33t111.5 11h63v44q0 49 -21.5 65t-66.5 16q-48 0 -93 -2.5t-70 -5.5h-5q-8 0 -13 3t-5 14v64q0 17 19 21q30 6 72.5 11
t94.5 5q107 0 163.5 -47t56.5 -144v-360zM351 248h-63q-34 0 -55.5 -5.5t-34 -16t-17 -26.5t-4.5 -37v-4q0 -37 17 -49.5t55 -12.5q27 0 53.5 8t48.5 20v123zM351 634q0 -7 -9 -7h-86q-9 0 -13 3t-10 10l-119 124q-4 4 -4 8q0 7 11 7h106q10 0 14.5 -3.5t11.5 -11.5l94 -120
q4 -4 4 -10z" />
    <glyph glyph-name="aacute" unicode="&#xe1;" horiz-adv-x="548" 
d="M483 20q0 -8 -6 -14t-14 -6h-85q-8 0 -14 6t-6 14v16q-35 -21 -70 -32.5t-71 -11.5q-31 0 -62 7t-55.5 26t-40 51t-15.5 83v4q0 43 13.5 75t43 54t76 33t111.5 11h63v44q0 49 -21.5 65t-66.5 16q-48 0 -93 -2.5t-70 -5.5h-5q-8 0 -13 3t-5 14v64q0 17 19 21q30 6 72.5 11
t94.5 5q107 0 163.5 -47t56.5 -144v-360zM351 248h-63q-34 0 -55.5 -5.5t-34 -16t-17 -26.5t-4.5 -37v-4q0 -37 17 -49.5t55 -12.5q27 0 53.5 8t48.5 20v123zM439 772q0 -4 -4 -8l-118 -124q-6 -7 -10.5 -10t-13.5 -3h-86q-9 0 -9 7q0 6 4 10l95 120q7 8 11.5 11.5t14.5 3.5
h105q11 0 11 -7z" />
    <glyph glyph-name="acircumflex" unicode="&#xe2;" horiz-adv-x="548" 
d="M483 20q0 -8 -6 -14t-14 -6h-85q-8 0 -14 6t-6 14v16q-35 -21 -70 -32.5t-71 -11.5q-31 0 -62 7t-55.5 26t-40 51t-15.5 83v4q0 43 13.5 75t43 54t76 33t111.5 11h63v44q0 49 -21.5 65t-66.5 16q-48 0 -93 -2.5t-70 -5.5h-5q-8 0 -13 3t-5 14v64q0 17 19 21q30 6 72.5 11
t94.5 5q107 0 163.5 -47t56.5 -144v-360zM463 634q0 -7 -9 -7h-83q-9 0 -13 3t-10 10l-71 81l-71 -81q-6 -7 -10.5 -10t-13.5 -3h-83q-9 0 -9 7q0 6 4 10l92 120q7 8 11.5 11.5t14.5 3.5h130q10 0 14.5 -3.5t11.5 -11.5l91 -120q4 -4 4 -10zM351 248h-63q-34 0 -55.5 -5.5
t-34 -16t-17 -26.5t-4.5 -37v-4q0 -37 17 -49.5t55 -12.5q27 0 53.5 8t48.5 20v123z" />
    <glyph glyph-name="atilde" unicode="&#xe3;" horiz-adv-x="548" 
d="M483 20q0 -8 -6 -14t-14 -6h-85q-8 0 -14 6t-6 14v16q-35 -21 -70 -32.5t-71 -11.5q-31 0 -62 7t-55.5 26t-40 51t-15.5 83v4q0 43 13.5 75t43 54t76 33t111.5 11h63v44q0 49 -21.5 65t-66.5 16q-48 0 -93 -2.5t-70 -5.5h-5q-8 0 -13 3t-5 14v64q0 17 19 21q30 6 72.5 11
t94.5 5q107 0 163.5 -47t56.5 -144v-360zM467 739q0 -61 -29.5 -86.5t-81.5 -25.5q-17 0 -36 6t-34 17l-44 33q-13 10 -23 15.5t-19 5.5q-12 0 -20 -7t-8 -27v-21q0 -16 -14 -16h-57q-14 0 -14 16v21q0 60 30 86t82 26q17 0 35.5 -5.5t33.5 -16.5l44 -33q26 -20 42 -20
q13 0 20.5 6.5t7.5 26.5v21q0 16 14 16h57q14 0 14 -16v-22zM351 248h-63q-34 0 -55.5 -5.5t-34 -16t-17 -26.5t-4.5 -37v-4q0 -37 17 -49.5t55 -12.5q27 0 53.5 8t48.5 20v123z" />
    <glyph glyph-name="adieresis" unicode="&#xe4;" horiz-adv-x="548" 
d="M483 20q0 -8 -6 -14t-14 -6h-85q-8 0 -14 6t-6 14v16q-35 -21 -70 -32.5t-71 -11.5q-31 0 -62 7t-55.5 26t-40 51t-15.5 83v4q0 43 13.5 75t43 54t76 33t111.5 11h63v44q0 49 -21.5 65t-66.5 16q-48 0 -93 -2.5t-70 -5.5h-5q-8 0 -13 3t-5 14v64q0 17 19 21q30 6 72.5 11
t94.5 5q107 0 163.5 -47t56.5 -144v-360zM351 248h-63q-34 0 -55.5 -5.5t-34 -16t-17 -26.5t-4.5 -37v-4q0 -37 17 -49.5t55 -12.5q27 0 53.5 8t48.5 20v123zM433 662q0 -8 -6.5 -14t-14.5 -6h-72q-8 0 -14.5 6t-6.5 14v88q0 8 6.5 14t14.5 6h72q8 0 14.5 -6t6.5 -14v-88z
M233 662q0 -8 -6.5 -14t-14.5 -6h-72q-8 0 -14.5 6t-6.5 14v88q0 8 6.5 14t14.5 6h72q8 0 14.5 -6t6.5 -14v-88z" />
    <glyph glyph-name="aring" unicode="&#xe5;" horiz-adv-x="548" 
d="M483 20q0 -8 -6 -14t-14 -6h-85q-8 0 -14 6t-6 14v16q-35 -21 -70 -32.5t-71 -11.5q-31 0 -62 7t-55.5 26t-40 51t-15.5 83v4q0 43 13.5 75t43 54t76 33t111.5 11h63v44q0 49 -21.5 65t-66.5 16q-48 0 -93 -2.5t-70 -5.5h-5q-8 0 -13 3t-5 14v64q0 17 19 21q30 6 72.5 11
t94.5 5q107 0 163.5 -47t56.5 -144v-360zM385 731q0 -23 -8.5 -43t-23.5 -35t-35 -23.5t-43 -8.5t-43 8.5t-35 23.5t-24 35t-9 43t9 43t24 35t35 24t43 9t43 -9t35 -24t23.5 -35t8.5 -43zM351 248h-63q-34 0 -55.5 -5.5t-34 -16t-17 -26.5t-4.5 -37v-4q0 -37 17 -49.5
t55 -12.5q27 0 53.5 8t48.5 20v123zM323 732q0 20 -14 33.5t-34 13.5t-33 -13.5t-13 -33.5t13 -34t33 -14t34 14t14 34z" />
    <glyph glyph-name="ae" unicode="&#xe6;" horiz-adv-x="870" 
d="M819 268q0 -8 -6.5 -14t-14.5 -6h-314v-41q0 -57 32.5 -80.5t98.5 -23.5q13 0 35 1t46 2t46.5 2.5t37.5 3.5h4q17 0 17 -16v-56q0 -11 -4 -16t-15 -8q-20 -6 -44 -10.5t-49 -7.5t-49.5 -4.5t-45.5 -1.5q-49 0 -90.5 13.5t-67.5 40.5q-38 -28 -86 -41t-98 -13
q-43 0 -80.5 10t-65.5 31t-44 54.5t-16 80.5v11q0 86 64.5 121.5t190.5 35.5h51v27q0 56 -23.5 76.5t-68.5 20.5q-23 0 -46.5 -0.5t-44.5 -1.5t-38.5 -2t-27.5 -2h-3q-17 0 -17 17v60q0 18 20 23q27 6 69.5 11.5t87.5 5.5q58 0 100 -17t68 -49q28 31 67 48.5t94 17.5
q61 0 104.5 -18t71.5 -49.5t41 -75t13 -94.5v-66zM356 261h-55q-68 0 -98 -18.5t-30 -63.5v-11q0 -45 24.5 -59t64.5 -14q24 0 48.5 3t45.5 11v152zM691 358q0 22 -5.5 42t-18 35t-32 24t-47.5 9q-27 0 -47 -9t-32.5 -24t-18.5 -35t-6 -42v-34h207v34z" />
    <glyph glyph-name="ccedilla" unicode="&#xe7;" horiz-adv-x="468" 
d="M423 31q0 -12 -4 -17.5t-17 -8.5q-17 -5 -50 -9t-79 -4q-49 0 -90.5 15t-72 45.5t-48 76t-17.5 106.5v93q0 61 17.5 106.5t48 76t72 45.5t90.5 15q46 0 79 -4t50 -9q13 -3 17 -8.5t4 -17.5v-65q0 -8 -5 -11.5t-13 -3.5h-3q-15 2 -28 3.5t-27 2t-32 1t-42 0.5
q-18 0 -35 -6t-30.5 -20.5t-22 -40t-8.5 -64.5v-93q0 -39 8.5 -64.5t22 -40t30.5 -20.5t35 -6q24 0 42 0.5t32 1t27 2t28 3.5h3q8 0 13 -3.5t5 -11.5v-65zM336 -41q0 -4 -4 -8l-119 -123q-6 -7 -10 -10.5t-13 -3.5h-86q-9 0 -9 7q0 6 4 10l94 120q7 8 11.5 11.5t14.5 3.5
h106q11 0 11 -7z" />
    <glyph glyph-name="egrave" unicode="&#xe8;" horiz-adv-x="574" 
d="M526 261q0 -25 -20 -25h-326v-3q0 -22 5 -44.5t18.5 -41t37 -30t59.5 -11.5q55 0 103.5 3.5t80.5 6.5h3q8 0 13 -3.5t5 -11.5v-66q0 -12 -3.5 -18t-17.5 -8q-24 -5 -45 -8t-42.5 -5t-47 -3t-59.5 -1q-38 0 -80.5 11.5t-78.5 40t-59.5 77t-23.5 122.5v74q0 58 16 105
t46.5 80t75.5 51t102 18q58 0 102.5 -18.5t74.5 -52.5t45.5 -80.5t15.5 -102.5v-56zM393 334q0 59 -29 91t-76 32t-77 -31.5t-30 -91.5v-4h212v4zM352 634q0 -7 -9 -7h-86q-9 0 -13 3t-10 10l-119 124q-4 4 -4 8q0 7 11 7h106q10 0 14.5 -3.5t11.5 -11.5l94 -120q4 -4 4 -10
z" />
    <glyph glyph-name="eacute" unicode="&#xe9;" horiz-adv-x="574" 
d="M526 261q0 -25 -20 -25h-326v-3q0 -22 5 -44.5t18.5 -41t37 -30t59.5 -11.5q55 0 103.5 3.5t80.5 6.5h3q8 0 13 -3.5t5 -11.5v-66q0 -12 -3.5 -18t-17.5 -8q-24 -5 -45 -8t-42.5 -5t-47 -3t-59.5 -1q-38 0 -80.5 11.5t-78.5 40t-59.5 77t-23.5 122.5v74q0 58 16 105
t46.5 80t75.5 51t102 18q58 0 102.5 -18.5t74.5 -52.5t45.5 -80.5t15.5 -102.5v-56zM393 334q0 59 -29 91t-76 32t-77 -31.5t-30 -91.5v-4h212v4zM456 772q0 -4 -4 -8l-118 -124q-6 -7 -10.5 -10t-13.5 -3h-86q-9 0 -9 7q0 6 4 10l95 120q7 8 11.5 11.5t14.5 3.5h105
q11 0 11 -7z" />
    <glyph glyph-name="ecircumflex" unicode="&#xea;" horiz-adv-x="574" 
d="M526 261q0 -25 -20 -25h-326v-3q0 -22 5 -44.5t18.5 -41t37 -30t59.5 -11.5q55 0 103.5 3.5t80.5 6.5h3q8 0 13 -3.5t5 -11.5v-66q0 -12 -3.5 -18t-17.5 -8q-24 -5 -45 -8t-42.5 -5t-47 -3t-59.5 -1q-38 0 -80.5 11.5t-78.5 40t-59.5 77t-23.5 122.5v74q0 58 16 105
t46.5 80t75.5 51t102 18q58 0 102.5 -18.5t74.5 -52.5t45.5 -80.5t15.5 -102.5v-56zM473 634q0 -7 -9 -7h-83q-9 0 -13 3t-10 10l-71 81l-71 -81q-6 -7 -10.5 -10t-13.5 -3h-83q-9 0 -9 7q0 6 4 10l92 120q7 8 11.5 11.5t14.5 3.5h130q10 0 14.5 -3.5t11.5 -11.5l91 -120
q4 -4 4 -10zM393 334q0 59 -29 91t-76 32t-77 -31.5t-30 -91.5v-4h212v4z" />
    <glyph glyph-name="edieresis" unicode="&#xeb;" horiz-adv-x="574" 
d="M526 261q0 -25 -20 -25h-326v-3q0 -22 5 -44.5t18.5 -41t37 -30t59.5 -11.5q55 0 103.5 3.5t80.5 6.5h3q8 0 13 -3.5t5 -11.5v-66q0 -12 -3.5 -18t-17.5 -8q-24 -5 -45 -8t-42.5 -5t-47 -3t-59.5 -1q-38 0 -80.5 11.5t-78.5 40t-59.5 77t-23.5 122.5v74q0 58 16 105
t46.5 80t75.5 51t102 18q58 0 102.5 -18.5t74.5 -52.5t45.5 -80.5t15.5 -102.5v-56zM393 334q0 59 -29 91t-76 32t-77 -31.5t-30 -91.5v-4h212v4zM443 659q0 -8 -6.5 -14t-14.5 -6h-72q-8 0 -14.5 6t-6.5 14v88q0 8 6.5 14t14.5 6h72q8 0 14.5 -6t6.5 -14v-88zM243 659
q0 -8 -6.5 -14t-14.5 -6h-72q-8 0 -14.5 6t-6.5 14v88q0 8 6.5 14t14.5 6h72q8 0 14.5 -6t6.5 -14v-88z" />
    <glyph glyph-name="igrave" unicode="&#xec;" horiz-adv-x="268" 
d="M212 634q0 -7 -9 -7h-86q-9 0 -12.5 3t-10.5 10l-119 124q-4 4 -4 8q0 7 11 7h106q10 0 14.5 -3.5t11.5 -11.5l94 -120q4 -4 4 -10zM200 21q0 -8 -6 -14.5t-14 -6.5h-92q-8 0 -14 6.5t-6 14.5v523q0 8 6 14t14 6h92q8 0 14 -6t6 -14v-523z" />
    <glyph glyph-name="iacute" unicode="&#xed;" horiz-adv-x="268" 
d="M302 772q0 -4 -4 -8l-118 -124q-6 -7 -10.5 -10t-13.5 -3h-86q-9 0 -9 7q0 6 4 10l95 120q7 8 11.5 11.5t14.5 3.5h105q11 0 11 -7zM201 21q0 -8 -6 -14.5t-14 -6.5h-92q-8 0 -14.5 6.5t-6.5 14.5v523q0 8 6 14t14 6h92q8 0 14 -6t6 -14v-523h1z" />
    <glyph glyph-name="icircumflex" unicode="&#xee;" horiz-adv-x="268" 
d="M200 21q0 -8 -6 -14.5t-14 -6.5h-92q-8 0 -14 6.5t-6 14.5v523q0 8 6 14t14 6h92q8 0 14 -6t6 -14v-523zM321 634q0 -7 -9 -7h-83q-9 0 -13 3t-10 10l-71 81l-71 -81q-6 -7 -10.5 -10t-13.5 -3h-83q-9 0 -9 7q0 6 4 10l92 120q7 8 11.5 11.5t14.5 3.5h130q10 0 14.5 -3.5
t11.5 -11.5l91 -120q4 -4 4 -10z" />
    <glyph glyph-name="idieresis" unicode="&#xef;" horiz-adv-x="268" 
d="M200 21q0 -8 -6 -14.5t-14 -6.5h-92q-8 0 -14 6.5t-6 14.5v523q0 8 6 14t14 6h92q8 0 14 -6t6 -14v-523zM291 659q0 -8 -6.5 -14t-14.5 -6h-72q-8 0 -14.5 6t-6.5 14v88q0 8 6.5 14t14.5 6h72q8 0 14.5 -6t6.5 -14v-88zM91 659q0 -8 -6.5 -14t-14.5 -6h-72q-8 0 -14.5 6
t-6.5 14v88q0 8 6.5 14t14.5 6h72q8 0 14.5 -6t6.5 -14v-88z" />
    <glyph glyph-name="eth" unicode="&#xf0;" horiz-adv-x="574" 
d="M526 253q0 -130 -61 -195.5t-177 -65.5q-63 0 -108 18.5t-74.5 52t-43.5 82t-14 108.5v40q0 129 61.5 194.5t177.5 65.5q17 0 36.5 -2.5t36.5 -11.5q-16 25 -49 50t-76 47l-76 -58q-8 -6 -13 -6t-11 6l-29 32q-3 3 -3 8q0 9 10 16l45 34q-26 9 -51 15q-6 2 -11 5t-5 10
q0 3 1 5l21 58q4 11 14 11q5 0 8 -1q30 -8 58 -16t54 -19l85 65q5 4 13 4t12 -5l29 -31q4 -4 4 -8q0 -6 -10 -14l-59 -45q55 -31 94 -69.5t64 -88t36 -111.5t11 -140v-40zM393 293q0 75 -24.5 112t-81.5 37t-81.5 -36.5t-24.5 -112.5v-40q0 -75 25 -112t82 -37t81 36.5
t24 112.5v40z" />
    <glyph glyph-name="ntilde" unicode="&#xf1;" horiz-adv-x="592" 
d="M527 21q0 -8 -6 -14.5t-14 -6.5h-92q-8 0 -14 6.5t-6 14.5v326q0 33 -2.5 54.5t-11 34t-25.5 18t-46 5.5q-26 0 -53.5 -9.5t-59.5 -26.5v-402q0 -8 -6 -14.5t-14 -6.5h-92q-8 0 -14 6.5t-6 14.5v523q0 8 6 14t14 6h87q8 0 14 -6t6 -14v-21q22 14 40.5 23t37.5 14.5t39 8
t45 2.5q54 0 88 -17t52.5 -47t25.5 -71t7 -89v-326zM482 739q0 -61 -29.5 -86.5t-81.5 -25.5q-17 0 -36 6t-34 17l-44 33q-13 10 -23 15.5t-19 5.5q-12 0 -20 -7t-8 -27v-21q0 -16 -14 -16h-57q-14 0 -14 16v21q0 60 30 86t82 26q17 0 35.5 -5.5t33.5 -16.5l44 -33
q26 -20 42 -20q13 0 20.5 6.5t7.5 26.5v21q0 16 14 16h57q14 0 14 -16v-22z" />
    <glyph glyph-name="ograve" unicode="&#xf2;" horiz-adv-x="574" 
d="M526 241q0 -54 -15.5 -99.5t-45.5 -78.5t-74.5 -52t-103.5 -19t-103.5 19t-74.5 52t-45.5 78.5t-15.5 99.5v81q0 54 15.5 99.5t45.5 78.5t74.5 52t103.5 19t103.5 -19t74.5 -52t45.5 -78.5t15.5 -99.5v-81zM394 322q0 62 -27 98.5t-80 36.5t-80 -36.5t-27 -98.5v-81
q0 -62 27 -98.5t80 -36.5t80 36.5t27 98.5v81zM368 634q0 -7 -9 -7h-86q-9 0 -13 3t-10 10l-119 124q-4 4 -4 8q0 7 11 7h106q10 0 14.5 -3.5t11.5 -11.5l94 -120q4 -4 4 -10z" />
    <glyph glyph-name="oacute" unicode="&#xf3;" horiz-adv-x="574" 
d="M526 241q0 -54 -15.5 -99.5t-45.5 -78.5t-74.5 -52t-103.5 -19t-103.5 19t-74.5 52t-45.5 78.5t-15.5 99.5v81q0 54 15.5 99.5t45.5 78.5t74.5 52t103.5 19t103.5 -19t74.5 -52t45.5 -78.5t15.5 -99.5v-81zM394 322q0 62 -27 98.5t-80 36.5t-80 -36.5t-27 -98.5v-81
q0 -62 27 -98.5t80 -36.5t80 36.5t27 98.5v81zM441 772q0 -4 -4 -8l-118 -124q-6 -7 -10.5 -10t-13.5 -3h-86q-9 0 -9 7q0 6 4 10l95 120q7 8 11.5 11.5t14.5 3.5h105q11 0 11 -7z" />
    <glyph glyph-name="ocircumflex" unicode="&#xf4;" horiz-adv-x="574" 
d="M526 241q0 -54 -15.5 -99.5t-45.5 -78.5t-74.5 -52t-103.5 -19t-103.5 19t-74.5 52t-45.5 78.5t-15.5 99.5v81q0 54 15.5 99.5t45.5 78.5t74.5 52t103.5 19t103.5 -19t74.5 -52t45.5 -78.5t15.5 -99.5v-81zM394 322q0 62 -27 98.5t-80 36.5t-80 -36.5t-27 -98.5v-81
q0 -62 27 -98.5t80 -36.5t80 36.5t27 98.5v81zM472 634q0 -7 -9 -7h-83q-9 0 -13 3t-10 10l-71 81l-71 -81q-6 -7 -10.5 -10t-13.5 -3h-83q-9 0 -9 7q0 6 4 10l92 120q7 8 11.5 11.5t14.5 3.5h130q10 0 14.5 -3.5t11.5 -11.5l91 -120q4 -4 4 -10z" />
    <glyph glyph-name="otilde" unicode="&#xf5;" horiz-adv-x="574" 
d="M526 241q0 -54 -15.5 -99.5t-45.5 -78.5t-74.5 -52t-103.5 -19t-103.5 19t-74.5 52t-45.5 78.5t-15.5 99.5v81q0 54 15.5 99.5t45.5 78.5t74.5 52t103.5 19t103.5 -19t74.5 -52t45.5 -78.5t15.5 -99.5v-81zM394 322q0 62 -27 98.5t-80 36.5t-80 -36.5t-27 -98.5v-81
q0 -62 27 -98.5t80 -36.5t80 36.5t27 98.5v81zM474 739q0 -61 -29.5 -86.5t-81.5 -25.5q-17 0 -36 6t-34 17l-44 33q-13 10 -23 15.5t-19 5.5q-12 0 -20 -7t-8 -27v-21q0 -16 -14 -16h-57q-14 0 -14 16v21q0 60 30 86t82 26q17 0 35.5 -5.5t33.5 -16.5l44 -33q26 -20 42 -20
q13 0 20.5 6.5t7.5 26.5v21q0 16 14 16h57q14 0 14 -16v-22z" />
    <glyph glyph-name="odieresis" unicode="&#xf6;" horiz-adv-x="574" 
d="M526 241q0 -54 -15.5 -99.5t-45.5 -78.5t-74.5 -52t-103.5 -19t-103.5 19t-74.5 52t-45.5 78.5t-15.5 99.5v81q0 54 15.5 99.5t45.5 78.5t74.5 52t103.5 19t103.5 -19t74.5 -52t45.5 -78.5t15.5 -99.5v-81zM394 322q0 62 -27 98.5t-80 36.5t-80 -36.5t-27 -98.5v-81
q0 -62 27 -98.5t80 -36.5t80 36.5t27 98.5v81zM442 659q0 -8 -6.5 -14t-14.5 -6h-72q-8 0 -14.5 6t-6.5 14v88q0 8 6.5 14t14.5 6h72q8 0 14.5 -6t6.5 -14v-88zM242 659q0 -8 -6.5 -14t-14.5 -6h-72q-8 0 -14.5 6t-6.5 14v88q0 8 6.5 14t14.5 6h72q8 0 14.5 -6t6.5 -14v-88z
" />
    <glyph glyph-name="divide" unicode="&#xf7;" 
d="M380 542q0 -8 -6 -14t-14 -6h-90q-8 0 -14 6t-6 14v103q0 8 6 13.5t14 5.5h90q8 0 14 -5.5t6 -13.5v-103zM538 356q0 -8 -6 -12t-14 -4h-405q-8 0 -14 4t-6 12v70q0 8 6 12t14 4h405q8 0 14 -4t6 -12v-70zM380 127q0 -8 -6 -13.5t-14 -5.5h-90q-8 0 -14 5.5t-6 13.5v103
q0 8 6 14t14 6h90q8 0 14 -6t6 -14v-103z" />
    <glyph glyph-name="oslash" unicode="&#xf8;" horiz-adv-x="574" 
d="M545 589q0 -6 -4 -11l-65 -90q25 -32 37.5 -74.5t12.5 -91.5v-81q0 -54 -15.5 -99.5t-45.5 -78.5t-74.5 -52t-103.5 -19q-43 0 -77.5 10t-62.5 28l-40 -55q-5 -7 -8 -8.5t-8 -1.5h-56q-8 0 -8 8q0 6 4 11l66 92q-25 32 -37 74t-12 91v81q0 54 15.5 99.5t45.5 78.5
t74.5 52t103.5 19q42 0 76.5 -10t62.5 -28l39 54q5 7 8 8.5t8 1.5h56q8 0 8 -8zM354 433q-27 24 -67 24q-53 0 -80 -36.5t-27 -98.5v-81q0 -25 4 -44zM394 322q0 12 -1 23.5t-3 22.5l-171 -238q25 -24 68 -24q53 0 80 36.5t27 98.5v81z" />
    <glyph glyph-name="ugrave" unicode="&#xf9;" horiz-adv-x="592" 
d="M527 20q0 -8 -6 -14t-14 -6h-92q-8 0 -14 6t-6 14v23q-39 -26 -74 -38t-83 -12q-38 0 -69.5 10t-53.5 32q-28 28 -39 73.5t-11 108.5v326q0 8 6 14.5t14 6.5h92q8 0 14 -6.5t6 -14.5v-326q0 -38 4.5 -60.5t18.5 -35.5q11 -9 25 -13.5t37 -4.5q14 0 29.5 4t30.5 10
t28.5 13t24.5 13v400q0 8 6 14.5t14 6.5h92q8 0 14 -6.5t6 -14.5v-523zM380 634q0 -7 -9 -7h-86q-9 0 -13 3t-10 10l-119 124q-4 4 -4 8q0 7 11 7h106q10 0 14.5 -3.5t11.5 -11.5l94 -120q4 -4 4 -10z" />
    <glyph glyph-name="uacute" unicode="&#xfa;" horiz-adv-x="592" 
d="M527 20q0 -8 -6 -14t-14 -6h-92q-8 0 -14 6t-6 14v23q-39 -26 -74 -38t-83 -12q-38 0 -69.5 10t-53.5 32q-28 28 -39 73.5t-11 108.5v326q0 8 6 14.5t14 6.5h92q8 0 14 -6.5t6 -14.5v-326q0 -38 4.5 -60.5t18.5 -35.5q11 -9 25 -13.5t37 -4.5q14 0 29.5 4t30.5 10
t28.5 13t24.5 13v400q0 8 6 14.5t14 6.5h92q8 0 14 -6.5t6 -14.5v-523zM463 772q0 -4 -4 -8l-118 -124q-6 -7 -10.5 -10t-13.5 -3h-86q-9 0 -9 7q0 6 4 10l95 120q7 8 11.5 11.5t14.5 3.5h105q11 0 11 -7z" />
    <glyph glyph-name="ucircumflex" unicode="&#xfb;" horiz-adv-x="592" 
d="M527 20q0 -8 -6 -14t-14 -6h-92q-8 0 -14 6t-6 14v23q-39 -26 -74 -38t-83 -12q-38 0 -69.5 10t-53.5 32q-28 28 -39 73.5t-11 108.5v326q0 8 6 14.5t14 6.5h92q8 0 14 -6.5t6 -14.5v-326q0 -38 4.5 -60.5t18.5 -35.5q11 -9 25 -13.5t37 -4.5q14 0 29.5 4t30.5 10
t28.5 13t24.5 13v400q0 8 6 14.5t14 6.5h92q8 0 14 -6.5t6 -14.5v-523zM481 634q0 -7 -9 -7h-83q-9 0 -13 3t-10 10l-71 81l-71 -81q-6 -7 -10.5 -10t-13.5 -3h-83q-9 0 -9 7q0 6 4 10l92 120q7 8 11.5 11.5t14.5 3.5h130q10 0 14.5 -3.5t11.5 -11.5l91 -120q4 -4 4 -10z
" />
    </font>
</defs>
</svg>
