<?xml version="1.0" standalone="no"?>
<!DOCTYPE svg PUBLIC "-//W3C//DTD SVG 1.1//EN" "http://www.w3.org/Graphics/SVG/1.1/DTD/svg11.dtd" >
<svg>
<metadata>
Created by FontForge 20120731 at Sun May 29 02:37:05 2016
 By www
Copyright 2004 - 2010 Monotype Imaging, Inc. All rights reserved.
</metadata>
<defs>
<font id="NeoSansArabic-Bold" horiz-adv-x="645" >
  <font-face 
    font-family="NeoSansArabic-Bold"
    font-weight="700"
    font-stretch="normal"
    units-per-em="1000"
    panose-1="2 11 8 4 3 5 4 4 2 4"
    ascent="765"
    descent="-235"
    x-height="573"
    cap-height="743"
    bbox="-168.182 -435 1472 1148"
    underline-thickness="80"
    underline-position="-79"
    unicode-range="U+0020-FEFC"
  />
<missing-glyph horiz-adv-x="500" 
d="M12 665h475v-665h-475v665zM250 375l161 243h-323zM60 91l7 10t18 27t25.5 39t29.5 45q35 54 81 121l-161 242v-484zM278 333l162 -243v485zM250 290l-162 -242h323z" />
    <glyph glyph-name="uniFB01" unicode="fi" horiz-adv-x="702" 
d="M394 670q0 -17 -21 -17h-49q-23 0 -28 -8.5t-5 -38.5v-33h327q8 0 14 -6.5t6 -14.5v-531q0 -8 -6 -14.5t-14 -6.5h-121q-8 0 -14.5 6.5t-6.5 14.5v431h-185v-432q0 -8 -6 -14t-14 -6h-123q-8 0 -14 6t-6 14v432l-80 13q-8 2 -14.5 7.5t-6.5 13.5v66q0 8 6.5 14.5
t14.5 6.5h80v32q0 53 11 86.5t32 52t52.5 25.5t72.5 7q22 0 39 -2t40 -6q19 -3 19 -20v-78zM642 658q0 -8 -6.5 -14t-14.5 -6h-127q-8 0 -15 6t-7 14v93q0 8 7 14t15 6h127q8 0 14.5 -6t6.5 -14v-93z" />
    <glyph glyph-name="uniFB02" unicode="fl" horiz-adv-x="698" 
d="M638 21q0 -8 -5.5 -14.5t-13.5 -6.5h-122q-8 0 -14.5 6.5t-6.5 14.5v632h-133q-18 0 -28.5 -1.5t-15.5 -7t-6.5 -14.5t-1.5 -24v-33h82q8 0 14 -6t6 -14v-81q0 -8 -6 -14t-14 -6h-82v-432q0 -8 -6 -14t-14 -6h-123q-8 0 -14 6t-6 14v432l-80 13q-8 2 -14.5 7.5t-6.5 13.5
v66q0 8 6.5 14.5t14.5 6.5h80v42q0 54 12 85.5t36 48.5t60 22t84 5q21 0 48 -0.5t52.5 -2t47 -3t32.5 -3.5h119q8 0 13.5 -6t5.5 -14v-726z" />
    <glyph glyph-name="uniFDF2" unicode="&#x627;&#xfedf;&#xfee0;&#x670;&#x651;&#xfeea;" horiz-adv-x="1546" arabic-form="isolated" 
d="M52 250q0 126 74 193t214 67q19 0 41 -1t42.5 -3.5t37.5 -5.5t28 -6q11 -4 14.5 -8t3.5 -12v-272q0 -29 12.5 -38t41.5 -9h73q8 0 17 1t16 4t11.5 9.5t4.5 17.5v401q0 9 6 15t15 6h117q8 0 14 -6t6 -15v-420q7 -8 25 -10.5t29 -2.5h85q21 0 29 4t8 27v560q0 9 6 15t15 6
h115q8 0 14 -6t6 -15v-584q0 -30 -1.5 -61.5t-4.5 -60.5q-2 -10 -6.5 -17t-16.5 -11q-12 -3 -34.5 -5.5t-48.5 -4t-54 -2t-50 -0.5h-42q-42 0 -83.5 6.5t-70.5 27.5q-29 -20 -70 -27t-77 -7h-73q-43 0 -81.5 11t-62.5 43q-26 -15 -57.5 -22.5t-61.5 -7.5h-10q-45 0 -84.5 12
t-69 37t-46 64.5t-16.5 95.5v17zM1316 746q0 9 5.5 15t15.5 6h114q9 0 15 -6t6 -15v-725q0 -8 -6 -14.5t-15 -6.5h-114q-10 0 -15.5 6.5t-5.5 14.5v725zM200 257q0 -49 20.5 -68.5t60.5 -19.5h12q27 0 43.5 9t16.5 32v161q-9 2 -18 2h-20q-54 0 -84.5 -26.5t-30.5 -76.5v-13
zM698 657q-39 0 -54 23.5t-15 61.5q0 12 0.5 21t2.5 22q2 14 14 14h29q5 0 9 -4t3 -10q-1 -14 -1 -22v-17q0 -22 5.5 -29.5t15.5 -7.5h4q8 0 15.5 4.5t7.5 20.5v48q0 6 4.5 10t9.5 4h29q13 0 13 -14v-48q0 -16 8 -20.5t14 -4.5h4q10 0 16.5 7.5t6.5 30.5q0 8 -0.5 16
t-1.5 22q0 14 14 14h28q12 0 14 -14q2 -15 2 -23v-20q0 -38 -16.5 -61.5t-55.5 -23.5h-5q-17 0 -30.5 4.5t-23.5 17.5h-2q-10 -13 -26 -17.5t-33 -4.5h-5zM731 957q0 13 13 13h37q13 0 13 -13v-111q0 -13 -13 -13h-37q-13 0 -13 13v111z" />
    <glyph glyph-name="uniFEF5" unicode="&#xfedf;&#xfe82;" horiz-adv-x="701" arabic-form="isolated" 
d="M156 657q0 9 6 15t15 6h109q9 0 14.5 -6t5.5 -15v-416q0 -9 -6 -15t-15 -6h-109q-8 0 -14 6t-6 15v416zM48 136q0 19 19 19h373q21 0 29 4t8 27v560q0 9 6 15t15 6h115q9 0 14.5 -6t5.5 -15v-584q0 -38 -1.5 -65.5t-3.5 -56.5q-2 -10 -6 -17t-16 -11q-13 -3 -37.5 -5.5
t-53 -4t-58.5 -2t-53 -0.5h-337q-8 0 -13.5 5t-5.5 13v118zM81 734q-7 0 -11.5 3.5t-3.5 9.5q5 41 21 65q14 20 33 29t43 9q19 0 36.5 -6.5t37.5 -14.5q15 -5 29.5 -8.5t30.5 -3.5q20 0 32 3.5t23 8.5t19.5 8.5t13.5 3.5q10 0 10 -10v-49q0 -12 -9 -19q-17 -11 -40 -17.5
t-49 -6.5q-23 0 -44 4.5t-56 20.5q-11 5 -17.5 6.5t-11.5 1.5q-14 0 -17 -12l-5 -12q-5 -14 -15 -14h-50z" />
    <glyph glyph-name="uniFEF6" unicode="&#xfee0;&#xfe82;" horiz-adv-x="721" arabic-form="final" 
d="M81 734q-7 0 -11.5 3.5t-3.5 9.5q5 41 21 65q14 20 33 29t43 9q19 0 36.5 -6.5t37.5 -14.5q15 -5 29.5 -8.5t30.5 -3.5q20 0 32 3.5t23 8.5t19.5 8.5t13.5 3.5q10 0 10 -10v-49q0 -12 -9 -19q-17 -11 -40 -17.5t-49 -6.5q-23 0 -44 4.5t-56 20.5q-11 5 -17.5 6.5
t-11.5 1.5q-14 0 -17 -12l-5 -12q-5 -14 -15 -14h-50zM156 657q0 9 6 15t15 6h109q9 0 14.5 -6t5.5 -15v-416q0 -9 -6 -15t-15 -6h-109q-9 0 -14.5 6t-5.5 15v416zM48 136q0 19 19 19h360q8 0 17 1t16.5 4t12 9.5t4.5 17.5v559q0 9 6 15t15 6h115q9 0 14.5 -6t5.5 -15v-578
q8 -8 26 -10.5t30 -2.5h32v-155h-12q-40 0 -78 7t-70 27q-15 -11 -33 -18t-37.5 -10.5t-39 -4.5t-37.5 -1h-347q-8 0 -13.5 5t-5.5 13v118z" />
    <glyph glyph-name="uniFEF7" unicode="&#xfedf;&#xfe84;" horiz-adv-x="701" arabic-form="isolated" 
d="M156 657q0 9 6 15t15 6h109q9 0 14.5 -6t5.5 -15v-416q0 -9 -6 -15t-15 -6h-109q-8 0 -14 6t-6 15v416zM48 136q0 19 19 19h373q21 0 29 4t8 27v560q0 9 6 15t15 6h115q9 0 14.5 -6t5.5 -15v-584q0 -38 -1.5 -65.5t-3.5 -56.5q-2 -10 -6 -17t-16 -11q-13 -3 -37.5 -5.5
t-53 -4t-58.5 -2t-53 -0.5h-337q-8 0 -13.5 5t-5.5 13v118zM146 744q-6 0 -10.5 3t-4.5 9v37q0 5 4.5 7t10.5 2h20q-8 13 -11.5 27.5t-3.5 29.5q0 86 102 86q9 0 24.5 -1t29.5 -5q10 -2 10 -10v-34q0 -10 -13 -10h-37q-24 0 -35.5 -8t-11.5 -29q0 -16 5 -27.5t14 -16.5h73
q15 0 15 -10v-38q0 -12 -15 -12h-166z" />
    <glyph glyph-name="uniFEF8" unicode="&#xfee0;&#xfe84;" horiz-adv-x="721" arabic-form="final" 
d="M156 657q0 9 6 15t15 6h109q9 0 14.5 -6t5.5 -15v-416q0 -9 -6 -15t-15 -6h-109q-9 0 -14.5 6t-5.5 15v416zM48 136q0 19 19 19h360q8 0 17 1t16.5 4t12 9.5t4.5 17.5v559q0 9 6 15t15 6h115q9 0 14.5 -6t5.5 -15v-578q8 -8 26 -10.5t30 -2.5h32v-155h-12q-40 0 -78 7
t-70 27q-15 -11 -33 -18t-37.5 -10.5t-39 -4.5t-37.5 -1h-347q-8 0 -13.5 5t-5.5 13v118zM146 744q-6 0 -10.5 3t-4.5 9v37q0 5 4.5 7t10.5 2h20q-8 13 -11.5 27.5t-3.5 29.5q0 86 102 86q9 0 24.5 -1t29.5 -5q10 -2 10 -10v-34q0 -10 -13 -10h-37q-24 0 -35.5 -8t-11.5 -29
q0 -16 5 -27.5t14 -16.5h73q15 0 15 -10v-38q0 -12 -15 -12h-166z" />
    <glyph glyph-name="uniFEF9" unicode="&#xfedf;&#xfe88;" horiz-adv-x="701" arabic-form="isolated" 
d="M156 685q0 8 6 13.5t15 5.5h109q20 0 20 -19v-444q0 -9 -6 -15t-15 -6h-109q-8 0 -14 6t-6 15v444zM48 136q0 19 19 19h373q21 0 29 4t8 27v560q0 9 6 15t15 6h115q9 0 14.5 -6t5.5 -15v-584q0 -38 -1.5 -65.5t-3.5 -56.5q-2 -10 -6 -17t-16 -11q-13 -3 -37.5 -5.5
t-53 -4t-58.5 -2t-53 -0.5h-337q-8 0 -13.5 5t-5.5 13v118zM139 -261q-6 0 -10.5 3t-4.5 9v37q0 5 4.5 7t10.5 2h20q-8 13 -11.5 27.5t-3.5 29.5q0 86 102 86q9 0 24.5 -1t29.5 -5q10 -2 10 -10v-34q0 -10 -13 -10h-37q-24 0 -35.5 -8t-11.5 -29q0 -16 5 -27.5t14 -16.5h73
q15 0 15 -10v-38q0 -12 -15 -12h-166z" />
    <glyph glyph-name="uniFEFA" unicode="&#xfee0;&#xfe88;" horiz-adv-x="721" arabic-form="final" 
d="M156 685q0 8 6 13.5t15 5.5h109q20 0 20 -19v-444q0 -9 -6 -15t-15 -6h-109q-9 0 -14.5 6t-5.5 15v444zM48 136q0 19 19 19h360q8 0 17 1t16.5 4t12 9.5t4.5 17.5v559q0 9 5.5 15t14.5 6h116q9 0 14.5 -6t5.5 -15v-578q8 -8 26 -10.5t30 -2.5h32v-155h-12q-40 0 -78 7
t-70 27q-15 -11 -33 -18t-37.5 -10.5t-39 -4.5t-37.5 -1h-347q-8 0 -13.5 5t-5.5 13v118zM139 -261q-6 0 -10.5 3t-4.5 9v37q0 5 4.5 7t10.5 2h20q-8 13 -11.5 27.5t-3.5 29.5q0 86 102 86q9 0 24.5 -1t29.5 -5q10 -2 10 -10v-34q0 -10 -13 -10h-37q-24 0 -35.5 -8
t-11.5 -29q0 -16 5 -27.5t14 -16.5h73q15 0 15 -10v-38q0 -12 -15 -12h-166z" />
    <glyph glyph-name="uniFEFB" unicode="&#xfedf;&#xfe8e;" horiz-adv-x="701" arabic-form="isolated" 
d="M156 685q0 8 6 13.5t15 5.5h109q20 0 20 -19v-444q0 -9 -6 -15t-15 -6h-109q-8 0 -14 6t-6 15v444zM48 136q0 19 19 19h373q21 0 29 4t8 27v560q0 9 6 15t15 6h115q9 0 14.5 -6t5.5 -15v-584q0 -38 -1.5 -65.5t-3.5 -56.5q-2 -10 -6 -17t-16 -11q-13 -3 -37.5 -5.5
t-53 -4t-58.5 -2t-53 -0.5h-337q-8 0 -13.5 5t-5.5 13v118z" />
    <glyph glyph-name="uniFEFC" unicode="&#xfee0;&#xfe8e;" horiz-adv-x="721" arabic-form="final" 
d="M156 685q0 8 6 13.5t15 5.5h109q20 0 20 -19v-444q0 -9 -6 -15t-15 -6h-109q-9 0 -14.5 6t-5.5 15v444zM48 136q0 19 19 19h360q8 0 17 1t16.5 4t12 9.5t4.5 17.5v559q0 9 5.5 15t14.5 6h116q9 0 14.5 -6t5.5 -15v-578q8 -8 26 -10.5t30 -2.5h32v-155h-12q-40 0 -78 7
t-70 27q-15 -11 -33 -18t-37.5 -10.5t-39 -4.5t-37.5 -1h-347q-8 0 -13.5 5t-5.5 13v118z" />
    <glyph glyph-name="uniFEDF_uniFB51.rlig" unicode="&#xfedf;&#xfb51;" horiz-adv-x="701" 
d="M156 657q0 9 6 15t15 6h109q9 0 14.5 -6t5.5 -15v-416q0 -9 -6 -15t-15 -6h-109q-8 0 -14 6t-6 15v416zM48 136q0 19 19 19h373q21 0 29 4t8 27v560q0 9 6 15t15 6h115q9 0 14.5 -6t5.5 -15v-584q0 -38 -1.5 -65.5t-3.5 -56.5q-2 -10 -6 -17t-16 -11q-13 -3 -37.5 -5.5
t-53 -4t-58.5 -2t-53 -0.5h-337q-8 0 -13.5 5t-5.5 13v118zM282 912q40 0 64 -23t24 -61q0 -48 -28 -66t-78 -18h-149q-16 0 -16 11v32q0 11 16 11h53q18 67 47 90.5t67 23.5zM272 798q21 0 30 8.5t9 22.5q0 13 -8 20.5t-21 7.5q-14 0 -28 -10.5t-25 -48.5h43z" />
    <glyph glyph-name="uniFEE0_uniFB51.rlig" unicode="&#xfee0;&#xfb51;" horiz-adv-x="721" 
d="M156 657q0 9 6 15t15 6h109q9 0 14.5 -6t5.5 -15v-416q0 -9 -6 -15t-15 -6h-109q-9 0 -14.5 6t-5.5 15v416zM48 136q0 19 19 19h360q8 0 17 1t16.5 4t12 9.5t4.5 17.5v559q0 9 6 15t15 6h115q9 0 14.5 -6t5.5 -15v-578q8 -8 26 -10.5t30 -2.5h32v-155h-12q-40 0 -78 7
t-70 27q-15 -11 -33 -18t-37.5 -10.5t-39 -4.5t-37.5 -1h-347q-8 0 -13.5 5t-5.5 13v118zM282 912q40 0 64 -23t24 -61q0 -48 -28 -66t-78 -18h-149q-16 0 -16 11v32q0 11 16 11h53q18 67 47 90.5t67 23.5zM272 798q21 0 30 8.5t9 22.5q0 13 -8 20.5t-21 7.5
q-14 0 -28 -10.5t-25 -48.5h43z" />
    <glyph glyph-name="uniFEDF_uniFEE0_uniFEEA.rlig" unicode="&#xfedf;&#xfee0;&#xfeea;" horiz-adv-x="1242" 
d="M52 250q0 126 74 193t214 67q19 0 41 -1t42.5 -3.5t37.5 -5.5t28 -6q11 -4 14.5 -8t3.5 -12v-272q0 -29 12.5 -38t41.5 -9h73q8 0 17 1t16 4t11.5 9.5t4.5 17.5v401q0 9 6 15t15 6h117q8 0 14 -6t6 -15v-420q7 -8 25 -10.5t29 -2.5h85q21 0 29 4t8 27v560q0 9 6 15t15 6
h115q8 0 14 -6t6 -15v-584q0 -30 -1.5 -61.5t-4.5 -60.5q-2 -10 -6.5 -17t-16.5 -11q-12 -3 -34.5 -5.5t-48.5 -4t-54 -2t-50 -0.5h-42q-42 0 -83.5 6.5t-70.5 27.5q-29 -20 -70 -27t-77 -7h-73q-43 0 -81.5 11t-62.5 43q-26 -15 -57.5 -22.5t-61.5 -7.5h-10q-45 0 -84.5 12
t-69 37t-46 64.5t-16.5 95.5v17zM200 257q0 -49 20.5 -68.5t60.5 -19.5h12q27 0 43.5 9t16.5 32v161q-9 2 -18 2h-20q-54 0 -84.5 -26.5t-30.5 -76.5v-13zM698 657q-39 0 -54 23.5t-15 61.5q0 12 0.5 21t2.5 22q2 14 14 14h29q5 0 9 -4t3 -10q-1 -14 -1 -22v-17
q0 -22 5.5 -29.5t15.5 -7.5h4q8 0 15.5 4.5t7.5 20.5v48q0 6 4.5 10t9.5 4h29q13 0 13 -14v-48q0 -16 8 -20.5t14 -4.5h4q10 0 16.5 7.5t6.5 30.5q0 8 -0.5 16t-1.5 22q0 14 14 14h28q12 0 14 -14q2 -15 2 -23v-20q0 -38 -16.5 -61.5t-55.5 -23.5h-5q-17 0 -30.5 4.5
t-23.5 17.5h-2q-10 -13 -26 -17.5t-33 -4.5h-5zM731 957q0 13 13 13h37q13 0 13 -13v-111q0 -13 -13 -13h-37q-13 0 -13 13v111z" />
    <glyph glyph-name="uni06C2.fina" unicode="&#x6c2;" horiz-adv-x="632" 
d="M210 471q-6 0 -10.5 3t-4.5 9v37q0 5 4.5 7t10.5 2h20q-8 13 -11.5 27.5t-3.5 29.5q0 86 102 86q9 0 24.5 -1t29.5 -5q10 -2 10 -10v-34q0 -10 -13 -10h-37q-24 0 -35.5 -8t-11.5 -29q0 -16 5 -27.5t14 -16.5h73q15 0 15 -10v-38q0 -12 -15 -12h-166zM357 380q21 0 46 -1
t49 -2.5t44.5 -4t32.5 -4.5q8 -2 14.5 -6t6.5 -15v-158q0 -21 8 -27.5t34 -6.5h40v-155h-80q-37 0 -66 5t-49 20t-30.5 42.5t-10.5 72.5v85q-8 2 -16.5 2.5t-32.5 0.5q-48 0 -77 -12.5t-44.5 -40t-21 -72.5t-5.5 -110v-88q0 -19 -18 -19h-111q-11 0 -15.5 6t-4.5 14
q-2 9 -2.5 27t-1 37.5t-0.5 37.5v27q0 180 75.5 262.5t235.5 82.5z" />
    <glyph glyph-name="uni06C3.fina" unicode="&#x6c3;" horiz-adv-x="632" 
d="M132 589q0 10 7 16.5t17 6.5h87q10 0 17.5 -6.5t7.5 -16.5v-95q0 -9 -8 -15.5t-17 -6.5h-87q-10 0 -17 6.5t-7 15.5v95zM335 589q0 10 8 16.5t17 6.5h87q10 0 17 -6.5t7 -16.5v-95q0 -9 -7 -15.5t-17 -6.5h-87q-9 0 -17 6.5t-8 15.5v95zM357 380q21 0 46 -1t49 -2.5
t44.5 -4t32.5 -4.5q8 -2 14.5 -6t6.5 -15v-158q0 -21 8 -27.5t34 -6.5h40v-155h-80q-37 0 -66 5t-49 20t-30.5 42.5t-10.5 72.5v85q-8 2 -16.5 2.5t-32.5 0.5q-48 0 -77 -12.5t-44.5 -40t-21 -72.5t-5.5 -110v-88q0 -19 -18 -19h-111q-11 0 -15.5 6t-4.5 14q-2 9 -2.5 27
t-1 37.5t-0.5 37.5v27q0 180 75.5 262.5t235.5 82.5z" />
    <glyph glyph-name="uniFB50" unicode="&#x671;" horiz-adv-x="306" arabic-form="isolated" 
d="M74 706q0 8 5.5 14t15.5 6h118q9 0 15 -6t6 -14v-685q0 -8 -6 -14.5t-15 -6.5h-118q-10 0 -15.5 6.5t-5.5 14.5v685zM200 965q40 0 64 -23t24 -61q0 -48 -28 -66t-78 -18h-149q-16 0 -16 11v32q0 11 16 11h53q18 67 47 90.5t67 23.5zM190 851q21 0 30 8.5t9 22.5
q0 13 -8 20.5t-21 7.5q-14 0 -28 -10.5t-25 -48.5h43z" />
    <glyph glyph-name="uniFB51" unicode="&#x671;" horiz-adv-x="318" arabic-form="final" 
d="M74 706q0 8 6 14t15 6h116q10 0 15 -6t5 -14v-506q0 -29 12 -37t38 -8h37v-155h-83q-36 0 -66 5.5t-51 21.5t-32.5 45.5t-11.5 77.5v556zM198 965q40 0 64 -23t24 -61q0 -48 -28 -66t-78 -18h-149q-16 0 -16 11v32q0 11 16 11h53q18 67 47 90.5t67 23.5zM188 851
q21 0 30 8.5t9 22.5q0 13 -8 20.5t-21 7.5q-14 0 -28 -10.5t-25 -48.5h43z" />
    <glyph glyph-name="uniFB56" unicode="&#x67e;" horiz-adv-x="948" arabic-form="isolated" 
d="M303 -107q0 9 7 16t17 7h87q9 0 17 -7t8 -16v-86q0 -11 -8 -16.5t-17 -5.5h-87q-10 0 -17 5.5t-7 16.5v86zM506 -107q0 9 8 16t17 7h87q10 0 17 -7t7 -16v-86q0 -11 -7 -16.5t-17 -5.5h-87q-10 0 -17.5 5.5t-7.5 16.5v86zM404 -275q0 9 7.5 14.5t15.5 5.5h85
q10 0 17 -5.5t7 -14.5v-72q0 -11 -7.5 -16.5t-17.5 -5.5h-85q-8 0 -15 5.5t-7 16.5v72zM690 155q21 0 28.5 4t7.5 27q0 48 0.5 110.5t-0.5 130.5q0 8 5.5 13.5t14.5 5.5h108q23 0 23 -19q1 -31 1.5 -55.5t1 -47t0.5 -44v-46.5q0 -74 -1 -119.5t-4 -74.5q-2 -10 -6.5 -17
t-16.5 -11q-12 -3 -43 -5.5t-68.5 -4t-75.5 -2t-66 -0.5h-211q-102 0 -169 19t-106 55.5t-54.5 89t-15.5 119.5q0 27 2.5 54t8.5 59q2 10 6.5 15t15.5 5h98q8 0 13.5 -5t4.5 -14q0 -20 -1.5 -38t-1.5 -32q0 -45 9 -77.5t32.5 -53.5t64 -31t103.5 -10h292z" />
    <glyph glyph-name="uniFB57" unicode="&#x67e;" horiz-adv-x="970" arabic-form="final" 
d="M679 155q9 0 17.5 1t15.5 4t11.5 9.5t4.5 17.5v240q0 8 6.5 13.5t14.5 5.5h113q8 0 14 -5.5t6 -13.5v-259q6 -8 24 -10.5t30 -2.5h34v-155h-8q-16 0 -36 1t-40.5 4.5t-40.5 10t-35 18.5q-34 -23 -86 -28.5t-125 -5.5h-211q-102 0 -169 19t-106 55.5t-54.5 89t-15.5 119.5
q0 27 2.5 54t8.5 59q2 10 6.5 15t15.5 5h98q8 0 13.5 -5t4.5 -14q0 -20 -1.5 -38t-1.5 -32q0 -45 9 -77.5t32.5 -53.5t64 -31t103.5 -10h281zM305 -107q0 9 7 16t17 7h87q9 0 17 -7t8 -16v-86q0 -11 -8 -16.5t-17 -5.5h-87q-10 0 -17 5.5t-7 16.5v86zM508 -107q0 9 8 16
t17 7h87q10 0 17 -7t7 -16v-86q0 -11 -7 -16.5t-17 -5.5h-87q-10 0 -17.5 5.5t-7.5 16.5v86zM406 -275q0 9 7.5 14.5t15.5 5.5h85q10 0 17 -5.5t7 -14.5v-72q0 -11 -7.5 -16.5t-17.5 -5.5h-85q-8 0 -15 5.5t-7 16.5v72z" />
    <glyph glyph-name="uniFB58" unicode="&#x67e;" horiz-adv-x="309" arabic-form="initial" 
d="M-40 144q0 5 11.5 8t20.5 3h58q22 0 29.5 4t7.5 27v112t-2 133q0 8 5.5 13.5t14.5 5.5h110q11 0 16.5 -5.5t6.5 -13.5q1 -31 1.5 -56.5t1 -48t0.5 -45v-47.5q0 -74 -1 -119.5t-4 -74.5q-2 -10 -6.5 -17t-16.5 -11q-12 -3 -33.5 -5.5t-47 -4t-52.5 -2t-49 -0.5h-39
q-9 0 -20.5 3t-11.5 8v133zM-65 -107q0 9 7 16t17 7h87q9 0 17 -7t8 -16v-86q0 -11 -8 -16.5t-17 -5.5h-87q-10 0 -17 5.5t-7 16.5v86zM138 -107q0 9 8 16t17 7h87q10 0 17 -7t7 -16v-86q0 -11 -7 -16.5t-17 -5.5h-87q-10 0 -17.5 5.5t-7.5 16.5v86zM36 -275q0 9 7.5 14.5
t15.5 5.5h85q10 0 17 -5.5t7 -14.5v-72q0 -11 -7.5 -16.5t-17.5 -5.5h-85q-8 0 -15 5.5t-7 16.5v72z" />
    <glyph glyph-name="uniFB59" unicode="&#x67e;" horiz-adv-x="327" arabic-form="medial" 
d="M-41 144q0 5 11.5 8t20.5 3h47q8 0 17 1t16 4t11.5 9.5t4.5 17.5v240q0 8 5.5 13.5t15.5 5.5h113q8 0 14 -5.5t6 -13.5v-259q3 -4 10 -6.5t15.5 -4t16.5 -2t14 -0.5h31v-155h-13q-42 0 -83.5 6.5t-69.5 27.5q-14 -10 -32.5 -16.5t-38 -10.5t-39 -5.5t-37.5 -1.5h-24
q-9 0 -20.5 3t-11.5 8v133zM-10 -107q0 9 7 16t17 7h87q9 0 17 -7t8 -16v-86q0 -11 -8 -16.5t-17 -5.5h-87q-10 0 -17 5.5t-7 16.5v86zM193 -107q0 9 8 16t17 7h87q10 0 17 -7t7 -16v-86q0 -11 -7 -16.5t-17 -5.5h-87q-10 0 -17.5 5.5t-7.5 16.5v86zM91 -275q0 9 7.5 14.5
t15.5 5.5h85q10 0 17 -5.5t7 -14.5v-72q0 -11 -7.5 -16.5t-17.5 -5.5h-85q-8 0 -15 5.5t-7 16.5v72z" />
    <glyph glyph-name="uniFB66" unicode="&#x679;" horiz-adv-x="948" arabic-form="isolated" 
d="M534 557q3 0 3 4v14q0 20 -12.5 30t-47.5 10q-7 0 -23.5 -0.5t-33.5 -2.5v-55h114zM316 545q0 12 14 12h23v184q0 5 4.5 8.5t9.5 3.5h39q14 0 14 -12v-72q17 4 36.5 6t30.5 2q54 0 85 -25t31 -76v-15q0 -11 -1 -26t-3 -26q-2 -10 -10 -11q-7 0 -17.5 -0.5t-22 -0.5h-22
h-16.5h-181q-14 0 -14 11v37zM690 155q21 0 28.5 4t7.5 27q0 48 0.5 110.5t-0.5 130.5q0 8 5.5 13.5t14.5 5.5h108q23 0 23 -19q1 -31 1.5 -55.5t1 -47t0.5 -44v-46.5q0 -74 -1 -119.5t-4 -74.5q-2 -10 -6.5 -17t-16.5 -11q-12 -3 -43 -5.5t-68.5 -4t-75.5 -2t-66 -0.5h-211
q-102 0 -169 19t-106 55.5t-54.5 89t-15.5 119.5q0 27 2.5 54t8.5 59q2 10 6.5 15t15.5 5h98q8 0 13.5 -5t4.5 -14q0 -20 -1.5 -38t-1.5 -32q0 -45 9 -77.5t32.5 -53.5t64 -31t103.5 -10h292z" />
    <glyph glyph-name="uniFB67" unicode="&#x679;" horiz-adv-x="970" arabic-form="final" 
d="M534 557q3 0 3 4v14q0 20 -12.5 30t-47.5 10q-7 0 -23.5 -0.5t-33.5 -2.5v-55h114zM316 545q0 12 14 12h23v184q0 5 4.5 8.5t9.5 3.5h39q14 0 14 -12v-72q17 4 36.5 6t30.5 2q54 0 85 -25t31 -76v-15q0 -11 -1 -26t-3 -26q-2 -10 -10 -11q-7 0 -17.5 -0.5t-22 -0.5h-22
h-16.5h-181q-14 0 -14 11v37zM679 155q9 0 17.5 1t15.5 4t11.5 9.5t4.5 17.5v240q0 8 6.5 13.5t14.5 5.5h113q8 0 14 -5.5t6 -13.5v-259q6 -8 24 -10.5t30 -2.5h34v-155h-8q-16 0 -36 1t-40.5 4.5t-40.5 10t-35 18.5q-34 -23 -86 -28.5t-125 -5.5h-211q-102 0 -169 19
t-106 55.5t-54.5 89t-15.5 119.5q0 27 2.5 54t8.5 59q2 10 6.5 15t15.5 5h98q8 0 13.5 -5t4.5 -14q0 -20 -1.5 -38t-1.5 -32q0 -45 9 -77.5t32.5 -53.5t64 -31t103.5 -10h281z" />
    <glyph glyph-name="uniFB68" unicode="&#x679;" horiz-adv-x="309" arabic-form="initial" 
d="M232 606q3 0 3 4v14q0 20 -12.5 30t-47.5 10q-7 0 -23.5 -0.5t-33.5 -2.5v-55h114zM14 594q0 12 14 12h23v184q0 5 4.5 8.5t9.5 3.5h39q14 0 14 -12v-72q17 4 36.5 6t30.5 2q54 0 85 -25t31 -76v-15q0 -11 -1 -26t-3 -26q-2 -10 -10 -11q-7 0 -17.5 -0.5t-22 -0.5h-22
h-16.5h-181q-14 0 -14 11v37zM-40 144q0 5 11.5 8t20.5 3h58q22 0 29.5 4t7.5 27v112t-2 133q0 8 5.5 13.5t14.5 5.5h110q11 0 16.5 -5.5t6.5 -13.5q1 -31 1.5 -56.5t1 -48t0.5 -45v-47.5q0 -74 -1 -119.5t-4 -74.5q-2 -10 -6.5 -17t-16.5 -11q-12 -3 -33.5 -5.5t-47 -4
t-52.5 -2t-49 -0.5h-39q-9 0 -20.5 3t-11.5 8v133z" />
    <glyph glyph-name="uniFB69" unicode="&#x679;" horiz-adv-x="329" arabic-form="medial" 
d="M-40 144q0 5 11.5 8t20.5 3h47q8 0 17 1t16 4t11.5 9.5t4.5 17.5v240q0 8 5.5 13.5t15.5 5.5h113q8 0 14 -5.5t6 -13.5v-259q3 -4 10 -6.5t15.5 -4t16.5 -2t14 -0.5h31v-155h-13q-42 0 -83.5 6.5t-69.5 27.5q-14 -10 -32.5 -16.5t-38 -10.5t-39 -5.5t-37.5 -1.5h-24
q-9 0 -20.5 3t-11.5 8v133zM236 606q3 0 3 4v14q0 20 -12.5 30t-47.5 10q-7 0 -23.5 -0.5t-33.5 -2.5v-55h114zM18 594q0 12 14 12h23v184q0 5 4.5 8.5t9.5 3.5h39q14 0 14 -12v-72q17 4 36.5 6t30.5 2q54 0 85 -25t31 -76v-15q0 -11 -1 -26t-3 -26q-2 -10 -10 -11
q-7 0 -17.5 -0.5t-22 -0.5h-22h-16.5h-181q-14 0 -14 11v37z" />
    <glyph glyph-name="uniFB6A" unicode="&#x6a4;" horiz-adv-x="1077" arabic-form="isolated" 
d="M622 697q0 10 7 16.5t17 6.5h87q10 0 17.5 -6.5t7.5 -16.5v-87q0 -8 -8 -14.5t-17 -6.5h-87q-10 0 -17 6.5t-7 14.5v87zM825 697q0 10 8 16.5t17 6.5h87q10 0 17 -6.5t7 -16.5v-87q0 -8 -7 -14.5t-17 -6.5h-87q-9 0 -17 6.5t-8 14.5v87zM728 852q0 9 7.5 15.5t15.5 6.5
h85q10 0 17 -6.5t7 -15.5v-71q0 -10 -7.5 -15.5t-17.5 -5.5h-85q-8 0 -15 5.5t-7 15.5v71zM580 155q-33 35 -33 112v15q0 58 20 101t56.5 71.5t87 42.5t111.5 14q21 0 46 -1.5t48 -3.5t43 -5.5t32 -6.5q11 -3 14.5 -8t3.5 -13v-269q0 -37 -1 -87t-5 -94q-1 -10 -7.5 -14
t-16.5 -5q-43 -2 -84.5 -3t-79.5 -1h-422q-101 0 -168 18.5t-107 54.5t-56 89t-16 121q0 27 2.5 54t10.5 58q2 11 6 16t14 5h98q8 0 14 -5t4 -14q0 -20 -0.5 -38t-0.5 -32q0 -46 9.5 -78.5t33 -53.5t64 -30.5t102.5 -9.5h177zM701 259q0 -54 21 -81.5t72 -27.5h31t30 2v220
q-24 3 -49 3q-53 0 -79 -26.5t-26 -75.5v-14z" />
    <glyph glyph-name="uniFB6B" unicode="&#x6a4;" horiz-adv-x="1097" arabic-form="final" 
d="M580 155q-17 17 -25 45t-8 66v14q0 58 20 101t56.5 72t87 43.5t111.5 14.5q21 0 46 -1.5t48.5 -3.5t43 -5.5t31.5 -6.5q11 -3 14.5 -8t3.5 -13v-318h88v-155h-701q-102 0 -169.5 18.5t-107.5 54.5t-56.5 89t-16.5 121q0 27 2.5 53.5t10.5 58.5q2 11 6 16t14 5h98
q8 0 14 -5t4 -14q0 -20 -0.5 -38t-0.5 -32q0 -46 9.5 -78.5t33 -53.5t64.5 -30.5t104 -9.5h175zM855 150v222q-24 3 -49 3q-53 0 -79 -26t-26 -76v-13q0 -54 21 -82t72 -28h61zM622 697q0 10 7 16.5t17 6.5h87q10 0 17.5 -6.5t7.5 -16.5v-87q0 -8 -8 -14.5t-17 -6.5h-87
q-10 0 -17 6.5t-7 14.5v87zM825 697q0 10 8 16.5t17 6.5h87q10 0 17 -6.5t7 -16.5v-87q0 -8 -7 -14.5t-17 -6.5h-87q-9 0 -17 6.5t-8 14.5v87zM728 852q0 9 7.5 15.5t15.5 6.5h85q10 0 17 -6.5t7 -15.5v-71q0 -10 -7.5 -15.5t-17.5 -5.5h-85q-8 0 -15 5.5t-7 15.5v71z" />
    <glyph glyph-name="uniFB6C" unicode="&#x6a4;" horiz-adv-x="588" arabic-form="initial" 
d="M212 257q0 -52 22.5 -79.5t70.5 -27.5h13.5h17.5t17 0.5t13 1.5v220q-23 3 -50 3q-104 0 -104 -101v-17zM-40 144q0 5 11.5 8t20.5 3h99q-33 35 -33 109v16q0 58 20 101.5t56.5 72.5t87 43t111.5 14q21 0 46 -1.5t48.5 -3.5t43 -5.5t31.5 -6.5q11 -3 14.5 -8t3.5 -13
v-269q0 -37 -1 -87t-5 -94q-1 -10 -7.5 -14t-16.5 -5q-43 -2 -82.5 -3t-80.5 -1h-335q-9 0 -20.5 3t-11.5 8v133zM133 697q0 10 7 16.5t17 6.5h87q10 0 17.5 -6.5t7.5 -16.5v-87q0 -8 -8 -14.5t-17 -6.5h-87q-10 0 -17 6.5t-7 14.5v87zM336 697q0 10 8 16.5t17 6.5h87
q10 0 17 -6.5t7 -16.5v-87q0 -8 -7 -14.5t-17 -6.5h-87q-9 0 -17 6.5t-8 14.5v87zM239 852q0 9 7.5 15.5t15.5 6.5h85q10 0 17 -6.5t7 -15.5v-71q0 -10 -7.5 -15.5t-17.5 -5.5h-85q-8 0 -15 5.5t-7 15.5v71z" />
    <glyph glyph-name="uniFB6D" unicode="&#x6a4;" horiz-adv-x="608" arabic-form="medial" 
d="M133 697q0 10 7 16.5t17 6.5h87q10 0 17.5 -6.5t7.5 -16.5v-87q0 -8 -8 -14.5t-17 -6.5h-87q-10 0 -17 6.5t-7 14.5v87zM336 697q0 10 8 16.5t17 6.5h87q10 0 17 -6.5t7 -16.5v-87q0 -8 -7 -14.5t-17 -6.5h-87q-9 0 -17 6.5t-8 14.5v87zM239 852q0 9 7.5 15.5t15.5 6.5
h85q10 0 17 -6.5t7 -15.5v-71q0 -10 -7.5 -15.5t-17.5 -5.5h-85q-8 0 -15 5.5t-7 15.5v71zM-40 144q0 5 11.5 8t20.5 3h99q-15 17 -24 44t-9 65v16q0 58 20 101.5t56.5 72.5t87.5 43t112 14q21 0 45.5 -1.5t47.5 -3.5t43 -5.5t32 -6.5q11 -3 14.5 -8t3.5 -13v-318h88v-155
h-616q-9 0 -20.5 3t-11.5 8v133zM366 150v222q-23 3 -49 3q-105 0 -105 -103v-15q0 -52 22 -79.5t71 -27.5h61z" />
    <glyph glyph-name="uniFB7A" unicode="&#x686;" horiz-adv-x="669" arabic-form="isolated" 
d="M50 1q0 16 1 34t3 35.5t4.5 32.5t5.5 24q5 11 9 15.5t15 6.5q6 1 18.5 1.5t28 0.5h31h26.5h251l-24 52l-17 34q-14 27 -31.5 50.5t-43 41t-60 27t-81.5 9.5q-17 0 -29 -0.5t-32 -0.5q-12 -1 -16.5 3.5t-4.5 13.5v95q0 15 22 19q27 5 48.5 7t50.5 2q58 0 107.5 -12.5
t92 -41.5t78 -76t67.5 -116l12 -24q3 -8 8.5 -20t11 -24.5t10.5 -24t9 -18.5q8 -12 8 -35v-90q0 -22 -24 -22h-339q-14 0 -35.5 -0.5t-34.5 -1.5q-1 -9 -1 -16v-11q0 -42 9 -64t24 -35q4 -4 10.5 -8t9.5 -6q5 -3 8 -6.5t3 -11.5v-90q0 -10 -6.5 -13t-20.5 -3q-13 0 -29.5 3
t-34.5 11t-36.5 21t-34.5 34q-25 32 -36 80.5t-11 117.5zM287 -74q0 8 6 14t14 6h80q9 0 16 -6t7 -14v-79q0 -9 -7 -14.5t-16 -5.5h-80q-8 0 -14 5.5t-6 14.5v79zM461 -74q0 8 6.5 14t14.5 6h81q8 0 14.5 -6t6.5 -14v-79q0 -9 -6.5 -14.5t-14.5 -5.5h-81q-8 0 -14.5 5.5
t-6.5 14.5v79zM372 -226q0 8 6.5 13.5t14.5 5.5h84q8 0 14 -5.5t6 -13.5v-67q0 -8 -6 -13.5t-14 -5.5h-84q-8 0 -14.5 5.5t-6.5 13.5v67z" />
    <glyph glyph-name="uniFB7B" unicode="&#x686;" horiz-adv-x="654" arabic-form="final" 
d="M50 1q0 16 1 34t3 35.5t4.5 32.5t5.5 24q5 11 9 15.5t15 6.5q6 1 18.5 1.5t28 0.5h31h26.5h251l-24 52l-17 34q-14 27 -31.5 50.5t-43 41t-60 27t-81.5 9.5q-17 0 -29 -0.5t-32 -0.5q-12 -1 -16.5 3.5t-4.5 13.5v95q0 15 22 19q27 5 48.5 7t50.5 2q58 0 107.5 -12.5
t91.5 -41t77.5 -75t66.5 -113.5l14 -30q6 -13 15.5 -34t14.5 -29q5 -9 10.5 -11.5t15.5 -2.5h16v-155h-388q-14 0 -35.5 -0.5t-34.5 -1.5q-1 -9 -1 -16v-11q0 -42 9 -64t24 -35q4 -4 10.5 -8t9.5 -6q5 -3 8 -6.5t3 -11.5v-90q0 -10 -6.5 -13t-20.5 -3q-13 0 -29.5 3
t-34.5 11t-36.5 21t-34.5 34q-25 32 -36 80.5t-11 117.5zM287 -74q0 8 6 14t14 6h80q9 0 16 -6t7 -14v-79q0 -9 -7 -14.5t-16 -5.5h-80q-8 0 -14 5.5t-6 14.5v79zM461 -74q0 8 6.5 14t14.5 6h81q8 0 14.5 -6t6.5 -14v-79q0 -9 -6.5 -14.5t-14.5 -5.5h-81q-8 0 -14.5 5.5
t-6.5 14.5v79zM372 -226q0 8 6.5 13.5t14.5 5.5h84q8 0 14 -5.5t6 -13.5v-67q0 -8 -6 -13.5t-14 -5.5h-84q-8 0 -14.5 5.5t-6.5 13.5v67z" />
    <glyph glyph-name="uniFB7C" unicode="&#x686;" horiz-adv-x="626" arabic-form="initial" 
d="M-40 144q0 5 11 8t21 3h402l-22 46l-17 35q-14 28 -34 51.5t-48.5 40.5t-66 27t-85.5 10h-8.5t-12.5 -0.5t-13 -0.5h-10q-21 0 -21 17v95q0 15 21 19q28 5 50 7t50 2q58 0 107 -12.5t91 -41t78 -74.5t67 -113l14 -30q3 -6 7.5 -16.5t9.5 -23t10.5 -24.5t8.5 -20
q6 -14 6 -37v-90q0 -22 -24 -22h-560q-10 0 -21 3.5t-11 7.5v133zM105 -107q0 9 7 16t17 7h87q9 0 17 -7t8 -16v-86q0 -11 -8 -16.5t-17 -5.5h-87q-10 0 -17 5.5t-7 16.5v86zM308 -107q0 9 8 16t17 7h87q10 0 17 -7t7 -16v-86q0 -11 -7 -16.5t-17 -5.5h-87q-10 0 -17.5 5.5
t-7.5 16.5v86zM206 -275q0 9 7.5 14.5t15.5 5.5h85q10 0 17 -5.5t7 -14.5v-72q0 -11 -7.5 -16.5t-17.5 -5.5h-85q-8 0 -15 5.5t-7 16.5v72z" />
    <glyph glyph-name="uniFB7D" unicode="&#x686;" horiz-adv-x="603" arabic-form="medial" 
d="M-8 0q-10 0 -21 3.5t-11 7.5v133q0 5 11.5 8t20.5 3h402l-22 46l-17 35q-14 28 -34 51.5t-48.5 41t-66 27t-85.5 9.5h-8.5t-12.5 -0.5t-13 -0.5h-10q-21 0 -21 17v95q0 15 21 19q28 5 49.5 7t50.5 2q58 0 107.5 -12.5t91.5 -41t78 -74.5t67 -113l14 -30q8 -16 17 -35.5
t14 -27.5q6 -8 11 -11.5t15 -3.5h11v-155h-611zM105 -107q0 9 7 16t17 7h87q9 0 17 -7t8 -16v-86q0 -11 -8 -16.5t-17 -5.5h-87q-10 0 -17 5.5t-7 16.5v86zM308 -107q0 9 8 16t17 7h87q10 0 17 -7t7 -16v-86q0 -11 -7 -16.5t-17 -5.5h-87q-10 0 -17.5 5.5t-7.5 16.5v86z
M206 -275q0 9 7.5 14.5t15.5 5.5h85q10 0 17 -5.5t7 -14.5v-72q0 -11 -7.5 -16.5t-17.5 -5.5h-85q-8 0 -15 5.5t-7 16.5v72z" />
    <glyph glyph-name="uniFB88" unicode="&#x688;" horiz-adv-x="521" arabic-form="isolated" 
d="M48 136q0 8 6 13.5t14 5.5h251l-2 71q-2 32 -10.5 58.5t-28 45t-51 29t-78.5 10.5h-11h-17t-17.5 -0.5t-13.5 -1.5q-18 0 -18 16v94q0 8 5 14.5t15 7.5q29 5 60 6.5t46 1.5q79 0 130 -24.5t81.5 -64.5t43.5 -90.5t16 -102.5q0 -10 0.5 -25t1 -32t0.5 -34.5v-32.5
q0 -14 -0.5 -38.5t-2.5 -43.5q0 -8 -6 -13.5t-17 -5.5h-377q-8 0 -14 5t-6 13v118zM321 662q3 0 3 4v14q0 20 -12.5 30t-47.5 10q-7 0 -23.5 -0.5t-33.5 -2.5v-55h114zM103 650q0 12 14 12h23v184q0 5 4.5 8.5t9.5 3.5h39q14 0 14 -12v-72q17 4 36.5 6t30.5 2q54 0 85 -25
t31 -76v-15q0 -11 -1 -26t-3 -26q-2 -10 -10 -11q-7 0 -17.5 -0.5t-22 -0.5h-22h-16.5h-181q-14 0 -14 11v37z" />
    <glyph glyph-name="uniFB89" unicode="&#x688;" horiz-adv-x="530" arabic-form="final" 
d="M321 662q3 0 3 4v14q0 20 -12.5 30t-47.5 10q-7 0 -23.5 -0.5t-33.5 -2.5v-55h114zM103 650q0 12 14 12h23v184q0 5 4.5 8.5t9.5 3.5h39q14 0 14 -12v-72q17 4 36.5 6t30.5 2q54 0 85 -25t31 -76v-15q0 -11 -1 -26t-3 -26q-2 -10 -10 -11q-7 0 -17.5 -0.5t-22 -0.5h-22
h-16.5h-181q-14 0 -14 11v37zM48 136q0 8 6 13.5t14 5.5h250l-2 71q-2 32 -10.5 58.5t-27 45t-49.5 29t-77 10.5h-11h-17.5t-19 -0.5t-14.5 -1.5q-18 0 -18 16v94q0 8 5 14.5t15 7.5q29 5 60 6.5t46 1.5q78 0 128.5 -24.5t81.5 -64t44 -90t16 -102.5l2 -71h60v-155h-462
q-8 0 -14 5t-6 13v118z" />
    <glyph glyph-name="uniFB8A" unicode="&#x698;" horiz-adv-x="318" arabic-form="isolated" 
d="M0 654q0 10 7 16.5t17 6.5h87q10 0 17.5 -6.5t7.5 -16.5v-87q0 -8 -8 -14.5t-17 -6.5h-87q-10 0 -17 6.5t-7 14.5v87zM203 654q0 10 8 16.5t17 6.5h87q10 0 17 -6.5t7 -16.5v-87q0 -8 -7 -14.5t-17 -6.5h-87q-9 0 -17 6.5t-8 14.5v87zM106 809q0 9 7.5 15.5t15.5 6.5h85
q10 0 17 -6.5t7 -15.5v-71q0 -10 -7.5 -15.5t-17.5 -5.5h-85q-8 0 -15 5.5t-7 15.5v71zM-38 -125q0 17 18 17h20q25 0 43.5 2t30 10.5t17 25t5.5 45.5v452q0 8 6 13.5t15 5.5h113q8 0 14 -5.5t6 -13.5v-432q0 -41 -4.5 -78.5t-20.5 -70.5q-25 -48 -68.5 -68t-108.5 -20h-14
t-19.5 0.5t-21 1.5t-17.5 2q-14 3 -14 20v93z" />
    <glyph glyph-name="uniFB8B" unicode="&#x698;" horiz-adv-x="337" arabic-form="final" 
d="M0 654q0 10 7 16.5t17 6.5h87q10 0 17.5 -6.5t7.5 -16.5v-87q0 -8 -8 -14.5t-17 -6.5h-87q-10 0 -17 6.5t-7 14.5v87zM203 654q0 10 8 16.5t17 6.5h87q10 0 17 -6.5t7 -16.5v-87q0 -8 -7 -14.5t-17 -6.5h-87q-9 0 -17 6.5t-8 14.5v87zM106 809q0 9 7.5 15.5t15.5 6.5h85
q10 0 17 -6.5t7 -15.5v-71q0 -10 -7.5 -15.5t-17.5 -5.5h-85q-8 0 -15 5.5t-7 15.5v71zM-38 -125q0 17 18 17h20q25 0 43.5 2t30 10.5t17 25t5.5 45.5v452q0 8 6 13.5t15 5.5h113q8 0 14 -5.5t6 -13.5v-272h87v-155h-91v-36q0 -35 -5 -65t-16 -53q-25 -48 -68.5 -68
t-108.5 -20h-14t-19.5 0.5t-21 1.5t-17.5 2q-14 3 -14 20v93z" />
    <glyph glyph-name="uniFB8C" unicode="&#x691;" horiz-adv-x="318" arabic-form="isolated" 
d="M243 610q3 0 3 4v14q0 20 -12.5 30t-47.5 10q-7 0 -23.5 -0.5t-33.5 -2.5v-55h114zM25 598q0 12 14 12h23v184q0 5 4.5 8.5t9.5 3.5h39q14 0 14 -12v-72q17 4 36.5 6t30.5 2q54 0 85 -25t31 -76v-15q0 -11 -1 -26t-3 -26q-2 -10 -10 -11q-7 0 -17.5 -0.5t-22 -0.5h-22
h-16.5h-181q-14 0 -14 11v37zM-38 -125q0 17 18 17h20q25 0 43.5 2t30 10.5t17 25t5.5 45.5v452q0 8 6 13.5t15 5.5h113q8 0 14 -5.5t6 -13.5v-432q0 -41 -4.5 -78.5t-20.5 -70.5q-25 -48 -68.5 -68t-108.5 -20h-14t-19.5 0.5t-21 1.5t-17.5 2q-14 3 -14 20v93z" />
    <glyph glyph-name="uniFB8D" unicode="&#x691;" horiz-adv-x="337" arabic-form="final" 
d="M243 610q3 0 3 4v14q0 20 -12.5 30t-47.5 10q-7 0 -23.5 -0.5t-33.5 -2.5v-55h114zM25 598q0 12 14 12h23v184q0 5 4.5 8.5t9.5 3.5h39q14 0 14 -12v-72q17 4 36.5 6t30.5 2q54 0 85 -25t31 -76v-15q0 -11 -1 -26t-3 -26q-2 -10 -10 -11q-7 0 -17.5 -0.5t-22 -0.5h-22
h-16.5h-181q-14 0 -14 11v37zM-38 -125q0 17 18 17h20q25 0 43.5 2t30 10.5t17 25t5.5 45.5v452q0 8 6 13.5t15 5.5h113q8 0 14 -5.5t6 -13.5v-272h87v-155h-91v-36q0 -35 -5 -65t-16 -53q-25 -48 -68.5 -68t-108.5 -20h-14t-19.5 0.5t-21 1.5t-17.5 2q-14 3 -14 20v93z" />
    <glyph glyph-name="uniFB8E" unicode="&#x6a9;" horiz-adv-x="978" arabic-form="isolated" 
d="M36 221q0 11 2 33t6 38q3 11 7 16t14 5h99q20 0 18 -20q0 -9 -0.5 -20t-0.5 -16q0 -29 8 -48.5t26.5 -31.5t49 -17t75.5 -5h284h24h43t43.5 0.5t25.5 0.5v54q0 74 -46 106t-136 32h-214q-14 0 -19 5t-7 15q0 2 -0.5 8t-0.5 12.5v12v6.5q0 26 4 49.5t12.5 47t20.5 48.5
t28 54l76 141q5 8 11.5 14t17.5 6h116q8 0 11.5 -3.5t3.5 -8.5t-3 -11l-94 -180q-4 -7 -9.5 -18t-10.5 -22.5t-8.5 -20.5t-3.5 -12q30 2 51 3t39 1q91 0 152.5 -20t98.5 -58.5t52.5 -95.5t15.5 -130v-39q0 -12 -0.5 -29.5t-1.5 -36t-3 -35t-4 -27.5q-2 -8 -6.5 -13t-15.5 -6
q-54 -3 -116 -4t-120 -1h-340q-85 0 -138.5 16t-84 45.5t-41.5 70t-11 89.5z" />
    <glyph glyph-name="uniFB8F" unicode="&#x6a9;" horiz-adv-x="991" arabic-form="final" 
d="M36 221q0 11 2 33t6 38q3 11 7 16t14 5h99q20 0 18 -20q0 -9 -0.5 -20t-0.5 -16q0 -29 8 -48.5t26.5 -31.5t49 -17t75.5 -5h420v54q0 74 -46 106.5t-136 32.5h-214q-14 0 -19 5t-7 15q0 2 -0.5 7.5t-0.5 12v12v6.5q0 26 4 49.5t12.5 46.5t20.5 48t28 54l76 143
q5 8 11.5 14t17.5 6h116q8 0 11.5 -3.5t3.5 -8.5t-3 -11l-94 -180q-4 -7 -9.5 -18t-10.5 -22t-8.5 -20.5t-3.5 -12.5q27 2 50 3t40 1q82 0 141.5 -18.5t98.5 -53.5t58 -85t21 -112v-14q0 -9 -0.5 -28t-1.5 -29h75v-155h-680q-85 0 -138.5 16t-84 45.5t-41.5 70t-11 89.5z
" />
    <glyph glyph-name="uniFB90" unicode="&#x6a9;" horiz-adv-x="716" arabic-form="initial" 
d="M-40 136q0 8 10.5 13.5t21.5 5.5h373h23.5h42t42 0.5t24.5 0.5q1 12 1.5 27.5t0.5 26.5q0 74 -47 106t-137 32h-223q-25 0 -26 18q0 2 -0.5 8t-1 13t-0.5 13v7q0 26 4.5 49.5t13 47t20.5 48.5t28 54l76 141q5 8 11.5 14t17.5 6h116q8 0 11 -3.5t3 -8.5t-3 -11l-94 -180
q-4 -7 -9.5 -18t-10.5 -22.5t-8.5 -20.5t-3.5 -12q38 2 60.5 3t40.5 1q91 0 152.5 -21.5t98.5 -62t52.5 -99t15.5 -131.5v-29q0 -10 -0.5 -27.5t-2 -36t-3 -36t-2.5 -28.5q-3 -18 -24 -19q-17 -2 -45 -2.5t-61 -1.5t-67 -1h-63h-396q-11 0 -21.5 5t-10.5 13v118z" />
    <glyph glyph-name="uniFB91" unicode="&#x6a9;" horiz-adv-x="729" arabic-form="medial" 
d="M-40 136q0 8 10.5 13.5t21.5 5.5h503q1 11 1.5 27.5t0.5 27.5q0 74 -46 106t-136 32h-223q-25 0 -26 18q0 2 -0.5 8t-1 12.5t-0.5 12.5v7q0 26 4.5 49.5t13 46.5t20.5 48t28 54l76 143q5 8 11.5 14t17.5 6h116q8 0 11 -3.5t3 -8.5t-3 -11l-94 -178q-4 -8 -9 -19
t-10 -22.5t-9 -21t-4 -12.5q36 2 61.5 3t42.5 1q82 0 141 -18.5t97 -53.5t57 -85t20 -112v-14v-28t-1 -29h75v-155h-737q-11 0 -21.5 5t-10.5 13v118z" />
    <glyph glyph-name="uniFB92" unicode="&#x6af;" horiz-adv-x="975" arabic-form="isolated" 
d="M36 221q0 11 2 33t6 38q3 11 7 16t14 5h99q20 0 18 -20q0 -9 -0.5 -20t-0.5 -16q0 -29 8 -48.5t26.5 -31.5t49 -17t75.5 -5h280h24h43.5t43 0.5t24.5 0.5q2 12 2 27.5v26.5q0 74 -46.5 106t-136.5 32h-199q-11 0 -15.5 4t-6.5 13l-5 25q-1 4 -1.5 8.5t0.5 8.5
q1 8 5.5 18.5t14.5 27.5l158 294q5 8 11.5 14t17.5 6h97q7 0 10 -3.5t3 -8.5t-3 -11l-94 -178q-4 -8 -10 -19t-12 -22.5t-11 -20.5t-7 -13q26 2 39.5 3t29.5 1q91 0 152.5 -20t98.5 -58.5t52.5 -95.5t15.5 -130v-39q0 -10 -0.5 -27.5t-1.5 -36t-2.5 -36t-3.5 -28.5
q-3 -18 -23 -19q-55 -3 -116 -4t-121 -1h-336q-85 0 -138.5 16t-84 45.5t-41.5 70t-11 89.5zM300 549q-2 10 -2 14q0 11 5 21l89 165q5 8 11 13t17 5h40q8 0 11 -3.5t3 -8.5t-3 -11l-139 -259q-4 -6 -10 -6t-9 8z" />
    <glyph glyph-name="uniFB93" unicode="&#x6af;" horiz-adv-x="989" arabic-form="final" 
d="M36 221q0 11 2 33t6 38q3 11 7 16t14 5h99q20 0 18 -20q0 -9 -0.5 -20t-0.5 -16q0 -29 8 -48.5t26.5 -31.5t49 -17t75.5 -5h414q2 11 2 26.5v26.5q0 75 -46 107.5t-136 32.5h-199q-11 0 -15.5 4t-6.5 13l-5 25q-1 4 -1.5 8.5t0.5 8.5q1 8 5.5 18.5t14.5 27.5l158 294
q5 8 11.5 14t17.5 6h97q7 0 10 -3.5t3 -8.5t-3 -11l-94 -178q-4 -8 -10 -19t-12 -22.5t-11 -20.5t-7 -13q26 2 40 3t30 1q81 0 140.5 -18.5t98.5 -53.5t58 -85t20 -112v-71h75v-155h-678q-85 0 -138.5 16t-84 45.5t-41.5 70t-11 89.5zM300 549q-2 10 -2 14q0 11 5 21l89 165
q5 8 11 13t17 5h40q8 0 11 -3.5t3 -8.5t-3 -11l-139 -259q-4 -6 -10 -6t-9 8z" />
    <glyph glyph-name="uniFB94" unicode="&#x6af;" horiz-adv-x="779" arabic-form="initial" 
d="M-8 0q-11 0 -21.5 5t-10.5 13v118q0 8 10.5 13.5t21.5 5.5h432h24h43.5t43.5 0.5t25 0.5q1 12 1.5 27.5t0.5 26.5q0 74 -46.5 106t-136.5 32h-214q-11 0 -15.5 4t-6.5 13l-5 25q-1 4 -1.5 9t0.5 9q2 8 6.5 17.5t13.5 26.5l158 295q5 8 11.5 14t17.5 6h97q7 0 10 -3.5
t3 -8.5t-3 -11l-94 -179q-4 -7 -10 -18t-12 -22.5t-10.5 -20.5l-6.5 -13q35 2 54.5 3t33.5 1q91 0 151.5 -21t96.5 -60t50.5 -95.5t14.5 -127.5v-39q0 -12 -1 -29.5t-2.5 -36t-3.5 -35t-4 -27.5q-3 -18 -23 -19q-53 -3 -114.5 -4t-119.5 -1h-459zM90 549q-2 10 -2 14
q0 11 6 21l89 165q5 8 10.5 13t16.5 5h40q8 0 11.5 -3.5t3.5 -8.5t-3 -11l-139 -259q-4 -6 -10 -6q-8 0 -9 8z" />
    <glyph glyph-name="uniFB95" unicode="&#x6af;" horiz-adv-x="791" arabic-form="medial" 
d="M-40 136q0 8 10.5 13.5t21.5 5.5h566q1 11 1.5 27.5t0.5 27.5q0 74 -45.5 106t-135.5 32h-214q-11 0 -15.5 4t-6.5 13l-5 25q-1 4 -1.5 8.5t0.5 8.5q1 8 5.5 18t14.5 27l158 295q5 8 11.5 14t17.5 6h97q7 0 10 -3.5t3 -8.5t-3 -11l-94 -178q-4 -8 -10 -19t-12 -22.5
t-11 -20.5t-7 -13q33 2 54 3t35 1q81 0 139.5 -18.5t96.5 -53.5t56.5 -85t19.5 -112v-14v-28t-2 -29h75v-155h-799q-11 0 -21.5 5t-10.5 13v118zM90 549q-2 10 -2 14q0 11 5 21l89 165q5 8 11 13t17 5h40q8 0 11 -3.5t3 -8.5t-3 -11l-139 -259q-4 -6 -10 -6t-9 8z" />
    <glyph glyph-name="uniFB9E" unicode="&#x6ba;" horiz-adv-x="671" arabic-form="isolated" 
d="M175 312q8 0 13.5 -5t4.5 -13q-2 -21 -2.5 -43t-0.5 -36q0 -58 8 -103t29.5 -76t60 -47t99.5 -16q14 0 26 0.5t35 3.5q1 46 1 83v79v288q0 8 6.5 13.5t14.5 5.5h113q8 0 14 -5.5t6 -13.5v-391q0 -42 -1 -88t-3 -85q0 -17 -22 -23q-47 -11 -93.5 -16t-97.5 -5
q-83 0 -146.5 17.5t-107.5 56.5t-66.5 100.5t-22.5 149.5q0 11 1 30t2.5 40t4 42t5.5 37q2 10 6.5 15t15.5 5h97z" />
    <glyph glyph-name="uniFB9F" unicode="&#x6ba;" horiz-adv-x="690" arabic-form="final" 
d="M175 312q8 0 13.5 -5t4.5 -13q-2 -21 -2.5 -43t-0.5 -36q0 -58 8 -103t29.5 -76t60 -47t99.5 -16q14 0 26 0.5t35 3.5q1 46 1 83v79v288q0 8 6.5 13.5t14.5 5.5h113q9 0 14.5 -5.5t5.5 -13.5v-272h87v-155h-87q-1 -35 -1 -71t-2 -66q0 -18 -21 -23q-46 -11 -94 -16
t-99 -5q-83 0 -146.5 17.5t-107.5 56.5t-66.5 100.5t-22.5 149.5q0 11 1 30t2.5 40t4 42t5.5 37q2 10 6.5 15t15.5 5h97z" />
    <glyph glyph-name="uniFBA4" unicode="&#x6c0;" horiz-adv-x="571" arabic-form="isolated" 
d="M50 244q0 126 70.5 192.5t210.5 66.5q19 0 42 -1.5t44.5 -3.5t39.5 -5t28 -7q11 -5 14.5 -8.5t3.5 -11.5v-281q0 -38 -1.5 -83t-5.5 -74q-2 -11 -7 -14.5t-15 -5.5q-41 -5 -79.5 -6.5t-74.5 -1.5h-11q-127 0 -193 57.5t-66 169.5v17zM199 249q0 -49 23 -74t79 -25h22
t26 1v211q-8 1 -19.5 1.5t-25.5 0.5q-54 0 -79.5 -29t-25.5 -77v-9zM202 594q-6 0 -10.5 3t-4.5 9v37q0 5 4.5 7t10.5 2h20q-8 13 -11.5 27.5t-3.5 29.5q0 86 102 86q9 0 24.5 -1t29.5 -5q10 -2 10 -10v-34q0 -10 -13 -10h-37q-24 0 -35.5 -8t-11.5 -29q0 -16 5 -27.5
t14 -16.5h73q15 0 15 -10v-38q0 -12 -15 -12h-166z" />
    <glyph glyph-name="uniFBA5" unicode="&#x6c0;" horiz-adv-x="591" arabic-form="final" 
d="M48 250q0 126 74 193t214 67q19 0 41 -1t42.5 -3.5t37.5 -5.5t28 -6q11 -4 14.5 -8t3.5 -12v-272q0 -29 12.5 -38t41.5 -9h34v-155h-54q-43 0 -81.5 11t-62.5 43q-26 -15 -57.5 -22.5t-61.5 -7.5h-10q-45 0 -84.5 12t-69 37t-46 64.5t-16.5 95.5v17zM196 257
q0 -49 20.5 -68.5t60.5 -19.5h12q27 0 43.5 9t16.5 32v161q-9 2 -18 2h-20q-54 0 -84.5 -26.5t-30.5 -76.5v-13zM202 594q-6 0 -10.5 3t-4.5 9v37q0 5 4.5 7t10.5 2h20q-8 13 -11.5 27.5t-3.5 29.5q0 86 102 86q9 0 24.5 -1t29.5 -5q10 -2 10 -10v-34q0 -10 -13 -10h-37
q-24 0 -35.5 -8t-11.5 -29q0 -16 5 -27.5t14 -16.5h73q15 0 15 -10v-38q0 -12 -15 -12h-166z" />
    <glyph glyph-name="uniFBA6" unicode="&#x6c1;" horiz-adv-x="571" arabic-form="isolated" 
d="M50 244q0 126 70.5 192.5t210.5 66.5q19 0 42 -1.5t44.5 -3.5t39.5 -5t28 -7q11 -5 14.5 -8.5t3.5 -11.5v-281q0 -38 -1.5 -83t-5.5 -74q-2 -11 -7 -14.5t-15 -5.5q-41 -5 -79.5 -6.5t-74.5 -1.5h-11q-127 0 -193 57.5t-66 169.5v17zM199 249q0 -49 23 -74t79 -25h22
t26 1v211q-8 1 -19.5 1.5t-25.5 0.5q-54 0 -79.5 -29t-25.5 -77v-9z" />
    <glyph glyph-name="uniFBA7" unicode="&#x6c1;" horiz-adv-x="632" arabic-form="final" 
d="M357 380q21 0 46 -1t49 -2.5t44.5 -4t32.5 -4.5q8 -2 14.5 -6t6.5 -15v-158q0 -21 8 -27.5t34 -6.5h40v-155h-80q-37 0 -66 5t-49 20t-30.5 42.5t-10.5 72.5v85q-8 2 -16.5 2.5t-32.5 0.5q-48 0 -77 -12.5t-44.5 -40t-21 -72.5t-5.5 -110v-88q0 -19 -18 -19h-111
q-11 0 -15.5 6t-4.5 14q-2 9 -2.5 27t-1 37.5t-0.5 37.5v27q0 180 75.5 262.5t235.5 82.5z" />
    <glyph glyph-name="uniFBA8" unicode="&#x6c1;" horiz-adv-x="309" arabic-form="initial" 
d="M89 -270q-7 0 -11 6t-6 15q-1 7 -2.5 22t-1.5 31q0 31 3.5 59.5t8.5 49.5q3 10 6.5 16t12.5 6h80q8 0 13 -3.5t3 -15.5q-5 -29 -6 -53t-1 -53q0 -20 0.5 -36t1.5 -26q2 -11 -3 -14.5t-13 -3.5h-85zM-40 144q0 5 11.5 8t20.5 3h58q22 0 29.5 4t7.5 27v112t-2 133
q0 8 5.5 13.5t14.5 5.5h110q11 0 16.5 -5.5t6.5 -13.5q1 -31 1.5 -56.5t1 -48t0.5 -45v-47.5q0 -74 -1 -119.5t-4 -74.5q-2 -10 -6.5 -17t-16.5 -11q-12 -3 -33.5 -5.5t-47 -4t-52.5 -2t-49 -0.5h-39q-9 0 -20.5 3t-11.5 8v133z" />
    <glyph glyph-name="uniFBA9" unicode="&#x6c1;" horiz-adv-x="614" arabic-form="medial" 
d="M-40 136q0 8 10.5 13.5t21.5 5.5h70q0 8 0.5 22t1.5 28t1.5 27t1.5 20q1 8 5.5 14t14.5 6h112q9 0 14 -5.5t5 -13.5v-143q0 -64 7.5 -104.5t24 -63.5t41.5 -31.5t60 -8.5q22 0 45 3v51q1 46 12.5 83t35 63t61 39.5t91.5 13.5h18v-155h-7q-22 0 -35 -4.5t-20 -15t-9 -26.5
t-2 -40v-129q0 -11 -6 -15.5t-14 -6.5q-10 -2 -29.5 -3.5t-43.5 -3.5t-50.5 -3t-50.5 -1q-60 0 -109.5 12.5t-85.5 42t-58 77t-26 116.5h-76q-11 0 -21.5 5t-10.5 13v118z" />
    <glyph glyph-name="uniFBAA" unicode="&#x6be;" horiz-adv-x="881" arabic-form="isolated" 
d="M54 137q0 18 19 18h134q-4 4 -6.5 13.5t-4.5 20.5t-3 21.5t-1 18.5v13q0 83 47 127t128 49q-3 3 -3 9v93q0 17 19 22q28 6 58 7t44 1q68 0 130 -16.5t109 -53.5t75 -97t28 -147v-42q0 -35 -2 -74.5t-10 -85.5q-2 -10 -8.5 -18.5t-20.5 -10.5q-15 -2 -44.5 -2.5t-64 -1.5
t-67.5 -1h-55h-482q-8 0 -13.5 5t-5.5 13v119zM583 242v-13q0 -7 -1 -18.5t-3 -23t-5 -22t-7 -14.5h84q12 0 17 8t5 40v30q0 97 -49 140.5t-135 43.5h-36q62 -13 96 -54t34 -117zM323 214q0 -35 14.5 -53t49.5 -18t50 18t15 53v21q0 38 -14 56t-49 18t-50.5 -18t-15.5 -56
v-21z" />
    <glyph glyph-name="uniFBAB" unicode="&#x6be;" horiz-adv-x="710" arabic-form="final" 
d="M66 0q-8 0 -14 5t-6 13v119q0 8 6 13t14 5h109v290q0 17 11 26.5t28 14.5q35 11 77.5 14.5t80.5 3.5q60 0 108 -12.5t81.5 -39.5t52 -68.5t18.5 -99.5q0 -17 -1 -32.5t-3 -31.5q-2 -19 -7 -35t-13 -35q15 3 30.5 4t32.5 1h39v-155h-17h-37.5t-26.5 -2v-28
q-1 -118 -59 -172t-161 -54q-64 0 -108.5 15t-72.5 44.5t-40.5 73t-12.5 99.5v24h-109zM369 153q34 0 55.5 8.5t34.5 23.5t18 35.5t5 45.5v11q0 53 -29.5 72.5t-80.5 19.5q-19 0 -43 -3v-213h40zM424 9q-20 -3 -45 -4.5t-51 -3.5v-14q0 -56 17 -81.5t63 -25.5
q42 0 57.5 23.5t17.5 73.5q0 15 0.5 26t2.5 23q-28 -12 -62 -17z" />
    <glyph glyph-name="uniFBAC" unicode="&#x6be;" horiz-adv-x="746" arabic-form="initial" 
d="M-40 136q0 8 10.5 13.5t21.5 5.5h79q-8 12 -11 31.5t-3 42.5v13q0 83 47 126.5t128 49.5q-3 3 -3 9v93q0 17 20 22q13 3 28 4.5t29 2.5t25.5 1h19.5q67 0 128.5 -16.5t109 -53.5t75.5 -97t28 -147v-42q0 -35 -2 -74.5t-10 -85.5q-2 -10 -8 -18.5t-20 -10.5
q-15 -2 -45 -2.5t-64.5 -1.5t-67.5 -1h-54h-429q-11 0 -21.5 5t-10.5 13v118zM448 242v-13q0 -23 -4 -44.5t-12 -33.5h82q13 0 18.5 7.5t5.5 39.5v31q0 97 -48.5 140.5t-135.5 43.5h-35q61 -13 95 -54t34 -117zM188 214q0 -35 14.5 -53t49.5 -18t50 18t15 53v21q0 38 -14 56
t-49 18t-50.5 -18t-15.5 -56v-21z" />
    <glyph glyph-name="uniFBAD" unicode="&#x6be;" horiz-adv-x="620" arabic-form="medial" 
d="M-8 0q-9 0 -20.5 2.5t-11.5 7.5v135q0 5 11.5 7.5t20.5 2.5h93v290q0 17 11 26.5t28 14.5q35 11 77 14.5t80 3.5q59 0 107.5 -12.5t82.5 -39.5t52.5 -68.5t18.5 -99.5q0 -17 -1 -32.5t-3 -31.5q-2 -19 -7 -35t-13 -35q15 3 30.5 4t31.5 1h40v-155h-18h-36.5t-26.5 -2v-28
q-2 -118 -59.5 -172t-160.5 -54q-64 0 -108.5 15t-72.5 44.5t-40.5 72.5t-12.5 100v24h-93zM279 153q34 0 55.5 8.5t34.5 23.5t18 35.5t5 45.5v10q0 54 -29.5 73.5t-80.5 19.5q-14 0 -23 -0.5t-20 -2.5v-213h40zM334 9q-18 -3 -43 -4.5t-53 -3.5v-14q0 -56 17 -81.5
t63 -25.5q43 0 58 23.5t17 73.5q0 25 3 49q-14 -5 -29.5 -10t-32.5 -7z" />
    <glyph glyph-name="uniFBAE" unicode="&#x6d2;" horiz-adv-x="1062" arabic-form="isolated" 
d="M59 102q0 59 7 108t31 94q26 49 62 79t79.5 46.5t93 21.5t100.5 5h105q21 0 29.5 4.5t8.5 27.5v37v26.5v32t-1 52.5q0 8 5 13.5t15 5.5h109q11 0 16 -5.5t6 -13.5q3 -50 3.5 -76t0.5 -46v-25q0 -30 -0.5 -65.5t-3.5 -64.5q-2 -9 -7 -21.5t-16 -15.5t-34 -5t-49.5 -3
t-53.5 -1.5t-46 -0.5h-100q-38 0 -73 -5t-62 -19.5t-44.5 -39t-20.5 -63.5v-11q0 -11 2.5 -15t11.5 -4h762q8 0 14 -5.5t6 -13.5v-118q0 -8 -6 -13t-14 -5h-634q-21 0 -60.5 0.5t-81 1t-76.5 1.5t-47 2q-14 2 -21 9t-9 18q-3 16 -5 33.5t-2 36.5z" />
    <glyph glyph-name="uniFBAF" unicode="&#x6d2;" horiz-adv-x="810" arabic-form="final" 
d="M847 -123v-106q0 -8 -6 -14t-14 -6h-583h-49t-56 1t-51 1.5t-35 2.5q-14 2 -20 9t-9 16q-5 16 -6.5 43t-1.5 43q0 67 21.5 126t72.5 98q40 32 98 48t139 16h463v-155h-488q-66 0 -105.5 -16t-44.5 -65v-8q-1 -14 11 -14h644q8 0 14 -6t6 -14z" />
    <glyph glyph-name="uniFBB0" unicode="&#x6d3;" horiz-adv-x="1062" arabic-form="isolated" 
d="M59 102q0 59 7 108t31 94q26 49 62 79t79.5 46.5t93 21.5t100.5 5h105q21 0 29.5 4.5t8.5 27.5v37v26.5v32t-1 52.5q0 8 5 13.5t15 5.5h109q11 0 16 -5.5t6 -13.5q3 -50 3.5 -76t0.5 -46v-25q0 -30 -0.5 -65.5t-3.5 -64.5q-2 -9 -7 -21.5t-16 -15.5t-34 -5t-49.5 -3
t-53.5 -1.5t-46 -0.5h-100q-38 0 -73 -5t-62 -19.5t-44.5 -39t-20.5 -63.5v-11q0 -11 2.5 -15t11.5 -4h762q8 0 14 -5.5t6 -13.5v-118q0 -8 -6 -13t-14 -5h-634q-21 0 -60.5 0.5t-81 1t-76.5 1.5t-47 2q-14 2 -21 9t-9 18q-3 16 -5 33.5t-2 36.5zM555 721q-6 0 -10.5 3
t-4.5 9v37q0 5 4.5 7t10.5 2h20q-8 13 -11.5 27.5t-3.5 29.5q0 86 102 86q9 0 24.5 -1t29.5 -5q10 -2 10 -10v-34q0 -10 -13 -10h-37q-24 0 -35.5 -8t-11.5 -29q0 -16 5 -27.5t14 -16.5h73q15 0 15 -10v-38q0 -12 -15 -12h-166z" />
    <glyph glyph-name="uniFBB1" unicode="&#x6d3;" horiz-adv-x="810" arabic-form="final" 
d="M59 237q-6 0 -10.5 3t-4.5 9v37q0 5 4.5 7t10.5 2h20q-8 13 -11.5 27.5t-3.5 29.5q0 86 102 86q9 0 24.5 -1t29.5 -5q10 -2 10 -10v-34q0 -10 -13 -10h-37q-24 0 -35.5 -8t-11.5 -29q0 -16 5 -27.5t14 -16.5h73q15 0 15 -10v-38q0 -12 -15 -12h-166zM847 -123v-106
q0 -8 -6 -14t-14 -6h-583h-49t-56 1t-51 1.5t-35 2.5q-14 2 -20 9t-9 16q-5 16 -6.5 43t-1.5 43q0 67 21.5 126t72.5 98q40 32 98 48t139 16h463v-155h-488q-66 0 -105.5 -16t-44.5 -65v-8q-1 -14 11 -14h644q8 0 14 -6t6 -14z" />
    <glyph glyph-name="uniFBE8" unicode="&#x649;" horiz-adv-x="309" arabic-form="initial" 
d="M-40 144q0 5 11.5 8t20.5 3h58q22 0 29.5 4t7.5 27v112t-2 133q0 8 5.5 13.5t14.5 5.5h110q11 0 16.5 -5.5t6.5 -13.5q1 -31 1.5 -56.5t1 -48t0.5 -45v-47.5q0 -74 -1 -119.5t-4 -74.5q-2 -10 -6.5 -17t-16.5 -11q-12 -3 -33.5 -5.5t-47 -4t-52.5 -2t-49 -0.5h-39
q-9 0 -20.5 3t-11.5 8v133z" />
    <glyph glyph-name="uniFBE9" unicode="&#x649;" horiz-adv-x="329" arabic-form="medial" 
d="M-40 144q0 5 11.5 8t20.5 3h47q8 0 17 1t16 4t11.5 9.5t4.5 17.5v240q0 8 5.5 13.5t15.5 5.5h113q8 0 14 -5.5t6 -13.5v-259q3 -4 10 -6.5t15.5 -4t16.5 -2t14 -0.5h31v-155h-13q-42 0 -83.5 6.5t-69.5 27.5q-14 -10 -32.5 -16.5t-38 -10.5t-39 -5.5t-37.5 -1.5h-24
q-9 0 -20.5 3t-11.5 8v133z" />
    <glyph glyph-name="uniFBFC" unicode="&#x6cc;" horiz-adv-x="986" arabic-form="isolated" 
d="M180 312q18 0 18 -18q-2 -21 -3.5 -40.5t-1.5 -33.5q0 -57 6 -103.5t25.5 -79t57.5 -50t101 -17.5q26 0 43.5 1t37.5 4q2 46 2.5 79.5t0.5 73.5v78q0 121 71.5 177.5t211.5 56.5q19 0 40.5 -1t42 -3t38.5 -4t30 -5q8 -2 13 -6t5 -14v-386q0 -9 -5.5 -15t-15.5 -6h-113
q-8 0 -14 6t-6 15v275q-16 2 -23.5 2.5t-18.5 0.5q-53 0 -77.5 -24t-24.5 -84v-155q0 -42 -1 -90.5t-3 -87.5q0 -20 -22 -23q-48 -8 -103 -12t-112 -4q-87 0 -150.5 19.5t-104 60.5t-60 104t-19.5 150q0 12 1 28.5t3 35.5t4.5 38t6.5 37q2 10 6 15t15 5h98z" />
    <glyph glyph-name="uniFBFD" unicode="&#x6cc;" horiz-adv-x="1002" arabic-form="final" 
d="M180 312q18 0 18 -18q-2 -21 -3.5 -40.5t-1.5 -33.5q0 -57 6 -103.5t25.5 -79t57.5 -50t101 -17.5q26 0 43.5 1t37.5 4q2 46 2.5 79.5t0.5 73.5v75q0 120 71.5 178.5t211.5 58.5q39 0 80 -4t66 -9q8 -2 13 -6t5 -14v-218q0 -21 9 -27.5t33 -6.5h46v-155h-87
q-36 0 -64.5 5t-49 20t-31 42.5t-10.5 72.5v156q-12 2 -19 2.5t-18 0.5q-53 0 -77.5 -24t-24.5 -84v-155q0 -42 -1 -90.5t-3 -87.5q0 -20 -25 -23q-48 -8 -101.5 -12t-110.5 -4q-87 0 -150.5 19.5t-104 60.5t-60 104t-19.5 150q0 12 1 28.5t3 35t4.5 38t6.5 37.5q2 10 6 15
t15 5h98z" />
    <glyph glyph-name="uniFBFE" unicode="&#x6cc;" horiz-adv-x="309" arabic-form="initial" 
d="M-40 144q0 5 11.5 8t20.5 3h58q22 0 29.5 4t7.5 27v112t-2 133q0 8 5.5 13.5t14.5 5.5h110q11 0 16.5 -5.5t6.5 -13.5q1 -31 1.5 -56.5t1 -48t0.5 -45v-47.5q0 -74 -1 -119.5t-4 -74.5q-2 -10 -6.5 -17t-16.5 -11q-12 -3 -33.5 -5.5t-47 -4t-52.5 -2t-49 -0.5h-39
q-9 0 -20.5 3t-11.5 8v133zM-65 -107q0 10 7 16.5t17 6.5h87q10 0 17.5 -6.5t7.5 -16.5v-96q0 -8 -8 -14.5t-17 -6.5h-87q-10 0 -17 6.5t-7 14.5v96zM138 -107q0 10 8 16.5t17 6.5h87q10 0 17 -6.5t7 -16.5v-96q0 -8 -7 -14.5t-17 -6.5h-87q-9 0 -17 6.5t-8 14.5v96z" />
    <glyph glyph-name="uniFBFF" unicode="&#x6cc;" horiz-adv-x="329" arabic-form="medial" 
d="M-40 144q0 5 11.5 8t20.5 3h47q8 0 17 1t16 4t11.5 9.5t4.5 17.5v240q0 8 5.5 13.5t15.5 5.5h113q8 0 14 -5.5t6 -13.5v-259q3 -4 10 -6.5t15.5 -4t16.5 -2t14 -0.5h31v-155h-13q-42 0 -83.5 6.5t-69.5 27.5q-14 -10 -32.5 -16.5t-38 -10.5t-39 -5.5t-37.5 -1.5h-24
q-9 0 -20.5 3t-11.5 8v133zM-17 -107q0 10 7 16.5t17 6.5h87q10 0 17.5 -6.5t7.5 -16.5v-96q0 -8 -8 -14.5t-17 -6.5h-87q-10 0 -17 6.5t-7 14.5v96zM186 -107q0 10 8 16.5t17 6.5h87q10 0 17 -6.5t7 -16.5v-96q0 -8 -7 -14.5t-17 -6.5h-87q-9 0 -17 6.5t-8 14.5v96z" />
    <glyph glyph-name="uniFC5E" unicode="&#xfc5e;" horiz-adv-x="0" arabic-form="isolated" 
d="M-58 747q-35 0 -47.5 20.5t-12.5 55.5q0 10 0.5 18t1.5 19q2 12 12 12h25q5 0 8.5 -3.5t3.5 -8.5q-1 -13 -1.5 -20t-0.5 -15q0 -20 5.5 -26.5t14.5 -6.5h3q7 0 14 4.5t7 19.5v42q0 5 3.5 8.5t9.5 3.5h24q6 0 9.5 -3.5t3.5 -8.5v-42q0 -15 7 -19.5t13 -4.5h3q9 0 15 7
t6 27q0 8 -0.5 15.5t-1.5 18.5q0 5 3.5 8.5t8.5 3.5h25q5 0 8.5 -3.5t3.5 -8.5q2 -13 2 -19.5v-17.5q0 -35 -14.5 -55.5t-49.5 -20.5h-4q-15 0 -27 4t-20 16h-4q-8 -12 -22 -16t-30 -4h-5zM-139 994q0 11 16 11h41q11 0 13 -10l5 -26q3 -9 10 -14t21 -5h7q-1 8 -1.5 14
t-0.5 14q0 32 22 51.5t56 19.5q35 0 56 -18t21 -50q0 -35 -21 -54.5t-75 -19.5h-63q-29 0 -50 10.5t-28 45.5h-13q-16 0 -16 10v21zM45 950q17 0 24.5 9t7.5 21q0 26 -27 26q-12 0 -20.5 -7.5t-8.5 -24.5q0 -6 1 -12.5t3 -11.5h20z" />
    <glyph glyph-name="uniFC5F" unicode="&#xfc5f;" horiz-adv-x="0" arabic-form="isolated" 
d="M-58 923q-35 0 -47.5 20.5t-12.5 55.5q0 10 0.5 18t1.5 19q2 12 12 12h25q5 0 8.5 -3.5t3.5 -8.5q-1 -13 -1.5 -20t-0.5 -15q0 -20 5.5 -26.5t14.5 -6.5h3q7 0 14 4.5t7 19.5v42q0 5 3.5 8.5t9.5 3.5h24q6 0 9.5 -3.5t3.5 -8.5v-42q0 -15 7 -19.5t13 -4.5h3q9 0 15 7
t6 27q0 8 -0.5 15.5t-1.5 18.5q0 5 3.5 8.5t8.5 3.5h25q5 0 8.5 -3.5t3.5 -8.5q2 -13 2 -19.5v-17.5q0 -35 -14.5 -55.5t-49.5 -20.5h-4q-15 0 -27 4t-20 16h-4q-8 -12 -22 -16t-30 -4h-5zM-119 792q0 7 4 8.5t11 1.5h209q16 0 16 -10v-24q0 -7 -4.5 -8.5t-11.5 -1.5h-209
q-15 0 -15 10v24zM-119 876q0 7 4 8.5t11 1.5h209q16 0 16 -10v-24q0 -10 -16 -10h-209q-15 0 -15 10v24z" />
    <glyph glyph-name="uniFC60" unicode="&#xfc60;" horiz-adv-x="0" arabic-form="isolated" 
d="M-58 747q-35 0 -47.5 20.5t-12.5 55.5q0 10 0.5 18t1.5 19q2 12 12 12h25q5 0 8.5 -3.5t3.5 -8.5q-1 -13 -1.5 -20t-0.5 -15q0 -20 5.5 -26.5t14.5 -6.5h3q7 0 14 4.5t7 19.5v42q0 5 3.5 8.5t9.5 3.5h24q6 0 9.5 -3.5t3.5 -8.5v-42q0 -15 7 -19.5t13 -4.5h3q9 0 15 7
t6 27q0 8 -0.5 15.5t-1.5 18.5q0 5 3.5 8.5t8.5 3.5h25q5 0 8.5 -3.5t3.5 -8.5q2 -13 2 -19.5v-17.5q0 -35 -14.5 -55.5t-49.5 -20.5h-4q-15 0 -27 4t-20 16h-4q-8 -12 -22 -16t-30 -4h-5zM-119 945q0 10 15 10h209q16 0 16 -10v-24q0 -11 -16 -11h-209q-15 0 -15 11v24z
" />
    <glyph glyph-name="uniFC61" unicode="&#xfc61;" horiz-adv-x="0" arabic-form="isolated" 
d="M-58 747q-35 0 -47.5 20.5t-12.5 55.5q0 10 0.5 18t1.5 19q2 12 12 12h25q5 0 8.5 -3.5t3.5 -8.5q-1 -13 -1.5 -20t-0.5 -15q0 -20 5.5 -26.5t14.5 -6.5h3q7 0 14 4.5t7 19.5v42q0 5 3.5 8.5t9.5 3.5h24q6 0 9.5 -3.5t3.5 -8.5v-42q0 -15 7 -19.5t13 -4.5h3q9 0 15 7
t6 27q0 8 -0.5 15.5t-1.5 18.5q0 5 3.5 8.5t8.5 3.5h25q5 0 8.5 -3.5t3.5 -8.5q2 -13 2 -19.5v-17.5q0 -35 -14.5 -55.5t-49.5 -20.5h-4q-15 0 -27 4t-20 16h-4q-8 -12 -22 -16t-30 -4h-5zM-124 940q0 7 4.5 8.5t11.5 1.5h80q-2 8 -2 14v14q0 32 21 51.5t55 19.5
q35 0 56.5 -18t21.5 -50q0 -35 -21.5 -54.5t-73.5 -19.5h-137q-16 0 -16 11v22zM41 950q19 0 26.5 9t7.5 21t-8 19t-20 7t-20 -7.5t-8 -24.5q0 -6 0.5 -12.5t2.5 -11.5h19z" />
    <glyph glyph-name="uniFC62" unicode="&#xfc62;" horiz-adv-x="0" arabic-form="isolated" 
d="M-58 841q-35 0 -47.5 20.5t-12.5 55.5q0 10 0.5 18t1.5 19q2 12 12 12h25q5 0 8.5 -3.5t3.5 -8.5q-1 -13 -1.5 -20t-0.5 -15q0 -20 5.5 -26.5t14.5 -6.5h3q7 0 14 4.5t7 19.5v42q0 5 3.5 8.5t9.5 3.5h24q6 0 9.5 -3.5t3.5 -8.5v-42q0 -15 7 -19.5t13 -4.5h3q9 0 15 7
t6 27q0 8 -0.5 15.5t-1.5 18.5q0 5 3.5 8.5t8.5 3.5h25q5 0 8.5 -3.5t3.5 -8.5q2 -13 2 -19.5v-17.5q0 -35 -14.5 -55.5t-49.5 -20.5h-4q-15 0 -27 4t-20 16h-4q-8 -12 -22 -16t-30 -4h-5zM-120 793q0 7 4 8.5t11 1.5h209q16 0 16 -10v-24q0 -10 -16 -10h-209q-15 0 -15 10
v24z" />
    <glyph glyph-name="uniFC63" unicode="&#xfc63;" horiz-adv-x="0" arabic-form="isolated" 
d="M-28 1014q0 5 3.5 8.5t8.5 3.5h32q5 0 8 -3.5t3 -8.5v-99q0 -5 -3 -8.5t-8 -3.5h-32q-6 0 -9 3.5t-3 8.5v99zM-58 747q-35 0 -47.5 20t-12.5 55q0 11 0.5 19t1.5 19q2 12 12 12h25q5 0 8.5 -3.5t3.5 -8.5q-1 -13 -1.5 -20t-0.5 -15q0 -20 5.5 -26.5t14.5 -6.5h3
q7 0 14 4.5t7 18.5v42q0 13 13 13h24q13 0 13 -13v-42q0 -14 7 -18.5t13 -4.5h3q9 0 15 7t6 27q0 8 -0.5 15.5t-1.5 18.5q0 5 3.5 8.5t8.5 3.5h25q5 0 8.5 -3.5t3.5 -8.5q2 -14 2 -20.5v-17.5q0 -35 -14.5 -55t-49.5 -20h-4q-15 0 -27 4t-20 15h-4q-8 -12 -22 -15.5
t-30 -3.5h-5z" />
    <glyph glyph-name="uniFE80" unicode="&#x621;" horiz-adv-x="465" arabic-form="isolated" 
d="M60 21q-17 0 -17 16v93q0 17 17 17h40q-22 30 -22 92q0 53 16 88t43.5 56t64.5 29.5t78 8.5q26 0 46 -2.5t44 -7.5q18 -3 18 -17v-78q0 -17 -16 -16q-23 1 -37 1.5t-27 0.5q-53 0 -76 -16t-23 -60q0 -32 12 -52.5t26 -27.5l148 1q17 0 17 -17v-93q0 -16 -17 -16h-335z
" />
    <glyph glyph-name="uniFE81" unicode="&#x622;" horiz-adv-x="306" arabic-form="isolated" 
d="M-2 828q-7 0 -11.5 3.5t-3.5 9.5q5 41 21 65q14 20 33 29t43 9q19 0 36.5 -6.5t37.5 -14.5q15 -5 29.5 -8.5t30.5 -3.5q20 0 32 3.5t23 8.5t19.5 8.5t13.5 3.5q10 0 10 -10v-49q0 -12 -9 -19q-17 -11 -40 -17.5t-49 -6.5q-23 0 -44 4.5t-56 20.5q-11 5 -17.5 6.5
t-11.5 1.5q-14 0 -17 -12l-5 -12q-5 -14 -15 -14h-50zM75 746q0 9 5.5 15t15.5 6h114q9 0 15 -6t6 -15v-725q0 -8 -6 -14.5t-15 -6.5h-114q-10 0 -15.5 6.5t-5.5 14.5v725z" />
    <glyph glyph-name="uniFE82" unicode="&#x622;" horiz-adv-x="318" arabic-form="final" 
d="M-5 831q-7 0 -11.5 3.5t-3.5 9.5q5 41 21 65q14 20 33 29t43 9q19 0 36.5 -6.5t37.5 -14.5q15 -5 29.5 -8.5t30.5 -3.5q20 0 32 3.5t23 8.5t19.5 8.5t13.5 3.5q10 0 10 -10v-49q0 -12 -9 -19q-17 -11 -40 -17.5t-49 -6.5q-23 0 -44 4.5t-56 20.5q-11 5 -17.5 6.5
t-11.5 1.5q-14 0 -17 -12l-5 -12q-5 -14 -15 -14h-50zM75 746q0 9 6 15t15 6h114q10 0 15.5 -6t5.5 -15v-546q0 -29 12 -37t38 -8h37v-155h-83q-36 0 -65.5 5.5t-50.5 21.5t-32.5 45.5t-11.5 77.5v596z" />
    <glyph glyph-name="uniFE83" unicode="&#x623;" horiz-adv-x="306" arabic-form="isolated" 
d="M64 760q-6 0 -10.5 3t-4.5 9v37q0 5 4.5 7t10.5 2h20q-8 13 -11.5 27.5t-3.5 29.5q0 86 102 86q9 0 24.5 -1t29.5 -5q10 -2 10 -10v-34q0 -10 -13 -10h-37q-24 0 -35.5 -8t-11.5 -29q0 -16 5 -27.5t14 -16.5h73q15 0 15 -10v-38q0 -12 -15 -12h-166zM75 675q0 8 5.5 14
t15.5 6h114q9 0 15 -6t6 -14v-654q0 -8 -6 -14.5t-15 -6.5h-114q-10 0 -15.5 6.5t-5.5 14.5v654z" />
    <glyph glyph-name="uniFE84" unicode="&#x623;" horiz-adv-x="318" arabic-form="final" 
d="M75 668q0 8 6 14t15 6h114q10 0 15.5 -6t5.5 -14v-468q0 -29 12 -37t38 -8h37v-155h-83q-36 0 -65.5 5.5t-50.5 21.5t-32.5 45.5t-11.5 77.5v518zM62 760q-6 0 -10.5 3t-4.5 9v37q0 5 4.5 7t10.5 2h20q-8 13 -11.5 27.5t-3.5 29.5q0 86 102 86q9 0 24.5 -1t29.5 -5
q10 -2 10 -10v-34q0 -10 -13 -10h-37q-24 0 -35.5 -8t-11.5 -29q0 -16 5 -27.5t14 -16.5h73q15 0 15 -10v-38q0 -12 -15 -12h-166z" />
    <glyph glyph-name="uniFE85" unicode="&#x624;" horiz-adv-x="572" arabic-form="isolated" 
d="M85 -123q0 18 18 18h95q39 0 66.5 3.5t45.5 12.5t26.5 25t9.5 40l1 37q-5 -4 -14.5 -6.5t-20.5 -4t-21.5 -2t-17.5 -0.5q-103 0 -163 57.5t-60 169.5v17q0 126 72.5 192.5t210.5 66.5q19 0 42 -1.5t44 -3.5t39 -5t28 -7q11 -5 14.5 -8.5t3.5 -11.5v-458q0 -80 -23.5 -129
t-62 -76t-87.5 -36t-100 -9h-27t-39.5 1t-39 2t-25.5 3q-9 2 -12 7t-3 13v93zM350 362q-11 1 -22.5 1.5t-23.5 0.5q-52 0 -78.5 -29t-26.5 -79v-9q0 -49 20.5 -73t69.5 -24q61 0 61 26v186zM196 594q-6 0 -10.5 3t-4.5 9v37q0 5 4.5 7t10.5 2h20q-8 13 -11.5 27.5t-3.5 29.5
q0 86 102 86q9 0 24.5 -1t29.5 -5q10 -2 10 -10v-34q0 -10 -13 -10h-37q-24 0 -35.5 -8t-11.5 -29q0 -16 5 -27.5t14 -16.5h73q15 0 15 -10v-38q0 -12 -15 -12h-166z" />
    <glyph glyph-name="uniFE86" unicode="&#x624;" horiz-adv-x="591" arabic-form="final" 
d="M85 -123q0 18 18 18h95q39 0 66.5 3.5t45.5 12.5t26.5 25t10.5 40v24h-54q-115 0 -179 57.5t-64 169.5v17q0 126 72.5 192.5t210.5 66.5q19 0 42 -1.5t44 -3.5t39 -5t28 -7q10 -5 14 -8.5t4 -11.5v-311h87v-155h-90v-31q-6 -65 -30 -106.5t-60.5 -64.5t-83 -31.5
t-96.5 -8.5h-27t-39.5 1t-39 2t-25.5 3q-9 2 -12 7t-3 13v93zM199 247q0 -49 20.5 -73t69.5 -24h61v212q-11 1 -23 1.5t-23 0.5q-51 0 -78 -29t-27 -79v-9zM196 594q-6 0 -10.5 3t-4.5 9v37q0 5 4.5 7t10.5 2h20q-8 13 -11.5 27.5t-3.5 29.5q0 86 102 86q9 0 24.5 -1
t29.5 -5q10 -2 10 -10v-34q0 -10 -13 -10h-37q-24 0 -35.5 -8t-11.5 -29q0 -16 5 -27.5t14 -16.5h73q15 0 15 -10v-38q0 -12 -15 -12h-166z" />
    <glyph glyph-name="uniFE87" unicode="&#x625;" horiz-adv-x="306" arabic-form="isolated" 
d="M75 746q0 9 5.5 15t15.5 6h114q9 0 15 -6t6 -15v-725q0 -8 -6 -14.5t-15 -6.5h-114q-10 0 -15.5 6.5t-5.5 14.5v725zM61 -261q-6 0 -10.5 3t-4.5 9v37q0 5 4.5 7t10.5 2h20q-8 13 -11.5 27.5t-3.5 29.5q0 86 102 86q9 0 24.5 -1t29.5 -5q10 -2 10 -10v-34q0 -10 -13 -10
h-37q-24 0 -35.5 -8t-11.5 -29q0 -16 5 -27.5t14 -16.5h73q15 0 15 -10v-38q0 -12 -15 -12h-166z" />
    <glyph glyph-name="uniFE88" unicode="&#x625;" horiz-adv-x="318" arabic-form="final" 
d="M77 -261q-6 0 -10.5 3t-4.5 9v37q0 5 4.5 7t10.5 2h20q-8 13 -11.5 27.5t-3.5 29.5q0 86 102 86q9 0 24.5 -1t29.5 -5q10 -2 10 -10v-34q0 -10 -13 -10h-37q-24 0 -35.5 -8t-11.5 -29q0 -16 5 -27.5t14 -16.5h73q15 0 15 -10v-38q0 -12 -15 -12h-166zM75 746q0 9 6 15
t15 6h114q10 0 15.5 -6t5.5 -15v-546q0 -29 12 -37t38 -8h37v-155h-83q-36 0 -65.5 5.5t-50.5 21.5t-32.5 45.5t-11.5 77.5v596z" />
    <glyph glyph-name="uniFE89" unicode="&#x626;" horiz-adv-x="986" arabic-form="isolated" 
d="M180 312q18 0 18 -18q-2 -21 -3.5 -40.5t-1.5 -33.5q0 -57 6 -103.5t25.5 -79t57.5 -50t101 -17.5q26 0 43.5 1t37.5 4q2 46 2.5 79.5t0.5 73.5v78q0 121 71.5 177.5t211.5 56.5q19 0 40.5 -1t42 -3t38.5 -4t30 -5q8 -2 13 -6t5 -14v-386q0 -9 -5.5 -15t-15.5 -6h-113
q-8 0 -14 6t-6 15v275q-16 2 -23.5 2.5t-18.5 0.5q-53 0 -77.5 -24t-24.5 -84v-155q0 -42 -1 -90.5t-3 -87.5q0 -20 -22 -23q-48 -8 -103 -12t-112 -4q-87 0 -150.5 19.5t-104 60.5t-60 104t-19.5 150q0 12 1 28.5t3 35.5t4.5 38t6.5 37q2 10 6 15t15 5h98zM52 406
q-6 0 -10.5 3t-4.5 9v37q0 5 4.5 7t10.5 2h20q-8 13 -11.5 27.5t-3.5 29.5q0 86 102 86q9 0 24.5 -1t29.5 -5q10 -2 10 -10v-34q0 -10 -13 -10h-37q-24 0 -35.5 -8t-11.5 -29q0 -16 5 -27.5t14 -16.5h73q15 0 15 -10v-38q0 -12 -15 -12h-166z" />
    <glyph glyph-name="uniFE8A" unicode="&#x626;" horiz-adv-x="1002" arabic-form="final" 
d="M52 406q-6 0 -10.5 3t-4.5 9v37q0 5 4.5 7t10.5 2h20q-8 13 -11.5 27.5t-3.5 29.5q0 86 102 86q9 0 24.5 -1t29.5 -5q10 -2 10 -10v-34q0 -10 -13 -10h-37q-24 0 -35.5 -8t-11.5 -29q0 -16 5 -27.5t14 -16.5h73q15 0 15 -10v-38q0 -12 -15 -12h-166zM180 312q18 0 18 -18
q-2 -21 -3.5 -40.5t-1.5 -33.5q0 -57 6 -103.5t25.5 -79t57.5 -50t101 -17.5q26 0 43.5 1t37.5 4q2 46 2.5 79.5t0.5 73.5v75q0 120 71.5 178.5t211.5 58.5q39 0 80 -4t66 -9q8 -2 13 -6t5 -14v-218q0 -21 9 -27.5t33 -6.5h46v-155h-87q-36 0 -64.5 5t-49 20t-31 42.5
t-10.5 72.5v156q-12 2 -19 2.5t-18 0.5q-53 0 -77.5 -24t-24.5 -84v-155q0 -42 -1 -90.5t-3 -87.5q0 -20 -25 -23q-48 -8 -101.5 -12t-110.5 -4q-87 0 -150.5 19.5t-104 60.5t-60 104t-19.5 150q0 12 1 28.5t3 35t4.5 38t6.5 37.5q2 10 6 15t15 5h98z" />
    <glyph glyph-name="uniFE8B" unicode="&#x626;" horiz-adv-x="309" arabic-form="initial" 
d="M-40 144q0 5 11.5 8t20.5 3h58q22 0 29.5 4t7.5 27v112t-2 133q0 8 5.5 13.5t14.5 5.5h110q11 0 16.5 -5.5t6.5 -13.5q1 -31 1.5 -56.5t1 -48t0.5 -45v-47.5q0 -74 -1 -119.5t-4 -74.5q-2 -10 -6.5 -17t-16.5 -11q-12 -3 -33.5 -5.5t-47 -4t-52.5 -2t-49 -0.5h-39
q-9 0 -20.5 3t-11.5 8v133zM73 546q-6 0 -10.5 3t-4.5 9v37q0 5 4.5 7t10.5 2h20q-8 13 -11.5 27.5t-3.5 29.5q0 86 102 86q9 0 24.5 -1t29.5 -5q10 -2 10 -10v-34q0 -10 -13 -10h-37q-24 0 -35.5 -8t-11.5 -29q0 -16 5 -27.5t14 -16.5h73q15 0 15 -10v-38q0 -12 -15 -12
h-166z" />
    <glyph glyph-name="uniFE8C" unicode="&#x626;" horiz-adv-x="329" arabic-form="medial" 
d="M-40 144q0 5 11.5 8t20.5 3h47q8 0 17 1t16 4t11.5 9.5t4.5 17.5v240q0 8 5.5 13.5t15.5 5.5h113q8 0 14 -5.5t6 -13.5v-259q3 -4 10 -6.5t15.5 -4t16.5 -2t14 -0.5h31v-155h-13q-42 0 -83.5 6.5t-69.5 27.5q-14 -10 -32.5 -16.5t-38 -10.5t-39 -5.5t-37.5 -1.5h-24
q-9 0 -20.5 3t-11.5 8v133zM75 546q-6 0 -10.5 3t-4.5 9v37q0 5 4.5 7t10.5 2h20q-8 13 -11.5 27.5t-3.5 29.5q0 86 102 86q9 0 24.5 -1t29.5 -5q10 -2 10 -10v-34q0 -10 -13 -10h-37q-24 0 -35.5 -8t-11.5 -29q0 -16 5 -27.5t14 -16.5h73q15 0 15 -10v-38q0 -12 -15 -12
h-166z" />
    <glyph glyph-name="uniFE8D" unicode="&#x627;" horiz-adv-x="306" arabic-form="isolated" 
d="M75 746q0 9 5.5 15t15.5 6h114q9 0 15 -6t6 -15v-725q0 -8 -6 -14.5t-15 -6.5h-114q-10 0 -15.5 6.5t-5.5 14.5v725z" />
    <glyph glyph-name="uniFE8E" unicode="&#x627;" horiz-adv-x="318" arabic-form="final" 
d="M75 746q0 9 6 15t15 6h114q10 0 15.5 -6t5.5 -15v-546q0 -29 12 -37t38 -8h37v-155h-83q-36 0 -65.5 5.5t-50.5 21.5t-32.5 45.5t-11.5 77.5v596z" />
    <glyph glyph-name="uniFE8F" unicode="&#x628;" horiz-adv-x="948" arabic-form="isolated" 
d="M399 -107q0 10 7.5 16.5t16.5 6.5h99q10 0 17.5 -6.5t7.5 -16.5v-96q0 -8 -7.5 -14.5t-17.5 -6.5h-99q-9 0 -16.5 6.5t-7.5 14.5v96zM690 155q21 0 28.5 4t7.5 27q0 48 0.5 110.5t-0.5 130.5q0 8 5.5 13.5t14.5 5.5h108q23 0 23 -19q1 -31 1.5 -55.5t1 -47t0.5 -44v-46.5
q0 -74 -1 -119.5t-4 -74.5q-2 -10 -6.5 -17t-16.5 -11q-12 -3 -43 -5.5t-68.5 -4t-75.5 -2t-66 -0.5h-211q-102 0 -169 19t-106 55.5t-54.5 89t-15.5 119.5q0 27 2.5 54t8.5 59q2 10 6.5 15t15.5 5h98q8 0 13.5 -5t4.5 -14q0 -20 -1.5 -38t-1.5 -32q0 -45 9 -77.5
t32.5 -53.5t64 -31t103.5 -10h292z" />
    <glyph glyph-name="uniFE90" unicode="&#x628;" horiz-adv-x="970" arabic-form="final" 
d="M399 -107q0 10 7.5 16.5t16.5 6.5h99q10 0 17.5 -6.5t7.5 -16.5v-96q0 -8 -7.5 -14.5t-17.5 -6.5h-99q-9 0 -16.5 6.5t-7.5 14.5v96zM679 155q9 0 17.5 1t15.5 4t11.5 9.5t4.5 17.5v240q0 8 6.5 13.5t14.5 5.5h113q8 0 14 -5.5t6 -13.5v-259q6 -8 24 -10.5t30 -2.5h34
v-155h-8q-16 0 -36 1t-40.5 4.5t-40.5 10t-35 18.5q-34 -23 -86 -28.5t-125 -5.5h-211q-102 0 -169 19t-106 55.5t-54.5 89t-15.5 119.5q0 27 2.5 54t8.5 59q2 10 6.5 15t15.5 5h98q8 0 13.5 -5t4.5 -14q0 -20 -1.5 -38t-1.5 -32q0 -45 9 -77.5t32.5 -53.5t64 -31t103.5 -10
h281z" />
    <glyph glyph-name="uniFE91" unicode="&#x628;" horiz-adv-x="309" arabic-form="initial" 
d="M17 -107q0 10 7.5 16.5t16.5 6.5h99q10 0 17.5 -6.5t7.5 -16.5v-96q0 -8 -7.5 -14.5t-17.5 -6.5h-99q-9 0 -16.5 6.5t-7.5 14.5v96zM-40 144q0 5 11.5 8t20.5 3h58q22 0 29.5 4t7.5 27v112t-2 133q0 8 5.5 13.5t14.5 5.5h110q11 0 16.5 -5.5t6.5 -13.5q1 -31 1.5 -56.5
t1 -48t0.5 -45v-47.5q0 -74 -1 -119.5t-4 -74.5q-2 -10 -6.5 -17t-16.5 -11q-12 -3 -33.5 -5.5t-47 -4t-52.5 -2t-49 -0.5h-39q-9 0 -20.5 3t-11.5 8v133z" />
    <glyph glyph-name="uniFE92" unicode="&#x628;" horiz-adv-x="329" arabic-form="medial" 
d="M-40 144q0 5 11.5 8t20.5 3h47q8 0 17 1t16 4t11.5 9.5t4.5 17.5v240q0 8 5.5 13.5t15.5 5.5h113q8 0 14 -5.5t6 -13.5v-259q3 -4 10 -6.5t15.5 -4t16.5 -2t14 -0.5h31v-155h-13q-42 0 -83.5 6.5t-69.5 27.5q-14 -10 -32.5 -16.5t-38 -10.5t-39 -5.5t-37.5 -1.5h-24
q-9 0 -20.5 3t-11.5 8v133zM86 -107q0 10 7.5 16.5t16.5 6.5h99q10 0 17.5 -6.5t7.5 -16.5v-96q0 -8 -7.5 -14.5t-17.5 -6.5h-99q-9 0 -16.5 6.5t-7.5 14.5v96z" />
    <glyph glyph-name="uniFE93" unicode="&#x629;" horiz-adv-x="571" arabic-form="isolated" 
d="M116 710q0 10 7 16.5t17 6.5h87q10 0 17.5 -6.5t7.5 -16.5v-95q0 -9 -8 -15.5t-17 -6.5h-87q-10 0 -17 6.5t-7 15.5v95zM319 710q0 10 8 16.5t17 6.5h87q10 0 17 -6.5t7 -16.5v-95q0 -9 -7 -15.5t-17 -6.5h-87q-9 0 -17 6.5t-8 15.5v95zM50 244q0 126 70.5 192.5
t210.5 66.5q19 0 42 -1.5t44.5 -3.5t39.5 -5t28 -7q11 -5 14.5 -8.5t3.5 -11.5v-281q0 -38 -1.5 -83t-5.5 -74q-2 -11 -7 -14.5t-15 -5.5q-41 -5 -79.5 -6.5t-74.5 -1.5h-11q-127 0 -193 57.5t-66 169.5v17zM199 249q0 -49 23 -74t79 -25h22t26 1v211q-8 1 -19.5 1.5
t-25.5 0.5q-54 0 -79.5 -29t-25.5 -77v-9z" />
    <glyph glyph-name="uniFE94" unicode="&#x629;" horiz-adv-x="591" arabic-form="final" 
d="M48 250q0 126 74 193t214 67q19 0 41 -1t42.5 -3.5t37.5 -5.5t28 -6q11 -4 14.5 -8t3.5 -12v-272q0 -29 12.5 -38t41.5 -9h34v-155h-54q-43 0 -81.5 11t-62.5 43q-26 -15 -57.5 -22.5t-61.5 -7.5h-10q-45 0 -84.5 12t-69 37t-46 64.5t-16.5 95.5v17zM196 257
q0 -49 20.5 -68.5t60.5 -19.5h12q27 0 43.5 9t16.5 32v161q-9 2 -18 2h-20q-54 0 -84.5 -26.5t-30.5 -76.5v-13zM116 710q0 10 7 16.5t17 6.5h87q10 0 17.5 -6.5t7.5 -16.5v-95q0 -9 -8 -15.5t-17 -6.5h-87q-10 0 -17 6.5t-7 15.5v95zM319 710q0 10 8 16.5t17 6.5h87
q10 0 17 -6.5t7 -16.5v-95q0 -9 -7 -15.5t-17 -6.5h-87q-9 0 -17 6.5t-8 15.5v95z" />
    <glyph glyph-name="uniFE95" unicode="&#x62a;" horiz-adv-x="948" arabic-form="isolated" 
d="M298 614q0 10 7 16.5t17 6.5h87q10 0 17.5 -6.5t7.5 -16.5v-95q0 -9 -8 -15.5t-17 -6.5h-87q-10 0 -17 6.5t-7 15.5v95zM501 614q0 10 8 16.5t17 6.5h87q10 0 17 -6.5t7 -16.5v-95q0 -9 -7 -15.5t-17 -6.5h-87q-9 0 -17 6.5t-8 15.5v95zM690 155q21 0 28.5 4t7.5 27
q0 48 0.5 110.5t-0.5 130.5q0 8 5.5 13.5t14.5 5.5h108q23 0 23 -19q1 -31 1.5 -55.5t1 -47t0.5 -44v-46.5q0 -74 -1 -119.5t-4 -74.5q-2 -10 -6.5 -17t-16.5 -11q-12 -3 -43 -5.5t-68.5 -4t-75.5 -2t-66 -0.5h-211q-102 0 -169 19t-106 55.5t-54.5 89t-15.5 119.5
q0 27 2.5 54t8.5 59q2 10 6.5 15t15.5 5h98q8 0 13.5 -5t4.5 -14q0 -20 -1.5 -38t-1.5 -32q0 -45 9 -77.5t32.5 -53.5t64 -31t103.5 -10h292z" />
    <glyph glyph-name="uniFE96" unicode="&#x62a;" horiz-adv-x="970" arabic-form="final" 
d="M297 614q0 10 7 16.5t17 6.5h87q10 0 17.5 -6.5t7.5 -16.5v-95q0 -9 -8 -15.5t-17 -6.5h-87q-10 0 -17 6.5t-7 15.5v95zM500 614q0 10 8 16.5t17 6.5h87q10 0 17 -6.5t7 -16.5v-95q0 -9 -7 -15.5t-17 -6.5h-87q-9 0 -17 6.5t-8 15.5v95zM679 155q9 0 17.5 1t15.5 4
t11.5 9.5t4.5 17.5v240q0 8 6.5 13.5t14.5 5.5h113q8 0 14 -5.5t6 -13.5v-259q6 -8 24 -10.5t30 -2.5h34v-155h-8q-16 0 -36 1t-40.5 4.5t-40.5 10t-35 18.5q-34 -23 -86 -28.5t-125 -5.5h-211q-102 0 -169 19t-106 55.5t-54.5 89t-15.5 119.5q0 27 2.5 54t8.5 59
q2 10 6.5 15t15.5 5h98q8 0 13.5 -5t4.5 -14q0 -20 -1.5 -38t-1.5 -32q0 -45 9 -77.5t32.5 -53.5t64 -31t103.5 -10h281z" />
    <glyph glyph-name="uniFE97" unicode="&#x62a;" horiz-adv-x="309" arabic-form="initial" 
d="M-8 663q0 10 7 16.5t17 6.5h87q10 0 17.5 -6.5t7.5 -16.5v-95q0 -9 -8 -15.5t-17 -6.5h-87q-10 0 -17 6.5t-7 15.5v95zM195 663q0 10 8 16.5t17 6.5h87q10 0 17 -6.5t7 -16.5v-95q0 -9 -7 -15.5t-17 -6.5h-87q-9 0 -17 6.5t-8 15.5v95zM-40 144q0 5 11.5 8t20.5 3h58
q22 0 29.5 4t7.5 27v112t-2 133q0 8 5.5 13.5t14.5 5.5h110q11 0 16.5 -5.5t6.5 -13.5q1 -31 1.5 -56.5t1 -48t0.5 -45v-47.5q0 -74 -1 -119.5t-4 -74.5q-2 -10 -6.5 -17t-16.5 -11q-12 -3 -33.5 -5.5t-47 -4t-52.5 -2t-49 -0.5h-39q-9 0 -20.5 3t-11.5 8v133z" />
    <glyph glyph-name="uniFE98" unicode="&#x62a;" horiz-adv-x="329" arabic-form="medial" 
d="M-40 144q0 5 11.5 8t20.5 3h47q8 0 17 1t16 4t11.5 9.5t4.5 17.5v240q0 8 5.5 13.5t15.5 5.5h113q8 0 14 -5.5t6 -13.5v-259q3 -4 10 -6.5t15.5 -4t16.5 -2t14 -0.5h31v-155h-13q-42 0 -83.5 6.5t-69.5 27.5q-14 -10 -32.5 -16.5t-38 -10.5t-39 -5.5t-37.5 -1.5h-24
q-9 0 -20.5 3t-11.5 8v133zM-5 663q0 10 7 16.5t17 6.5h87q10 0 17.5 -6.5t7.5 -16.5v-95q0 -9 -8 -15.5t-17 -6.5h-87q-10 0 -17 6.5t-7 15.5v95zM198 663q0 10 8 16.5t17 6.5h87q10 0 17 -6.5t7 -16.5v-95q0 -9 -7 -15.5t-17 -6.5h-87q-9 0 -17 6.5t-8 15.5v95z" />
    <glyph glyph-name="uniFE99" unicode="&#x62b;" horiz-adv-x="948" arabic-form="isolated" 
d="M297 605q0 10 7 16.5t17 6.5h87q10 0 17.5 -6.5t7.5 -16.5v-87q0 -8 -8 -14.5t-17 -6.5h-87q-10 0 -17 6.5t-7 14.5v87zM500 605q0 10 8 16.5t17 6.5h87q10 0 17 -6.5t7 -16.5v-87q0 -8 -7 -14.5t-17 -6.5h-87q-9 0 -17 6.5t-8 14.5v87zM403 760q0 9 7.5 15.5t15.5 6.5
h85q10 0 17 -6.5t7 -15.5v-71q0 -10 -7.5 -15.5t-17.5 -5.5h-85q-8 0 -15 5.5t-7 15.5v71zM690 155q21 0 28.5 4t7.5 27q0 48 0.5 110.5t-0.5 130.5q0 8 5.5 13.5t14.5 5.5h108q23 0 23 -19q1 -31 1.5 -55.5t1 -47t0.5 -44v-46.5q0 -74 -1 -119.5t-4 -74.5q-2 -10 -6.5 -17
t-16.5 -11q-12 -3 -43 -5.5t-68.5 -4t-75.5 -2t-66 -0.5h-211q-102 0 -169 19t-106 55.5t-54.5 89t-15.5 119.5q0 27 2.5 54t8.5 59q2 10 6.5 15t15.5 5h98q8 0 13.5 -5t4.5 -14q0 -20 -1.5 -38t-1.5 -32q0 -45 9 -77.5t32.5 -53.5t64 -31t103.5 -10h292z" />
    <glyph glyph-name="uniFE9A" unicode="&#x62b;" horiz-adv-x="970" arabic-form="final" 
d="M297 605q0 10 7 16.5t17 6.5h87q10 0 17.5 -6.5t7.5 -16.5v-87q0 -8 -8 -14.5t-17 -6.5h-87q-10 0 -17 6.5t-7 14.5v87zM500 605q0 10 8 16.5t17 6.5h87q10 0 17 -6.5t7 -16.5v-87q0 -8 -7 -14.5t-17 -6.5h-87q-9 0 -17 6.5t-8 14.5v87zM403 760q0 9 7.5 15.5t15.5 6.5
h85q10 0 17 -6.5t7 -15.5v-71q0 -10 -7.5 -15.5t-17.5 -5.5h-85q-8 0 -15 5.5t-7 15.5v71zM679 155q9 0 17.5 1t15.5 4t11.5 9.5t4.5 17.5v240q0 8 6.5 13.5t14.5 5.5h113q8 0 14 -5.5t6 -13.5v-259q6 -8 24 -10.5t30 -2.5h34v-155h-8q-16 0 -36 1t-40.5 4.5t-40.5 10
t-35 18.5q-34 -23 -86 -28.5t-125 -5.5h-211q-102 0 -169 19t-106 55.5t-54.5 89t-15.5 119.5q0 27 2.5 54t8.5 59q2 10 6.5 15t15.5 5h98q8 0 13.5 -5t4.5 -14q0 -20 -1.5 -38t-1.5 -32q0 -45 9 -77.5t32.5 -53.5t64 -31t103.5 -10h281z" />
    <glyph glyph-name="uniFE9B" unicode="&#x62b;" horiz-adv-x="309" arabic-form="initial" 
d="M-8 654q0 10 7 16.5t17 6.5h87q10 0 17.5 -6.5t7.5 -16.5v-87q0 -8 -8 -14.5t-17 -6.5h-87q-10 0 -17 6.5t-7 14.5v87zM195 654q0 10 8 16.5t17 6.5h87q10 0 17 -6.5t7 -16.5v-87q0 -8 -7 -14.5t-17 -6.5h-87q-9 0 -17 6.5t-8 14.5v87zM98 809q0 9 7.5 15.5t15.5 6.5h85
q10 0 17 -6.5t7 -15.5v-71q0 -10 -7.5 -15.5t-17.5 -5.5h-85q-8 0 -15 5.5t-7 15.5v71zM-40 144q0 5 11.5 8t20.5 3h58q22 0 29.5 4t7.5 27v112t-2 133q0 8 5.5 13.5t14.5 5.5h110q11 0 16.5 -5.5t6.5 -13.5q1 -31 1.5 -56.5t1 -48t0.5 -45v-47.5q0 -74 -1 -119.5t-4 -74.5
q-2 -10 -6.5 -17t-16.5 -11q-12 -3 -33.5 -5.5t-47 -4t-52.5 -2t-49 -0.5h-39q-9 0 -20.5 3t-11.5 8v133z" />
    <glyph glyph-name="uniFE9C" unicode="&#x62b;" horiz-adv-x="329" arabic-form="medial" 
d="M-40 144q0 5 11.5 8t20.5 3h47q8 0 17 1t16 4t11.5 9.5t4.5 17.5v240q0 8 5.5 13.5t15.5 5.5h113q8 0 14 -5.5t6 -13.5v-259q3 -4 10 -6.5t15.5 -4t16.5 -2t14 -0.5h31v-155h-13q-42 0 -83.5 6.5t-69.5 27.5q-14 -10 -32.5 -16.5t-38 -10.5t-39 -5.5t-37.5 -1.5h-24
q-9 0 -20.5 3t-11.5 8v133zM-7 654q0 10 7 16.5t17 6.5h87q10 0 17.5 -6.5t7.5 -16.5v-87q0 -8 -8 -14.5t-17 -6.5h-87q-10 0 -17 6.5t-7 14.5v87zM196 654q0 10 8 16.5t17 6.5h87q10 0 17 -6.5t7 -16.5v-87q0 -8 -7 -14.5t-17 -6.5h-87q-9 0 -17 6.5t-8 14.5v87zM99 809
q0 9 7.5 15.5t15.5 6.5h85q10 0 17 -6.5t7 -15.5v-71q0 -10 -7.5 -15.5t-17.5 -5.5h-85q-8 0 -15 5.5t-7 15.5v71z" />
    <glyph glyph-name="uniFE9D" unicode="&#x62c;" horiz-adv-x="635" arabic-form="isolated" 
d="M50 0q0 32 3 68.5t7 58.5q4 21 24 22q6 0 19 0.5t29 1t32 0.5h27h224l-25 52l-17 33q-14 28 -33.5 51.5t-46.5 40.5t-63 27t-84 10q-5 0 -19 -0.5t-22 -0.5q-21 0 -21 18v93q0 16 21 20q28 5 49.5 7t50.5 2q55 0 101.5 -12t87.5 -40t76.5 -74.5t68.5 -114.5l13 -27
q8 -17 19 -43.5t18 -43.5q6 -14 6 -37v-90q0 -22 -24 -22h-297h-33.5t-35.5 -1q-1 -8 -1 -12.5v-8.5q2 -51 17 -76t52 -31l6 -1q16 -3 16 -18v-90q0 -23 -22 -23h-4q-49 0 -89 15.5t-69 47.5t-45 81t-16 117zM348 -81q0 10 7.5 16.5t16.5 6.5h84q10 0 17.5 -6.5t7.5 -16.5
v-89q0 -9 -7.5 -15.5t-17.5 -6.5h-84q-9 0 -16.5 6.5t-7.5 15.5v89z" />
    <glyph glyph-name="uniFE9E" unicode="&#x62c;" horiz-adv-x="631" arabic-form="final" 
d="M50 0q0 32 3 68.5t7 58.5q4 21 23 22q6 0 19.5 0.5t29.5 1t32 0.5h27h233l-24 50l-17 35q-14 28 -34 51.5t-48.5 40.5t-66 27t-85.5 10h-8.5t-12.5 -0.5t-13 -0.5h-10q-12 0 -16.5 4t-4.5 14v93q0 16 21 20q28 5 49.5 7t50.5 2q58 0 107.5 -12.5t91.5 -41t78 -74.5
t67 -113l14 -30q3 -6 7 -15t8.5 -18.5t8.5 -17.5t7 -12q5 -9 10.5 -12t15.5 -3h11v-155h-357h-34t-35 -1q-1 -8 -1 -12.5v-8.5q2 -51 17 -76t52 -31l6 -1q16 -3 16 -18v-90q0 -23 -22 -23h-4q-49 0 -89 15.5t-69 47.5t-45 81t-16 117zM348 -81q0 10 7.5 16.5t16.5 6.5h84
q10 0 17.5 -6.5t7.5 -16.5v-89q0 -9 -7.5 -15.5t-17.5 -6.5h-84q-9 0 -16.5 6.5t-7.5 15.5v89z" />
    <glyph glyph-name="uniFE9F" unicode="&#x62c;" horiz-adv-x="616" arabic-form="initial" 
d="M186 -107q0 10 7.5 16.5t16.5 6.5h99q10 0 17.5 -6.5t7.5 -16.5v-96q0 -8 -7.5 -14.5t-17.5 -6.5h-99q-9 0 -16.5 6.5t-7.5 14.5v96zM-40 144q0 5 11 8t21 3h402l-22 46l-17 35q-14 28 -34 51.5t-48.5 40.5t-66 27t-85.5 10h-8.5t-12.5 -0.5t-13 -0.5h-10q-21 0 -21 17
v95q0 15 21 19q28 5 50 7t50 2q58 0 107 -12.5t91 -41t78 -74.5t67 -113l14 -30q3 -6 7.5 -16.5t9.5 -23t10.5 -24.5t8.5 -20q6 -14 6 -37v-90q0 -22 -24 -22h-560q-10 0 -21 3.5t-11 7.5v133z" />
    <glyph glyph-name="uniFEA0" unicode="&#x62c;" horiz-adv-x="603" arabic-form="medial" 
d="M-8 0q-10 0 -21 3.5t-11 7.5v133q0 5 11.5 8t20.5 3h402l-22 46l-17 35q-14 28 -34 51.5t-48.5 41t-66 27t-85.5 9.5h-8.5t-12.5 -0.5t-13 -0.5h-10q-21 0 -21 17v95q0 15 21 19q28 5 49.5 7t50.5 2q58 0 107.5 -12.5t91.5 -41t78 -74.5t67 -113l14 -30q8 -16 17 -35.5
t14 -27.5q6 -8 11 -11.5t15 -3.5h11v-155h-611zM186 -107q0 10 7.5 16.5t16.5 6.5h99q10 0 17.5 -6.5t7.5 -16.5v-96q0 -8 -7.5 -14.5t-17.5 -6.5h-99q-9 0 -16.5 6.5t-7.5 14.5v96z" />
    <glyph glyph-name="uniFEA1" unicode="&#x62d;" horiz-adv-x="635" arabic-form="isolated" 
d="M50 0q0 32 3 68.5t7 58.5q4 21 24 22q6 0 19 0.5t29 1t32 0.5h27h224l-25 52l-17 33q-14 28 -33.5 51.5t-46.5 40.5t-63 27t-84 10q-5 0 -19 -0.5t-22 -0.5q-21 0 -21 18v93q0 16 21 20q28 5 49.5 7t50.5 2q55 0 101.5 -12t87.5 -40t76.5 -74.5t68.5 -114.5l13 -27
q8 -17 19 -43.5t18 -43.5q6 -14 6 -37v-90q0 -22 -24 -22h-297h-33.5t-35.5 -1q0 -5 0.5 -13.5t0.5 -12.5q5 -103 104 -103h8.5t11.5 -1q15 -1 15 -19v-88q0 -22 -22 -22q-3 -1 -12 -1h-12q-119 0 -184 62.5t-65 198.5z" />
    <glyph glyph-name="uniFEA2" unicode="&#x62d;" horiz-adv-x="631" arabic-form="final" 
d="M50 0q0 32 3 68.5t7 58.5q4 21 23 22q6 0 19.5 0.5t29.5 1t32 0.5h27h233l-24 50l-17 35q-14 28 -34 51.5t-48.5 40.5t-66 27t-85.5 10h-8.5t-12.5 -0.5t-13 -0.5h-10q-12 0 -16.5 4t-4.5 14v93q0 16 21 20q28 5 49.5 7t50.5 2q58 0 107.5 -12.5t91.5 -41t78 -74.5
t67 -113l14 -30q3 -6 7 -15t8.5 -18.5t8.5 -17.5t7 -12q5 -9 10.5 -12t15.5 -3h11v-155h-357h-34t-35 -1q0 -5 0.5 -13.5t0.5 -12.5q5 -103 104 -103h8.5t11.5 -1q15 -1 15 -19v-88q0 -22 -21 -22q-4 -1 -13.5 -1h-12.5q-118 0 -183 62.5t-65 198.5z" />
    <glyph glyph-name="uniFEA3" unicode="&#x62d;" horiz-adv-x="616" arabic-form="initial" 
d="M-40 144q0 5 11 8t21 3h402l-22 46l-17 35q-14 28 -34 51.5t-48.5 40.5t-66 27t-85.5 10h-8.5t-12.5 -0.5t-13 -0.5h-10q-21 0 -21 17v95q0 15 21 19q28 5 50 7t50 2q58 0 107 -12.5t91 -41t78 -74.5t67 -113l14 -30q3 -6 7.5 -16.5t9.5 -23t10.5 -24.5t8.5 -20
q6 -14 6 -37v-90q0 -22 -24 -22h-560q-10 0 -21 3.5t-11 7.5v133z" />
    <glyph glyph-name="uniFEA4" unicode="&#x62d;" horiz-adv-x="603" arabic-form="medial" 
d="M-8 0q-10 0 -21 3.5t-11 7.5v133q0 5 11.5 8t20.5 3h402l-22 46l-17 35q-14 28 -34 51.5t-48.5 41t-66 27t-85.5 9.5h-8.5t-12.5 -0.5t-13 -0.5h-10q-21 0 -21 17v95q0 15 21 19q28 5 49.5 7t50.5 2q58 0 107.5 -12.5t91.5 -41t78 -74.5t67 -113l14 -30q8 -16 17 -35.5
t14 -27.5q6 -8 11 -11.5t15 -3.5h11v-155h-611z" />
    <glyph glyph-name="uniFEA5" unicode="&#x62e;" horiz-adv-x="635" arabic-form="isolated" 
d="M50 0q0 32 3 68.5t7 58.5q4 21 24 22q6 0 19 0.5t29 1t32 0.5h27h224l-25 52l-17 33q-14 28 -33.5 51.5t-46.5 40.5t-63 27t-84 10q-5 0 -19 -0.5t-22 -0.5q-21 0 -21 18v93q0 16 21 20q28 5 49.5 7t50.5 2q55 0 101.5 -12t87.5 -40t76.5 -74.5t68.5 -114.5l13 -27
q8 -17 19 -43.5t18 -43.5q6 -14 6 -37v-90q0 -22 -24 -22h-297h-33.5t-35.5 -1q0 -5 0.5 -13.5t0.5 -12.5q5 -103 104 -103h8.5t11.5 -1q15 -1 15 -19v-88q0 -22 -22 -22q-3 -1 -12 -1h-12q-119 0 -184 62.5t-65 198.5zM201 709q0 10 7 16.5t17 6.5h102q9 0 15.5 -6.5
t6.5 -16.5v-95q0 -9 -6.5 -15.5t-16.5 -6.5h-101q-11 0 -17.5 6.5t-6.5 15.5v95z" />
    <glyph glyph-name="uniFEA6" unicode="&#x62e;" horiz-adv-x="631" arabic-form="final" 
d="M203 709q0 10 7 16.5t17 6.5h102q9 0 15.5 -6.5t6.5 -16.5v-95q0 -9 -6.5 -15.5t-16.5 -6.5h-101q-11 0 -17.5 6.5t-6.5 15.5v95zM50 0q0 32 3 68.5t7 58.5q4 21 23 22q6 0 19.5 0.5t29.5 1t32 0.5h27h233l-24 50l-17 35q-14 28 -34 51.5t-48.5 40.5t-66 27t-85.5 10
h-8.5t-12.5 -0.5t-13 -0.5h-10q-12 0 -16.5 4t-4.5 14v93q0 16 21 20q28 5 49.5 7t50.5 2q58 0 107.5 -12.5t91.5 -41t78 -74.5t67 -113l14 -30q3 -6 7 -15t8.5 -18.5t8.5 -17.5t7 -12q5 -9 10.5 -12t15.5 -3h11v-155h-357h-34t-35 -1q0 -5 0.5 -13.5t0.5 -12.5
q5 -103 104 -103h8.5t11.5 -1q15 -1 15 -19v-88q0 -22 -21 -22q-4 -1 -13.5 -1h-12.5q-118 0 -183 62.5t-65 198.5z" />
    <glyph glyph-name="uniFEA7" unicode="&#x62e;" horiz-adv-x="616" arabic-form="initial" 
d="M177 709q0 10 7 16.5t17 6.5h102q9 0 15.5 -6.5t6.5 -16.5v-95q0 -9 -6.5 -15.5t-16.5 -6.5h-101q-11 0 -17.5 6.5t-6.5 15.5v95zM-40 144q0 5 11 8t21 3h402l-22 46l-17 35q-14 28 -34 51.5t-48.5 40.5t-66 27t-85.5 10h-8.5t-12.5 -0.5t-13 -0.5h-10q-21 0 -21 17v95
q0 15 21 19q28 5 50 7t50 2q58 0 107 -12.5t91 -41t78 -74.5t67 -113l14 -30q3 -6 7.5 -16.5t9.5 -23t10.5 -24.5t8.5 -20q6 -14 6 -37v-90q0 -22 -24 -22h-560q-10 0 -21 3.5t-11 7.5v133z" />
    <glyph glyph-name="uniFEA8" unicode="&#x62e;" horiz-adv-x="603" arabic-form="medial" 
d="M-8 0q-10 0 -21 3.5t-11 7.5v133q0 5 11.5 8t20.5 3h402l-22 46l-17 35q-14 28 -34 51.5t-48.5 41t-66 27t-85.5 9.5h-8.5t-12.5 -0.5t-13 -0.5h-10q-21 0 -21 17v95q0 15 21 19q28 5 49.5 7t50.5 2q58 0 107.5 -12.5t91.5 -41t78 -74.5t67 -113l14 -30q8 -16 17 -35.5
t14 -27.5q6 -8 11 -11.5t15 -3.5h11v-155h-611zM177 709q0 10 7 16.5t17 6.5h102q9 0 15.5 -6.5t6.5 -16.5v-95q0 -9 -6.5 -15.5t-16.5 -6.5h-101q-11 0 -17.5 6.5t-6.5 15.5v95z" />
    <glyph glyph-name="uniFEA9" unicode="&#x62f;" horiz-adv-x="521" arabic-form="isolated" 
d="M48 136q0 8 6 13.5t14 5.5h251l-2 71q-2 32 -10.5 58.5t-28 45t-51 29t-78.5 10.5h-11h-17t-17.5 -0.5t-13.5 -1.5q-18 0 -18 16v94q0 8 5 14.5t15 7.5q29 5 60 6.5t46 1.5q79 0 130 -24.5t81.5 -64.5t43.5 -90.5t16 -102.5q0 -10 0.5 -25t1 -32t0.5 -34.5v-32.5
q0 -14 -0.5 -38.5t-2.5 -43.5q0 -8 -6 -13.5t-17 -5.5h-377q-8 0 -14 5t-6 13v118z" />
    <glyph glyph-name="uniFEAA" unicode="&#x62f;" horiz-adv-x="530" arabic-form="final" 
d="M48 136q0 8 6 13.5t14 5.5h250l-2 71q-2 32 -10.5 58.5t-27 45t-49.5 29t-77 10.5h-11h-17.5t-19 -0.5t-14.5 -1.5q-18 0 -18 16v94q0 8 5 14.5t15 7.5q29 5 60 6.5t46 1.5q78 0 128.5 -24.5t81.5 -64t44 -90t16 -102.5l2 -71h60v-155h-462q-8 0 -14 5t-6 13v118z" />
    <glyph glyph-name="uniFEAB" unicode="&#x630;" horiz-adv-x="521" arabic-form="isolated" 
d="M48 136q0 8 6 13.5t14 5.5h251l-2 71q-2 32 -10.5 58.5t-28 45t-51 29t-78.5 10.5h-11h-17t-17.5 -0.5t-13.5 -1.5q-18 0 -18 16v94q0 8 5 14.5t15 7.5q29 5 60 6.5t46 1.5q79 0 130 -24.5t81.5 -64.5t43.5 -90.5t16 -102.5q0 -10 0.5 -25t1 -32t0.5 -34.5v-32.5
q0 -14 -0.5 -38.5t-2.5 -43.5q0 -8 -6 -13.5t-17 -5.5h-377q-8 0 -14 5t-6 13v118zM166 715q0 10 7 16.5t17 6.5h102q9 0 15.5 -6.5t6.5 -16.5v-95q0 -9 -6.5 -15.5t-16.5 -6.5h-101q-11 0 -17.5 6.5t-6.5 15.5v95z" />
    <glyph glyph-name="uniFEAC" unicode="&#x630;" horiz-adv-x="530" arabic-form="final" 
d="M166 715q0 10 7 16.5t17 6.5h102q9 0 15.5 -6.5t6.5 -16.5v-95q0 -9 -6.5 -15.5t-16.5 -6.5h-101q-11 0 -17.5 6.5t-6.5 15.5v95zM48 136q0 8 6 13.5t14 5.5h250l-2 71q-2 32 -10.5 58.5t-27 45t-49.5 29t-77 10.5h-11h-17.5t-19 -0.5t-14.5 -1.5q-18 0 -18 16v94
q0 8 5 14.5t15 7.5q29 5 60 6.5t46 1.5q78 0 128.5 -24.5t81.5 -64t44 -90t16 -102.5l2 -71h60v-155h-462q-8 0 -14 5t-6 13v118z" />
    <glyph glyph-name="uniFEAD" unicode="&#x631;" horiz-adv-x="318" arabic-form="isolated" 
d="M-38 -125q0 17 18 17h20q25 0 43.5 2t30 10.5t17 25t5.5 45.5v452q0 8 6 13.5t15 5.5h113q8 0 14 -5.5t6 -13.5v-432q0 -41 -4.5 -78.5t-20.5 -70.5q-25 -48 -68.5 -68t-108.5 -20h-14t-19.5 0.5t-21 1.5t-17.5 2q-14 3 -14 20v93z" />
    <glyph glyph-name="uniFEAE" unicode="&#x631;" horiz-adv-x="337" arabic-form="final" 
d="M-38 -125q0 17 18 17h20q25 0 43.5 2t30 10.5t17 25t5.5 45.5v452q0 8 6 13.5t15 5.5h113q8 0 14 -5.5t6 -13.5v-272h87v-155h-91v-36q0 -35 -5 -65t-16 -53q-25 -48 -68.5 -68t-108.5 -20h-14t-19.5 0.5t-21 1.5t-17.5 2q-14 3 -14 20v93z" />
    <glyph glyph-name="uniFEAF" unicode="&#x632;" horiz-adv-x="318" arabic-form="isolated" 
d="M-38 -125q0 17 18 17h20q25 0 43.5 2t30 10.5t17 25t5.5 45.5v452q0 8 6 13.5t15 5.5h113q8 0 14 -5.5t6 -13.5v-432q0 -41 -4.5 -78.5t-20.5 -70.5q-25 -48 -68.5 -68t-108.5 -20h-14t-19.5 0.5t-21 1.5t-17.5 2q-14 3 -14 20v93zM100 663q0 10 7 16.5t17 6.5h102
q9 0 15.5 -6.5t6.5 -16.5v-95q0 -9 -6.5 -15.5t-16.5 -6.5h-101q-11 0 -17.5 6.5t-6.5 15.5v95z" />
    <glyph glyph-name="uniFEB0" unicode="&#x632;" horiz-adv-x="337" arabic-form="final" 
d="M-38 -125q0 17 18 17h20q25 0 43.5 2t30 10.5t17 25t5.5 45.5v452q0 8 6 13.5t15 5.5h113q8 0 14 -5.5t6 -13.5v-272h87v-155h-91v-36q0 -35 -5 -65t-16 -53q-25 -48 -68.5 -68t-108.5 -20h-14t-19.5 0.5t-21 1.5t-17.5 2q-14 3 -14 20v93zM100 663q0 10 7 16.5t17 6.5
h102q9 0 15.5 -6.5t6.5 -16.5v-95q0 -9 -6.5 -15.5t-16.5 -6.5h-101q-11 0 -17.5 6.5t-6.5 15.5v95z" />
    <glyph glyph-name="uniFEB1" unicode="&#x633;" horiz-adv-x="1174" arabic-form="isolated" 
d="M175 312q8 0 13.5 -5t4.5 -13q-2 -21 -2.5 -43t-0.5 -36q0 -58 4.5 -103t22.5 -76t53 -47t96 -16q14 0 25.5 0.5t34.5 4.5q2 46 2 82.5v78.5v245q0 9 6.5 15t14.5 6h113q9 0 14.5 -6t5.5 -15v-221q7 -9 22.5 -11.5t26.5 -2.5h16q17 0 30.5 4.5t13.5 26.5v238
q0 8 6.5 13.5t14.5 5.5h111q8 0 14 -5.5t6 -13.5v-255q7 -9 23.5 -11.5t33.5 -2.5h14q22 0 30 4t8 27v57.5t-0.5 70.5t-1 75.5t-0.5 72.5q0 7 5.5 13t14.5 6h109q11 0 16.5 -5.5t5.5 -13.5q3 -65 4 -118t1 -104v-69q0 -30 -1 -61t-4 -61q-3 -20 -23 -28q-25 -7 -57 -10
t-64 -3h-10q-18 0 -40 1t-45.5 4t-45.5 9.5t-40 17.5q-26 -19 -62.5 -25.5t-74.5 -6.5h-16q-10 0 -20 1.5t-21 6.5q0 -38 -0.5 -75.5t-2.5 -67.5q-2 -21 -23 -24q-44 -11 -88 -17.5t-95 -6.5q-82 0 -144 17t-103 55.5t-62 99.5t-21 149q0 11 1 29.5t2.5 40t4 43t5.5 39.5
q2 10 6.5 15t15.5 5h97z" />
    <glyph glyph-name="uniFEB2" unicode="&#x633;" horiz-adv-x="1193" arabic-form="final" 
d="M175 312q8 0 13.5 -5t4.5 -13q-2 -21 -2.5 -43t-0.5 -36q0 -58 4.5 -103t22.5 -76t53 -47t96 -16q15 0 28 0.5t32 4.5q2 46 2 82.5v78.5v245q0 9 6.5 15t14.5 6h113q9 0 14.5 -6t5.5 -15v-221q7 -9 24.5 -11.5t28.5 -2.5h12q17 0 30.5 4.5t13.5 26.5v238q0 8 6.5 13.5
t14.5 5.5h111q9 0 14.5 -5.5t5.5 -13.5v-255q7 -9 21.5 -11.5t31.5 -2.5h6q18 0 33.5 4.5t15.5 26.5v274q0 9 6.5 15t14.5 6h113q8 0 14 -6t6 -15v-286q7 -8 25 -10.5t30 -2.5h33v-155h-15q-32 0 -72.5 7t-70.5 27q-24 -20 -55.5 -27t-69.5 -7h-10q-36 0 -67 7t-58 27
q-26 -19 -63 -25.5t-75 -6.5h-15q-8 0 -18.5 1.5t-21.5 6.5q0 -38 -0.5 -76t-2.5 -67q-1 -18 -23 -24q-40 -11 -86 -17.5t-97 -6.5q-83 0 -144.5 17t-103 55.5t-62 99.5t-20.5 149q0 11 1 29.5t2.5 40t4 43t5.5 39.5q2 10 6.5 15t15.5 5h97z" />
    <glyph glyph-name="uniFEB3" unicode="&#x633;" horiz-adv-x="811" arabic-form="initial" 
d="M-40 144q0 5 11.5 8t20.5 3h29q18 0 32.5 4.5t14.5 27.5v195q0 9 6.5 15t14.5 6h109q8 0 14 -6t6 -15v-219q7 -9 24 -11.5t29 -2.5h12q17 0 31.5 4.5t14.5 26.5v238q0 8 6.5 13.5t14.5 5.5h110q8 0 14.5 -5.5t6.5 -13.5v-255q6 -9 22.5 -11.5t31.5 -2.5h17q22 0 29.5 4
t7.5 27v57.5v70.5t-0.5 75.5t-1.5 72.5q0 7 5 13t15 6h110q11 0 16.5 -5.5t5.5 -13.5q3 -65 3.5 -118t0.5 -104v-69q0 -30 -0.5 -61t-3.5 -61q-2 -9 -6.5 -16t-16.5 -12q-46 -13 -123 -13h-10q-18 0 -38 1t-40.5 4.5t-40 9.5t-35.5 17q-25 -19 -59 -26.5t-68 -7.5h-10
q-42 0 -74 7t-61 27q-27 -20 -65.5 -27t-74.5 -7h-25q-9 0 -20.5 3t-11.5 8v133z" />
    <glyph glyph-name="uniFEB4" unicode="&#x633;" horiz-adv-x="831" arabic-form="medial" 
d="M-40 144q0 5 11.5 8t20.5 3h29q18 0 32.5 4.5t14.5 27.5v195q0 9 6.5 15t14.5 6h109q8 0 14 -6t6 -15v-219q7 -9 24 -11.5t29 -2.5h11q17 0 32 5t15 26v238q0 8 6.5 13.5t14.5 5.5h110q8 0 14.5 -5.5t6.5 -13.5v-255q6 -9 20.5 -11.5t30.5 -2.5h8q8 0 17 1t16 4t11.5 9
t4.5 17v274q0 9 6 15t15 6h113q8 0 14 -6t6 -15v-286q3 -4 11 -6.5t17 -4t18 -2t15 -0.5h27v-155h-10q-32 0 -73.5 7t-74.5 27q-28 -22 -61 -28t-69 -6h-9q-35 0 -64.5 7t-61.5 27q-26 -20 -56 -27t-69 -7h-10q-32 0 -61.5 6.5t-60.5 27.5q-14 -11 -31.5 -17.5t-35.5 -10.5
t-36 -5t-33 -1h-23q-9 0 -20.5 3t-11.5 8v133z" />
    <glyph glyph-name="uniFEB5" unicode="&#x634;" horiz-adv-x="1174" arabic-form="isolated" 
d="M175 312q8 0 13.5 -5t4.5 -13q-2 -21 -2.5 -43t-0.5 -36q0 -58 4.5 -103t22.5 -76t53 -47t96 -16q14 0 25.5 0.5t34.5 4.5q2 46 2 82.5v78.5v245q0 9 6.5 15t14.5 6h113q9 0 14.5 -6t5.5 -15v-221q7 -9 22.5 -11.5t26.5 -2.5h16q17 0 30.5 4.5t13.5 26.5v238
q0 8 6.5 13.5t14.5 5.5h111q8 0 14 -5.5t6 -13.5v-255q7 -9 23.5 -11.5t33.5 -2.5h14q22 0 30 4t8 27v57.5t-0.5 70.5t-1 75.5t-0.5 72.5q0 7 5.5 13t14.5 6h109q11 0 16.5 -5.5t5.5 -13.5q3 -65 4 -118t1 -104v-69q0 -30 -1 -61t-4 -61q-3 -20 -23 -28q-25 -7 -57 -10
t-64 -3h-10q-18 0 -40 1t-45.5 4t-45.5 9.5t-40 17.5q-26 -19 -62.5 -25.5t-74.5 -6.5h-16q-10 0 -20 1.5t-21 6.5q0 -38 -0.5 -75.5t-2.5 -67.5q-2 -21 -23 -24q-44 -11 -88 -17.5t-95 -6.5q-82 0 -144 17t-103 55.5t-62 99.5t-21 149q0 11 1 29.5t2.5 40t4 43t5.5 39.5
q2 10 6.5 15t15.5 5h97zM586 653q0 10 7 16.5t17 6.5h87q10 0 17.5 -6.5t7.5 -16.5v-87q0 -8 -8 -14.5t-17 -6.5h-87q-10 0 -17 6.5t-7 14.5v87zM789 653q0 10 8 16.5t17 6.5h87q10 0 17 -6.5t7 -16.5v-87q0 -8 -7 -14.5t-17 -6.5h-87q-9 0 -17 6.5t-8 14.5v87zM692 808
q0 9 7.5 15.5t15.5 6.5h85q10 0 17 -6.5t7 -15.5v-71q0 -10 -7.5 -15.5t-17.5 -5.5h-85q-8 0 -15 5.5t-7 15.5v71z" />
    <glyph glyph-name="uniFEB6" unicode="&#x634;" horiz-adv-x="1193" arabic-form="final" 
d="M585 653q0 10 7 16.5t17 6.5h87q10 0 17.5 -6.5t7.5 -16.5v-87q0 -8 -8 -14.5t-17 -6.5h-87q-10 0 -17 6.5t-7 14.5v87zM788 653q0 10 8 16.5t17 6.5h87q10 0 17 -6.5t7 -16.5v-87q0 -8 -7 -14.5t-17 -6.5h-87q-9 0 -17 6.5t-8 14.5v87zM691 808q0 9 7.5 15.5t15.5 6.5
h85q10 0 17 -6.5t7 -15.5v-71q0 -10 -7.5 -15.5t-17.5 -5.5h-85q-8 0 -15 5.5t-7 15.5v71zM175 312q8 0 13.5 -5t4.5 -13q-2 -21 -2.5 -43t-0.5 -36q0 -58 4.5 -103t22.5 -76t53 -47t96 -16q15 0 28 0.5t32 4.5q2 46 2 82.5v78.5v245q0 9 6.5 15t14.5 6h113q9 0 14.5 -6
t5.5 -15v-221q7 -9 24.5 -11.5t28.5 -2.5h12q17 0 30.5 4.5t13.5 26.5v238q0 8 6.5 13.5t14.5 5.5h111q9 0 14.5 -5.5t5.5 -13.5v-255q7 -9 21.5 -11.5t31.5 -2.5h6q18 0 33.5 4.5t15.5 26.5v274q0 9 6.5 15t14.5 6h113q8 0 14 -6t6 -15v-286q7 -8 25 -10.5t30 -2.5h33v-155
h-15q-32 0 -72.5 7t-70.5 27q-24 -20 -55.5 -27t-69.5 -7h-10q-36 0 -67 7t-58 27q-26 -19 -63 -25.5t-75 -6.5h-15q-8 0 -18.5 1.5t-21.5 6.5q0 -38 -0.5 -76t-2.5 -67q-1 -18 -23 -24q-40 -11 -86 -17.5t-97 -6.5q-83 0 -144.5 17t-103 55.5t-62 99.5t-20.5 149
q0 11 1 29.5t2.5 40t4 43t5.5 39.5q2 10 6.5 15t15.5 5h97z" />
    <glyph glyph-name="uniFEB7" unicode="&#x634;" horiz-adv-x="811" arabic-form="initial" 
d="M226 653q0 10 7 16.5t17 6.5h87q10 0 17.5 -6.5t7.5 -16.5v-87q0 -8 -8 -14.5t-17 -6.5h-87q-10 0 -17 6.5t-7 14.5v87zM429 653q0 10 8 16.5t17 6.5h87q10 0 17 -6.5t7 -16.5v-87q0 -8 -7 -14.5t-17 -6.5h-87q-9 0 -17 6.5t-8 14.5v87zM332 808q0 9 7.5 15.5t15.5 6.5
h85q10 0 17 -6.5t7 -15.5v-71q0 -10 -7.5 -15.5t-17.5 -5.5h-85q-8 0 -15 5.5t-7 15.5v71zM-40 144q0 5 11.5 8t20.5 3h29q18 0 32.5 4.5t14.5 27.5v195q0 9 6.5 15t14.5 6h109q8 0 14 -6t6 -15v-219q7 -9 24 -11.5t29 -2.5h12q17 0 31.5 4.5t14.5 26.5v238q0 8 6.5 13.5
t14.5 5.5h110q8 0 14.5 -5.5t6.5 -13.5v-255q6 -9 22.5 -11.5t31.5 -2.5h17q22 0 29.5 4t7.5 27v57.5v70.5t-0.5 75.5t-1.5 72.5q0 7 5 13t15 6h110q11 0 16.5 -5.5t5.5 -13.5q3 -65 3.5 -118t0.5 -104v-69q0 -30 -0.5 -61t-3.5 -61q-2 -9 -6.5 -16t-16.5 -12
q-46 -13 -123 -13h-10q-18 0 -38 1t-40.5 4.5t-40 9.5t-35.5 17q-25 -19 -59 -26.5t-68 -7.5h-10q-42 0 -74 7t-61 27q-27 -20 -65.5 -27t-74.5 -7h-25q-9 0 -20.5 3t-11.5 8v133z" />
    <glyph glyph-name="uniFEB8" unicode="&#x634;" horiz-adv-x="831" arabic-form="medial" 
d="M226 653q0 10 7 16.5t17 6.5h87q10 0 17.5 -6.5t7.5 -16.5v-87q0 -8 -8 -14.5t-17 -6.5h-87q-10 0 -17 6.5t-7 14.5v87zM429 653q0 10 8 16.5t17 6.5h87q10 0 17 -6.5t7 -16.5v-87q0 -8 -7 -14.5t-17 -6.5h-87q-9 0 -17 6.5t-8 14.5v87zM332 808q0 9 7.5 15.5t15.5 6.5
h85q10 0 17 -6.5t7 -15.5v-71q0 -10 -7.5 -15.5t-17.5 -5.5h-85q-8 0 -15 5.5t-7 15.5v71zM-40 144q0 5 11.5 8t20.5 3h29q18 0 32.5 4.5t14.5 27.5v195q0 9 6.5 15t14.5 6h109q8 0 14 -6t6 -15v-219q7 -9 24 -11.5t29 -2.5h11q17 0 32 5t15 26v238q0 8 6.5 13.5t14.5 5.5
h110q8 0 14.5 -5.5t6.5 -13.5v-255q6 -9 20.5 -11.5t30.5 -2.5h8q8 0 17 1t16 4t11.5 9t4.5 17v274q0 9 6 15t15 6h113q8 0 14 -6t6 -15v-286q3 -4 11 -6.5t17 -4t18 -2t15 -0.5h27v-155h-10q-32 0 -73.5 7t-74.5 27q-28 -22 -61 -28t-69 -6h-9q-35 0 -64.5 7t-61.5 27
q-26 -20 -56 -27t-69 -7h-10q-32 0 -61.5 6.5t-60.5 27.5q-14 -11 -31.5 -17.5t-35.5 -10.5t-36 -5t-33 -1h-23q-9 0 -20.5 3t-11.5 8v133z" />
    <glyph glyph-name="uniFEB9" unicode="&#x635;" horiz-adv-x="1173" arabic-form="isolated" 
d="M43 144q0 11 1 29.5t2.5 40t4 43t5.5 39.5q2 10 6.5 15t15.5 5h101q8 0 13.5 -5t4.5 -15q-2 -20 -2.5 -41.5t-0.5 -35.5q0 -58 6 -104t25.5 -77.5t55.5 -48t96 -16.5q14 0 31 1t40 4q1 46 1 82.5v78.5v346q0 8 6.5 14t15.5 6h112q8 0 14 -6t6 -14v-35q25 19 56 30t61 17
t56.5 8t43.5 2q65 0 119.5 -14t93.5 -47t60.5 -86.5t21.5 -131.5v-36q0 -17 -1 -38t-2.5 -42.5t-3.5 -42t-5 -35.5q-2 -10 -8 -18.5t-20 -10.5q-15 -2 -48 -2.5t-71 -1.5t-74.5 -1h-57.5h-221q0 -33 -0.5 -68t-2.5 -65q-1 -18 -24 -24q-43 -11 -93 -17.5t-101 -6.5
q-81 0 -144 18t-106.5 57t-66 100.5t-22.5 149.5zM603 153q22 -1 53.5 -1.5t69.5 -0.5h209q13 0 19 9t6 41v17q0 77 -42.5 109t-138.5 32q-17 0 -40 -2t-47.5 -6.5t-47.5 -13t-41 -21.5v-163z" />
    <glyph glyph-name="uniFEBA" unicode="&#x635;" horiz-adv-x="1190" arabic-form="final" 
d="M43 143q0 12 1 30.5t2.5 40t4 43t5.5 39.5q2 10 6.5 15t15.5 5h101q8 0 13.5 -5t4.5 -15q-2 -20 -2.5 -42t-0.5 -36q0 -58 6 -103.5t25.5 -77t55.5 -48t96 -16.5q14 0 31 1t40 4q1 46 1 82.5v78.5v346q0 8 6.5 14t15.5 6h112q8 0 14 -6t6 -14v-35q25 19 56 30t61 17
t56.5 8t43.5 2q65 0 119.5 -14t93.5 -47t60.5 -86.5t21.5 -131.5v-21q0 -10 -1 -27.5t-3 -24.5h79v-155h-587q0 -33 -0.5 -68t-3.5 -65q-1 -18 -23 -24q-43 -11 -93 -17.5t-101 -6.5q-81 0 -144 17.5t-106.5 56.5t-66 100.5t-22.5 149.5zM603 153q22 -1 53.5 -1.5t69.5 -0.5
h210q12 0 18 9.5t6 40.5v17q0 77 -42.5 109t-138.5 32q-17 0 -39.5 -2t-47 -6.5t-48 -13t-41.5 -21.5v-163z" />
    <glyph glyph-name="uniFEBB" unicode="&#x635;" horiz-adv-x="806" arabic-form="initial" 
d="M-40 144q0 5 11.5 8t20.5 3h91v330q0 8 6.5 14t15.5 6h112q8 0 14 -6t6 -14v-35q25 19 56 30t61 17t56.5 8t43.5 2q65 0 119.5 -14t93.5 -47t60.5 -86.5t21.5 -131.5v-34q0 -17 -1 -38.5t-2.5 -43t-3.5 -42.5t-5 -36q-3 -10 -9 -18.5t-20 -10.5q-15 -2 -48 -2.5t-71 -1.5
t-74.5 -1h-57.5h-465q-9 0 -20.5 3t-11.5 8v133zM237 153q21 -1 53 -1.5t70 -0.5h210q12 0 18 10t6 42v17q0 76 -42.5 107.5t-138.5 31.5q-17 0 -40 -2t-47.5 -6.5t-47.5 -13t-41 -21.5v-163z" />
    <glyph glyph-name="uniFEBC" unicode="&#x635;" horiz-adv-x="824" arabic-form="medial" 
d="M-40 144q0 5 11.5 8t20.5 3h91v330q0 8 6.5 14t15.5 6h112q8 0 14 -6t6 -14v-35q25 19 56 30t61 17t56.5 8t43.5 2q65 0 119.5 -14t93.5 -47t60.5 -86.5t21.5 -131.5v-21q0 -10 -0.5 -27.5t-3.5 -24.5h79v-155h-832q-9 0 -20.5 3t-11.5 8v133zM237 153q21 -1 53 -1.5
t70 -0.5h211q11 0 17 10t6 41v16q0 77 -42.5 109t-138.5 32q-17 0 -40 -2t-47.5 -6.5t-47.5 -13t-41 -21.5v-163z" />
    <glyph glyph-name="uniFEBD" unicode="&#x636;" horiz-adv-x="1173" arabic-form="isolated" 
d="M709 716q0 10 7 16.5t17 6.5h102q9 0 15.5 -6.5t6.5 -16.5v-95q0 -9 -6.5 -15.5t-16.5 -6.5h-101q-11 0 -17.5 6.5t-6.5 15.5v95zM43 144q0 11 1 29.5t2.5 40t4 43t5.5 39.5q2 10 6.5 15t15.5 5h101q8 0 13.5 -5t4.5 -15q-2 -20 -2.5 -41.5t-0.5 -35.5q0 -58 6 -104
t25.5 -77.5t55.5 -48t96 -16.5q14 0 31 1t40 4q1 46 1 82.5v78.5v346q0 8 6.5 14t15.5 6h112q8 0 14 -6t6 -14v-35q25 19 56 30t61 17t56.5 8t43.5 2q65 0 119.5 -14t93.5 -47t60.5 -86.5t21.5 -131.5v-36q0 -17 -1 -38t-2.5 -42.5t-3.5 -42t-5 -35.5q-2 -10 -8 -18.5
t-20 -10.5q-15 -2 -48 -2.5t-71 -1.5t-74.5 -1h-57.5h-221q0 -33 -0.5 -68t-2.5 -65q-1 -18 -24 -24q-43 -11 -93 -17.5t-101 -6.5q-81 0 -144 18t-106.5 57t-66 100.5t-22.5 149.5zM603 153q22 -1 53.5 -1.5t69.5 -0.5h209q13 0 19 9t6 41v17q0 77 -42.5 109t-138.5 32
q-17 0 -40 -2t-47.5 -6.5t-47.5 -13t-41 -21.5v-163z" />
    <glyph glyph-name="uniFEBE" unicode="&#x636;" horiz-adv-x="1190" arabic-form="final" 
d="M710 716q0 10 7 16.5t17 6.5h102q9 0 15.5 -6.5t6.5 -16.5v-95q0 -9 -6.5 -15.5t-16.5 -6.5h-101q-11 0 -17.5 6.5t-6.5 15.5v95zM43 143q0 12 1 30.5t2.5 40t4 43t5.5 39.5q2 10 6.5 15t15.5 5h101q8 0 13.5 -5t4.5 -15q-2 -20 -2.5 -42t-0.5 -36q0 -58 6 -103.5
t25.5 -77t55.5 -48t96 -16.5q14 0 31 1t40 4q1 46 1 82.5v78.5v346q0 8 6.5 14t15.5 6h112q8 0 14 -6t6 -14v-35q25 19 56 30t61 17t56.5 8t43.5 2q65 0 119.5 -14t93.5 -47t60.5 -86.5t21.5 -131.5v-21q0 -10 -1 -27.5t-3 -24.5h79v-155h-587q0 -33 -0.5 -68t-3.5 -65
q-1 -18 -23 -24q-43 -11 -93 -17.5t-101 -6.5q-81 0 -144 17.5t-106.5 56.5t-66 100.5t-22.5 149.5zM603 153q22 -1 53.5 -1.5t69.5 -0.5h210q12 0 18 9.5t6 40.5v17q0 77 -42.5 109t-138.5 32q-17 0 -39.5 -2t-47 -6.5t-48 -13t-41.5 -21.5v-163z" />
    <glyph glyph-name="uniFEBF" unicode="&#x636;" horiz-adv-x="806" arabic-form="initial" 
d="M350 716q0 10 7 16.5t17 6.5h102q9 0 15.5 -6.5t6.5 -16.5v-95q0 -9 -6.5 -15.5t-16.5 -6.5h-101q-11 0 -17.5 6.5t-6.5 15.5v95zM-40 144q0 5 11.5 8t20.5 3h91v330q0 8 6.5 14t15.5 6h112q8 0 14 -6t6 -14v-35q25 19 56 30t61 17t56.5 8t43.5 2q65 0 119.5 -14
t93.5 -47t60.5 -86.5t21.5 -131.5v-34q0 -17 -1 -38.5t-2.5 -43t-3.5 -42.5t-5 -36q-3 -10 -9 -18.5t-20 -10.5q-15 -2 -48 -2.5t-71 -1.5t-74.5 -1h-57.5h-465q-9 0 -20.5 3t-11.5 8v133zM237 153q21 -1 53 -1.5t70 -0.5h210q12 0 18 10t6 42v17q0 76 -42.5 107.5
t-138.5 31.5q-17 0 -40 -2t-47.5 -6.5t-47.5 -13t-41 -21.5v-163z" />
    <glyph glyph-name="uniFEC0" unicode="&#x636;" horiz-adv-x="824" arabic-form="medial" 
d="M-40 144q0 5 11.5 8t20.5 3h91v330q0 8 6.5 14t15.5 6h112q8 0 14 -6t6 -14v-35q25 19 56 30t61 17t56.5 8t43.5 2q65 0 119.5 -14t93.5 -47t60.5 -86.5t21.5 -131.5v-21q0 -10 -0.5 -27.5t-3.5 -24.5h79v-155h-832q-9 0 -20.5 3t-11.5 8v133zM237 153q21 -1 53 -1.5
t70 -0.5h211q11 0 17 10t6 41v16q0 77 -42.5 109t-138.5 32q-17 0 -40 -2t-47.5 -6.5t-47.5 -13t-41 -21.5v-163zM351 716q0 10 7 16.5t17 6.5h102q9 0 15.5 -6.5t6.5 -16.5v-95q0 -9 -6.5 -15.5t-16.5 -6.5h-101q-11 0 -17.5 6.5t-6.5 15.5v95z" />
    <glyph glyph-name="uniFEC1" unicode="&#x637;" horiz-adv-x="899" arabic-form="isolated" 
d="M46 136q0 8 6 13.5t14 5.5h108v591q0 9 6 15t15 6h117q9 0 14.5 -6t5.5 -15v-289q26 17 56.5 27t60.5 15t56.5 6.5t44.5 1.5q64 0 118 -14t92 -46.5t59.5 -85.5t21.5 -131v-36q0 -17 -0.5 -38.5t-2 -43t-3.5 -42.5t-5 -36q-2 -10 -8.5 -18.5t-20.5 -10.5
q-15 -2 -47.5 -2.5t-70.5 -1.5t-74.5 -1h-58.5h-484q-8 0 -14 5t-6 13v118zM663 151q12 0 18 9.5t6 41.5v16q0 78 -41.5 109.5t-137.5 31.5q-17 0 -40 -1t-47.5 -4.5t-48 -11t-40.5 -19.5v-170q21 -1 52 -1.5t69 -0.5h210z" />
    <glyph glyph-name="uniFEC2" unicode="&#x637;" horiz-adv-x="917" arabic-form="final" 
d="M46 136q0 8 6 13.5t14 5.5h108v591q0 9 6 15t15 6h117q9 0 14.5 -6t5.5 -15v-289q26 17 56.5 27t60.5 15t56.5 6.5t44.5 1.5q64 0 118 -14t92 -46.5t59.5 -85.5t21.5 -130v-26q0 -11 -0.5 -27t-3.5 -23h80v-155h-851q-8 0 -14 5t-6 13v118zM663 151q12 0 18 10t6 41v16
q0 78 -41.5 109.5t-137.5 31.5q-17 0 -40 -1t-47.5 -4.5t-48 -11t-40.5 -19.5v-170q21 -1 48.5 -1.5t65.5 -0.5h217z" />
    <glyph glyph-name="uniFEC3" unicode="&#x637;" horiz-adv-x="820" arabic-form="initial" 
d="M-40 144q0 5 11.5 8t20.5 3h104v591q0 9 6 15t14 6h117q9 0 15 -6t6 -15v-289q26 17 56.5 27t60.5 15t56.5 6.5t44.5 1.5q64 0 117.5 -14t92 -46.5t59.5 -85.5t21 -130v-36q0 -17 -1 -38.5t-2.5 -43.5t-3.5 -43t-5 -36q-2 -10 -8 -18.5t-21 -10.5t-48 -2.5t-71 -1.5
t-74 -1h-57h-479q-9 0 -20.5 3t-11.5 8v133zM584 151q13 0 18.5 10t5.5 42v16q0 77 -41 108.5t-137 31.5q-17 0 -40 -1t-47.5 -4.5t-48 -11t-40.5 -19.5v-170q21 -1 52 -1.5t69 -0.5h209z" />
    <glyph glyph-name="uniFEC4" unicode="&#x637;" horiz-adv-x="839" arabic-form="medial" 
d="M-40 144q0 5 11.5 8t20.5 3h104v591q0 9 6.5 15t14.5 6h116q9 0 15 -6t6 -15v-289q26 17 56.5 27t60.5 15t56.5 6.5t44.5 1.5q64 0 118 -14t92 -46.5t59.5 -85.5t21.5 -130v-24q0 -10 -0.5 -27.5t-3.5 -24.5h80v-155h-847q-9 0 -20.5 3t-11.5 8v133zM586 151
q12 0 17.5 10.5t5.5 41.5v16q0 77 -41.5 108.5t-137.5 31.5q-17 0 -40 -1t-47.5 -4.5t-48 -11t-40.5 -19.5v-170q21 -1 48.5 -1.5t65.5 -0.5h218z" />
    <glyph glyph-name="uniFEC5" unicode="&#x638;" horiz-adv-x="899" arabic-form="isolated" 
d="M461 716q0 10 7 16.5t17 6.5h102q9 0 15.5 -6.5t6.5 -16.5v-95q0 -9 -6.5 -15.5t-16.5 -6.5h-101q-11 0 -17.5 6.5t-6.5 15.5v95zM46 136q0 8 6 13.5t14 5.5h108v591q0 9 6 15t15 6h117q9 0 14.5 -6t5.5 -15v-289q26 17 56.5 27t60.5 15t56.5 6.5t44.5 1.5q64 0 118 -14
t92 -46.5t59.5 -85.5t21.5 -131v-36q0 -17 -0.5 -38.5t-2 -43t-3.5 -42.5t-5 -36q-2 -10 -8.5 -18.5t-20.5 -10.5q-15 -2 -47.5 -2.5t-70.5 -1.5t-74.5 -1h-58.5h-484q-8 0 -14 5t-6 13v118zM663 151q12 0 18 9.5t6 41.5v16q0 78 -41.5 109.5t-137.5 31.5q-17 0 -40 -1
t-47.5 -4.5t-48 -11t-40.5 -19.5v-170q21 -1 52 -1.5t69 -0.5h210z" />
    <glyph glyph-name="uniFEC6" unicode="&#x638;" horiz-adv-x="917" arabic-form="final" 
d="M46 136q0 8 6 13.5t14 5.5h108v591q0 9 6 15t15 6h117q9 0 14.5 -6t5.5 -15v-289q26 17 56.5 27t60.5 15t56.5 6.5t44.5 1.5q64 0 118 -14t92 -46.5t59.5 -85.5t21.5 -130v-26q0 -11 -0.5 -27t-3.5 -23h80v-155h-851q-8 0 -14 5t-6 13v118zM663 151q12 0 18 10t6 41v16
q0 78 -41.5 109.5t-137.5 31.5q-17 0 -40 -1t-47.5 -4.5t-48 -11t-40.5 -19.5v-170q21 -1 48.5 -1.5t65.5 -0.5h217zM461 716q0 10 7 16.5t17 6.5h102q9 0 15.5 -6.5t6.5 -16.5v-95q0 -9 -6.5 -15.5t-16.5 -6.5h-101q-11 0 -17.5 6.5t-6.5 15.5v95z" />
    <glyph glyph-name="uniFEC7" unicode="&#x638;" horiz-adv-x="820" arabic-form="initial" 
d="M-40 144q0 5 11.5 8t20.5 3h104v591q0 9 6 15t14 6h117q9 0 15 -6t6 -15v-289q26 17 56.5 27t60.5 15t56.5 6.5t44.5 1.5q64 0 117.5 -14t92 -46.5t59.5 -85.5t21 -130v-36q0 -17 -1 -38.5t-2.5 -43.5t-3.5 -43t-5 -36q-2 -10 -8 -18.5t-21 -10.5t-48 -2.5t-71 -1.5
t-74 -1h-57h-479q-9 0 -20.5 3t-11.5 8v133zM584 151q13 0 18.5 10t5.5 42v16q0 77 -41 108.5t-137 31.5q-17 0 -40 -1t-47.5 -4.5t-48 -11t-40.5 -19.5v-170q21 -1 52 -1.5t69 -0.5h209zM384 716q0 10 7 16.5t17 6.5h102q9 0 15.5 -6.5t6.5 -16.5v-95q0 -9 -6.5 -15.5
t-16.5 -6.5h-101q-11 0 -17.5 6.5t-6.5 15.5v95z" />
    <glyph glyph-name="uniFEC8" unicode="&#x638;" horiz-adv-x="839" arabic-form="medial" 
d="M384 716q0 10 7 16.5t17 6.5h102q9 0 15.5 -6.5t6.5 -16.5v-95q0 -9 -6.5 -15.5t-16.5 -6.5h-101q-11 0 -17.5 6.5t-6.5 15.5v95zM-40 144q0 5 11.5 8t20.5 3h104v591q0 9 6.5 15t14.5 6h116q9 0 15 -6t6 -15v-289q26 17 56.5 27t60.5 15t56.5 6.5t44.5 1.5q64 0 118 -14
t92 -46.5t59.5 -85.5t21.5 -130v-24q0 -10 -0.5 -27.5t-3.5 -24.5h80v-155h-847q-9 0 -20.5 3t-11.5 8v133zM586 151q12 0 17.5 10.5t5.5 41.5v16q0 77 -41.5 108.5t-137.5 31.5q-17 0 -40 -1t-47.5 -4.5t-48 -11t-40.5 -19.5v-170q21 -1 48.5 -1.5t65.5 -0.5h218z" />
    <glyph glyph-name="uniFEC9" unicode="&#x639;" horiz-adv-x="622" arabic-form="isolated" 
d="M360 -238q0 -20 -21 -22q-8 -1 -21 -1h-15q-119 0 -184 62.5t-65 198.5q0 32 2.5 66.5t5.5 57.5q3 21 24 21q1 0 12.5 0.5t25 1t26 0.5h16.5q-14 23 -23.5 54.5t-9.5 68.5v19q0 61 22.5 102.5t60 67t86 37t101.5 11.5q36 0 65 -3t63 -9q11 -2 17.5 -6t6.5 -14v-93
q0 -20 -22 -19q-30 2 -54 3t-54 1q-69 0 -103.5 -22t-34.5 -79v-9q0 -40 15.5 -67t35.5 -35h214q20 0 20 -19v-117q0 -8 -5.5 -13.5t-14.5 -5.5h-274h-34t-35 -1q0 -5 0.5 -13.5t0.5 -12.5q5 -103 104 -103h25q21 0 21 -19v-89z" />
    <glyph glyph-name="uniFECA" unicode="&#x639;" horiz-adv-x="687" arabic-form="final" 
d="M339 -130q21 0 21 -19v-89q0 -20 -21 -22q-8 -1 -21 -1h-15q-119 0 -184 62.5t-65 198.5q0 32 3 68.5t7 58.5q3 20 24 22q11 1 31.5 1.5t40.5 0.5h18l-62 166q-4 5 -5 15.5t0 17.5l3 65q1 13 21 28q19 14 46 26.5t57.5 21.5t62 14t60.5 5q51 0 96.5 -10t80 -34t54.5 -63
t20 -97v-25q0 -35 -12.5 -71t-31.5 -55h119v-155h-409h-34t-35 -1q0 -5 0.5 -13.5t0.5 -12.5q5 -103 104 -103h25zM379 151q22 0 38 11t26 28t14.5 39t4.5 43v8q0 94 -101 94q-21 0 -49.5 -3.5t-53.5 -18.5l76 -201h45z" />
    <glyph glyph-name="uniFECB" unicode="&#x639;" horiz-adv-x="536" arabic-form="initial" 
d="M-40 144q0 5 11.5 8t20.5 3h93q-14 19 -22 52.5t-8 69.5v12q0 60 21.5 102t57.5 67.5t83.5 37t98.5 11.5q37 0 65.5 -3t62.5 -9q11 -2 17 -6t6 -14v-93q0 -20 -20 -19q-31 2 -52.5 3t-52.5 1q-66 0 -99.5 -22.5t-33.5 -78.5v-9q0 -36 12.5 -65t31.5 -37h213q20 0 20 -19
v-118q0 -18 -20 -18h-474q-9 0 -20.5 3t-11.5 8v133z" />
    <glyph glyph-name="uniFECC" unicode="&#x639;" horiz-adv-x="616" arabic-form="medial" 
d="M-40 144q0 5 11.5 8t20.5 3h125l-62 162q-4 5 -5 15.5t0 17.5l3 65q1 8 6.5 14.5t14.5 13.5q19 14 46 26.5t57 21.5t61.5 14t60.5 5q51 0 97 -10t80.5 -34t54.5 -63t20 -97v-24q0 -34 -12 -71t-32 -56h109v-155h-624q-9 0 -20.5 3t-11.5 8v133zM319 151q21 0 36.5 10.5
t25.5 28t15 39t5 43.5v8q0 49 -27 71.5t-75 22.5q-20 0 -49 -4t-53 -18l77 -201h45z" />
    <glyph glyph-name="uniFECD" unicode="&#x63a;" horiz-adv-x="622" arabic-form="isolated" 
d="M360 -238q0 -20 -21 -22q-8 -1 -21 -1h-15q-119 0 -184 62.5t-65 198.5q0 32 2.5 66.5t5.5 57.5q3 21 24 21q1 0 12.5 0.5t25 1t26 0.5h16.5q-14 23 -23.5 54.5t-9.5 68.5v19q0 61 22.5 102.5t60 67t86 37t101.5 11.5q36 0 65 -3t63 -9q11 -2 17.5 -6t6.5 -14v-93
q0 -20 -22 -19q-30 2 -54 3t-54 1q-69 0 -103.5 -22t-34.5 -79v-9q0 -40 15.5 -67t35.5 -35h214q20 0 20 -19v-117q0 -8 -5.5 -13.5t-14.5 -5.5h-274h-34t-35 -1q0 -5 0.5 -13.5t0.5 -12.5q5 -103 104 -103h25q21 0 21 -19v-89zM293 716q0 10 7 16.5t17 6.5h102
q9 0 15.5 -6.5t6.5 -16.5v-95q0 -9 -6.5 -15.5t-16.5 -6.5h-101q-11 0 -17.5 6.5t-6.5 15.5v95z" />
    <glyph glyph-name="uniFECE" unicode="&#x63a;" horiz-adv-x="687" arabic-form="final" 
d="M339 -130q21 0 21 -19v-89q0 -20 -21 -22q-8 -1 -21 -1h-15q-119 0 -184 62.5t-65 198.5q0 32 3 68.5t7 58.5q3 20 24 22q11 1 31.5 1.5t40.5 0.5h18l-62 166q-4 5 -5 15.5t0 17.5l3 65q1 13 21 28q19 14 46 26.5t57.5 21.5t62 14t60.5 5q51 0 96.5 -10t80 -34t54.5 -63
t20 -97v-25q0 -35 -12.5 -71t-31.5 -55h119v-155h-409h-34t-35 -1q0 -5 0.5 -13.5t0.5 -12.5q5 -103 104 -103h25zM379 151q22 0 38 11t26 28t14.5 39t4.5 43v8q0 94 -101 94q-21 0 -49.5 -3.5t-53.5 -18.5l76 -201h45zM286 716q0 10 7 16.5t17 6.5h102q9 0 15.5 -6.5
t6.5 -16.5v-95q0 -9 -6.5 -15.5t-16.5 -6.5h-101q-11 0 -17.5 6.5t-6.5 15.5v95z" />
    <glyph glyph-name="uniFECF" unicode="&#x63a;" horiz-adv-x="536" arabic-form="initial" 
d="M-40 144q0 5 11.5 8t20.5 3h93q-14 19 -22 52.5t-8 69.5v12q0 60 21.5 102t57.5 67.5t83.5 37t98.5 11.5q37 0 65.5 -3t62.5 -9q11 -2 17 -6t6 -14v-93q0 -20 -20 -19q-31 2 -52.5 3t-52.5 1q-66 0 -99.5 -22.5t-33.5 -78.5v-9q0 -36 12.5 -65t31.5 -37h213q20 0 20 -19
v-118q0 -18 -20 -18h-474q-9 0 -20.5 3t-11.5 8v133zM213 716q0 10 7 16.5t17 6.5h102q9 0 15.5 -6.5t6.5 -16.5v-95q0 -9 -6.5 -15.5t-16.5 -6.5h-101q-11 0 -17.5 6.5t-6.5 15.5v95z" />
    <glyph glyph-name="uniFED0" unicode="&#x63a;" horiz-adv-x="616" arabic-form="medial" 
d="M225 716q0 10 7 16.5t17 6.5h102q9 0 15.5 -6.5t6.5 -16.5v-95q0 -9 -6.5 -15.5t-16.5 -6.5h-101q-11 0 -17.5 6.5t-6.5 15.5v95zM-40 144q0 5 11.5 8t20.5 3h125l-62 162q-4 5 -5 15.5t0 17.5l3 65q1 8 6.5 14.5t14.5 13.5q19 14 46 26.5t57 21.5t61.5 14t60.5 5
q51 0 97 -10t80.5 -34t54.5 -63t20 -97v-24q0 -34 -12 -71t-32 -56h109v-155h-624q-9 0 -20.5 3t-11.5 8v133zM319 151q21 0 36.5 10.5t25.5 28t15 39t5 43.5v8q0 49 -27 71.5t-75 22.5q-20 0 -49 -4t-53 -18l77 -201h45z" />
    <glyph glyph-name="uniFED1" unicode="&#x641;" horiz-adv-x="1077" arabic-form="isolated" 
d="M580 155q-33 35 -33 112v15q0 58 20 101t56.5 71.5t87 42.5t111.5 14q21 0 46 -1.5t48 -3.5t43 -5.5t32 -6.5q11 -3 14.5 -8t3.5 -13v-269q0 -37 -1 -87t-5 -94q-1 -10 -7.5 -14t-16.5 -5q-43 -2 -84.5 -3t-79.5 -1h-422q-101 0 -168 18.5t-107 54.5t-56 89t-16 121
q0 27 2.5 54t10.5 58q2 11 6 16t14 5h98q8 0 14 -5t4 -14q0 -20 -0.5 -38t-0.5 -32q0 -46 9.5 -78.5t33 -53.5t64 -30.5t102.5 -9.5h177zM701 259q0 -54 21 -81.5t72 -27.5h31t30 2v220q-24 3 -49 3q-53 0 -79 -26.5t-26 -75.5v-14zM713 716q0 10 7 16.5t17 6.5h102
q9 0 15.5 -6.5t6.5 -16.5v-95q0 -9 -6.5 -15.5t-16.5 -6.5h-101q-11 0 -17.5 6.5t-6.5 15.5v95z" />
    <glyph glyph-name="uniFED2" unicode="&#x641;" horiz-adv-x="1097" arabic-form="final" 
d="M580 155q-17 17 -25 45t-8 66v14q0 58 20 101t56.5 72t87 43.5t111.5 14.5q21 0 46 -1.5t48.5 -3.5t43 -5.5t31.5 -6.5q11 -3 14.5 -8t3.5 -13v-318h88v-155h-701q-102 0 -169.5 18.5t-107.5 54.5t-56.5 89t-16.5 121q0 27 2.5 53.5t10.5 58.5q2 11 6 16t14 5h98
q8 0 14 -5t4 -14q0 -20 -0.5 -38t-0.5 -32q0 -46 9.5 -78.5t33 -53.5t64.5 -30.5t104 -9.5h175zM855 150v222q-24 3 -49 3q-53 0 -79 -26t-26 -76v-13q0 -54 21 -82t72 -28h61zM712 716q0 10 7 16.5t17 6.5h102q9 0 15.5 -6.5t6.5 -16.5v-95q0 -9 -6.5 -15.5t-16.5 -6.5
h-101q-11 0 -17.5 6.5t-6.5 15.5v95z" />
    <glyph glyph-name="uniFED3" unicode="&#x641;" horiz-adv-x="588" arabic-form="initial" 
d="M212 257q0 -52 22.5 -79.5t70.5 -27.5h13.5h17.5t17 0.5t13 1.5v220q-23 3 -50 3q-104 0 -104 -101v-17zM-40 144q0 5 11.5 8t20.5 3h99q-33 35 -33 109v16q0 58 20 101.5t56.5 72.5t87 43t111.5 14q21 0 46 -1.5t48.5 -3.5t43 -5.5t31.5 -6.5q11 -3 14.5 -8t3.5 -13
v-269q0 -37 -1 -87t-5 -94q-1 -10 -7.5 -14t-16.5 -5q-43 -2 -82.5 -3t-80.5 -1h-335q-9 0 -20.5 3t-11.5 8v133zM223 716q0 10 7 16.5t17 6.5h102q9 0 15.5 -6.5t6.5 -16.5v-95q0 -9 -6.5 -15.5t-16.5 -6.5h-101q-11 0 -17.5 6.5t-6.5 15.5v95z" />
    <glyph glyph-name="uniFED4" unicode="&#x641;" horiz-adv-x="608" arabic-form="medial" 
d="M223 716q0 10 7 16.5t17 6.5h102q9 0 15.5 -6.5t6.5 -16.5v-95q0 -9 -6.5 -15.5t-16.5 -6.5h-101q-11 0 -17.5 6.5t-6.5 15.5v95zM-40 144q0 5 11.5 8t20.5 3h99q-15 17 -24 44t-9 65v16q0 58 20 101.5t56.5 72.5t87.5 43t112 14q21 0 45.5 -1.5t47.5 -3.5t43 -5.5
t32 -6.5q11 -3 14.5 -8t3.5 -13v-318h88v-155h-616q-9 0 -20.5 3t-11.5 8v133zM366 150v222q-23 3 -49 3q-105 0 -105 -103v-15q0 -52 22 -79.5t71 -27.5h61z" />
    <glyph glyph-name="uniFED5" unicode="&#x642;" horiz-adv-x="802" arabic-form="isolated" 
d="M343 710q0 10 7 16.5t17 6.5h87q10 0 17.5 -6.5t7.5 -16.5v-95q0 -9 -8 -15.5t-17 -6.5h-87q-10 0 -17 6.5t-7 15.5v95zM546 710q0 10 8 16.5t17 6.5h87q10 0 17 -6.5t7 -16.5v-95q0 -9 -7 -15.5t-17 -6.5h-87q-9 0 -17 6.5t-8 15.5v95zM43 75q0 23 2.5 60.5t10.5 73.5
q2 9 6 14t15 5h97q19 0 19 -19q-2 -21 -2 -43.5v-37.5q0 -57 11.5 -100.5t40 -72t75 -43t117.5 -14.5q6 0 26.5 0.5t44 1t44.5 1t28 1.5v111q-6 -4 -16.5 -6.5t-22 -4t-22.5 -2t-18 -0.5q-103 0 -162.5 57.5t-59.5 166.5v18q0 128 72.5 194.5t210.5 66.5q19 0 42.5 -1.5
t45 -3.5t40 -5t28.5 -7q11 -5 14.5 -8.5t3.5 -11.5v-463v-50.5t-0.5 -60.5t-1.5 -60t-2 -49q0 -19 -22 -22q-56 -8 -128 -10.5t-137 -2.5q-96 0 -170.5 18t-125.5 57.5t-77.5 101.5t-26.5 150zM580 362q-11 2 -22.5 2h-26.5q-52 0 -78.5 -29t-26.5 -79v-9q0 -49 19 -73
t70 -24q35 0 50 5.5t15 19.5v187z" />
    <glyph glyph-name="uniFED6" unicode="&#x642;" horiz-adv-x="821" arabic-form="final" 
d="M43 75q0 23 3 60t10 74q3 19 21 19h98q18 0 18 -19q-2 -21 -2 -44v-37q0 -58 12 -101t40 -71.5t75 -43t117 -14.5q6 0 26 0.5t43.5 1t44.5 1t28 1.5v98h-66q-112 0 -173 57.5t-61 169.5v17q0 126 72.5 192.5t210.5 66.5q19 0 42 -1.5t45 -3.5t40 -5t28 -7q10 -5 14 -8.5
t4 -11.5v-311h88v-155h-89q0 -60 -1 -118.5t-3 -98.5q0 -19 -21 -22q-56 -8 -127 -10.5t-136 -2.5q-96 0 -170.5 18t-126 57.5t-78 101.5t-26.5 150zM579 150v212q-11 1 -23 1.5t-25 0.5q-52 0 -78.5 -29t-26.5 -79v-9q0 -49 20 -73t67 -24h66zM343 710q0 10 7 16.5t17 6.5
h87q10 0 17.5 -6.5t7.5 -16.5v-95q0 -9 -8 -15.5t-17 -6.5h-87q-10 0 -17 6.5t-7 15.5v95zM546 710q0 10 8 16.5t17 6.5h87q10 0 17 -6.5t7 -16.5v-95q0 -9 -7 -15.5t-17 -6.5h-87q-9 0 -17 6.5t-8 15.5v95z" />
    <glyph glyph-name="uniFED7" unicode="&#x642;" horiz-adv-x="588" arabic-form="initial" 
d="M212 257q0 -52 22.5 -79.5t70.5 -27.5h13.5h17.5t17 0.5t13 1.5v220q-23 3 -50 3q-104 0 -104 -101v-17zM-40 144q0 5 11.5 8t20.5 3h99q-33 35 -33 109v16q0 58 20 101.5t56.5 72.5t87 43t111.5 14q21 0 46 -1.5t48.5 -3.5t43 -5.5t31.5 -6.5q11 -3 14.5 -8t3.5 -13
v-269q0 -37 -1 -87t-5 -94q-1 -10 -7.5 -14t-16.5 -5q-43 -2 -82.5 -3t-80.5 -1h-335q-9 0 -20.5 3t-11.5 8v133zM131 716q0 10 7 16.5t17 6.5h87q10 0 17.5 -6.5t7.5 -16.5v-95q0 -9 -8 -15.5t-17 -6.5h-87q-10 0 -17 6.5t-7 15.5v95zM334 716q0 10 8 16.5t17 6.5h87
q10 0 17 -6.5t7 -16.5v-95q0 -9 -7 -15.5t-17 -6.5h-87q-9 0 -17 6.5t-8 15.5v95z" />
    <glyph glyph-name="uniFED8" unicode="&#x642;" horiz-adv-x="608" arabic-form="medial" 
d="M131 716q0 10 7 16.5t17 6.5h87q10 0 17.5 -6.5t7.5 -16.5v-95q0 -9 -8 -15.5t-17 -6.5h-87q-10 0 -17 6.5t-7 15.5v95zM334 716q0 10 8 16.5t17 6.5h87q10 0 17 -6.5t7 -16.5v-95q0 -9 -7 -15.5t-17 -6.5h-87q-9 0 -17 6.5t-8 15.5v95zM-40 144q0 5 11.5 8t20.5 3h99
q-15 17 -24 44t-9 65v16q0 58 20 101.5t56.5 72.5t87.5 43t112 14q21 0 45.5 -1.5t47.5 -3.5t43 -5.5t32 -6.5q11 -3 14.5 -8t3.5 -13v-318h88v-155h-616q-9 0 -20.5 3t-11.5 8v133zM366 150v222q-23 3 -49 3q-105 0 -105 -103v-15q0 -52 22 -79.5t71 -27.5h61z" />
    <glyph glyph-name="uniFED9" unicode="&#x643;" horiz-adv-x="863" arabic-form="isolated" 
d="M163 335q18 0 18 -19q-1 -9 -1 -25.5v-22.5q0 -32 8 -53.5t26.5 -34.5t50.5 -19t80 -6h256q21 0 29 4t8 27v560q0 9 6.5 15t14.5 6h115q8 0 14 -6t6 -15v-584q0 -30 -1.5 -61.5t-4.5 -60.5q-2 -10 -6 -17t-16 -11q-12 -3 -37 -5.5t-54.5 -4t-59 -2t-51.5 -0.5h-248
q-85 0 -139.5 17t-85.5 47t-43 71.5t-12 91.5q0 5 0.5 16t1 24.5t2 26.5t3.5 21q3 10 7 15t14 5h99zM288 426q0 12 17 12h16q-5 11 -8 25.5t-3 28.5q0 50 30 76.5t87 26.5q10 0 25 -1t31 -6q14 -4 14 -17v-47q0 -12 -13 -12q-5 0 -21.5 1t-21.5 1q-21 0 -30.5 -10.5
t-9.5 -26.5q0 -14 4.5 -23.5t9.5 -12.5h76q17 0 17 -14v-52q0 -14 -17 -14h-186q-17 0 -17 15v50z" />
    <glyph glyph-name="uniFEDA" unicode="&#x643;" horiz-adv-x="882" arabic-form="final" 
d="M163 335q18 0 18 -19q-1 -9 -1 -25.5v-22.5q0 -32 8 -53.5t26.5 -34.5t50.5 -19t80 -6h243q9 0 18 1t16 4t11.5 9.5t4.5 17.5v559q0 9 6.5 15t14.5 6h114q9 0 15 -6t6 -15v-578q6 -8 24.5 -10.5t30.5 -2.5h33v-155h-12q-32 0 -73.5 5.5t-74.5 21.5q-29 -17 -70 -22
t-77 -5h-259q-85 0 -139.5 17t-85.5 47t-43 71.5t-12 91.5q0 5 0.5 16t1 24.5t2 26.5t3.5 21q3 10 7 15t14 5h99zM288 426q0 12 17 12h16q-5 11 -8 25.5t-3 28.5q0 50 30 76.5t87 26.5q10 0 25 -1t31 -6q14 -4 14 -17v-47q0 -12 -13 -12q-5 0 -21.5 1t-21.5 1
q-21 0 -30.5 -10.5t-9.5 -26.5q0 -14 4.5 -23.5t9.5 -12.5h76q17 0 17 -14v-52q0 -14 -17 -14h-186q-17 0 -17 15v50z" />
    <glyph glyph-name="uniFEDB" unicode="&#x643;" horiz-adv-x="716" arabic-form="initial" 
d="M-40 136q0 8 10.5 13.5t21.5 5.5h373h23.5h42t42 0.5t24.5 0.5q1 12 1.5 27.5t0.5 26.5q0 74 -47 106t-137 32h-223q-25 0 -26 18q0 2 -0.5 8t-1 13t-0.5 13v7q0 26 4.5 49.5t13 47t20.5 48.5t28 54l76 141q5 8 11.5 14t17.5 6h116q8 0 11 -3.5t3 -8.5t-3 -11l-94 -180
q-4 -7 -9.5 -18t-10.5 -22.5t-8.5 -20.5t-3.5 -12q38 2 60.5 3t40.5 1q91 0 152.5 -21.5t98.5 -62t52.5 -99t15.5 -131.5v-29q0 -10 -0.5 -27.5t-2 -36t-3 -36t-2.5 -28.5q-3 -18 -24 -19q-17 -2 -45 -2.5t-61 -1.5t-67 -1h-63h-396q-11 0 -21.5 5t-10.5 13v118z" />
    <glyph glyph-name="uniFEDC" unicode="&#x643;" horiz-adv-x="729" arabic-form="medial" 
d="M-40 136q0 8 10.5 13.5t21.5 5.5h503q1 11 1.5 27.5t0.5 27.5q0 74 -46 106t-136 32h-223q-25 0 -26 18q0 2 -0.5 8t-1 12.5t-0.5 12.5v7q0 26 4.5 49.5t13 46.5t20.5 48t28 54l76 143q5 8 11.5 14t17.5 6h116q8 0 11 -3.5t3 -8.5t-3 -11l-94 -178q-4 -8 -9 -19
t-10 -22.5t-9 -21t-4 -12.5q36 2 61.5 3t42.5 1q82 0 141 -18.5t97 -53.5t57 -85t20 -112v-14v-28t-1 -29h75v-155h-737q-11 0 -21.5 5t-10.5 13v118z" />
    <glyph glyph-name="uniFEDD" unicode="&#x644;" horiz-adv-x="673" arabic-form="isolated" 
d="M175 312q18 0 18 -20q-2 -20 -2.5 -40t-0.5 -34q0 -58 7.5 -103.5t28.5 -77t58 -48t97 -16.5q14 0 32.5 1t32.5 4q2 46 2 82.5v78.5v607q0 9 6.5 15t14.5 6h115q8 0 14 -6t6 -15v-686q0 -15 -0.5 -42.5t-1.5 -56.5t-2 -56t-2 -42q-1 -17 -22 -23q-42 -10 -95 -15.5
t-100 -5.5q-81 0 -143.5 18t-106 57t-66 100.5t-22.5 149.5q0 12 1 31t2.5 40t4 42t5.5 36q2 9 6 14t14 5h99z" />
    <glyph glyph-name="uniFEDE" unicode="&#x644;" horiz-adv-x="692" arabic-form="final" 
d="M175 312q18 0 18 -20q-2 -20 -2.5 -40t-0.5 -34q0 -58 7.5 -103.5t28 -77t57.5 -48t97 -16.5q14 0 33 1t33 4q2 46 2 82.5v78.5v607q0 9 6.5 15t14.5 6h115q9 0 14.5 -6t5.5 -15v-591h88v-155h-88q-1 -35 -2.5 -71t-3.5 -66q-1 -18 -21 -23q-42 -10 -95.5 -15.5
t-100.5 -5.5q-81 0 -143.5 18t-106 57t-66 100.5t-22.5 149.5q0 12 1 30t2.5 38t4 41t5.5 39q3 20 20 20h99z" />
    <glyph glyph-name="uniFEDF" unicode="&#x644;" horiz-adv-x="315" arabic-form="initial" 
d="M-40 144q0 5 11.5 8t20.5 3h61q21 0 29 4t8 27v560q0 9 6 15t15 6h115q8 0 14 -6t6 -15v-584q0 -30 -1.5 -61.5t-4.5 -60.5q-2 -10 -6.5 -17t-16.5 -11q-12 -3 -34.5 -5.5t-48.5 -4t-54 -2t-50 -0.5h-38q-9 0 -20.5 3t-11.5 8v133z" />
    <glyph glyph-name="uniFEE0" unicode="&#x644;" horiz-adv-x="334" arabic-form="medial" 
d="M-40 144q0 5 11.5 8t20.5 3h48q8 0 17 1t16.5 4t12 9.5t4.5 17.5v559q0 9 6 15t15 6h115q9 0 14.5 -6t5.5 -15v-578q8 -8 26 -10.5t30 -2.5h32v-155h-13q-42 0 -83.5 6.5t-68.5 27.5q-29 -20 -70.5 -27t-76.5 -7h-30q-9 0 -20.5 3t-11.5 8v133z" />
    <glyph glyph-name="uniFEE1" unicode="&#x645;" horiz-adv-x="677" arabic-form="isolated" 
d="M38 22q0 76 34 112t93 38q-2 8 -3.5 23t-1.5 26v56q0 57 17.5 99.5t48.5 71t74 43t95 14.5t95 -14t73.5 -42.5t47 -71t16.5 -99.5v-62q0 -59 -16.5 -101.5t-47 -69.5t-74 -40t-97.5 -13q-46 0 -88.5 9.5t-73.5 35.5q-23 0 -31.5 -7t-8.5 -26v-234q0 -9 -6 -15t-15 -6
h-111q-8 0 -14 6t-6 15v252zM310 231q0 -52 18.5 -74.5t63.5 -22.5q42 0 63.5 21t21.5 76v38q0 56 -20.5 78t-62.5 22t-63 -22.5t-21 -77.5v-38z" />
    <glyph glyph-name="uniFEE2" unicode="&#x645;" horiz-adv-x="708" arabic-form="final" 
d="M38 18q0 75 34 111t93 38q-2 7 -3.5 23t-1.5 27v54q0 57 17.5 99.5t48.5 71t74 43t95 14.5t95 -14t73.5 -42t47 -70t16.5 -99v-60q0 -9 -0.5 -19.5t-1.5 -20.5q5 -11 22.5 -15t29.5 -4h31v-155h-18q-32 0 -70.5 7t-70.5 24q-53 -45 -157 -45q-46 0 -88.5 10.5t-73.5 36.5
q-23 0 -31.5 -7.5t-8.5 -27.5v-234q0 -8 -6 -14t-15 -6h-111q-8 0 -14 6t-6 14v254zM310 225q0 -50 18.5 -73t63.5 -23q42 0 63.5 18.5t21.5 73.5v44q0 54 -20.5 77t-62.5 23t-63 -23t-21 -77v-40z" />
    <glyph glyph-name="uniFEE3" unicode="&#x645;" horiz-adv-x="588" arabic-form="initial" 
d="M-40 144q0 5 11.5 8t20.5 3h30q13 0 28.5 3.5t19.5 19.5q2 5 2 9.5v9.5v74q0 57 17.5 99.5t48.5 71t74.5 43t95.5 14.5t94.5 -14t72.5 -42t46.5 -70t16.5 -99v-61q0 -59 -16.5 -101t-46.5 -70t-73 -41t-96 -13q-24 0 -49 2.5t-48 8.5t-42.5 15t-31.5 21
q-22 -20 -53 -27.5t-73 -7.5h-17q-9 0 -20.5 3t-11.5 8v133zM222 224q0 -20 3 -38q7 -32 28 -44t53 -12q41 0 61.5 21t20.5 76v39q0 54 -20 76.5t-62 22.5t-63 -22.5t-21 -76.5v-42z" />
    <glyph glyph-name="uniFEE4" unicode="&#x645;" horiz-adv-x="620" arabic-form="medial" 
d="M-40 144q0 5 11.5 8t20.5 3h30q13 0 29 3t19 17q2 4 2 9v11v74q0 57 17.5 99.5t48.5 71t74.5 43t95.5 14.5t94.5 -14t73 -42.5t47 -71t16.5 -99.5v-57v-17.5t-2 -17.5q3 -7 9.5 -11.5t15 -7t16.5 -3.5t13 -1h29v-155h-24q-34 0 -68.5 7t-64.5 24q-28 -26 -68.5 -37.5
t-88.5 -11.5q-24 0 -49 3t-48 9t-42.5 15.5t-31.5 21.5q-22 -17 -53.5 -24t-62.5 -7h-27q-9 0 -20.5 3t-11.5 8v133zM222 263v-42q0 -21 3 -39q6 -32 27.5 -45t53.5 -13q41 0 62 21.5t21 75.5v42q0 55 -20.5 77.5t-62.5 22.5t-63 -22.5t-21 -77.5z" />
    <glyph glyph-name="uniFEE5" unicode="&#x646;" horiz-adv-x="671" arabic-form="isolated" 
d="M245 620q0 10 7 16.5t17 6.5h102q9 0 15.5 -6.5t6.5 -16.5v-95q0 -9 -6.5 -15.5t-16.5 -6.5h-101q-11 0 -17.5 6.5t-6.5 15.5v95zM175 312q8 0 13.5 -5t4.5 -13q-2 -21 -2.5 -43t-0.5 -36q0 -58 8 -103t29.5 -76t60 -47t99.5 -16q14 0 26 0.5t35 3.5q1 46 1 83v79v288
q0 8 6.5 13.5t14.5 5.5h113q8 0 14 -5.5t6 -13.5v-391q0 -42 -1 -88t-3 -85q0 -17 -22 -23q-47 -11 -93.5 -16t-97.5 -5q-83 0 -146.5 17.5t-107.5 56.5t-66.5 100.5t-22.5 149.5q0 11 1 30t2.5 40t4 42t5.5 37q2 10 6.5 15t15.5 5h97z" />
    <glyph glyph-name="uniFEE6" unicode="&#x646;" horiz-adv-x="690" arabic-form="final" 
d="M245 620q0 10 7 16.5t17 6.5h102q9 0 15.5 -6.5t6.5 -16.5v-95q0 -9 -6.5 -15.5t-16.5 -6.5h-101q-11 0 -17.5 6.5t-6.5 15.5v95zM175 312q8 0 13.5 -5t4.5 -13q-2 -21 -2.5 -43t-0.5 -36q0 -58 8 -103t29.5 -76t60 -47t99.5 -16q14 0 26 0.5t35 3.5q1 46 1 83v79v288
q0 8 6.5 13.5t14.5 5.5h113q9 0 14.5 -5.5t5.5 -13.5v-272h87v-155h-87q-1 -35 -1 -71t-2 -66q0 -18 -21 -23q-46 -11 -94 -16t-99 -5q-83 0 -146.5 17.5t-107.5 56.5t-66.5 100.5t-22.5 149.5q0 11 1 30t2.5 40t4 42t5.5 37q2 10 6.5 15t15.5 5h97z" />
    <glyph glyph-name="uniFEE7" unicode="&#x646;" horiz-adv-x="309" arabic-form="initial" 
d="M88 663q0 10 7 16.5t17 6.5h102q9 0 15.5 -6.5t6.5 -16.5v-95q0 -9 -6.5 -15.5t-16.5 -6.5h-101q-11 0 -17.5 6.5t-6.5 15.5v95zM-40 144q0 5 11.5 8t20.5 3h58q22 0 29.5 4t7.5 27v112t-2 133q0 8 5.5 13.5t14.5 5.5h110q11 0 16.5 -5.5t6.5 -13.5q1 -31 1.5 -56.5
t1 -48t0.5 -45v-47.5q0 -74 -1 -119.5t-4 -74.5q-2 -10 -6.5 -17t-16.5 -11q-12 -3 -33.5 -5.5t-47 -4t-52.5 -2t-49 -0.5h-39q-9 0 -20.5 3t-11.5 8v133z" />
    <glyph glyph-name="uniFEE8" unicode="&#x646;" horiz-adv-x="329" arabic-form="medial" 
d="M-40 144q0 5 11.5 8t20.5 3h47q8 0 17 1t16 4t11.5 9.5t4.5 17.5v240q0 8 5.5 13.5t15.5 5.5h113q8 0 14 -5.5t6 -13.5v-259q3 -4 10 -6.5t15.5 -4t16.5 -2t14 -0.5h31v-155h-13q-42 0 -83.5 6.5t-69.5 27.5q-14 -10 -32.5 -16.5t-38 -10.5t-39 -5.5t-37.5 -1.5h-24
q-9 0 -20.5 3t-11.5 8v133zM90 663q0 10 7 16.5t17 6.5h102q9 0 15.5 -6.5t6.5 -16.5v-95q0 -9 -6.5 -15.5t-16.5 -6.5h-101q-11 0 -17.5 6.5t-6.5 15.5v95z" />
    <glyph glyph-name="uniFEE9" unicode="&#x647;" horiz-adv-x="571" arabic-form="isolated" 
d="M50 244q0 126 70.5 192.5t210.5 66.5q19 0 42 -1.5t44.5 -3.5t39.5 -5t28 -7q11 -5 14.5 -8.5t3.5 -11.5v-281q0 -38 -1.5 -83t-5.5 -74q-2 -11 -7 -14.5t-15 -5.5q-41 -5 -79.5 -6.5t-74.5 -1.5h-11q-127 0 -193 57.5t-66 169.5v17zM199 249q0 -49 23 -74t79 -25h22
t26 1v211q-8 1 -19.5 1.5t-25.5 0.5q-54 0 -79.5 -29t-25.5 -77v-9z" />
    <glyph glyph-name="uniFEEA" unicode="&#x647;" horiz-adv-x="591" arabic-form="final" 
d="M48 250q0 126 74 193t214 67q19 0 41 -1t42.5 -3.5t37.5 -5.5t28 -6q11 -4 14.5 -8t3.5 -12v-272q0 -29 12.5 -38t41.5 -9h34v-155h-54q-43 0 -81.5 11t-62.5 43q-26 -15 -57.5 -22.5t-61.5 -7.5h-10q-45 0 -84.5 12t-69 37t-46 64.5t-16.5 95.5v17zM196 257
q0 -49 20.5 -68.5t60.5 -19.5h12q27 0 43.5 9t16.5 32v161q-9 2 -18 2h-20q-54 0 -84.5 -26.5t-30.5 -76.5v-13z" />
    <glyph glyph-name="uniFEEB" unicode="&#x647;" horiz-adv-x="746" arabic-form="initial" 
d="M-40 136q0 8 10.5 13.5t21.5 5.5h79q-8 12 -11 31.5t-3 42.5v13q0 83 47 126.5t128 49.5q-3 3 -3 9v93q0 17 20 22q13 3 28 4.5t29 2.5t25.5 1h19.5q67 0 128.5 -16.5t109 -53.5t75.5 -97t28 -147v-42q0 -35 -2 -74.5t-10 -85.5q-2 -10 -8 -18.5t-20 -10.5
q-15 -2 -45 -2.5t-64.5 -1.5t-67.5 -1h-54h-429q-11 0 -21.5 5t-10.5 13v118zM448 242v-13q0 -23 -4 -44.5t-12 -33.5h82q13 0 18.5 7.5t5.5 39.5v31q0 97 -48.5 140.5t-135.5 43.5h-35q61 -13 95 -54t34 -117zM188 214q0 -35 14.5 -53t49.5 -18t50 18t15 53v21q0 38 -14 56
t-49 18t-50.5 -18t-15.5 -56v-21z" />
    <glyph glyph-name="uniFEEC" unicode="&#x647;" horiz-adv-x="620" arabic-form="medial" 
d="M-8 0q-9 0 -20.5 2.5t-11.5 7.5v135q0 5 11.5 7.5t20.5 2.5h93v290q0 17 11 26.5t28 14.5q35 11 77 14.5t80 3.5q59 0 107.5 -12.5t82.5 -39.5t52.5 -68.5t18.5 -99.5q0 -17 -1 -32.5t-3 -31.5q-2 -19 -7 -35t-13 -35q15 3 30.5 4t31.5 1h40v-155h-18h-36.5t-26.5 -2v-28
q-2 -118 -59.5 -172t-160.5 -54q-64 0 -108.5 15t-72.5 44.5t-40.5 72.5t-12.5 100v24h-93zM279 153q34 0 55.5 8.5t34.5 23.5t18 35.5t5 45.5v10q0 54 -29.5 73.5t-80.5 19.5q-14 0 -23 -0.5t-20 -2.5v-213h40zM334 9q-18 -3 -43 -4.5t-53 -3.5v-14q0 -56 17 -81.5
t63 -25.5q43 0 58 23.5t17 73.5q0 25 3 49q-14 -5 -29.5 -10t-32.5 -7z" />
    <glyph glyph-name="uniFEED" unicode="&#x648;" horiz-adv-x="572" arabic-form="isolated" 
d="M85 -123q0 18 18 18h95q39 0 66.5 3.5t45.5 12.5t26.5 25t9.5 40l1 37q-5 -4 -14.5 -6.5t-20.5 -4t-21.5 -2t-17.5 -0.5q-103 0 -163 57.5t-60 169.5v17q0 126 72.5 192.5t210.5 66.5q19 0 42 -1.5t44 -3.5t39 -5t28 -7q11 -5 14.5 -8.5t3.5 -11.5v-458q0 -80 -23.5 -129
t-62 -76t-87.5 -36t-100 -9h-27t-39.5 1t-39 2t-25.5 3q-9 2 -12 7t-3 13v93zM350 362q-11 1 -22.5 1.5t-23.5 0.5q-52 0 -78.5 -29t-26.5 -79v-9q0 -49 20.5 -73t69.5 -24q61 0 61 26v186z" />
    <glyph glyph-name="uniFEEE" unicode="&#x648;" horiz-adv-x="591" arabic-form="final" 
d="M85 -123q0 18 18 18h95q39 0 66.5 3.5t45.5 12.5t26.5 25t10.5 40v24h-54q-115 0 -179 57.5t-64 169.5v17q0 126 72.5 192.5t210.5 66.5q19 0 42 -1.5t44 -3.5t39 -5t28 -7q10 -5 14 -8.5t4 -11.5v-311h87v-155h-90v-31q-6 -65 -30 -106.5t-60.5 -64.5t-83 -31.5
t-96.5 -8.5h-27t-39.5 1t-39 2t-25.5 3q-9 2 -12 7t-3 13v93zM199 247q0 -49 20.5 -73t69.5 -24h61v212q-11 1 -23 1.5t-23 0.5q-51 0 -78 -29t-27 -79v-9z" />
    <glyph glyph-name="uniFEEF" unicode="&#x649;" horiz-adv-x="986" arabic-form="isolated" 
d="M180 312q18 0 18 -18q-2 -21 -3.5 -40.5t-1.5 -33.5q0 -57 6 -103.5t25.5 -79t57.5 -50t101 -17.5q26 0 43.5 1t37.5 4q2 46 2.5 79.5t0.5 73.5v78q0 121 71.5 177.5t211.5 56.5q19 0 40.5 -1t42 -3t38.5 -4t30 -5q8 -2 13 -6t5 -14v-386q0 -9 -5.5 -15t-15.5 -6h-113
q-8 0 -14 6t-6 15v275q-16 2 -23.5 2.5t-18.5 0.5q-53 0 -77.5 -24t-24.5 -84v-155q0 -42 -1 -90.5t-3 -87.5q0 -20 -22 -23q-48 -8 -103 -12t-112 -4q-87 0 -150.5 19.5t-104 60.5t-60 104t-19.5 150q0 12 1 28.5t3 35.5t4.5 38t6.5 37q2 10 6 15t15 5h98z" />
    <glyph glyph-name="uniFEF0" unicode="&#x649;" horiz-adv-x="1002" arabic-form="final" 
d="M180 312q18 0 18 -18q-2 -21 -3.5 -40.5t-1.5 -33.5q0 -57 6 -103.5t25.5 -79t57.5 -50t101 -17.5q26 0 43.5 1t37.5 4q2 46 2.5 79.5t0.5 73.5v75q0 120 71.5 178.5t211.5 58.5q39 0 80 -4t66 -9q8 -2 13 -6t5 -14v-218q0 -21 9 -27.5t33 -6.5h46v-155h-87
q-36 0 -64.5 5t-49 20t-31 42.5t-10.5 72.5v156q-12 2 -19 2.5t-18 0.5q-53 0 -77.5 -24t-24.5 -84v-155q0 -42 -1 -90.5t-3 -87.5q0 -20 -25 -23q-48 -8 -101.5 -12t-110.5 -4q-87 0 -150.5 19.5t-104 60.5t-60 104t-19.5 150q0 12 1 28.5t3 35t4.5 38t6.5 37.5q2 10 6 15
t15 5h98z" />
    <glyph glyph-name="uniFEF1" unicode="&#x64a;" horiz-adv-x="985" arabic-form="isolated" 
d="M45 154q0 12 1 28t3 35t4.5 38t6.5 37q2 10 6 15t15 5h99q18 0 18 -18q-2 -21 -3.5 -40.5t-1.5 -33.5q0 -54 6.5 -98.5t26.5 -76t57 -49t99 -17.5q26 0 43.5 1.5t37.5 4.5q1 23 1.5 41.5t1 35t0.5 33v36.5v75q0 120 71.5 177t211.5 57q39 0 82 -3.5t70 -9.5q8 -2 13 -6
t5 -15v-385q0 -9 -5.5 -15t-15.5 -6h-113q-8 0 -14 6t-6 15v275q-16 2 -24 2.5t-19 0.5q-53 0 -77.5 -24t-24.5 -84v-155q0 -42 -1 -85.5t-3 -83.5q0 -18 -22 -22q-45 -8 -100.5 -12t-114.5 -4q-170 0 -252 79t-82 246zM176 -255q0 10 7 15.5t17 5.5h85q9 0 16 -5.5t7 -15.5
v-85q0 -7 -7.5 -13t-15.5 -6h-85q-10 0 -17 6t-7 13v85zM377 -255q0 10 7 15.5t15 5.5h88q8 0 15 -5.5t7 -15.5v-85q0 -7 -7 -13t-15 -6h-88q-8 0 -15 6t-7 13v85z" />
    <glyph glyph-name="uniFEF2" unicode="&#x64a;" horiz-adv-x="1002" arabic-form="final" 
d="M45 154q0 12 1 28t2.5 35t4 38t6.5 37q2 10 6 15t15 5h99q18 0 18 -18q-2 -21 -3 -40.5t-1 -33.5q0 -54 6.5 -98.5t26.5 -76t57 -49t99 -17.5q26 0 43.5 1.5t37.5 4.5q1 23 1.5 41.5t1 35t0.5 33v36.5v75q0 120 70.5 177t205.5 57q45 0 87 -4t67 -9q8 -2 13 -6t5 -14
v-218q0 -21 9 -27.5t33 -6.5h46v-155h-87q-37 0 -65.5 5t-48.5 20t-30.5 42.5t-10.5 72.5v156q-12 2 -19.5 2.5t-18.5 0.5q-53 0 -77.5 -24t-24.5 -84v-155q0 -42 -1 -85.5t-3 -83.5q0 -18 -22 -22q-45 -8 -100.5 -12t-114.5 -4q-170 0 -252 79t-82 246zM176 -255
q0 10 7 15.5t17 5.5h85q9 0 16 -5.5t7 -15.5v-85q0 -7 -7.5 -13t-15.5 -6h-85q-10 0 -17 6t-7 13v85zM377 -255q0 10 7 15.5t15 5.5h88q8 0 15 -5.5t7 -15.5v-85q0 -7 -7 -13t-15 -6h-88q-8 0 -15 6t-7 13v85z" />
    <glyph glyph-name="uniFEF3" unicode="&#x64a;" horiz-adv-x="309" arabic-form="initial" 
d="M-40 144q0 5 11.5 8t20.5 3h58q22 0 29.5 4t7.5 27v112t-2 133q0 8 5.5 13.5t14.5 5.5h110q11 0 16.5 -5.5t6.5 -13.5q1 -31 1.5 -56.5t1 -48t0.5 -45v-47.5q0 -74 -1 -119.5t-4 -74.5q-2 -10 -6.5 -17t-16.5 -11q-12 -3 -33.5 -5.5t-47 -4t-52.5 -2t-49 -0.5h-39
q-9 0 -20.5 3t-11.5 8v133zM-65 -107q0 10 7 16.5t17 6.5h87q10 0 17.5 -6.5t7.5 -16.5v-96q0 -8 -8 -14.5t-17 -6.5h-87q-10 0 -17 6.5t-7 14.5v96zM138 -107q0 10 8 16.5t17 6.5h87q10 0 17 -6.5t7 -16.5v-96q0 -8 -7 -14.5t-17 -6.5h-87q-9 0 -17 6.5t-8 14.5v96z" />
    <glyph glyph-name="uniFEF4" unicode="&#x64a;" horiz-adv-x="329" arabic-form="medial" 
d="M-40 144q0 5 11.5 8t20.5 3h47q8 0 17 1t16 4t11.5 9.5t4.5 17.5v240q0 8 5.5 13.5t15.5 5.5h113q8 0 14 -5.5t6 -13.5v-259q3 -4 10 -6.5t15.5 -4t16.5 -2t14 -0.5h31v-155h-13q-42 0 -83.5 6.5t-69.5 27.5q-14 -10 -32.5 -16.5t-38 -10.5t-39 -5.5t-37.5 -1.5h-24
q-9 0 -20.5 3t-11.5 8v133zM-17 -107q0 10 7 16.5t17 6.5h87q10 0 17.5 -6.5t7.5 -16.5v-96q0 -8 -8 -14.5t-17 -6.5h-87q-10 0 -17 6.5t-7 14.5v96zM186 -107q0 10 8 16.5t17 6.5h87q10 0 17 -6.5t7 -16.5v-96q0 -8 -7 -14.5t-17 -6.5h-87q-9 0 -17 6.5t-8 14.5v96z" />
    <glyph glyph-name=".notdef" horiz-adv-x="500" 
d="M12 665h475v-665h-475v665zM250 375l161 243h-323zM60 91l7 10t18 27t25.5 39t29.5 45q35 54 81 121l-161 242v-484zM278 333l162 -243v485zM250 290l-162 -242h323z" />
    <glyph glyph-name=".null" horiz-adv-x="0" 
 />
    <glyph glyph-name="nonmarkingreturn" horiz-adv-x="333" 
 />
    <glyph glyph-name="space" unicode=" " horiz-adv-x="260" 
 />
    <glyph glyph-name="exclam" unicode="!" horiz-adv-x="375" 
d="M271 747l-20 -499q0 -8 -6 -14.5t-14 -6.5h-85q-8 0 -15 6.5t-7 14.5l-20 499v1q0 8 7 13.5t15 5.5h125q8 0 14 -5.5t6 -13.5v-1zM266 20q0 -8 -5.5 -14t-13.5 -6h-118q-8 0 -14 6t-6 14v126q0 8 6 13.5t14 5.5h118q19 0 19 -19v-126z" />
    <glyph glyph-name="quotedbl" unicode="&#x22;" horiz-adv-x="472" 
d="M449 756q0 -2 -2 -8l-75 -219q-4 -10 -7.5 -14.5t-11.5 -4.5h-101q-9 0 -9 10v4.5t1 4.5l54 219q4 19 20 19h119q12 0 12 -11zM230 756q0 -2 -2 -8l-75 -219q-4 -10 -7.5 -14.5t-11.5 -4.5h-101q-9 0 -9 10v4.5t1 4.5l54 219q4 19 20 19h119q12 0 12 -11z" />
    <glyph glyph-name="numbersign" unicode="#" horiz-adv-x="699" 
d="M651 537l-12 -76q-2 -11 -15 -11h-85l-15 -161h84q6 0 12 -4t6 -10v-2l-11 -71q-1 -5 -6 -10t-10 -5h-84l-14 -168q-1 -8 -5.5 -13.5t-12.5 -5.5h-102q-8 0 -12 5t-4 12v2l14 168h-113l-15 -168q-1 -8 -5.5 -13.5t-12.5 -5.5h-103q-7 0 -11.5 5t-4.5 12v2l14 168h-85
q-14 0 -14 13v2l12 75q2 12 14 12h83l14 161h-85q-14 0 -14 12v2l12 77q1 5 6 8t10 3h80l15 172q1 8 6 13.5t13 5.5h103q7 0 11 -5t4 -12v-2l-15 -172h113l16 172q1 8 6 13.5t13 5.5h102q8 0 11.5 -5t3.5 -12v-2l-16 -172h87q6 0 11.5 -3.5t5.5 -9.5v-2zM290 450l-15 -161
h113l15 161h-113z" />
    <glyph glyph-name="dollar" unicode="$" 
d="M575 210q0 -33 -10 -66.5t-32 -62t-57.5 -50.5t-86.5 -32v-94q0 -8 -6 -14t-14 -6h-110q-8 0 -14 6t-6 14v89q-38 2 -69 7t-58 12q-8 2 -13.5 7t-5.5 13v98q0 8 5.5 13.5t13.5 5.5h2q15 -2 40 -4t52 -4t53 -3t44 -1q52 0 71 17.5t19 52.5q0 22 -13.5 37.5t-52.5 38.5
l-138 82q-35 21 -58 43t-36.5 46t-19 49.5t-5.5 52.5q0 34 8.5 64.5t28.5 55.5t52.5 42.5t79.5 25.5v86q0 8 6 14t14 6h110q8 0 14 -6t6 -14v-82q44 -3 85 -8.5t61 -10.5q8 -2 13.5 -6.5t5.5 -12.5v-99q0 -8 -5 -13t-13 -5h-2q-47 5 -104 8t-108 3q-42 0 -59.5 -12.5
t-17.5 -40.5q0 -9 3 -17t10.5 -16.5t20.5 -17t33 -19.5l127 -69q77 -42 106.5 -92t29.5 -111z" />
    <glyph glyph-name="percent" unicode="%" horiz-adv-x="839" 
d="M801 166q0 -88 -38 -130t-109 -42t-109.5 42t-38.5 130v75q0 88 38.5 130t109.5 42t109 -42t38 -130v-75zM698 735q0 -7 -4 -12l-416 -702q-6 -11 -10.5 -16t-12.5 -5h-103q-11 0 -11 11q0 4 3 10l416 702q7 11 12 15.5t13 4.5h103q10 0 10 -8zM334 502q0 -88 -38.5 -130
t-109.5 -42t-109.5 42t-38.5 130v75q0 88 38.5 129.5t109.5 41.5t109.5 -41.5t38.5 -129.5v-75zM701 241q0 51 -12.5 68t-34.5 17t-35 -17t-13 -68v-75q0 -51 13 -68t35 -17t34.5 17t12.5 68v75zM233 577q0 51 -12.5 68t-34.5 17t-35 -17t-13 -68v-75q0 -51 13 -68.5
t35 -17.5t34.5 17.5t12.5 68.5v75z" />
    <glyph glyph-name="ampersand" unicode="&#x26;" horiz-adv-x="732" 
d="M714 12q0 -12 -12 -12h-142q-6 0 -9 1.5t-8 6.5l-30 32q-38 -23 -84 -36t-102 -13q-59 0 -109.5 10.5t-88 34t-58.5 61t-21 90.5v9q0 65 35.5 110.5t97.5 83.5l-8 9q-27 31 -44.5 55t-27.5 44.5t-13.5 37.5t-3.5 34v9q0 37 14 68.5t43 54.5t73.5 36.5t106.5 13.5
q55 0 98 -12.5t71.5 -35.5t43.5 -55t15 -70v-9q0 -35 -10.5 -62t-28.5 -49t-42 -40.5t-51 -35.5l-31 -20l130 -137q8 20 12.5 48.5t4.5 75.5v8q0 8 5 14t13 6h93q8 0 13.5 -6t5.5 -14v-8q0 -56 -11.5 -110t-46.5 -108l102 -108q5 -5 5 -12zM402 579q0 28 -19.5 44.5
t-59.5 16.5q-44 0 -66.5 -16.5t-22.5 -44.5v-9q0 -11 1.5 -21t7 -21.5t16.5 -26.5t31 -34l8 -8l26 16q23 14 38 25.5t24 22t12.5 22t3.5 25.5v9zM274 293q-36 -22 -47 -45t-11 -52v-9q0 -40 30 -60t81 -20q59 0 100 23z" />
    <glyph glyph-name="quotesingle" unicode="'" horiz-adv-x="253" 
d="M230 756q0 -2 -2 -8l-75 -219q-4 -10 -7.5 -14.5t-11.5 -4.5h-101q-9 0 -9 10v4.5t1 4.5l54 219q4 19 20 19h119q12 0 12 -11z" />
    <glyph glyph-name="parenleft" unicode="(" horiz-adv-x="361" 
d="M328 -184q0 -10 -12 -10h-100q-11 0 -19.5 3t-14.5 11q-32 45 -56.5 92.5t-41 101.5t-25 116t-8.5 135v18q0 145 33.5 251t97.5 195q6 8 14.5 11t19.5 3h100q12 0 12 -10q0 -6 -5 -16q-21 -38 -40.5 -83.5t-34.5 -99.5t-24 -116.5t-9 -134.5v-18q0 -72 9 -134.5t24 -116
t34.5 -99t40.5 -83.5q5 -10 5 -16z" />
    <glyph glyph-name="parenright" unicode=")" horiz-adv-x="361" 
d="M310 265q0 -73 -8.5 -135t-25 -116t-41 -101.5t-56.5 -92.5q-6 -8 -14.5 -11t-19.5 -3h-100q-12 0 -12 10q0 6 5 16q21 38 40.5 83.5t34.5 99t24 116t9 134.5v18q0 72 -9 134.5t-24 116.5t-34.5 99.5t-40.5 83.5q-5 10 -5 16q0 10 12 10h100q11 0 19.5 -3t14.5 -11
q64 -89 97.5 -195t33.5 -251v-18z" />
    <glyph glyph-name="asterisk" unicode="*" horiz-adv-x="479" 
d="M445 570q0 -10 -15 -15l-115 -34l72 -98q5 -8 5 -14q0 -8 -6 -12l-52 -38q-5 -3 -9 -3q-9 0 -16 10l-69 100l-69 -100q-7 -10 -16 -10q-5 0 -9 3l-53 38q-7 4 -7 12q0 3 2 6.5t4 7.5l72 98l-114 34q-16 5 -16 16q0 3 1 5l20 63q3 10 13 10q3 0 5.5 -0.5t5.5 -1.5l115 -38
l-3 119q0 8 4 14.5t12 6.5h66q8 0 11.5 -6.5t3.5 -14.5l-1 -119l113 38q3 1 5.5 1.5t5.5 0.5q10 0 13 -10l20 -63q1 -2 1 -6z" />
    <glyph glyph-name="plus" unicode="+" 
d="M573 346q0 -8 -6 -12t-14 -4h-170v-169q0 -8 -4 -14t-12 -6h-90q-8 0 -12 6t-4 14v169h-169q-8 0 -14 4t-6 12v90q0 8 6 12t14 4h169v170q0 8 4 14t12 6h90q8 0 12 -6t4 -14v-170h170q8 0 14 -4t6 -12v-90z" />
    <glyph glyph-name="comma" unicode="," horiz-adv-x="274" 
d="M231 153q0 -3 -2 -7l-96 -224q-4 -8 -7.5 -14t-11.5 -6h-88q-7 0 -12 4.5t-5 10.5q0 2 0.5 2.5t0.5 2.5l64 224q5 19 20 19h122q15 0 15 -12z" />
    <glyph glyph-name="hyphen" unicode="-" horiz-adv-x="302" 
d="M268 264q0 -8 -6 -13t-14 -5h-194q-8 0 -14 5t-6 13v80q0 8 6 13.5t14 5.5h194q8 0 14 -5.5t6 -13.5v-80z" />
    <glyph glyph-name="period" unicode="." horiz-adv-x="274" 
d="M216 20q0 -8 -6 -14t-14 -6h-117q-8 0 -14.5 6t-6.5 14v126q0 8 6.5 13.5t14.5 5.5h117q8 0 14 -5.5t6 -13.5v-126z" />
    <glyph glyph-name="slash" unicode="/" horiz-adv-x="405" 
d="M391 727q0 -1 -0.5 -1.5t-0.5 -2.5l-211 -702q-2 -8 -7 -14.5t-13 -6.5h-127q-8 0 -13.5 5t-5.5 12q0 1 0.5 2t0.5 2l212 702q2 8 7 14t13 6h127q7 0 12.5 -4.5t5.5 -11.5z" />
    <glyph glyph-name="zero" unicode="0" 
d="M592 328q0 -90 -18.5 -154t-53 -104.5t-84.5 -59.5t-114 -19t-114 19t-84.5 59.5t-52.5 104.5t-18 154v86q0 90 18 154t52.5 105t84.5 60t114 19t114 -19t84.5 -60t53 -105t18.5 -154v-86zM421 414q0 59 -7.5 97t-21 60t-31.5 30.5t-39 8.5t-39 -8.5t-31 -30.5t-20.5 -60
t-7.5 -97v-86q0 -59 7.5 -97t20.5 -60t31 -30t39 -8t39 8t31.5 30t21 60t7.5 97v86z" />
    <glyph glyph-name="one" unicode="1" 
d="M254 142v430l-130 -56q-8 -3 -12 -3q-11 0 -11 13v114q0 10 10 14l181 85q9 4 23 4h90q19 0 19 -19v-582h133q8 0 14 -5.5t6 -13.5v-103q0 -8 -6 -14t-14 -6h-436q-8 0 -14 6t-6 14v103q0 8 6 13.5t14 5.5h133z" />
    <glyph glyph-name="two" unicode="2" 
d="M570 561q0 -61 -29.5 -105.5t-85.5 -82.5l-85 -57q-32 -21 -58.5 -40.5t-46 -39.5t-30 -42t-10.5 -48v-4h316q8 0 14 -5.5t6 -13.5v-103q0 -8 -6 -14t-14 -6h-445q-8 0 -14 6t-6 14v102q0 83 39.5 148t96.5 106l92 65q33 23 53 37.5t31 26t14.5 23t3.5 29.5
q0 32 -22.5 46t-83.5 14q-46 0 -98.5 -4t-98.5 -9h-2q-8 0 -13 6t-5 14v78q0 8 5.5 12.5t13.5 6.5q42 13 99.5 22t113.5 9q138 0 196.5 -47.5t58.5 -143.5z" />
    <glyph glyph-name="three" unicode="3" 
d="M566 212q0 -57 -19 -99t-53.5 -69t-82.5 -40t-106 -13q-59 0 -113.5 8t-93.5 20q-8 2 -13.5 6.5t-5.5 12.5v80q0 8 5 13t13 5h2q53 -5 105.5 -7t93.5 -2q54 0 76.5 21.5t22.5 63.5v18q0 17 -3.5 32.5t-12.5 27.5t-25 19t-40 7h-176q-8 0 -13.5 6t-5.5 14v85q0 19 19 19
h172q24 0 40.5 7.5t26.5 19.5t14 27.5t4 32.5v14q0 34 -20.5 54.5t-78.5 20.5q-26 0 -49.5 -1t-47 -2.5t-48 -3.5t-52.5 -5h-2q-8 0 -13 5t-5 13v80q0 8 6 12.5t14 6.5q39 12 92 21.5t112 9.5q61 0 109.5 -11t82 -35.5t51.5 -63.5t18 -95v-14q0 -44 -24.5 -87t-64.5 -66
q42 -22 65.5 -61.5t23.5 -88.5v-18z" />
    <glyph glyph-name="four" unicode="4" 
d="M606 187q0 -8 -6 -14t-14 -6h-66v-147q0 -8 -5.5 -14t-13.5 -6h-133q-8 0 -13.5 6t-5.5 14v147h-289q-8 0 -14 6t-6 14v97q0 15 11 31l316 414q5 7 11 10.5t15 3.5h107q8 0 14 -6t6 -14v-424h66q8 0 14 -6t6 -14v-92zM354 519q0 6 -4 6q-1 0 -3 -2l-157 -214q-2 -2 -2 -6
t6 -4h160v220z" />
    <glyph glyph-name="five" unicode="5" 
d="M566 236q0 -119 -69 -182t-201 -63q-48 0 -100.5 7.5t-96.5 21.5q-8 2 -14 6.5t-6 15.5v79q0 8 5 13t13 5h2q24 -3 49.5 -5t50 -3.5t45.5 -2.5t35 -1q36 0 58 7.5t35 21.5t17.5 34t4.5 46v8q0 25 -6.5 42.5t-23 28.5t-43.5 16t-69 5h-155q-6 0 -10 4.5t-4 9.5v1l31 373
q1 8 6.5 13.5t13.5 5.5h389q8 0 14 -5.5t6 -13.5v-100q0 -8 -6 -13.5t-14 -5.5h-272l-12 -138h29q65 0 119.5 -10.5t94.5 -36t62 -68.5t22 -108v-8z" />
    <glyph glyph-name="six" unicode="6" 
d="M589 245q0 -57 -17 -104t-50.5 -80t-83 -51.5t-113.5 -18.5q-60 0 -109.5 18t-85 54.5t-54.5 91.5t-19 130v153q0 85 19.5 144.5t55.5 97t87.5 55t115.5 17.5q68 0 117 -6t80 -14q22 -6 22 -22v-87q0 -21 -18 -21h-5q-18 3 -40.5 5.5t-46.5 4.5t-48.5 3t-46.5 1
q-66 0 -95.5 -31.5t-29.5 -114.5v-7q20 4 53 8t65 4q51 0 95.5 -11.5t78.5 -38t53.5 -69t19.5 -104.5v-7zM422 252q0 31 -8.5 51t-23 32t-34 16.5t-41.5 4.5q-10 0 -22 -1t-24.5 -2.5t-24 -3.5t-20.5 -3v-61q0 -51 7.5 -83t21 -50t32 -24.5t40.5 -6.5q21 0 38.5 5.5
t30.5 19.5t20.5 38t7.5 61v7z" />
    <glyph glyph-name="seven" unicode="7" 
d="M566 637q0 -10 -4.5 -21t-11.5 -25l-263 -572q-9 -19 -25 -19h-137q-18 0 -18 12q0 5 3 11l272 571q1 2 1 5q0 6 -7 6h-277q-8 0 -14.5 5.5t-6.5 13.5v100q0 8 6.5 13.5t14.5 5.5h433q14 0 24 -9.5t10 -23.5v-73z" />
    <glyph glyph-name="eight" unicode="8" 
d="M593 213q0 -54 -19.5 -95.5t-54.5 -69.5t-83.5 -42.5t-107.5 -14.5h-11q-59 0 -107.5 14.5t-83.5 42.5t-54.5 69.5t-19.5 95.5v13q0 50 23.5 91t61.5 69q-81 55 -81 150v11q0 52 18.5 91t52.5 64t82.5 37.5t107.5 12.5h11q59 0 107.5 -12.5t83 -37.5t53 -64t18.5 -91v-11
q0 -94 -82 -150q38 -28 61.5 -69t23.5 -91v-13zM429 536q0 40 -23 65.5t-78 25.5h-11q-55 0 -78 -25.5t-23 -65.5v-5q0 -38 22 -62.5t69 -24.5h31q47 0 69 24.5t22 62.5v5zM428 228q0 17 -5 34.5t-15.5 31t-27.5 22t-42 8.5h-31q-25 0 -42 -8.5t-27.5 -22t-15.5 -31
t-5 -34.5v-10q0 -44 25 -72.5t75 -28.5h11q50 0 75 28.5t25 72.5v10z" />
    <glyph glyph-name="nine" unicode="9" 
d="M589 305q0 -85 -19.5 -144.5t-55.5 -97t-87.5 -55t-115.5 -17.5q-68 0 -117 6t-80 14q-22 5 -22 22v87q0 21 18 21h5q18 -3 40.5 -5.5t46.5 -4.5t48.5 -3t46.5 -1q66 0 95.5 31.5t29.5 114.5v7q-20 -4 -53 -8t-65 -4q-51 0 -95.5 11.5t-78.5 37.5t-53.5 69t-19.5 105v7
q0 57 17 104t50.5 80t82.5 51.5t114 18.5q60 0 109.5 -18t85 -54.5t54.5 -91.5t19 -130v-153zM422 458q0 51 -7.5 83t-21 50t-32 24.5t-40.5 6.5q-21 0 -38.5 -5.5t-30.5 -19.5t-20.5 -38t-7.5 -61v-7q0 -31 8.5 -51t23 -32t34 -16.5t41.5 -4.5q10 0 22 1t24.5 2.5t24 3
t20.5 3.5v61z" />
    <glyph glyph-name="colon" unicode=":" horiz-adv-x="275" 
d="M216 402q0 -8 -6 -13.5t-14 -5.5h-117q-8 0 -14.5 5.5t-6.5 13.5v126q0 8 6.5 14t14.5 6h117q8 0 14 -6t6 -14v-126zM216 20q0 -8 -6 -14t-14 -6h-117q-8 0 -14.5 6t-6.5 14v126q0 8 6.5 13.5t14.5 5.5h117q8 0 14 -5.5t6 -13.5v-126z" />
    <glyph glyph-name="semicolon" unicode=";" horiz-adv-x="275" 
d="M216 402q0 -8 -6.5 -13.5t-14.5 -5.5h-117q-8 0 -14 5.5t-6 13.5v126q0 8 6 14t14 6h117q8 0 14.5 -6t6.5 -14v-126zM216 151q0 -3 -2 -7l-95 -224q-4 -8 -8 -14t-12 -6h-88q-7 0 -12 4.5t-5 10.5q0 2 0.5 2.5t0.5 2.5l64 224q5 19 20 19h122q15 0 15 -12z" />
    <glyph glyph-name="less" unicode="&#x3c;" 
d="M536 150q0 -13 -12 -13h-139q-8 0 -13.5 3t-10.5 8l-233 207q-20 17 -20 36t20 36l233 207q5 5 10.5 8t13.5 3h139q12 0 12 -13q0 -6 -6 -12l-259 -229l259 -229q6 -6 6 -12z" />
    <glyph glyph-name="equal" unicode="=" 
d="M552 474q0 -8 -6 -12t-14 -4h-419q-8 0 -14 4t-6 12v90q0 8 6 12t14 4h419q8 0 14 -4t6 -12v-90zM552 218q0 -8 -6 -12t-14 -4h-419q-8 0 -14 4t-6 12v90q0 8 6 12t14 4h419q8 0 14 -4t6 -12v-90z" />
    <glyph glyph-name="greater" unicode="&#x3e;" 
d="M536 391q0 -11 -5 -19t-16 -17l-232 -207q-5 -5 -10.5 -8t-13.5 -3h-139q-12 0 -12 13q0 6 6 12l259 229l-259 229q-6 6 -6 12q0 13 12 13h139q8 0 13.5 -3t10.5 -8l232 -207q11 -9 16 -17t5 -19z" />
    <glyph glyph-name="question" unicode="?" horiz-adv-x="479" 
d="M431 580q0 -34 -17.5 -68.5t-59.5 -88.5l-45 -58q-17 -22 -28 -36t-17 -23.5t-8.5 -16.5t-2.5 -15v-28q0 -9 -8 -14t-16 -5h-100q-8 0 -13.5 6t-5.5 14v27q0 19 1 35.5t5.5 31.5t13 30.5t22.5 34.5l48 63q28 37 37 58t9 43v10q0 17 -11.5 27t-37.5 10q-39 0 -73 -3
t-70 -8h-3q-17 0 -17 21v89q0 11 3.5 17t14.5 9q32 10 75 15.5t85 5.5q52 0 92.5 -8.5t68.5 -28t43 -51t15 -78.5v-17zM262 19q0 -8 -6 -13.5t-14 -5.5h-118q-8 0 -14 5.5t-6 13.5v126q0 8 6 14t14 6h118q8 0 14 -6t6 -14v-126z" />
    <glyph glyph-name="at" unicode="@" horiz-adv-x="774" 
d="M741 361q0 -90 -27.5 -150.5t-76.5 -97t-117.5 -52t-149.5 -15.5q-38 0 -70 9t-55 27t-36 45.5t-13 63.5q0 5 0.5 9t0.5 9l9 116q7 88 60.5 127.5t137.5 39.5q32 0 66.5 -4t66.5 -11q24 -5 24 -27v-4l-28 -299q36 6 60 24t39 46t21.5 64.5t6.5 79.5q0 45 -14 86.5
t-43.5 73t-74.5 50.5t-107 19q-132 0 -205 -63.5t-84 -182.5l-15 -160q-1 -9 -1.5 -17.5t-0.5 -16.5q0 -44 15 -80t46 -62.5t78 -41t110 -14.5q45 0 83 4t64 4h5q8 0 8 -10v-39q0 -12 -12 -13q-26 -3 -63.5 -6.5t-84.5 -3.5q-72 0 -132.5 17t-104.5 50.5t-68.5 83
t-24.5 113.5v3v14t1 15l16 165q7 72 35 129.5t75 98t112.5 62.5t148.5 22q81 0 140.5 -25t99.5 -67t59.5 -96t19.5 -112zM442 392q-28 5 -51 5q-36 0 -51 -16.5t-20 -59.5l-11 -111q-1 -5 -1 -9v-8q0 -29 15.5 -40.5t53.5 -11.5h21.5t20.5 1z" />
    <glyph glyph-name="A" unicode="A" horiz-adv-x="669" 
d="M650 16q0 -16 -17 -16h-140q-8 0 -13 5t-7 13l-36 164h-205l-36 -164q-2 -8 -7 -13t-13 -5h-140q-17 0 -17 16q0 1 0.5 2t0.5 3l149 620q9 36 26 58t39.5 33.5t48.5 15.5t52 4t51.5 -4t48 -15.5t39.5 -33.5t26 -58l149 -620q0 -2 0.5 -3t0.5 -2zM348 595q-2 8 -4 11.5
t-9 3.5q-11 0 -14 -15l-61 -276h149z" />
    <glyph glyph-name="B" unicode="B" horiz-adv-x="669" 
d="M623 215q0 -66 -25 -109.5t-67.5 -69t-100 -35.5t-122.5 -10q-25 0 -51 1t-50.5 2.5t-45.5 3.5t-36 5q-30 5 -42.5 18t-12.5 47v608q0 34 12 47t41 18q13 2 33.5 4t45 3.5t50.5 2.5t50 1q71 0 129 -10.5t99.5 -34.5t64.5 -64t23 -100v-18q0 -49 -22 -88t-62 -59
q40 -20 64.5 -58t24.5 -90v-15zM453 532q0 41 -30.5 60.5t-107.5 19.5h-16.5h-22t-22 -0.5t-15.5 -0.5v-173h112q30 0 49.5 6.5t31 17t16.5 25t5 30.5v15zM457 230q0 36 -23 62.5t-83 26.5h-112v-187h17.5t24 -0.5t24 -0.5h16.5q77 0 106.5 23t29.5 65v11z" />
    <glyph glyph-name="C" unicode="C" horiz-adv-x="561" 
d="M520 31q0 -11 -5.5 -15.5t-16.5 -7.5q-16 -5 -56 -11t-93 -6q-57 0 -110.5 16t-94.5 53.5t-66 98.5t-25 150v126q0 89 25 150t66 98t94.5 53t110.5 16q53 0 93 -6t56 -11q11 -3 16.5 -7t5.5 -15v-97q0 -20 -19 -20h-3q-29 2 -67.5 5t-80.5 3q-26 0 -48.5 -7.5t-39.5 -27
t-26.5 -52t-9.5 -82.5v-126q0 -50 9.5 -82.5t26.5 -52t39.5 -27t48.5 -7.5q42 0 80.5 3t67.5 5h3q19 0 19 -20v-97z" />
    <glyph glyph-name="D" unicode="D" horiz-adv-x="682" 
d="M631 307q0 -79 -22 -138.5t-63 -99t-100 -59t-134 -19.5q-31 0 -62.5 1.5t-60 3.5t-52 4.5t-38.5 5.5q-14 2 -21.5 10t-7.5 25v661q0 17 7.5 25t21.5 10q15 3 38.5 5.5t52 4.5t60 3.5t62.5 1.5q75 0 134 -19.5t100 -59t63 -99t22 -138.5v-129zM460 436q0 51 -10.5 84
t-30 52.5t-46.5 27t-61 7.5q-19 0 -39.5 -0.5t-31.5 -1.5v-467q11 -1 31.5 -1.5t39.5 -0.5q34 0 61 7.5t46.5 27t30 52.5t10.5 84v129z" />
    <glyph glyph-name="E" unicode="E" horiz-adv-x="580" 
d="M524 25q0 -18 -20 -21q-26 -4 -69.5 -8.5t-124.5 -4.5q-48 0 -92 8t-77.5 31t-53.5 65.5t-20 110.5v332q0 68 20 110t53.5 65t78 31t92.5 8q40 0 70.5 -1.5t53.5 -3.5t39.5 -4t29.5 -4q20 -3 20 -20v-93q0 -8 -6 -14t-14 -6h-203q-35 0 -49.5 -14.5t-14.5 -53.5v-91h259
q8 0 14 -6t6 -14v-95q0 -8 -6 -14t-14 -6h-259v-106q0 -39 14.5 -53.5t49.5 -14.5h203q8 0 14 -6t6 -14v-93z" />
    <glyph glyph-name="F" unicode="F" horiz-adv-x="581" 
d="M524 625q0 -8 -6 -14t-14 -6h-203q-35 0 -49.5 -14.5t-14.5 -53.5v-90h259q8 0 14 -6t6 -14v-95q0 -8 -6 -14t-14 -6h-259v-292q0 -8 -6 -14t-14 -6h-130q-8 0 -14 6t-6 14v517q0 68 20 110t53.5 65t78 31t92.5 8q40 0 70.5 -1.5t53.5 -3.5t39.5 -4t29.5 -4q20 -3 20 -20
v-93z" />
    <glyph glyph-name="G" unicode="G" 
d="M580 608q0 -8 -4 -10.5t-11 -2.5h-3l-90 5t-118 3q-30 0 -54.5 -8t-41.5 -27.5t-26 -52.5t-9 -82v-125q0 -52 10.5 -85t27 -52t36.5 -26t38 -7q41 0 77 3v230q0 8 5.5 14t13.5 6h128q8 0 14 -6t6 -14v-336q0 -19 -20 -23q-41 -8 -95 -14.5t-129 -6.5q-29 0 -61 6
t-63.5 20t-60.5 38t-51.5 59t-35.5 83.5t-13 111.5v124q0 96 27 157.5t70.5 97.5t98 50t108.5 14q75 0 128 -8.5t81 -14.5q17 -3 17 -15v-106z" />
    <glyph glyph-name="H" unicode="H" horiz-adv-x="729" 
d="M659 20q0 -8 -6 -14t-14 -6h-131q-8 0 -14 6t-6 14v289h-247v-289q0 -8 -6 -14t-14 -6h-131q-8 0 -14 6t-6 14v704q0 8 6 13.5t14 5.5h131q8 0 14 -5.5t6 -13.5v-266h247v266q0 8 6 13.5t14 5.5h131q8 0 14 -5.5t6 -13.5v-704z" />
    <glyph glyph-name="I" unicode="I" horiz-adv-x="311" 
d="M241 20q0 -8 -5.5 -14t-13.5 -6h-134q-8 0 -13 6t-5 14v704q0 19 18 19h134q19 0 19 -19v-704z" />
    <glyph glyph-name="J" unicode="J" horiz-adv-x="311" 
d="M241 -6q0 -51 -14 -84.5t-38 -53t-56.5 -27.5t-70.5 -8q-17 0 -30.5 1t-33.5 3q-15 2 -15 17v102q0 5 3 9.5t8 4.5h50q17 0 21.5 8.5t4.5 27.5v730q0 8 6 13.5t14 5.5h131q8 0 14 -5.5t6 -13.5v-730z" />
    <glyph glyph-name="K" unicode="K" horiz-adv-x="678" 
d="M652 732q0 -6 -5 -14l-238 -338l239 -359q4 -5 4 -11q0 -10 -14 -10h-172q-9 0 -13.5 4t-8.5 10l-203 330v-324q0 -8 -6 -14t-14 -6h-131q-8 0 -14 6t-6 14v704q0 8 6 13.5t14 5.5h131q8 0 14 -5.5t6 -13.5v-318l220 325q7 12 22 12h153q16 0 16 -11z" />
    <glyph glyph-name="L" unicode="L" horiz-adv-x="519" 
d="M497 25q0 -17 -20 -21q-12 -3 -32 -5t-42.5 -4t-45.5 -3t-43 -1q-48 0 -92.5 8t-78 31t-53.5 65.5t-20 110.5v517q0 8 6 14t14 6h131q8 0 14 -6t6 -14v-517q0 -39 14.5 -53.5t49.5 -14.5h172q8 0 14 -6t6 -14v-93z" />
    <glyph glyph-name="M" unicode="M" horiz-adv-x="816" 
d="M746 14q0 -8 -5.5 -11t-11.5 -3h-132q-7 0 -11.5 6t-4.5 14v417q0 8 -5 8q-4 0 -8 -7l-90 -165q-10 -17 -30 -17h-80q-20 0 -30 17l-90 165q-4 7 -8 7q-5 0 -5 -8v-417q0 -8 -4.5 -14t-11.5 -6h-132q-6 0 -11.5 3t-5.5 11v695q0 16 10 25t26 9h94q30 0 44 -27l153 -285
q6 -13 11 -13q4 0 11 13l153 285q14 27 44 27h94q16 0 26 -9.5t10 -25.5v-694z" />
    <glyph glyph-name="N" unicode="N" horiz-adv-x="729" 
d="M659 38q0 -16 -11.5 -27t-27.5 -11h-98q-16 0 -28 5.5t-24 25.5l-228 394q-5 8 -9 8q-5 0 -5 -8v-405q0 -8 -6 -14t-14 -6h-118q-8 0 -14 6t-6 14v685q0 16 11 27t27 11h101q15 0 24 -7.5t18 -23.5l237 -412q5 -8 8 -8q5 0 5 9v423q0 8 6 13.5t14 5.5h118q8 0 14 -5.5
t6 -13.5v-686z" />
    <glyph glyph-name="O" unicode="O" horiz-adv-x="698" 
d="M645 312q0 -87 -23 -148t-63 -99.5t-94 -56t-116 -17.5t-116 17.5t-94 56t-63 99.5t-23 148v119q0 87 23 148t63 99.5t94 56t116 17.5t116 -17.5t94 -56t63 -99.5t23 -148v-119zM473 431q0 91 -30.5 131t-93.5 40t-93 -40t-30 -131v-119q0 -91 30 -131t93 -40t93.5 40
t30.5 131v119z" />
    <glyph glyph-name="P" unicode="P" horiz-adv-x="651" 
d="M618 502q0 -70 -25.5 -116.5t-67.5 -74.5t-95.5 -39.5t-109.5 -11.5q-18 0 -40 1t-41 2v-243q0 -8 -6 -14t-14 -6h-129q-8 0 -14 5.5t-6 13.5v672q0 26 11 35t34 13q38 6 93.5 9.5t109.5 3.5q57 0 111 -11t96 -39t67.5 -74.5t25.5 -116.5v-9zM448 511q0 54 -32.5 76.5
t-95.5 22.5q-5 0 -17 -0.5t-24.5 -1t-24 -1t-15.5 -0.5v-204q4 0 15.5 -0.5t25 -1t25 -0.5h15.5q67 0 97.5 25t30.5 76v9z" />
    <glyph glyph-name="Q" unicode="Q" horiz-adv-x="698" 
d="M645 312q0 -72 -16 -126.5t-44.5 -92.5t-68 -61t-86.5 -33v-20q0 -16 7 -20.5t18 -4.5h90q11 0 17.5 -4t6.5 -12v-82q0 -16 -23 -22q-21 -5 -51.5 -9t-59.5 -4q-35 0 -65 8t-52.5 26.5t-35.5 48.5t-13 74v21q-47 10 -86.5 33t-68.5 61t-45 92.5t-16 126.5v119
q0 87 23 148t63 99.5t94 56t116 17.5t116 -17.5t94 -56t63 -99.5t23 -148v-119zM473 431q0 91 -30.5 131t-93.5 40t-93 -40t-30 -131v-119q0 -91 30 -131t93 -40t93.5 40t30.5 131v119z" />
    <glyph glyph-name="R" unicode="R" horiz-adv-x="680" 
d="M644 12q0 -12 -15 -12h-153q-8 0 -12 6t-8 14l-134 253l-11 -1q-16 0 -36.5 1t-34.5 1v-254q0 -8 -6 -14t-14 -6h-130q-8 0 -14 6t-6 14v671q0 26 11 35t34 13q17 3 41 5t51 4t55.5 3t55.5 1q64 0 119 -11.5t95.5 -39t63.5 -72.5t23 -111v-13q0 -80 -37 -129t-92 -71
l151 -282q3 -6 3 -11zM449 518q0 46 -34 67.5t-97 21.5q-5 0 -16.5 -0.5t-23.5 -1t-23 -1t-15 -0.5v-192q4 0 14 -0.5t21.5 -1t21.5 -0.5h14q39 0 65.5 5.5t42.5 16.5t23 29t7 44v13z" />
    <glyph glyph-name="S" unicode="S" horiz-adv-x="588" 
d="M546 210q0 -40 -14 -79t-46.5 -70t-84.5 -50.5t-128 -19.5q-60 0 -105.5 6t-83.5 16q-8 2 -14 7t-6 13v98q0 11 5 15t13 4h3q15 -2 41.5 -4t54.5 -3.5t53.5 -3t40.5 -1.5q52 0 70.5 17t18.5 53q0 22 -13.5 37.5t-52.5 38.5l-138 82q-35 21 -57.5 43t-36 46t-19 49.5
t-5.5 52.5q0 41 12.5 76.5t42.5 62t79 41.5t122 15q27 0 58.5 -2t60.5 -5t54 -7t39 -8q6 -2 10.5 -6t4.5 -12v-101q0 -7 -3.5 -12t-13.5 -5h-2q-11 1 -35.5 2.5t-55.5 3.5t-63.5 3.5t-57.5 1.5q-43 0 -60.5 -13t-17.5 -40q0 -11 3 -19t10.5 -15.5t20.5 -16t33 -19.5l128 -69
q78 -42 106.5 -92t28.5 -111z" />
    <glyph glyph-name="T" unicode="T" horiz-adv-x="587" 
d="M562 621q0 -8 -6.5 -13.5t-14.5 -5.5h-162v-582q0 -8 -6 -14t-14 -6h-131q-8 0 -14 6t-6 14v582h-163q-8 0 -14 5.5t-6 13.5v103q0 8 6 13.5t14 5.5h496q8 0 14.5 -5.5t6.5 -13.5v-103z" />
    <glyph glyph-name="U" unicode="U" horiz-adv-x="711" 
d="M644 279q0 -86 -23 -141.5t-62 -88t-91.5 -45.5t-112.5 -13t-112.5 13t-91.5 45.5t-61.5 88t-22.5 141.5v445q0 8 6 13.5t14 5.5h131q8 0 14 -5.5t6 -13.5v-445q0 -38 5.5 -65.5t19 -45t36 -26t56.5 -8.5t56.5 8.5t36 26t19.5 45t6 65.5v445q0 8 6 13.5t14 5.5h130
q8 0 14.5 -5.5t6.5 -13.5v-445z" />
    <glyph glyph-name="V" unicode="V" horiz-adv-x="686" 
d="M658 727q0 -1 -0.5 -2t-0.5 -3l-149 -620q-9 -36 -26 -58t-39.5 -33.5t-48 -15.5t-51.5 -4t-52 4t-48.5 15.5t-39.5 33.5t-26 58l-149 620q0 2 -0.5 2.5t-0.5 2.5q0 7 5 11.5t13 4.5h139q8 0 13 -5t7 -13l125 -577q3 -15 14 -15t14 15l125 577q2 8 6.5 13t12.5 5h140
q17 0 17 -16z" />
    <glyph glyph-name="W" unicode="W" horiz-adv-x="889" 
d="M872 728l-93 -655q-6 -44 -29 -60t-63 -16h-57q-33 0 -57.5 15t-34.5 53l-79 299q-2 6 -3.5 7t-5.5 1t-5 -1t-3 -7l-79 -299q-10 -38 -34.5 -53t-57.5 -15h-57q-40 0 -63 16t-29 60l-93 655v2q0 8 5 10.5t11 2.5h136q14 0 16 -19l57 -536q1 -13 6 -13q4 0 7 13l72 275
q8 29 25 38.5t37 9.5h99q20 0 37 -9.5t25 -38.5l72 -275q3 -13 7 -13q5 0 6 13l57 536q2 19 16 19h136q6 0 11 -2.5t5 -10.5v-2z" />
    <glyph glyph-name="X" unicode="X" horiz-adv-x="703" 
d="M671 10q0 -10 -13 -10h-159q-10 0 -15.5 3.5t-10.5 11.5l-130 211l-117 -206q-5 -9 -11 -14.5t-14 -5.5h-148q-15 0 -15 13q0 3 2 7l209 361l-211 343q-2 4 -2 6q0 5 4.5 9t10.5 4h161q8 0 14 -6t11 -13l124 -202l112 202q4 7 10.5 13t14.5 6h148q6 0 10.5 -4t4.5 -9
q0 -2 -2 -6l-206 -353l215 -351q3 -6 3 -10z" />
    <glyph glyph-name="Y" unicode="Y" horiz-adv-x="647" 
d="M626 728q0 -5 -1 -7l-151 -346q-15 -35 -31 -52t-34 -25v-278q0 -8 -6 -14t-14 -6h-131q-8 0 -14 6t-6 14v278q-18 8 -34.5 25t-31.5 52l-151 346q-1 2 -1 7q0 6 4 10.5t12 4.5h144q8 0 13 -5t7 -12l108 -282q4 -10 7 -12.5t8 -2.5t8 2.5t7 12.5l108 282q2 7 7 12t13 5
h144q8 0 12 -4.5t4 -10.5z" />
    <glyph glyph-name="Z" unicode="Z" horiz-adv-x="615" 
d="M565 20q0 -8 -6 -14t-14 -6h-454q-17 0 -29 7t-12 24v80q0 11 3 20.5t12 23.5l279 422q4 5 4 10q0 8 -11 8h-249q-8 0 -14 5.5t-6 13.5v110q0 8 6 13.5t14 5.5h431q16 0 28 -7t12 -21v-7q0 -3 0.5 -7.5t0.5 -9.5q0 -11 -0.5 -22.5t-0.5 -21.5v-23q0 -13 -8 -26l-282 -432
q-5 -7 -5 -11q0 -7 11 -7h270q8 0 14 -5t6 -13v-110z" />
    <glyph glyph-name="bracketleft" unicode="[" horiz-adv-x="374" 
d="M344 -174q0 -8 -6 -14t-14 -6h-244q-8 0 -12.5 5.5t-4.5 13.5v899q0 8 4.5 13.5t12.5 5.5h243q8 0 14 -6t6 -14v-87q0 -8 -6 -14t-14 -6h-96v-683h97q8 0 14 -6t6 -14v-87z" />
    <glyph glyph-name="backslash" unicode="\" horiz-adv-x="405" 
d="M392 12q0 -7 -5.5 -12t-13.5 -5h-127q-8 0 -12.5 6.5t-6.5 14.5l-213 707q0 1 -0.5 2t-0.5 2q0 7 5.5 11.5t13.5 4.5h126q8 0 13.5 -6t7.5 -14l212 -707q0 -1 0.5 -2t0.5 -2z" />
    <glyph glyph-name="bracketright" unicode="]" horiz-adv-x="374" 
d="M311 -175q0 -8 -4.5 -13.5t-12.5 -5.5h-244q-8 0 -14 6t-6 14v87q0 8 6 14t14 6h97v683h-96q-8 0 -14 6t-6 14v87q0 8 6 14t14 6h243q8 0 12.5 -5.5t4.5 -13.5v-899z" />
    <glyph glyph-name="asciicircum" unicode="^" 
d="M576 574q0 -9 -12 -9h-130q-13 0 -18 3.5t-13 11.5l-80 89l-80 -89q-8 -8 -13 -11.5t-18 -3.5h-130q-12 0 -12 9q0 5 5 12l111 148q8 11 14 14.5t20 3.5h206q14 0 20 -3.5t14 -14.5l111 -148q5 -7 5 -12z" />
    <glyph glyph-name="underscore" unicode="_" horiz-adv-x="541" 
d="M573 -103q0 -8 -6 -12t-14 -4h-564q-8 0 -14 4t-6 12v48q0 8 6 12t14 4h564q8 0 14 -4t6 -12v-48z" />
    <glyph glyph-name="grave" unicode="`" horiz-adv-x="443" 
d="M293 637q0 -7 -9 -7h-107q-10 0 -14 3t-10 9l-122 122q-4 4 -4 8q0 7 11 7h132q11 0 15.5 -3.5t11.5 -11.5l92 -117q4 -5 4 -10z" />
    <glyph glyph-name="a" unicode="a" horiz-adv-x="562" 
d="M502 20q0 -8 -6 -14t-14 -6h-112q-8 0 -14 6t-6 14v16q-29 -21 -61.5 -33t-77.5 -12q-33 0 -63.5 8.5t-54.5 28.5t-38.5 53t-14.5 82v9q0 88 58.5 128.5t187.5 40.5h54v36q0 43 -20 56t-55 13q-24 0 -48.5 -0.5t-47 -1.5t-40.5 -2.5l-30 -2.5h-5q-8 0 -13 4t-5 14v81
q0 17 19 22q28 7 75.5 14t97.5 7q54 0 97.5 -11.5t73.5 -36t46.5 -63t16.5 -93.5v-357zM343 245h-57q-26 0 -43 -4.5t-27 -13.5t-14 -23t-4 -32v-9q0 -32 15.5 -41t47.5 -9q23 0 43.5 6.5t38.5 15.5v110z" />
    <glyph glyph-name="b" unicode="b" horiz-adv-x="597" 
d="M555 247q0 -122 -64.5 -189t-186.5 -67q-58 0 -114 7.5t-99 18.5q-20 5 -25.5 11t-5.5 18v701q0 8 6.5 14t14.5 6h121q8 0 14 -6t6 -14v-173q22 3 44.5 5t37.5 2q127 0 189 -69t62 -187v-78zM393 325q0 26 -4 48.5t-14 39t-27 25.5t-44 9q-18 0 -41 -1.5t-41 -3.5v-312
q14 -2 35.5 -4t46.5 -2q27 0 44 9t27 25.5t14 39t4 49.5v78z" />
    <glyph glyph-name="c" unicode="c" horiz-adv-x="474" 
d="M432 29q0 -11 -5 -15.5t-16 -7.5q-21 -5 -54.5 -10t-78.5 -5q-106 0 -169.5 65t-63.5 188v84q0 123 63.5 188t169.5 65q45 0 78.5 -5t54.5 -10q11 -3 16 -7.5t5 -15.5v-89q0 -8 -5.5 -12.5t-13.5 -4.5h-2q-28 3 -53.5 5t-68.5 2q-17 0 -32 -5.5t-26 -19t-17.5 -36
t-6.5 -55.5v-84q0 -33 6.5 -55.5t17.5 -36t26 -19t32 -5.5q43 0 68.5 2t53.5 5h2q8 0 13.5 -4.5t5.5 -12.5v-89z" />
    <glyph glyph-name="d" unicode="d" horiz-adv-x="597" 
d="M537 46q0 -12 -5.5 -18t-25.5 -11q-43 -11 -99 -18.5t-114 -7.5q-122 0 -186.5 67t-64.5 189v78q0 118 62 187t189 69q15 0 37.5 -2t44.5 -5v173q0 8 6 14t14 6h121q8 0 14.5 -6t6.5 -14v-701zM375 442q-18 2 -41 3.5t-41 1.5q-27 0 -44 -9t-27 -25.5t-14 -39t-4 -48.5
v-78q0 -27 4 -49.5t14 -39t27 -25.5t44 -9q25 0 46.5 2t35.5 4v312z" />
    <glyph glyph-name="e" unicode="e" horiz-adv-x="590" 
d="M545 260q0 -24 -21 -24h-319v-2q0 -21 5 -41t17 -35t31.5 -24t49.5 -9q24 0 51 1t53.5 2t49.5 2.5t38 3.5h3q19 0 19 -16v-76q0 -12 -4 -18t-17 -9q-48 -12 -94 -18t-111 -6q-45 0 -90 13t-81 43t-58 79.5t-22 121.5v70q0 60 17 109t49.5 83t79.5 52.5t107 18.5
q61 0 107.5 -20t77.5 -55t46.5 -83t15.5 -105v-58zM387 340q0 56 -24 83.5t-66 27.5t-67 -28t-25 -83v-4h182v4z" />
    <glyph glyph-name="f" unicode="f" horiz-adv-x="424" 
d="M394 670q0 -17 -21 -17h-49q-23 0 -28 -8.5t-5 -38.5v-33h82q8 0 14 -6t6 -14v-81q0 -8 -6 -14t-14 -6h-82v-432q0 -8 -6 -14t-14 -6h-123q-8 0 -14 6t-6 14v432l-80 13q-8 2 -14.5 7.5t-6.5 13.5v66q0 8 6.5 14.5t14.5 6.5h80v32q0 53 11 86.5t32 52t52.5 25.5t72.5 7
q22 0 39 -2t40 -6q19 -3 19 -20v-78z" />
    <glyph glyph-name="g" unicode="g" horiz-adv-x="599" 
d="M577 490q0 -11 -4.5 -15t-13.5 -7l-31 -10q9 -14 15.5 -35t6.5 -39v-8q0 -98 -64.5 -142.5t-182.5 -44.5q-35 0 -62 4.5t-42 10.5q-8 -5 -11 -10.5t-3 -12.5q0 -12 6 -18t24 -10l113 -25q65 -14 110 -27.5t72.5 -31t39.5 -42t12 -60.5v-8q0 -163 -262 -163
q-125 0 -189.5 42t-64.5 121v8q0 31 14 59t46 53q-27 15 -39 41.5t-12 51.5q0 28 12.5 49t31.5 36q-24 21 -35 55t-11 64v8q0 85 59.5 137t190.5 52h249q11 0 18 -7.5t7 -18.5v-57zM392 384q0 31 -18 51.5t-71 20.5t-72 -20.5t-19 -51.5v-8q0 -13 3.5 -25.5t13.5 -22.5
t27.5 -16t46.5 -6q53 0 71 19t18 51v8zM397 -33q0 7 -3.5 13.5t-14.5 12.5t-31 12t-54 14l-74 16q-9 -13 -14.5 -27.5t-5.5 -40.5v-8q0 -26 21 -38.5t79 -12.5q31 0 50 3.5t29.5 10.5t14 16.5t3.5 20.5v8z" />
    <glyph glyph-name="h" unicode="h" horiz-adv-x="612" 
d="M552 21q0 -8 -6.5 -14.5t-14.5 -6.5h-121q-8 0 -14 6.5t-6 14.5v333q0 26 -3 44t-11 29t-22.5 15.5t-37.5 4.5q-22 0 -45 -9t-49 -23v-394q0 -8 -6 -14.5t-14 -6.5h-121q-8 0 -14.5 6.5t-6.5 14.5v726q0 8 6 14t14 6h122q8 0 14 -6t6 -14v-211q38 25 73 35t80 10
q54 0 88.5 -18t54 -48.5t27 -72t7.5 -88.5v-333z" />
    <glyph glyph-name="i" unicode="i" horiz-adv-x="290" 
d="M230 658q0 -8 -6 -14t-14 -6h-130q-8 0 -14 6t-6 14v93q0 8 6 14t14 6h130q8 0 14 -6t6 -14v-93zM226 20q0 -8 -6 -14t-14 -6h-122q-8 0 -14 6t-6 14v533q0 8 6 14t14 6h122q8 0 14 -6t6 -14v-533z" />
    <glyph glyph-name="j" unicode="j" horiz-adv-x="290" 
d="M230 658q0 -8 -6.5 -14t-14.5 -6h-129q-8 0 -14 6t-6 14v93q0 8 6 14t14 6h129q8 0 14.5 -6t6.5 -14v-93zM226 -32q0 -50 -11 -83t-31.5 -52.5t-50 -27.5t-65.5 -8q-39 0 -80 7q-20 3 -20 20v79q0 18 21 18h44q21 0 26 10.5t5 36.5v584q0 8 5.5 14.5t13.5 6.5h124
q8 0 13.5 -6.5t5.5 -14.5v-584z" />
    <glyph glyph-name="k" unicode="k" horiz-adv-x="588" 
d="M558 562q0 -5 -4 -10l-186 -253l185 -278q2 -2 2 -8q0 -13 -13 -13h-151q-8 0 -13.5 2.5t-11.5 11.5l-144 235v-228q0 -8 -6 -14.5t-14 -6.5h-121q-8 0 -14.5 6.5t-6.5 14.5v726q0 8 6.5 14t14.5 6h121q8 0 14 -6t6 -14v-418l152 229q6 9 13 12t13 3h143q15 0 15 -11z
" />
    <glyph glyph-name="l" unicode="l" horiz-adv-x="282" 
d="M222 21q0 -8 -5.5 -14.5t-13.5 -6.5h-122q-8 0 -14.5 6.5t-6.5 14.5v726q0 8 6.5 14t14.5 6h122q8 0 13.5 -6t5.5 -14v-726z" />
    <glyph glyph-name="m" unicode="m" horiz-adv-x="875" 
d="M815 21q0 -8 -6.5 -14.5t-14.5 -6.5h-121q-8 0 -14 6.5t-6 14.5v341q0 48 -13 65.5t-48 17.5q-13 0 -33.5 -3.5t-43.5 -14.5q3 -30 3 -65v-341q0 -8 -6 -14.5t-14 -6.5h-121q-8 0 -14.5 6.5t-6.5 14.5v341q0 48 -11.5 65.5t-46.5 17.5q-14 0 -33.5 -7t-42.5 -19v-398
q0 -8 -6 -14.5t-14 -6.5h-121q-8 0 -14.5 6.5t-6.5 14.5v532q0 8 6 14t14 6h114q8 0 14 -6t6 -14v-22q32 21 68 35.5t80 14.5q40 0 68.5 -11.5t49.5 -37.5q22 12 41 21.5t38 15.5t39.5 9t44.5 3q49 0 82.5 -16t53 -44.5t28 -69t8.5 -89.5v-341z" />
    <glyph glyph-name="n" unicode="n" horiz-adv-x="612" 
d="M552 21q0 -8 -6.5 -14.5t-14.5 -6.5h-121q-8 0 -14 6.5t-6 14.5v333q0 26 -3 44t-11 29t-22.5 15.5t-37.5 4.5q-22 0 -45 -9t-49 -23v-394q0 -8 -6 -14.5t-14 -6.5h-121q-8 0 -14.5 6.5t-6.5 14.5v532q0 8 6 14t14 6h112q8 0 14 -6t6 -14v-24q41 29 78 40.5t85 11.5
q54 0 88.5 -18t54 -48.5t27 -72t7.5 -88.5v-333z" />
    <glyph glyph-name="o" unicode="o" horiz-adv-x="589" 
d="M545 251q0 -60 -16.5 -108t-48 -81.5t-78 -52t-107.5 -18.5t-107.5 18.5t-78.5 52t-48.5 81.5t-16.5 108v70q0 60 16.5 108t48.5 81.5t78.5 52t107.5 18.5t107.5 -18.5t78 -52t48 -81.5t16.5 -108v-70zM384 321q0 122 -89 122q-44 0 -67 -30.5t-23 -91.5v-70
q0 -61 23 -92t67 -31q89 0 89 123v70z" />
    <glyph glyph-name="p" unicode="p" horiz-adv-x="597" 
d="M555 247q0 -118 -62 -187t-189 -69q-15 0 -37.5 2t-44.5 5v-173q0 -8 -6 -14t-14 -6h-121q-8 0 -14.5 6t-6.5 14v701q0 12 5.5 18t25.5 11q43 11 99 18.5t114 7.5q122 0 186.5 -67t64.5 -189v-78zM393 325q0 27 -4 49t-14 38.5t-27 25.5t-44 9q-25 0 -46.5 -1.5
t-35.5 -3.5v-312q18 -2 41 -4t41 -2q27 0 44 9.5t27 26t14 39t4 48.5v78z" />
    <glyph glyph-name="q" unicode="q" horiz-adv-x="597" 
d="M537 -175q0 -8 -6.5 -14t-14.5 -6h-121q-8 0 -14 6t-6 14v173q-22 -3 -44.5 -5t-37.5 -2q-127 0 -189 69t-62 187v78q0 122 64.5 189t186.5 67q58 0 114 -7.5t99 -18.5q20 -5 25.5 -11t5.5 -18v-701zM375 442q-14 2 -35.5 3.5t-46.5 1.5q-27 0 -44 -9t-27 -25.5
t-14 -38.5t-4 -49v-78q0 -26 4 -48.5t14 -39t27 -26t44 -9.5q18 0 41 2t41 4v312z" />
    <glyph glyph-name="r" unicode="r" horiz-adv-x="396" 
d="M374 466q0 -7 -4 -13t-11 -6h-8q-37 0 -69 -10t-60 -25v-391q0 -8 -6 -14.5t-14 -6.5h-121q-8 0 -14.5 6.5t-6.5 14.5v532q0 8 6 14t14 6h119q8 0 14 -6t6 -14v-20q28 23 63.5 35.5t71.5 12.5q8 0 14 -6t6 -14v-95z" />
    <glyph glyph-name="s" unicode="s" horiz-adv-x="503" 
d="M461 159q0 -35 -13 -66t-39.5 -53.5t-66.5 -35.5t-95 -13q-21 0 -44.5 1.5t-48 4.5t-47.5 7t-42 9t-19 23v81q0 8 5 13.5t14 5.5h4q20 -3 44.5 -5.5t48.5 -4.5t44.5 -3t32.5 -1q36 0 47.5 9.5t11.5 29.5q0 11 -8 20.5t-29 21.5l-130 75q-42 24 -65.5 61.5t-23.5 86.5
q0 76 50.5 115.5t154.5 39.5q59 0 99.5 -6.5t78.5 -16.5q19 -5 19 -23v-81q0 -19 -17 -19h-3q-11 1 -31 3.5t-43.5 4.5t-48 3.5t-43.5 1.5q-29 0 -41 -6t-12 -23q0 -11 8 -18.5t23 -16.5l124 -71q31 -18 50.5 -36.5t31 -38t15.5 -39.5t4 -40z" />
    <glyph glyph-name="t" unicode="t" horiz-adv-x="421" 
d="M390 19q0 -17 -19 -20q-23 -4 -40 -6t-39 -2q-41 0 -72.5 6.5t-52.5 25.5t-32 52.5t-11 86.5v290l-80 13q-8 2 -14.5 7.5t-6.5 13.5v66q0 8 6.5 14.5t14.5 6.5h80v82q0 8 6 13t14 7l122 21h3q8 0 13 -4.5t5 -12.5v-106h82q8 0 14 -6t6 -14v-81q0 -8 -6 -14t-14 -6h-82
v-291q0 -30 5 -38.5t28 -8.5h49q21 0 21 -17v-78z" />
    <glyph glyph-name="u" unicode="u" horiz-adv-x="612" 
d="M552 20q0 -8 -6 -14t-14 -6h-112q-8 0 -14 6t-6 14v24q-41 -29 -78 -40.5t-85 -11.5q-54 0 -88.5 17.5t-54 48.5t-27 72.5t-7.5 88.5v333q0 8 6.5 14.5t14.5 6.5h121q8 0 14 -6.5t6 -14.5v-333q0 -26 3 -44t11 -29t22.5 -15.5t37.5 -4.5q22 0 45 9t49 23v394q0 8 6 14.5
t14 6.5h121q8 0 14.5 -6.5t6.5 -14.5v-532z" />
    <glyph glyph-name="v" unicode="v" horiz-adv-x="585" 
d="M564 556q0 -4 -1 -6l-126 -454q-9 -33 -24.5 -54t-35 -32t-41.5 -15t-44 -4t-44 4t-41 15t-34.5 32t-24.5 54l-125 454q-1 2 -1 6q0 17 16 17h132q8 0 13.5 -6t7.5 -15l86 -392q4 -21 15 -21q12 0 16 21l86 392q2 9 7.5 15t13.5 6h132q7 0 12 -4.5t5 -12.5z" />
    <glyph glyph-name="w" unicode="w" horiz-adv-x="845" 
d="M816 552l-89 -482q-8 -43 -32.5 -56.5t-55.5 -13.5h-61q-36 0 -56 17.5t-28 46.5l-67 261q-1 5 -5 5t-5 -5l-67 -261q-8 -29 -28 -46.5t-56 -17.5h-61q-16 0 -30 3t-25.5 10.5t-20 21.5t-12.5 35l-89 482v4q0 7 4 12t11 5h121q9 0 14 -3t7 -14l59 -380q2 -13 6 -13
q5 0 8 13l67 264q7 26 19.5 35.5t36.5 9.5h82q24 0 36.5 -9.5t19.5 -35.5l67 -264q3 -13 8 -13q4 0 6 13l59 380q2 11 7 14t14 3h121q7 0 11 -5t4 -12v-4z" />
    <glyph glyph-name="x" unicode="x" horiz-adv-x="617" 
d="M585 14q0 -5 -4 -9.5t-10 -4.5h-151q-8 0 -13.5 5t-12.5 16l-99 155l-93 -156q-7 -11 -12.5 -15.5t-13.5 -4.5h-134q-11 0 -11 12q0 5 2 8l175 278l-170 254q-2 4 -2 6q0 6 4.5 10.5t10.5 4.5h149q8 0 13.5 -5.5t12.5 -15.5l89 -138l82 138q7 11 12.5 16t13.5 5h134
q12 0 12 -13q0 -5 -2 -8l-165 -262l181 -269q2 -4 2 -7z" />
    <glyph glyph-name="y" unicode="y" horiz-adv-x="592" 
d="M570 555q0 -2 -0.5 -2.5t-0.5 -2.5l-168 -589q-12 -41 -27 -71.5t-39 -50.5t-61 -30.5t-92 -10.5q-14 0 -31 1.5t-34 3.5t-32 5t-24 6q-8 3 -14.5 6.5t-6.5 11.5v81q0 8 6 13.5t14 5.5h2q12 -1 28.5 -2t34 -2.5t34 -2.5t28.5 -1q27 0 42 11t24 41l9 31h-15
q-14 0 -26.5 2.5t-24.5 11.5t-22.5 27.5t-19.5 51.5l-132 450q-1 3 -1 7q0 16 20 16h133q8 0 12.5 -5.5t6.5 -13.5l90 -376q4 -19 12 -19h9l93 395q2 8 7.5 13.5t13.5 5.5h133q8 0 13.5 -5t5.5 -13z" />
    <glyph glyph-name="z" unicode="z" horiz-adv-x="515" 
d="M472 20q0 -8 -6 -14t-14 -6h-375q-14 0 -24 9.5t-10 23.5v64q0 11 3 19t11 19l217 296q3 4 3 7q0 5 -7 5h-201q-17 0 -17 16v94q0 8 6 14t14 6h365q14 0 23.5 -10t9.5 -24v-74q0 -8 -2 -16.5t-9 -18.5l-207 -283q-3 -5 -3 -7q0 -4 7 -4h198q8 0 13 -4t5 -12v-100z" />
    <glyph glyph-name="braceleft" unicode="{" horiz-adv-x="407" 
d="M377 -174q0 -8 -6 -14t-14 -6h-58q-56 0 -94.5 9t-62.5 30t-34.5 56.5t-10.5 89.5v131q0 36 -14.5 60.5t-42.5 42.5v95q28 18 42 42.5t14 60.5v135q0 54 10.5 89.5t34.5 56.5t62.5 30t94.5 9h58q8 0 14 -6t6 -14v-87q0 -8 -6 -14t-14 -6h-58q-24 0 -31 -10.5t-7 -47.5
v-135q0 -52 -19 -89.5t-64 -60.5q45 -23 64 -61t19 -90v-131q0 -37 7.5 -47.5t31.5 -10.5h58q8 0 14 -6t6 -14v-87z" />
    <glyph glyph-name="bar" unicode="|" horiz-adv-x="290" 
d="M227 -173q0 -8 -6 -14.5t-14 -6.5h-123q-8 0 -14.5 6.5t-6.5 14.5v896q0 8 6.5 14t14.5 6h123q8 0 14 -6t6 -14v-896z" />
    <glyph glyph-name="braceright" unicode="}" horiz-adv-x="407" 
d="M367 225q-28 -18 -42.5 -42.5t-14.5 -60.5v-131q0 -54 -11 -89.5t-35 -56.5t-62.5 -30t-93.5 -9h-58q-8 0 -14 6t-6 14v87q0 8 6 14t14 6h58q24 0 31.5 10.5t7.5 47.5v131q0 52 19 90t64 61q-45 23 -64 60.5t-19 89.5v135q0 37 -7 47.5t-31 10.5h-58q-8 0 -14 6t-6 14v87
q0 8 6 14t14 6h58q55 0 93.5 -9t62.5 -30t35 -56.5t11 -89.5v-135q0 -36 14 -60.5t42 -42.5v-95z" />
    <glyph glyph-name="asciitilde" unicode="~" 
d="M576 480q0 -79 -35.5 -115t-107.5 -36q-29 0 -51.5 9t-39.5 20l-71 43q-14 8 -24.5 10.5t-18.5 2.5q-21 0 -26 -12t-5 -28v-18q0 -8 -5 -14t-13 -6h-89q-20 0 -20 20v18q0 45 10 75.5t29 48.5t45.5 26t58.5 8q14 0 36.5 -4t36.5 -13l90 -54q14 -8 24.5 -11t18.5 -3
q16 0 22.5 7t6.5 26v25q0 20 19 20h89q20 0 20 -20v-25z" />
    <glyph glyph-name="exclamdown" unicode="&#xa1;" horiz-adv-x="273" 
d="M220 -175q0 -8 -7 -13.5t-15 -5.5h-125q-8 0 -14 5.5t-6 13.5v1l20 499q1 8 6.5 14.5t13.5 6.5h85q8 0 15 -6.5t7 -14.5l20 -499v-1zM215 427q0 -8 -6 -13.5t-14 -5.5h-118q-19 0 -19 19v126q0 8 5.5 14t13.5 6h118q8 0 14 -6t6 -14v-126z" />
    <glyph glyph-name="cent" unicode="&#xa2;" 
d="M516 29q0 -11 -5 -15.5t-16 -7.5q-14 -4 -33.5 -7.5t-45.5 -5.5v-73q0 -8 -6 -14t-14 -6h-101q-8 0 -14 6t-6 14v84q-69 23 -107.5 84t-38.5 156v84q0 95 38.5 156t107.5 84v82q0 8 6 14t14 6h101q8 0 14 -6t6 -14v-71q26 -2 45.5 -5.5t33.5 -7.5q11 -3 16 -7.5t5 -15.5
v-89q0 -8 -5.5 -12.5t-13.5 -4.5h-2q-28 3 -53.5 5t-68.5 2q-17 0 -32 -5.5t-26 -19t-17.5 -36t-6.5 -55.5v-84q0 -33 6.5 -55.5t17.5 -36t26 -19t32 -5.5q43 0 68.5 2t53.5 5h2q8 0 13.5 -4.5t5.5 -12.5v-89z" />
    <glyph glyph-name="sterling" unicode="&#xa3;" 
d="M577 614q0 -18 -16 -18h-3q-32 4 -78.5 8t-86.5 4q-49 0 -70 -15.5t-21 -63.5v-84h169q8 0 14 -5.5t6 -13.5v-97q0 -19 -19 -19h-170v-100q0 -25 -6 -43.5t-14 -32.5h274q8 0 14 -5t6 -13v-97q0 -8 -6 -13.5t-14 -5.5h-442q-11 0 -15 8t-4 16v70q0 9 3 14l6 10
q11 14 22 40t11 52v100h-50q-19 0 -19 19v97q0 8 6 13.5t14 5.5h49v83q0 58 14 100.5t44.5 70t79 40.5t118.5 13q21 0 45.5 -2t47 -5t41.5 -6t31 -6q14 -3 16.5 -7.5t2.5 -12.5v-99z" />
    <glyph glyph-name="currency" unicode="&#xa4;" 
d="M583 557q0 -8 -7 -15l-86 -85q23 -41 23 -86q0 -48 -24 -90l84 -84q7 -7 7 -15q0 -6 -5 -11l-57 -57q-5 -5 -11 -5q-8 0 -15 7l-86 87q-38 -21 -82 -21q-46 0 -86 22l-85 -85q-3 -3 -7 -5.5t-9 -2.5t-10 5l-57 57q-5 5 -5 12q0 8 7 15l85 84q-23 41 -23 87q0 21 4.5 42
t15.5 40l-85 86q-7 7 -7 15q0 6 5 11l57 57q5 5 11 5q8 0 15 -7l83 -83q21 12 44.5 17.5t46.5 5.5q46 0 86 -22l85 85q7 7 15 7q6 0 11 -5l57 -57q5 -5 5 -11zM410 374q0 35 -24.5 59t-59.5 24t-60 -24t-25 -59t25 -59.5t60 -24.5t59.5 24.5t24.5 59.5z" />
    <glyph glyph-name="yen" unicode="&#xa5;" 
d="M623 730q0 -6 -2 -9l-111 -224h87q8 0 14 -5.5t6 -13.5v-74q0 -19 -19 -19h-142l-46 -92l-2 -11h189q8 0 14 -5t6 -13v-75q0 -18 -19 -18h-190v-151q0 -8 -6 -14t-14 -6h-133q-8 0 -13.5 6t-5.5 14v151h-189q-8 0 -14 5t-6 13v75q0 8 6 13t14 5h189l-1 11l-45 92h-143
q-8 0 -14 5.5t-6 13.5v74q0 8 6 13.5t14 5.5h88l-111 224q-2 3 -2 9q0 13 15 13h147q8 0 12 -5t7 -12l119 -270l120 270q3 7 7 12t12 5h147q15 0 15 -13z" />
    <glyph glyph-name="brokenbar" unicode="&#xa6;" horiz-adv-x="290" 
d="M227 363q0 -8 -6 -14.5t-14 -6.5h-123q-8 0 -14.5 6.5t-6.5 14.5v345q0 8 6.5 14t14.5 6h123q8 0 14 -6t6 -14v-345zM227 -190q0 -8 -6 -14.5t-14 -6.5h-123q-8 0 -14.5 6.5t-6.5 14.5v345q0 8 6.5 14t14.5 6h123q8 0 14 -6t6 -14v-345z" />
    <glyph glyph-name="section" unicode="&#xa7;" horiz-adv-x="589" 
d="M549 1q0 -39 -14 -78t-45.5 -69.5t-84 -50t-128.5 -19.5q-60 0 -108.5 6t-86.5 16q-8 2 -14 7t-6 13v101q0 8 6 13.5t14 5.5h2q48 -5 93.5 -9.5t93.5 -4.5h6q52 1 73 16t21 53q0 22 -15.5 37.5t-55.5 37.5l-133 73q-39 21 -63.5 43t-38.5 47t-19.5 53.5t-5.5 61.5
q0 10 2.5 23.5t6.5 27.5t9.5 28t11.5 24q-12 14 -20.5 40t-8.5 55q0 41 12.5 77.5t42 63.5t78.5 43t122 16q27 0 58.5 -2t60.5 -5t54 -7t39 -8q8 -2 14 -6.5t6 -12.5v-102q0 -14 -13 -14h-1q-54 3 -108.5 5.5t-109.5 2.5q-45 0 -64 -9.5t-19 -41.5q0 -19 15.5 -33.5
t56.5 -36.5l128 -69q78 -42 107 -90.5t29 -109.5q0 -28 -8 -57.5t-18 -48.5q14 -23 20 -50t6 -56zM407 220q0 16 -4 28.5t-15 24.5t-29.5 24t-47.5 28l-72 39q-19 11 -30.5 18t-18.5 13q-9 -9 -13 -22.5t-4 -28.5q0 -14 3 -25t12 -21t26 -21t45 -26l70 -37q22 -11 40 -24.5
l26 -19.5q12 21 12 50z" />
    <glyph glyph-name="dieresis" unicode="&#xa8;" horiz-adv-x="443" 
d="M399 658q0 -8 -7 -14t-15 -6h-94q-8 0 -14.5 6t-6.5 14v93q0 8 6.5 14t14.5 6h94q8 0 15 -6t7 -14v-93zM182 658q0 -8 -6.5 -14t-14.5 -6h-94q-8 0 -15 6t-7 14v93q0 8 7 14t15 6h94q8 0 14.5 -6t6.5 -14v-93z" />
    <glyph glyph-name="copyright" unicode="&#xa9;" horiz-adv-x="750" 
d="M708 374q0 -69 -26.5 -129.5t-71.5 -105.5t-106 -71t-130 -26t-129.5 26t-105.5 71t-71 105.5t-26 129.5t26 130t71 106.5t105.5 72t129.5 26.5t130 -26.5t106 -72t71.5 -106.5t26.5 -130zM656 374q0 58 -22.5 109.5t-60.5 90t-89.5 61t-109.5 22.5t-109 -22.5t-89.5 -61
t-60.5 -90t-22 -109.5t22 -109t60.5 -89t89.5 -60t109 -22t109.5 22t89.5 60t60.5 89t22.5 109zM477 183q0 -11 -13 -14q-13 -4 -33 -6.5t-49 -2.5q-81 0 -125.5 46t-44.5 143v56q0 98 44.5 143.5t125.5 45.5q29 0 49.5 -3.5t32.5 -6.5q7 -2 10 -4t3 -8v-63q0 -12 -12 -12
h-2q-17 2 -34.5 3.5t-46.5 1.5q-13 0 -25 -4t-21.5 -15t-15 -29.5t-5.5 -48.5v-56q0 -30 5.5 -49.5t15 -30t21.5 -14.5t25 -4q26 0 45 1.5t36 3.5h3q11 0 11 -11v-62z" />
    <glyph glyph-name="ordfeminine" unicode="&#xaa;" horiz-adv-x="357" 
d="M320 418q0 -14 -8 -16q-31 -8 -63.5 -12t-64.5 -4q-78 0 -114.5 27t-36.5 84v7q0 55 43 77t116 22h22v13q0 27 -8.5 36t-33.5 9q-9 0 -23 -0.5t-28.5 -1.5t-28 -1.5t-20.5 -1.5h-1q-13 0 -13 14v50q0 11 14 15q15 5 43 10t57 5q33 0 60 -6.5t46.5 -22t30.5 -41.5t11 -64
v-198zM214 544h-22q-29 0 -43.5 -9t-14.5 -31v-7q0 -21 12 -28.5t38 -7.5q10 0 17 1t13 2v80z" />
    <glyph glyph-name="guillemotleft" unicode="&#xab;" horiz-adv-x="718" 
d="M685 74q0 -11 -14 -11h-122q-11 0 -17 2.5t-12 9.5l-160 185q-5 6 -7.5 13t-2.5 13t2.5 13t7.5 13l160 185q6 7 12 9.5t17 2.5h122q14 0 14 -11q0 -3 -4 -9l-176 -203l176 -203q4 -6 4 -9zM380 74q0 -11 -14 -11h-121q-11 0 -17.5 2.5t-12.5 9.5l-160 185q-5 6 -7.5 13
t-2.5 13t2.5 13t7.5 13l160 185q6 7 12.5 9.5t17.5 2.5h121q14 0 14 -11q0 -3 -4 -9l-176 -203l176 -203q4 -6 4 -9z" />
    <glyph glyph-name="logicalnot" unicode="&#xac;" 
d="M552 198q0 -8 -5.5 -14t-13.5 -6h-85q-8 0 -13 6t-5 14v261h-317q-8 0 -14 4t-6 12v89q0 8 6 12t14 4h420q19 0 19 -16v-366z" />
    <glyph glyph-name="uni00AD" unicode="&#xad;" horiz-adv-x="302" 
d="M268 264q0 -8 -6 -13t-14 -5h-194q-8 0 -14 5t-6 13v80q0 8 6 13.5t14 5.5h194q8 0 14 -5.5t6 -13.5v-80z" />
    <glyph glyph-name="registered" unicode="&#xae;" horiz-adv-x="598" 
d="M579 484q0 -58 -22 -108.5t-60 -88.5t-89 -60t-109 -22t-108.5 22t-88.5 60t-60 88.5t-22 108.5t22 108.5t60 88.5t88.5 60t108.5 22t109 -22t89 -60t60 -88.5t22 -108.5zM528 484q0 47 -18 89t-49 73t-73 49t-89 18t-88.5 -18t-72.5 -49t-49 -73t-18 -89t18 -89t49 -73
t72.5 -49t88.5 -18t89 18t73 49t49 73t18 89zM437 330q0 -10 -10 -10h-67q-6 0 -10 8l-63 111q-2 0 -4 3t-4 3h-26v-114q0 -11 -11 -11h-60q-11 0 -11 11v294q0 16 5.5 22t19.5 8q6 1 16.5 1.5t23.5 1.5t26 1.5t23 0.5q66 0 103 -23.5t37 -84.5v-7q0 -35 -16.5 -55.5
t-42.5 -31.5l69 -121q2 -4 2 -7zM346 552q0 20 -12.5 29.5t-41.5 9.5h-41v-85h8t13 -0.5t12.5 -0.5h7.5q29 0 41.5 10t12.5 30v7z" />
    <glyph glyph-name="macron" unicode="&#xaf;" horiz-adv-x="443" 
d="M404 672q0 -8 -6 -13.5t-14 -5.5h-324q-8 0 -14 5.5t-6 13.5v72q0 8 6 13.5t14 5.5h324q8 0 14 -5.5t6 -13.5v-72z" />
    <glyph glyph-name="degree" unicode="&#xb0;" horiz-adv-x="361" 
d="M334 598q0 -32 -12 -60t-32.5 -49t-48.5 -33t-60 -12t-60 12t-49 33t-33 49t-12 60t12 60t33 49t49 33t60 12t60 -12t48.5 -33t32.5 -49t12 -60zM253 598q0 30 -21.5 51.5t-50.5 21.5t-50.5 -21.5t-21.5 -51.5q0 -29 21 -50.5t51 -21.5t51 21.5t21 50.5z" />
    <glyph glyph-name="plusminus" unicode="&#xb1;" 
d="M558 346q0 -8 -6 -12t-14 -4h-155v-154q0 -8 -4 -14t-12 -6h-90q-8 0 -12 6t-4 14v154h-154q-8 0 -14 4t-6 12v90q0 8 6 12t14 4h154v155q0 8 4 14t12 6h90q8 0 12 -6t4 -14v-155h155q8 0 14 -4t6 -12v-90zM558 -4q0 -8 -6 -12t-14 -4h-431q-8 0 -14 4t-6 12v71q0 8 6 12
t14 4h431q8 0 14 -4t6 -12v-71z" />
    <glyph glyph-name="uni00B2" unicode="&#xb2;" horiz-adv-x="355" 
d="M164 585q16 12 26 19t16 12.5t8 11t2 14.5q0 14 -10.5 20t-40.5 6q-24 0 -52 -2t-54 -5q-8 0 -12.5 5t-4.5 12v42q0 7 4.5 11t9.5 6q23 7 55 12t62 5q78 0 111.5 -27.5t33.5 -81.5q0 -35 -17 -60t-49 -47l-45 -31q-35 -24 -54.5 -41.5t-21.5 -42.5h165q7 0 12 -3.5
t5 -11.5v-56q0 -7 -5 -12t-12 -5h-241q-7 0 -12 5t-5 12v55q0 47 22 83t54 59z" />
    <glyph glyph-name="uni00B3" unicode="&#xb3;" horiz-adv-x="355" 
d="M315 456q0 -66 -40.5 -96t-106.5 -30q-32 0 -62 4.5t-52 10.5q-6 2 -10.5 5.5t-4.5 11.5v43q0 16 17 16q29 -2 60 -3.5t48 -1.5q26 0 36.5 10t10.5 30v10q0 15 -7 27.5t-30 12.5h-95q-8 0 -12 5t-4 12v46q0 16 16 16h93q23 0 31 12.5t8 28.5v8q0 15 -9 24.5t-38 9.5
q-17 0 -44 -1t-53 -5q-10 -2 -18 -0.5t-8 15.5v43q0 8 4.5 11.5t10.5 5.5q21 6 50 11.5t62 5.5q69 0 108 -27t39 -90v-8q0 -23 -11.5 -46t-31.5 -37q21 -13 32 -34t11 -46v-10z" />
    <glyph glyph-name="acute" unicode="&#xb4;" horiz-adv-x="443" 
d="M416 772q0 -4 -4 -8l-122 -122q-6 -6 -10 -9t-14 -3h-107q-9 0 -9 7q0 5 4 10l93 117q7 8 11.5 11.5t15.5 3.5h131q11 0 11 -7z" />
    <glyph glyph-name="mu" unicode="&#xb5;" horiz-adv-x="612" 
d="M552 49q0 -11 -6.5 -18t-24.5 -13q-34 -11 -87.5 -19t-123.5 -8q-50 0 -89 9v-171q0 -8 -6 -14t-14 -6h-122q-8 0 -14 6t-6 14v722q0 8 6.5 15t14.5 7h121q8 0 14.5 -7t6.5 -15v-332q0 -52 20.5 -73.5t67.5 -21.5q24 0 44.5 1.5t35.5 5.5v420q0 8 6 15t14 7h121
q8 0 14.5 -7t6.5 -15v-502z" />
    <glyph glyph-name="paragraph" unicode="&#xb6;" horiz-adv-x="659" 
d="M602 -176q0 -8 -4.5 -13.5t-12.5 -5.5h-43q-8 0 -12.5 5.5t-4.5 13.5v843h-63v-843q0 -8 -4.5 -13.5t-12.5 -5.5h-43q-8 0 -12.5 5.5t-4.5 13.5v418h-96q-52 0 -96.5 14.5t-77.5 43t-51.5 70t-18.5 95.5v55q0 54 18.5 95.5t51.5 70t77.5 43t96.5 14.5h297q16 0 16 -19
v-900z" />
    <glyph glyph-name="periodcentered" unicode="&#xb7;" horiz-adv-x="274" 
d="M216 319q0 -8 -6 -14t-14 -6h-117q-8 0 -14.5 6t-6.5 14v126q0 8 6.5 13.5t14.5 5.5h117q8 0 14 -5.5t6 -13.5v-126z" />
    <glyph glyph-name="cedilla" unicode="&#xb8;" horiz-adv-x="426" 
d="M324 -45q0 -4 -4 -8l-127 -130q-6 -6 -10 -9t-14 -3h-107q-9 0 -9 7q0 5 4 10l97 125q7 8 11.5 11.5t15.5 3.5h132q11 0 11 -7z" />
    <glyph glyph-name="uni00B9" unicode="&#xb9;" horiz-adv-x="241" 
d="M114 746q6 3 14 3h49q10 0 12.5 -5t2.5 -12v-380q0 -17 -15 -17h-71q-7 0 -12 3.5t-5 13.5v290l-53 -23q-20 -7 -20 12v62q0 9 10 13z" />
    <glyph glyph-name="ordmasculine" unicode="&#xba;" horiz-adv-x="380" 
d="M347 551q0 -84 -40.5 -124.5t-115.5 -40.5t-116 40.5t-41 124.5v33q0 84 41 125t116 41t115.5 -41t40.5 -125v-33zM240 584q0 42 -11.5 59t-37.5 17t-38.5 -17t-12.5 -59v-33q0 -42 12.5 -59t38.5 -17t37.5 17t11.5 59v33z" />
    <glyph glyph-name="guillemotright" unicode="&#xbb;" horiz-adv-x="718" 
d="M683 286q0 -13 -11 -26l-160 -185q-6 -7 -12 -9.5t-17 -2.5h-121q-14 0 -14 11q0 3 4 9l176 203l-176 203q-4 6 -4 9q0 11 14 11h121q11 0 17 -2.5t12 -9.5l160 -185q11 -13 11 -26zM378 286q0 -6 -2.5 -13t-7.5 -13l-160 -185q-6 -7 -12.5 -9.5t-17.5 -2.5h-121
q-14 0 -14 11q0 3 4 9l176 203l-176 203q-4 6 -4 9q0 11 14 11h121q11 0 17.5 -2.5t12.5 -9.5l160 -185q5 -6 7.5 -13t2.5 -13z" />
    <glyph glyph-name="onequarter" unicode="&#xbc;" horiz-adv-x="772" 
d="M128 746q6 3 14 3h49q10 0 12.5 -5t2.5 -12v-380q0 -17 -15 -17h-71q-7 0 -12 3.5t-5 13.5v290l-53 -23q-20 -7 -20 12v62q0 9 10 13zM636 735q0 -7 -4 -12l-416 -702q-6 -11 -10.5 -16t-12.5 -5h-103q-11 0 -11 11q0 4 3 10l416 702q7 11 12 15.5t13 4.5h103q10 0 10 -8
zM742 107q0 -7 -5 -12t-11 -5h-30v-73q0 -7 -4 -12t-12 -5h-72q-8 0 -12 5t-4 12v73h-151q-6 0 -11 5t-5 12v52q0 10 7 21l171 224q8 10 18 10h58q7 0 12 -5t5 -12v-224h30q6 0 11 -4.5t5 -12.5v-49zM595 276l-76 -103h76v103z" />
    <glyph glyph-name="onehalf" unicode="&#xbd;" horiz-adv-x="804" 
d="M128 746q6 3 14 3h49q10 0 12.5 -5t2.5 -12v-380q0 -17 -15 -17h-71q-7 0 -12 3.5t-5 13.5v290l-53 -23q-20 -7 -20 12v62q0 9 10 13zM636 735q0 -7 -4 -12l-416 -702q-6 -11 -10.5 -16t-12.5 -5h-103q-11 0 -11 11q0 4 3 10l416 702q7 11 12 15.5t13 4.5h103q10 0 10 -8
zM620 250q16 12 26 19t16 12.5t8 11t2 14.5q0 14 -10.5 20t-40.5 6q-24 0 -52 -2t-54 -5q-8 0 -12.5 5t-4.5 12v42q0 7 4.5 11t9.5 6q23 7 55 12t62 5q78 0 111.5 -27.5t33.5 -81.5q0 -35 -17 -60t-49 -47l-45 -31q-35 -24 -54.5 -41.5t-21.5 -42.5h165q7 0 12 -3.5t5 -11.5
v-56q0 -7 -5 -12t-12 -5h-241q-7 0 -12 5t-5 12v55q0 47 22 83t54 59z" />
    <glyph glyph-name="threequarters" unicode="&#xbe;" horiz-adv-x="835" 
d="M699 735q0 -7 -4 -12l-416 -702q-6 -11 -10.5 -16t-12.5 -5h-103q-11 0 -11 11q0 4 3 10l416 702q7 11 12 15.5t13 4.5h103q10 0 10 -8zM805 107q0 -7 -5 -12t-11 -5h-30v-73q0 -7 -4 -12t-12 -5h-72q-8 0 -12 5t-4 12v73h-151q-6 0 -11 5t-5 12v52q0 10 7 21l171 224
q8 10 18 10h58q7 0 12 -5t5 -12v-224h30q6 0 11 -4.5t5 -12.5v-49zM658 276l-76 -103h76v103zM306 456q0 -66 -40.5 -96t-106.5 -30q-32 0 -62 4.5t-52 10.5q-6 2 -10.5 5.5t-4.5 11.5v43q0 16 17 16q29 -2 60 -3.5t48 -1.5q26 0 36.5 10t10.5 30v10q0 15 -7 27.5t-30 12.5
h-95q-8 0 -12 5t-4 12v46q0 16 16 16h93q23 0 31 12.5t8 28.5v8q0 15 -9 24.5t-38 9.5q-17 0 -44 -1t-53 -5q-10 -2 -18 -0.5t-8 15.5v43q0 8 4.5 11.5t10.5 5.5q21 6 50 11.5t62 5.5q69 0 108 -27t39 -90v-8q0 -23 -11.5 -46t-31.5 -37q21 -13 32 -34t11 -46v-10z" />
    <glyph glyph-name="questiondown" unicode="&#xbf;" horiz-adv-x="479" 
d="M445 -143q0 -11 -3.5 -17t-14.5 -9q-32 -10 -75 -15.5t-85 -5.5q-52 0 -92.5 8.5t-68.5 28t-43 51t-15 78.5v17q0 34 17.5 68.5t59.5 88.5l45 58q17 22 28 36t17 23.5t8.5 16.5t2.5 15v28q0 9 8 14t16 5h100q8 0 13.5 -6t5.5 -14v-27q0 -20 -1 -36t-5.5 -31t-13 -30.5
t-22.5 -34.5l-48 -63q-28 -37 -37 -58t-9 -43v-10q0 -17 11.5 -27t37.5 -10q39 0 73 3t70 8h3q17 0 17 -21v-89zM375 428q0 -8 -6 -14t-14 -6h-118q-8 0 -14 6t-6 14v126q0 8 6 13.5t14 5.5h118q8 0 14 -5.5t6 -13.5v-126z" />
    <glyph glyph-name="Agrave" unicode="&#xc0;" horiz-adv-x="669" 
d="M650 16q0 -16 -17 -16h-140q-8 0 -13 5t-7 13l-36 164h-205l-36 -164q-2 -8 -7 -13t-13 -5h-140q-17 0 -17 16q0 1 0.5 2t0.5 3l149 620q9 36 26 58t39.5 33.5t48.5 15.5t52 4t51.5 -4t48 -15.5t39.5 -33.5t26 -58l149 -620q0 -2 0.5 -3t0.5 -2zM348 595q-2 8 -4 11.5
t-9 3.5q-11 0 -14 -15l-61 -276h149zM453 801q0 -7 -9 -7h-107q-10 0 -14 3t-10 9l-122 122q-4 4 -4 8q0 7 11 7h132q11 0 15.5 -3.5t11.5 -11.5l92 -117q4 -5 4 -10z" />
    <glyph glyph-name="Aacute" unicode="&#xc1;" horiz-adv-x="669" 
d="M650 16q0 -16 -17 -16h-140q-8 0 -13 5t-7 13l-36 164h-205l-36 -164q-2 -8 -7 -13t-13 -5h-140q-17 0 -17 16q0 1 0.5 2t0.5 3l149 620q9 36 26 58t39.5 33.5t48.5 15.5t52 4t51.5 -4t48 -15.5t39.5 -33.5t26 -58l149 -620q0 -2 0.5 -3t0.5 -2zM348 595q-2 8 -4 11.5
t-9 3.5q-11 0 -14 -15l-61 -276h149zM497 936q0 -4 -4 -8l-122 -122q-6 -6 -10 -9t-14 -3h-107q-9 0 -9 7q0 5 4 10l93 117q7 8 11.5 11.5t15.5 3.5h131q11 0 11 -7z" />
    <glyph glyph-name="Acircumflex" unicode="&#xc2;" horiz-adv-x="669" 
d="M650 16q0 -16 -17 -16h-140q-8 0 -13 5t-7 13l-36 164h-205l-36 -164q-2 -8 -7 -13t-13 -5h-140q-17 0 -17 16q0 1 0.5 2t0.5 3l149 620q9 36 26 58t39.5 33.5t48.5 15.5t52 4t51.5 -4t48 -15.5t39.5 -33.5t26 -58l149 -620q0 -2 0.5 -3t0.5 -2zM348 595q-2 8 -4 11.5
t-9 3.5q-11 0 -14 -15l-61 -276h149zM534 802q0 -7 -9 -7h-103q-10 0 -14 2.5t-10 9.5l-63 70l-64 -70q-6 -7 -10 -9.5t-14 -2.5h-103q-9 0 -9 7q0 5 4 10l89 117q7 8 11.5 11.5t15.5 3.5h160q11 0 15.5 -3t11.5 -12l88 -117q4 -5 4 -10z" />
    <glyph glyph-name="Atilde" unicode="&#xc3;" horiz-adv-x="669" 
d="M650 16q0 -16 -17 -16h-140q-8 0 -13 5t-7 13l-36 164h-205l-36 -164q-2 -8 -7 -13t-13 -5h-140q-17 0 -17 16q0 1 0.5 2t0.5 3l149 620q9 36 26 58t39.5 33.5t48.5 15.5t52 4t51.5 -4t48 -15.5t39.5 -33.5t26 -58l149 -620q0 -2 0.5 -3t0.5 -2zM348 595q-2 8 -4 11.5
t-9 3.5q-11 0 -14 -15l-61 -276h149zM535 907q0 -66 -32.5 -93t-89.5 -27q-15 0 -35 5.5t-36 16.5l-42 29q-26 18 -41 18q-10 0 -16.5 -5.5t-6.5 -21.5v-19q0 -17 -15 -17h-71q-15 0 -15 17v19q0 65 33 92t90 27q15 0 34.5 -5t35.5 -16l43 -28q13 -8 22.5 -13t17.5 -5
q11 0 17 5.5t6 21.5v19q0 16 16 16h70q15 0 15 -16v-20z" />
    <glyph glyph-name="Adieresis" unicode="&#xc4;" horiz-adv-x="669" 
d="M650 16q0 -16 -17 -16h-140q-8 0 -13 5t-7 13l-36 164h-205l-36 -164q-2 -8 -7 -13t-13 -5h-140q-17 0 -17 16q0 1 0.5 2t0.5 3l149 620q9 36 26 58t39.5 33.5t48.5 15.5t52 4t51.5 -4t48 -15.5t39.5 -33.5t26 -58l149 -620q0 -2 0.5 -3t0.5 -2zM348 595q-2 8 -4 11.5
t-9 3.5q-11 0 -14 -15l-61 -276h149zM511 821q0 -8 -7 -14t-15 -6h-94q-8 0 -14.5 6t-6.5 14v93q0 8 6.5 14t14.5 6h94q8 0 15 -6t7 -14v-93zM294 821q0 -8 -6.5 -14t-14.5 -6h-94q-8 0 -15 6t-7 14v93q0 8 7 14t15 6h94q8 0 14.5 -6t6.5 -14v-93z" />
    <glyph glyph-name="Aring" unicode="&#xc5;" horiz-adv-x="669" 
d="M650 16q0 -16 -17 -16h-140q-8 0 -13 5t-7 13l-36 164h-205l-36 -164q-2 -8 -7 -13t-13 -5h-140q-17 0 -17 16q0 1 0.5 2t0.5 3l149 620q9 36 26 58t39.5 33.5t48.5 15.5t52 4t51.5 -4t48 -15.5t39.5 -33.5t26 -58l149 -620q0 -2 0.5 -3t0.5 -2zM348 595q-2 8 -4 11.5
t-9 3.5q-11 0 -14 -15l-61 -276h149zM451 895q0 -24 -9 -45.5t-25 -37.5t-37.5 -25t-45.5 -9t-45.5 9t-37.5 25t-25 37.5t-9 45.5t9 45.5t25 37.5t37.5 25t45.5 9t45.5 -9t37.5 -25t25 -37.5t9 -45.5zM378 895q0 18 -13 31t-31 13t-31 -13t-13 -31t13 -31t31 -13t31 13
t13 31z" />
    <glyph glyph-name="AE" unicode="&#xc6;" horiz-adv-x="923" 
d="M867 25q0 -18 -20 -21l-26 -4t-31 -4t-45 -3.5t-67 -1.5q-46 0 -88 7t-75 28t-54 58.5t-25 97.5h-204l-36 -164q-2 -8 -7 -13t-13 -5h-140q-17 0 -17 16q0 1 0.5 2t0.5 3l149 620q9 36 26 56.5t39.5 30.5t48.5 12.5t52 2.5h512q20 0 20 -20v-97q0 -8 -6 -14t-14 -6h-242
v-159h234q8 0 14 -6t6 -14v-95q0 -8 -6 -14t-14 -6h-234v-106q0 -39 14.5 -53.5t49.5 -14.5h178q8 0 14 -6t6 -14v-93zM435 610h-100q-11 0 -14 -15l-61 -276h175v291z" />
    <glyph glyph-name="Ccedilla" unicode="&#xc7;" horiz-adv-x="561" 
d="M520 31q0 -11 -5.5 -15.5t-16.5 -7.5q-16 -5 -56 -11t-93 -6q-57 0 -110.5 16t-94.5 53.5t-66 98.5t-25 150v126q0 89 25 150t66 98t94.5 53t110.5 16q53 0 93 -6t56 -11q11 -3 16.5 -7t5.5 -15v-97q0 -20 -19 -20h-3q-29 2 -67.5 5t-80.5 3q-26 0 -48.5 -7.5t-39.5 -27
t-26.5 -52t-9.5 -82.5v-126q0 -50 9.5 -82.5t26.5 -52t39.5 -27t48.5 -7.5q42 0 80.5 3t67.5 5h3q19 0 19 -20v-97zM430 -42q0 -4 -4 -8l-123 -122q-6 -6 -10 -9t-14 -3h-107q-9 0 -9 7q0 5 4 10l93 117q7 8 11.5 11.5t15.5 3.5h132q11 0 11 -7z" />
    <glyph glyph-name="Egrave" unicode="&#xc8;" horiz-adv-x="580" 
d="M524 25q0 -18 -20 -21q-26 -4 -69.5 -8.5t-124.5 -4.5q-48 0 -92 8t-77.5 31t-53.5 65.5t-20 110.5v332q0 68 20 110t53.5 65t78 31t92.5 8q40 0 70.5 -1.5t53.5 -3.5t39.5 -4t29.5 -4q20 -3 20 -20v-93q0 -8 -6 -14t-14 -6h-203q-35 0 -49.5 -14.5t-14.5 -53.5v-91h259
q8 0 14 -6t6 -14v-95q0 -8 -6 -14t-14 -6h-259v-106q0 -39 14.5 -53.5t49.5 -14.5h203q8 0 14 -6t6 -14v-93zM394 802q0 -7 -9 -7h-107q-10 0 -14 3t-10 9l-122 122q-4 4 -4 8q0 7 11 7h132q11 0 15.5 -3.5t11.5 -11.5l92 -117q4 -5 4 -10z" />
    <glyph glyph-name="Eacute" unicode="&#xc9;" horiz-adv-x="580" 
d="M524 25q0 -18 -20 -21q-26 -4 -69.5 -8.5t-124.5 -4.5q-48 0 -92 8t-77.5 31t-53.5 65.5t-20 110.5v332q0 68 20 110t53.5 65t78 31t92.5 8q40 0 70.5 -1.5t53.5 -3.5t39.5 -4t29.5 -4q20 -3 20 -20v-93q0 -8 -6 -14t-14 -6h-203q-35 0 -49.5 -14.5t-14.5 -53.5v-91h259
q8 0 14 -6t6 -14v-95q0 -8 -6 -14t-14 -6h-259v-106q0 -39 14.5 -53.5t49.5 -14.5h203q8 0 14 -6t6 -14v-93zM477 937q0 -4 -4 -8l-122 -122q-6 -6 -10 -9t-14 -3h-107q-9 0 -9 7q0 5 4 10l93 117q7 8 11.5 11.5t15.5 3.5h131q11 0 11 -7z" />
    <glyph glyph-name="Ecircumflex" unicode="&#xca;" horiz-adv-x="580" 
d="M524 25q0 -18 -20 -21q-26 -4 -69.5 -8.5t-124.5 -4.5q-48 0 -92 8t-77.5 31t-53.5 65.5t-20 110.5v332q0 68 20 110t53.5 65t78 31t92.5 8q40 0 70.5 -1.5t53.5 -3.5t39.5 -4t29.5 -4q20 -3 20 -20v-93q0 -8 -6 -14t-14 -6h-203q-35 0 -49.5 -14.5t-14.5 -53.5v-91h259
q8 0 14 -6t6 -14v-95q0 -8 -6 -14t-14 -6h-259v-106q0 -39 14.5 -53.5t49.5 -14.5h203q8 0 14 -6t6 -14v-93zM509 802q0 -7 -9 -7h-103q-10 0 -14 2.5t-10 9.5l-63 70l-64 -70q-6 -7 -10 -9.5t-14 -2.5h-103q-9 0 -9 7q0 5 4 10l89 117q7 8 11.5 11.5t15.5 3.5h160
q11 0 15.5 -3t11.5 -12l88 -117q4 -5 4 -10z" />
    <glyph glyph-name="Edieresis" unicode="&#xcb;" horiz-adv-x="580" 
d="M524 25q0 -18 -20 -21q-26 -4 -69.5 -8.5t-124.5 -4.5q-48 0 -92 8t-77.5 31t-53.5 65.5t-20 110.5v332q0 68 20 110t53.5 65t78 31t92.5 8q40 0 70.5 -1.5t53.5 -3.5t39.5 -4t29.5 -4q20 -3 20 -20v-93q0 -8 -6 -14t-14 -6h-203q-35 0 -49.5 -14.5t-14.5 -53.5v-91h259
q8 0 14 -6t6 -14v-95q0 -8 -6 -14t-14 -6h-259v-106q0 -39 14.5 -53.5t49.5 -14.5h203q8 0 14 -6t6 -14v-93zM470 821q0 -8 -7 -14t-15 -6h-94q-8 0 -14.5 6t-6.5 14v93q0 8 6.5 14t14.5 6h94q8 0 15 -6t7 -14v-93zM253 821q0 -8 -6.5 -14t-14.5 -6h-94q-8 0 -15 6t-7 14v93
q0 8 7 14t15 6h94q8 0 14.5 -6t6.5 -14v-93z" />
    <glyph glyph-name="Igrave" unicode="&#xcc;" horiz-adv-x="311" 
d="M241 20q0 -8 -5.5 -14t-13.5 -6h-134q-8 0 -13 6t-5 14v704q0 19 18 19h134q19 0 19 -19v-704zM254 802q0 -7 -9 -7h-107q-10 0 -14 3t-10 9l-122 122q-4 4 -4 8q0 7 11 7h132q11 0 15.5 -3.5t11.5 -11.5l92 -117q4 -5 4 -10z" />
    <glyph glyph-name="Iacute" unicode="&#xcd;" horiz-adv-x="311" 
d="M241 20q0 -8 -5.5 -14t-13.5 -6h-134q-8 0 -13 6t-5 14v704q0 19 18 19h134q19 0 19 -19v-704zM326 937q0 -4 -4 -8l-122 -122q-6 -6 -10 -9t-14 -3h-107q-9 0 -9 7q0 5 4 10l93 117q7 8 11.5 11.5t15.5 3.5h131q11 0 11 -7z" />
    <glyph glyph-name="Icircumflex" unicode="&#xce;" horiz-adv-x="311" 
d="M241 20q0 -8 -5.5 -14t-13.5 -6h-134q-8 0 -13 6t-5 14v704q0 19 18 19h134q19 0 19 -19v-704zM356 801q0 -7 -9 -7h-103q-10 0 -14 2.5t-10 9.5l-63 70l-64 -70q-6 -7 -10 -9.5t-14 -2.5h-103q-9 0 -9 7q0 5 4 10l89 117q7 8 11.5 11.5t15.5 3.5h160q11 0 15.5 -3
t11.5 -12l88 -117q4 -5 4 -10z" />
    <glyph glyph-name="Idieresis" unicode="&#xcf;" horiz-adv-x="311" 
d="M241 20q0 -8 -5.5 -14t-13.5 -6h-134q-8 0 -13 6t-5 14v704q0 19 18 19h134q19 0 19 -19v-704zM332 821q0 -8 -7 -14t-15 -6h-94q-8 0 -14.5 6t-6.5 14v93q0 8 6.5 14t14.5 6h94q8 0 15 -6t7 -14v-93zM115 821q0 -8 -6.5 -14t-14.5 -6h-94q-8 0 -15 6t-7 14v93q0 8 7 14
t15 6h94q8 0 14.5 -6t6.5 -14v-93z" />
    <glyph glyph-name="Eth" unicode="&#xd0;" horiz-adv-x="682" 
d="M631 321q0 -89 -23.5 -151.5t-65.5 -102t-100.5 -58t-129.5 -18.5q-75 0 -127 4.5t-90 11.5q-14 2 -21.5 10t-7.5 25v270h-55q-19 0 -19 19v97q0 19 19 19h55v254q0 17 7.5 25t21.5 10q39 7 90.5 11.5t126.5 4.5q71 0 129.5 -18t100.5 -58t65.5 -102.5t23.5 -151.5v-101z
M457 422q0 53 -9.5 88t-28 56t-45.5 29.5t-62 8.5h-17.5t-21 -0.5t-20 -1t-15.5 -0.5v-155h61q19 0 19 -19v-97q0 -19 -19 -19h-61v-172q6 0 15.5 -0.5t20 -0.5h21h17.5q35 0 62 8.5t45.5 29.5t28 56t9.5 88v101z" />
    <glyph glyph-name="Ntilde" unicode="&#xd1;" horiz-adv-x="729" 
d="M659 38q0 -16 -11.5 -27t-27.5 -11h-98q-16 0 -28 5.5t-24 25.5l-228 394q-5 8 -9 8q-5 0 -5 -8v-405q0 -8 -6 -14t-14 -6h-118q-8 0 -14 6t-6 14v685q0 16 11 27t27 11h101q15 0 24 -7.5t18 -23.5l237 -412q5 -8 8 -8q5 0 5 9v423q0 8 6 13.5t14 5.5h118q8 0 14 -5.5
t6 -13.5v-686zM558 907q0 -66 -32.5 -93t-89.5 -27q-15 0 -35 5.5t-36 16.5l-42 29q-26 18 -41 18q-10 0 -16.5 -5.5t-6.5 -21.5v-19q0 -17 -15 -17h-71q-15 0 -15 17v19q0 65 33 92t90 27q15 0 34.5 -5t35.5 -16l43 -28q13 -8 22.5 -13t17.5 -5q11 0 17 5.5t6 21.5v19
q0 16 16 16h70q15 0 15 -16v-20z" />
    <glyph glyph-name="Ograve" unicode="&#xd2;" horiz-adv-x="698" 
d="M645 312q0 -87 -23 -148t-63 -99.5t-94 -56t-116 -17.5t-116 17.5t-94 56t-63 99.5t-23 148v119q0 87 23 148t63 99.5t94 56t116 17.5t116 -17.5t94 -56t63 -99.5t23 -148v-119zM473 431q0 91 -30.5 131t-93.5 40t-93 -40t-30 -131v-119q0 -91 30 -131t93 -40t93.5 40
t30.5 131v119zM438 801q0 -7 -9 -7h-107q-10 0 -14 3t-10 9l-122 122q-4 4 -4 8q0 7 11 7h132q11 0 15.5 -3.5t11.5 -11.5l92 -117q4 -5 4 -10z" />
    <glyph glyph-name="Oacute" unicode="&#xd3;" horiz-adv-x="698" 
d="M645 312q0 -87 -23 -148t-63 -99.5t-94 -56t-116 -17.5t-116 17.5t-94 56t-63 99.5t-23 148v119q0 87 23 148t63 99.5t94 56t116 17.5t116 -17.5t94 -56t63 -99.5t23 -148v-119zM473 431q0 91 -30.5 131t-93.5 40t-93 -40t-30 -131v-119q0 -91 30 -131t93 -40t93.5 40
t30.5 131v119zM514 937q0 -4 -4 -8l-122 -122q-6 -6 -10 -9t-14 -3h-107q-9 0 -9 7q0 5 4 10l93 117q7 8 11.5 11.5t15.5 3.5h131q11 0 11 -7z" />
    <glyph glyph-name="Ocircumflex" unicode="&#xd4;" horiz-adv-x="698" 
d="M645 312q0 -87 -23 -148t-63 -99.5t-94 -56t-116 -17.5t-116 17.5t-94 56t-63 99.5t-23 148v119q0 87 23 148t63 99.5t94 56t116 17.5t116 -17.5t94 -56t63 -99.5t23 -148v-119zM473 431q0 91 -30.5 131t-93.5 40t-93 -40t-30 -131v-119q0 -91 30 -131t93 -40t93.5 40
t30.5 131v119zM544 802q0 -7 -9 -7h-103q-10 0 -14 2.5t-10 9.5l-63 70l-64 -70q-6 -7 -10 -9.5t-14 -2.5h-103q-9 0 -9 7q0 5 4 10l89 117q7 8 11.5 11.5t15.5 3.5h160q11 0 15.5 -3t11.5 -12l88 -117q4 -5 4 -10z" />
    <glyph glyph-name="Otilde" unicode="&#xd5;" horiz-adv-x="698" 
d="M645 312q0 -87 -23 -148t-63 -99.5t-94 -56t-116 -17.5t-116 17.5t-94 56t-63 99.5t-23 148v119q0 87 23 148t63 99.5t94 56t116 17.5t116 -17.5t94 -56t63 -99.5t23 -148v-119zM473 431q0 91 -30.5 131t-93.5 40t-93 -40t-30 -131v-119q0 -91 30 -131t93 -40t93.5 40
t30.5 131v119zM553 908q0 -66 -32.5 -93t-89.5 -27q-15 0 -35 5.5t-36 16.5l-42 29q-26 18 -41 18q-10 0 -16.5 -5.5t-6.5 -21.5v-19q0 -17 -15 -17h-71q-15 0 -15 17v19q0 65 33 92t90 27q15 0 34.5 -5t35.5 -16l43 -28q13 -8 22.5 -13t17.5 -5q11 0 17 5.5t6 21.5v19
q0 16 16 16h70q15 0 15 -16v-20z" />
    <glyph glyph-name="Odieresis" unicode="&#xd6;" horiz-adv-x="698" 
d="M645 312q0 -87 -23 -148t-63 -99.5t-94 -56t-116 -17.5t-116 17.5t-94 56t-63 99.5t-23 148v119q0 87 23 148t63 99.5t94 56t116 17.5t116 -17.5t94 -56t63 -99.5t23 -148v-119zM473 431q0 91 -30.5 131t-93.5 40t-93 -40t-30 -131v-119q0 -91 30 -131t93 -40t93.5 40
t30.5 131v119zM526 821q0 -8 -7 -14t-15 -6h-94q-8 0 -14.5 6t-6.5 14v93q0 8 6.5 14t14.5 6h94q8 0 15 -6t7 -14v-93zM309 821q0 -8 -6.5 -14t-14.5 -6h-94q-8 0 -15 6t-7 14v93q0 8 7 14t15 6h94q8 0 14.5 -6t6.5 -14v-93z" />
    <glyph glyph-name="multiply" unicode="&#xd7;" 
d="M537 255q0 -5 -5 -10l-63 -63q-5 -5 -10 -5q-8 0 -16 8l-120 120l-120 -120q-8 -8 -15 -8q-5 0 -10 5l-64 64q-5 5 -5 10q0 7 8 15l120 120l-120 120q-8 8 -8 15q0 5 5 10l64 64q5 5 10 5q7 0 15 -8l120 -120l120 120q8 8 16 8q5 0 10 -5l63 -63q5 -5 5 -10q0 -8 -8 -16
l-120 -120l120 -120q8 -8 8 -16z" />
    <glyph glyph-name="Oslash" unicode="&#xd8;" horiz-adv-x="698" 
d="M677 739q0 -4 -3 -8l-75 -103q22 -37 34 -85.5t12 -111.5v-119q0 -87 -23 -148t-63 -99.5t-94 -56t-116 -17.5q-101 0 -174 46l-19 -27q-5 -6 -11.5 -12.5t-14.5 -6.5h-97q-11 0 -11 11q0 3 3 8l75 104q-22 37 -34.5 86t-12.5 112v119q0 87 23 148t63 99.5t94 56
t116 17.5q50 0 94.5 -11t81.5 -35l18 25q5 6 11.5 12.5t14.5 6.5h97q11 0 11 -11zM431 575q-30 27 -82 27q-63 0 -93 -40t-30 -131v-119q0 -5 0.5 -10.5t0.5 -10.5zM269 167q29 -26 80 -26q63 0 93.5 40t30.5 131v139z" />
    <glyph glyph-name="Ugrave" unicode="&#xd9;" horiz-adv-x="711" 
d="M644 279q0 -86 -23 -141.5t-62 -88t-91.5 -45.5t-112.5 -13t-112.5 13t-91.5 45.5t-61.5 88t-22.5 141.5v445q0 8 6 13.5t14 5.5h131q8 0 14 -5.5t6 -13.5v-445q0 -38 5.5 -65.5t19 -45t36 -26t56.5 -8.5t56.5 8.5t36 26t19.5 45t6 65.5v445q0 8 6 13.5t14 5.5h130
q8 0 14.5 -5.5t6.5 -13.5v-445zM460 801q0 -7 -9 -7h-107q-10 0 -14 3t-10 9l-122 122q-4 4 -4 8q0 7 11 7h132q11 0 15.5 -3.5t11.5 -11.5l92 -117q4 -5 4 -10z" />
    <glyph glyph-name="Uacute" unicode="&#xda;" horiz-adv-x="711" 
d="M644 279q0 -86 -23 -141.5t-62 -88t-91.5 -45.5t-112.5 -13t-112.5 13t-91.5 45.5t-61.5 88t-22.5 141.5v445q0 8 6 13.5t14 5.5h131q8 0 14 -5.5t6 -13.5v-445q0 -38 5.5 -65.5t19 -45t36 -26t56.5 -8.5t56.5 8.5t36 26t19.5 45t6 65.5v445q0 8 6 13.5t14 5.5h130
q8 0 14.5 -5.5t6.5 -13.5v-445zM534 936q0 -4 -4 -8l-122 -122q-6 -6 -10 -9t-14 -3h-107q-9 0 -9 7q0 5 4 10l93 117q7 8 11.5 11.5t15.5 3.5h131q11 0 11 -7z" />
    <glyph glyph-name="Ucircumflex" unicode="&#xdb;" horiz-adv-x="711" 
d="M644 279q0 -86 -23 -141.5t-62 -88t-91.5 -45.5t-112.5 -13t-112.5 13t-91.5 45.5t-61.5 88t-22.5 141.5v445q0 8 6 13.5t14 5.5h131q8 0 14 -5.5t6 -13.5v-445q0 -38 5.5 -65.5t19 -45t36 -26t56.5 -8.5t56.5 8.5t36 26t19.5 45t6 65.5v445q0 8 6 13.5t14 5.5h130
q8 0 14.5 -5.5t6.5 -13.5v-445zM554 802q0 -7 -9 -7h-103q-10 0 -14 2.5t-10 9.5l-63 70l-64 -70q-6 -7 -10 -9.5t-14 -2.5h-103q-9 0 -9 7q0 5 4 10l89 117q7 8 11.5 11.5t15.5 3.5h160q11 0 15.5 -3t11.5 -12l88 -117q4 -5 4 -10z" />
    <glyph glyph-name="Udieresis" unicode="&#xdc;" horiz-adv-x="711" 
d="M644 279q0 -86 -23 -141.5t-62 -88t-91.5 -45.5t-112.5 -13t-112.5 13t-91.5 45.5t-61.5 88t-22.5 141.5v445q0 8 6 13.5t14 5.5h131q8 0 14 -5.5t6 -13.5v-445q0 -38 5.5 -65.5t19 -45t36 -26t56.5 -8.5t56.5 8.5t36 26t19.5 45t6 65.5v445q0 8 6 13.5t14 5.5h130
q8 0 14.5 -5.5t6.5 -13.5v-445zM532 821q0 -8 -7 -14t-15 -6h-94q-8 0 -14.5 6t-6.5 14v93q0 8 6.5 14t14.5 6h94q8 0 15 -6t7 -14v-93zM315 821q0 -8 -6.5 -14t-14.5 -6h-94q-8 0 -15 6t-7 14v93q0 8 7 14t15 6h94q8 0 14.5 -6t6.5 -14v-93z" />
    <glyph glyph-name="Yacute" unicode="&#xdd;" horiz-adv-x="647" 
d="M626 728q0 -5 -1 -7l-151 -346q-15 -35 -31 -52t-34 -25v-278q0 -8 -6 -14t-14 -6h-131q-8 0 -14 6t-6 14v278q-18 8 -34.5 25t-31.5 52l-151 346q-1 2 -1 7q0 6 4 10.5t12 4.5h144q8 0 13 -5t7 -12l108 -282q4 -10 7 -12.5t8 -2.5t8 2.5t7 12.5l108 282q2 7 7 12t13 5
h144q8 0 12 -4.5t4 -10.5zM509 936q0 -4 -4 -8l-122 -122q-6 -6 -10 -9t-14 -3h-107q-9 0 -9 7q0 5 4 10l93 117q7 8 11.5 11.5t15.5 3.5h131q11 0 11 -7z" />
    <glyph glyph-name="Thorn" unicode="&#xde;" horiz-adv-x="651" 
d="M618 414q0 -72 -26 -119t-68.5 -75t-96.5 -39.5t-110 -11.5q-20 0 -38.5 0.5t-39.5 1.5v-151q0 -8 -5.5 -14t-13.5 -6h-131q-8 0 -13.5 6t-5.5 14v704q0 19 19 19h131q19 0 19 -19v-59q4 0 13 0.5t19.5 0.5h21.5h20q58 0 112.5 -11t97.5 -39t69 -74.5t26 -116.5v-11z
M447 425q0 54 -33.5 75.5t-96.5 21.5h-16.5h-24t-23 -0.5t-14.5 -0.5v-207q4 0 15 -0.5t23.5 -0.5h24h15.5q65 0 97.5 23.5t32.5 77.5v11z" />
    <glyph glyph-name="germandbls" unicode="&#xdf;" horiz-adv-x="652" 
d="M598 225q0 -60 -20 -104t-53.5 -73t-77.5 -43t-92 -14q-13 0 -29 1.5t-32 4.5q-8 2 -14 6.5t-6 12.5v96q0 5 2.5 10.5t8.5 5.5h1q9 -1 18.5 -1h18.5q23 0 43.5 4.5t35.5 15.5t24 30t9 48v21q0 38 -25 63t-82 25h-31q-8 0 -14 5.5t-6 13.5v79q0 8 6 13.5t14 5.5h31
q28 0 46.5 7t30 18.5t16.5 26.5t5 31v19q0 35 -22 58.5t-75 23.5q-33 0 -54 -9t-33 -25t-17 -38t-5 -48v-494q0 -8 -5.5 -14.5t-13.5 -6.5h-124q-8 0 -14 6.5t-6 14.5v494q0 133 69.5 196t202.5 63q125 0 192 -57.5t67 -163.5v-19q0 -23 -7.5 -44.5t-20.5 -39.5t-29 -31.5
t-34 -21.5q48 -20 74.5 -60t26.5 -91v-21z" />
    <glyph glyph-name="agrave" unicode="&#xe0;" horiz-adv-x="562" 
d="M502 20q0 -8 -6 -14t-14 -6h-112q-8 0 -14 6t-6 14v16q-29 -21 -61.5 -33t-77.5 -12q-33 0 -63.5 8.5t-54.5 28.5t-38.5 53t-14.5 82v9q0 88 58.5 128.5t187.5 40.5h54v36q0 43 -20 56t-55 13q-24 0 -48.5 -0.5t-47 -1.5t-40.5 -2.5l-30 -2.5h-5q-8 0 -13 4t-5 14v81
q0 17 19 22q28 7 75.5 14t97.5 7q54 0 97.5 -11.5t73.5 -36t46.5 -63t16.5 -93.5v-357zM343 245h-57q-26 0 -43 -4.5t-27 -13.5t-14 -23t-4 -32v-9q0 -32 15.5 -41t47.5 -9q23 0 43.5 6.5t38.5 15.5v110zM366 637q0 -7 -9 -7h-107q-10 0 -14 3t-10 9l-122 122q-4 4 -4 8
q0 7 11 7h132q11 0 15.5 -3.5t11.5 -11.5l92 -117q4 -5 4 -10z" />
    <glyph glyph-name="aacute" unicode="&#xe1;" horiz-adv-x="562" 
d="M502 20q0 -8 -6 -14t-14 -6h-112q-8 0 -14 6t-6 14v16q-29 -21 -61.5 -33t-77.5 -12q-33 0 -63.5 8.5t-54.5 28.5t-38.5 53t-14.5 82v9q0 88 58.5 128.5t187.5 40.5h54v36q0 43 -20 56t-55 13q-24 0 -48.5 -0.5t-47 -1.5t-40.5 -2.5l-30 -2.5h-5q-8 0 -13 4t-5 14v81
q0 17 19 22q28 7 75.5 14t97.5 7q54 0 97.5 -11.5t73.5 -36t46.5 -63t16.5 -93.5v-357zM343 245h-57q-26 0 -43 -4.5t-27 -13.5t-14 -23t-4 -32v-9q0 -32 15.5 -41t47.5 -9q23 0 43.5 6.5t38.5 15.5v110zM465 772q0 -4 -4 -8l-122 -122q-6 -6 -10 -9t-14 -3h-107q-9 0 -9 7
q0 5 4 10l93 117q7 8 11.5 11.5t15.5 3.5h131q11 0 11 -7z" />
    <glyph glyph-name="acircumflex" unicode="&#xe2;" horiz-adv-x="562" 
d="M502 20q0 -8 -6 -14t-14 -6h-112q-8 0 -14 6t-6 14v16q-29 -21 -61.5 -33t-77.5 -12q-33 0 -63.5 8.5t-54.5 28.5t-38.5 53t-14.5 82v9q0 88 58.5 128.5t187.5 40.5h54v36q0 43 -20 56t-55 13q-24 0 -48.5 -0.5t-47 -1.5t-40.5 -2.5l-30 -2.5h-5q-8 0 -13 4t-5 14v81
q0 17 19 22q28 7 75.5 14t97.5 7q54 0 97.5 -11.5t73.5 -36t46.5 -63t16.5 -93.5v-357zM343 245h-57q-26 0 -43 -4.5t-27 -13.5t-14 -23t-4 -32v-9q0 -32 15.5 -41t47.5 -9q23 0 43.5 6.5t38.5 15.5v110zM485 637q0 -7 -9 -7h-103q-10 0 -14 2.5t-10 9.5l-63 70l-64 -70
q-6 -7 -10 -9.5t-14 -2.5h-103q-9 0 -9 7q0 5 4 10l89 117q7 8 11.5 11.5t15.5 3.5h160q11 0 15.5 -3t11.5 -12l88 -117q4 -5 4 -10z" />
    <glyph glyph-name="atilde" unicode="&#xe3;" horiz-adv-x="562" 
d="M502 20q0 -8 -6 -14t-14 -6h-112q-8 0 -14 6t-6 14v16q-29 -21 -61.5 -33t-77.5 -12q-33 0 -63.5 8.5t-54.5 28.5t-38.5 53t-14.5 82v9q0 88 58.5 128.5t187.5 40.5h54v36q0 43 -20 56t-55 13q-24 0 -48.5 -0.5t-47 -1.5t-40.5 -2.5l-30 -2.5h-5q-8 0 -13 4t-5 14v81
q0 17 19 22q28 7 75.5 14t97.5 7q54 0 97.5 -11.5t73.5 -36t46.5 -63t16.5 -93.5v-357zM343 245h-57q-26 0 -43 -4.5t-27 -13.5t-14 -23t-4 -32v-9q0 -32 15.5 -41t47.5 -9q23 0 43.5 6.5t38.5 15.5v110zM489 746q0 -66 -32.5 -93t-89.5 -27q-15 0 -35 5.5t-36 16.5l-42 29
q-26 18 -41 18q-10 0 -16.5 -5.5t-6.5 -21.5v-19q0 -17 -15 -17h-71q-15 0 -15 17v19q0 65 33 92t90 27q15 0 34.5 -5t35.5 -16l43 -28q13 -8 22.5 -13t17.5 -5q11 0 17 5.5t6 21.5v19q0 16 16 16h70q15 0 15 -16v-20z" />
    <glyph glyph-name="adieresis" unicode="&#xe4;" horiz-adv-x="562" 
d="M502 20q0 -8 -6 -14t-14 -6h-112q-8 0 -14 6t-6 14v16q-29 -21 -61.5 -33t-77.5 -12q-33 0 -63.5 8.5t-54.5 28.5t-38.5 53t-14.5 82v9q0 88 58.5 128.5t187.5 40.5h54v36q0 43 -20 56t-55 13q-24 0 -48.5 -0.5t-47 -1.5t-40.5 -2.5l-30 -2.5h-5q-8 0 -13 4t-5 14v81
q0 17 19 22q28 7 75.5 14t97.5 7q54 0 97.5 -11.5t73.5 -36t46.5 -63t16.5 -93.5v-357zM343 245h-57q-26 0 -43 -4.5t-27 -13.5t-14 -23t-4 -32v-9q0 -32 15.5 -41t47.5 -9q23 0 43.5 6.5t38.5 15.5v110zM464 660q0 -8 -7 -14t-15 -6h-94q-8 0 -14.5 6t-6.5 14v93
q0 8 6.5 14t14.5 6h94q8 0 15 -6t7 -14v-93zM247 660q0 -8 -6.5 -14t-14.5 -6h-94q-8 0 -15 6t-7 14v93q0 8 7 14t15 6h94q8 0 14.5 -6t6.5 -14v-93z" />
    <glyph glyph-name="aring" unicode="&#xe5;" horiz-adv-x="562" 
d="M502 20q0 -8 -6 -14t-14 -6h-112q-8 0 -14 6t-6 14v16q-29 -21 -61.5 -33t-77.5 -12q-33 0 -63.5 8.5t-54.5 28.5t-38.5 53t-14.5 82v9q0 88 58.5 128.5t187.5 40.5h54v36q0 43 -20 56t-55 13q-24 0 -48.5 -0.5t-47 -1.5t-40.5 -2.5l-30 -2.5h-5q-8 0 -13 4t-5 14v81
q0 17 19 22q28 7 75.5 14t97.5 7q54 0 97.5 -11.5t73.5 -36t46.5 -63t16.5 -93.5v-357zM343 245h-57q-26 0 -43 -4.5t-27 -13.5t-14 -23t-4 -32v-9q0 -32 15.5 -41t47.5 -9q23 0 43.5 6.5t38.5 15.5v110zM400 741q0 -24 -9 -45.5t-25 -37.5t-37.5 -25t-45.5 -9t-45.5 9
t-37.5 25t-25 37.5t-9 45.5t9 45.5t25 37.5t37.5 25t45.5 9t45.5 -9t37.5 -25t25 -37.5t9 -45.5zM327 741q0 18 -13 31t-31 13t-31 -13t-13 -31t13 -31t31 -13t31 13t13 31z" />
    <glyph glyph-name="ae" unicode="&#xe6;" horiz-adv-x="881" 
d="M835 265q0 -8 -6.5 -14.5t-14.5 -6.5h-310v-41q0 -43 30.5 -60t85.5 -17q14 0 37.5 0.5t49 2t49 2.5t37.5 3h5q16 0 16 -16v-72q0 -11 -4 -16.5t-15 -9.5q-42 -14 -95.5 -21.5t-102.5 -7.5q-87 0 -141 46q-40 -22 -91 -34t-104 -12q-42 0 -81.5 9.5t-70 31.5t-49 56
t-18.5 84v11q0 44 18 74t51.5 49t81.5 27t108 8h42v9q0 56 -17.5 76t-60.5 20q-23 0 -47.5 -0.5t-47 -1.5t-40.5 -2.5t-28 -2.5h-3q-17 0 -17 18v79q0 19 20 24q13 3 31.5 7t40 7t45 5t46.5 2q110 0 170 -60q30 29 68 44.5t90 15.5q63 0 109 -18.5t75.5 -52t43.5 -80
t14 -101.5v-64zM348 253h-47q-53 0 -79 -15.5t-26 -54.5v-11q0 -37 24 -51.5t55 -14.5q20 0 39 3t34 10v134zM680 350q0 49 -20 77.5t-68 28.5q-46 0 -67 -28.5t-21 -77.5v-18h176v18z" />
    <glyph glyph-name="ccedilla" unicode="&#xe7;" horiz-adv-x="474" 
d="M432 29q0 -11 -5 -15.5t-16 -7.5q-21 -5 -54.5 -10t-78.5 -5q-106 0 -169.5 65t-63.5 188v84q0 123 63.5 188t169.5 65q45 0 78.5 -5t54.5 -10q11 -3 16 -7.5t5 -15.5v-89q0 -8 -5.5 -12.5t-13.5 -4.5h-2q-28 3 -53.5 5t-68.5 2q-17 0 -32 -5.5t-26 -19t-17.5 -36
t-6.5 -55.5v-84q0 -33 6.5 -55.5t17.5 -36t26 -19t32 -5.5q43 0 68.5 2t53.5 5h2q8 0 13.5 -4.5t5.5 -12.5v-89zM345 -42q0 -4 -4 -8l-123 -122l-10.5 -9t-13.5 -3h-107q-10 0 -10 7q0 3 5 10l93 117q6 8 11 11.5t16 3.5h132q11 0 11 -7z" />
    <glyph glyph-name="egrave" unicode="&#xe8;" horiz-adv-x="590" 
d="M545 260q0 -24 -21 -24h-319v-2q0 -21 5 -41t17 -35t31.5 -24t49.5 -9q24 0 51 1t53.5 2t49.5 2.5t38 3.5h3q19 0 19 -16v-76q0 -12 -4 -18t-17 -9q-48 -12 -94 -18t-111 -6q-45 0 -90 13t-81 43t-58 79.5t-22 121.5v70q0 60 17 109t49.5 83t79.5 52.5t107 18.5
q61 0 107.5 -20t77.5 -55t46.5 -83t15.5 -105v-58zM407 637q0 -7 -9 -7h-107q-10 0 -14 3t-10 9l-122 122q-4 4 -4 8q0 7 11 7h132q11 0 15.5 -3.5t11.5 -11.5l92 -117q4 -5 4 -10zM387 340q0 56 -24 83.5t-66 27.5t-67 -28t-25 -83v-4h182v4z" />
    <glyph glyph-name="eacute" unicode="&#xe9;" horiz-adv-x="590" 
d="M545 260q0 -24 -21 -24h-319v-2q0 -21 5 -41t17 -35t31.5 -24t49.5 -9q24 0 51 1t53.5 2t49.5 2.5t38 3.5h3q19 0 19 -16v-76q0 -12 -4 -18t-17 -9q-48 -12 -94 -18t-111 -6q-45 0 -90 13t-81 43t-58 79.5t-22 121.5v70q0 60 17 109t49.5 83t79.5 52.5t107 18.5
q61 0 107.5 -20t77.5 -55t46.5 -83t15.5 -105v-58zM469 772q0 -4 -4 -8l-122 -122q-6 -6 -10 -9t-14 -3h-107q-9 0 -9 7q0 5 4 10l93 117q7 8 11.5 11.5t15.5 3.5h131q11 0 11 -7zM387 340q0 56 -24 83.5t-66 27.5t-67 -28t-25 -83v-4h182v4z" />
    <glyph glyph-name="ecircumflex" unicode="&#xea;" horiz-adv-x="590" 
d="M545 260q0 -24 -21 -24h-319v-2q0 -21 5 -41t17 -35t31.5 -24t49.5 -9q24 0 51 1t53.5 2t49.5 2.5t38 3.5h3q19 0 19 -16v-76q0 -12 -4 -18t-17 -9q-48 -12 -94 -18t-111 -6q-45 0 -90 13t-81 43t-58 79.5t-22 121.5v70q0 60 17 109t49.5 83t79.5 52.5t107 18.5
q61 0 107.5 -20t77.5 -55t46.5 -83t15.5 -105v-58zM494 637q0 -7 -9 -7h-103q-10 0 -14 2.5t-10 9.5l-63 70l-64 -70q-6 -7 -10 -9.5t-14 -2.5h-103q-9 0 -9 7q0 5 4 10l89 117q7 8 11.5 11.5t15.5 3.5h160q11 0 15.5 -3t11.5 -12l88 -117q4 -5 4 -10zM387 340
q0 56 -24 83.5t-66 27.5t-67 -28t-25 -83v-4h182v4z" />
    <glyph glyph-name="edieresis" unicode="&#xeb;" horiz-adv-x="590" 
d="M545 260q0 -24 -21 -24h-319v-2q0 -21 5 -41t17 -35t31.5 -24t49.5 -9q24 0 51 1t53.5 2t49.5 2.5t38 3.5h3q19 0 19 -16v-76q0 -12 -4 -18t-17 -9q-48 -12 -94 -18t-111 -6q-45 0 -90 13t-81 43t-58 79.5t-22 121.5v70q0 60 17 109t49.5 83t79.5 52.5t107 18.5
q61 0 107.5 -20t77.5 -55t46.5 -83t15.5 -105v-58zM253 658q0 -8 -6.5 -14t-14.5 -6h-94q-8 0 -15 6t-7 14v93q0 8 7 14t15 6h94q8 0 14.5 -6t6.5 -14v-93zM470 658q0 -8 -7 -14t-15 -6h-94q-8 0 -14.5 6t-6.5 14v93q0 8 6.5 14t14.5 6h94q8 0 15 -6t7 -14v-93zM387 340
q0 56 -24 83.5t-66 27.5t-67 -28t-25 -83v-4h182v4z" />
    <glyph glyph-name="igrave" unicode="&#xec;" horiz-adv-x="290" 
d="M233 637q0 -7 -10 -7h-107q-10 0 -14 3t-10 9l-122 122q-4 4 -4 8q0 7 11 7h132q11 0 16 -3.5t11 -11.5l92 -117q5 -7 5 -10zM226 21q0 -8 -6.5 -14.5t-14.5 -6.5h-120q-8 0 -14.5 6.5t-6.5 14.5v531q0 8 6.5 14.5t14.5 6.5h120q8 0 14.5 -6.5t6.5 -14.5v-531z" />
    <glyph glyph-name="iacute" unicode="&#xed;" horiz-adv-x="290" 
d="M329 772q0 -4 -4 -8l-122 -122q-6 -6 -10 -9t-14 -3h-107q-10 0 -10 7q0 3 5 10l93 117q6 8 11 11.5t16 3.5h131q11 0 11 -7zM226 21q0 -8 -6.5 -14.5t-14.5 -6.5h-120q-8 0 -14.5 6.5t-6.5 14.5v531q0 8 6.5 14.5t14.5 6.5h120q8 0 14.5 -6.5t6.5 -14.5v-531z" />
    <glyph glyph-name="icircumflex" unicode="&#xee;" horiz-adv-x="290" 
d="M226 21q0 -8 -6.5 -14.5t-14.5 -6.5h-120q-8 0 -14.5 6.5t-6.5 14.5v531q0 8 6.5 14.5t14.5 6.5h120q8 0 14.5 -6.5t6.5 -14.5v-531zM345 637q0 -7 -9 -7h-103q-10 0 -14 2.5t-10 9.5l-63 70l-64 -70q-6 -7 -10 -9.5t-14 -2.5h-103q-9 0 -9 7q0 5 4 10l89 117
q7 8 11.5 11.5t15.5 3.5h160q11 0 15.5 -3t11.5 -12l88 -117q4 -5 4 -10z" />
    <glyph glyph-name="idieresis" unicode="&#xef;" horiz-adv-x="290" 
d="M226 21q0 -8 -6.5 -14.5t-14.5 -6.5h-120q-8 0 -14.5 6.5t-6.5 14.5v531q0 8 6.5 14.5t14.5 6.5h120q8 0 14.5 -6.5t6.5 -14.5v-531zM323 658q0 -8 -7 -14t-15 -6h-94q-8 0 -14.5 6t-6.5 14v93q0 8 6.5 14t14.5 6h94q8 0 15 -6t7 -14v-93zM106 658q0 -8 -6.5 -14
t-14.5 -6h-94q-8 0 -15 6t-7 14v93q0 8 7 14t15 6h94q8 0 14.5 -6t6.5 -14v-93z" />
    <glyph glyph-name="eth" unicode="&#xf0;" horiz-adv-x="589" 
d="M545 259q0 -135 -64 -201.5t-185 -66.5q-127 0 -189.5 69.5t-62.5 198.5v31q0 135 65 201t186 66q11 0 25 -1.5t25 -7.5q-17 21 -46 42t-66 39l-71 -54q-8 -6 -13 -6q-6 0 -11 6l-27 30q-3 3 -3 8q0 9 10 16l41 31q-12 4 -24.5 8t-24.5 7q-6 2 -11 5t-5 9q0 4 1 6l25 68
q4 11 14 11q5 0 8 -1q32 -8 60.5 -17t55.5 -20l79 60q5 4 13 4t12 -5l27 -29q4 -4 4 -8q0 -6 -10 -14l-53 -41q54 -29 94 -67.5t67 -88.5t40.5 -113.5t13.5 -143.5v-31zM384 290q0 70 -21 101t-68 31t-68.5 -31t-21.5 -101v-31q0 -70 22 -101t69 -31t67.5 31t20.5 101v31z
" />
    <glyph glyph-name="ntilde" unicode="&#xf1;" horiz-adv-x="612" 
d="M552 21q0 -8 -6.5 -14.5t-14.5 -6.5h-121q-8 0 -14 6.5t-6 14.5v333q0 26 -3 44t-11 29t-22.5 15.5t-37.5 4.5q-22 0 -45 -9t-49 -23v-394q0 -8 -6 -14.5t-14 -6.5h-121q-8 0 -14.5 6.5t-6.5 14.5v532q0 8 6 14t14 6h112q8 0 14 -6t6 -14v-24q41 29 78 40.5t85 11.5
q54 0 88.5 -18t54 -48.5t27 -72t7.5 -88.5v-333zM503 746q0 -66 -32.5 -93t-89.5 -27q-15 0 -35 5.5t-36 16.5l-42 29q-26 18 -41 18q-10 0 -16.5 -5.5t-6.5 -21.5v-19q0 -17 -15 -17h-71q-15 0 -15 17v19q0 65 33 92t90 27q15 0 34.5 -5t35.5 -16l43 -28q13 -8 22.5 -13
t17.5 -5q11 0 17 5.5t6 21.5v19q0 16 16 16h70q15 0 15 -16v-20z" />
    <glyph glyph-name="ograve" unicode="&#xf2;" horiz-adv-x="589" 
d="M545 251q0 -60 -16.5 -108t-48 -81.5t-78 -52t-107.5 -18.5t-107.5 18.5t-78.5 52t-48.5 81.5t-16.5 108v70q0 60 16.5 108t48.5 81.5t78.5 52t107.5 18.5t107.5 -18.5t78 -52t48 -81.5t16.5 -108v-70zM384 321q0 122 -89 122q-44 0 -67 -30.5t-23 -91.5v-70
q0 -61 23 -92t67 -31q89 0 89 123v70zM386 637q0 -7 -9 -7h-107q-10 0 -14 3t-10 9l-122 122q-4 4 -4 8q0 7 11 7h132q11 0 15.5 -3.5t11.5 -11.5l92 -117q4 -5 4 -10z" />
    <glyph glyph-name="oacute" unicode="&#xf3;" horiz-adv-x="589" 
d="M545 251q0 -60 -16.5 -108t-48 -81.5t-78 -52t-107.5 -18.5t-107.5 18.5t-78.5 52t-48.5 81.5t-16.5 108v70q0 60 16.5 108t48.5 81.5t78.5 52t107.5 18.5t107.5 -18.5t78 -52t48 -81.5t16.5 -108v-70zM384 321q0 122 -89 122q-44 0 -67 -30.5t-23 -91.5v-70
q0 -61 23 -92t67 -31q89 0 89 123v70zM465 772q0 -4 -4 -8l-122 -122q-6 -6 -10 -9t-14 -3h-107q-9 0 -9 7q0 5 4 10l93 117q7 8 11.5 11.5t15.5 3.5h131q11 0 11 -7z" />
    <glyph glyph-name="ocircumflex" unicode="&#xf4;" horiz-adv-x="589" 
d="M545 251q0 -60 -16.5 -108t-48 -81.5t-78 -52t-107.5 -18.5t-107.5 18.5t-78.5 52t-48.5 81.5t-16.5 108v70q0 60 16.5 108t48.5 81.5t78.5 52t107.5 18.5t107.5 -18.5t78 -52t48 -81.5t16.5 -108v-70zM384 321q0 122 -89 122q-44 0 -67 -30.5t-23 -91.5v-70
q0 -61 23 -92t67 -31q89 0 89 123v70zM493 637q0 -7 -9 -7h-103q-10 0 -14 2.5t-10 9.5l-63 70l-64 -70q-6 -7 -10 -9.5t-14 -2.5h-103q-9 0 -9 7q0 5 4 10l89 117q7 8 11.5 11.5t15.5 3.5h160q11 0 15.5 -3t11.5 -12l88 -117q4 -5 4 -10z" />
    <glyph glyph-name="otilde" unicode="&#xf5;" horiz-adv-x="589" 
d="M545 251q0 -60 -16.5 -108t-48 -81.5t-78 -52t-107.5 -18.5t-107.5 18.5t-78.5 52t-48.5 81.5t-16.5 108v70q0 60 16.5 108t48.5 81.5t78.5 52t107.5 18.5t107.5 -18.5t78 -52t48 -81.5t16.5 -108v-70zM384 321q0 122 -89 122q-44 0 -67 -30.5t-23 -91.5v-70
q0 -61 23 -92t67 -31q89 0 89 123v70zM493 746q0 -66 -32.5 -93t-89.5 -27q-15 0 -35 5.5t-36 16.5l-42 29q-26 18 -41 18q-10 0 -16.5 -5.5t-6.5 -21.5v-19q0 -17 -15 -17h-71q-15 0 -15 17v19q0 65 33 92t90 27q15 0 34.5 -5t35.5 -16l43 -28q13 -8 22.5 -13t17.5 -5
q11 0 17 5.5t6 21.5v19q0 16 16 16h70q15 0 15 -16v-20z" />
    <glyph glyph-name="odieresis" unicode="&#xf6;" horiz-adv-x="589" 
d="M545 251q0 -60 -16.5 -108t-48 -81.5t-78 -52t-107.5 -18.5t-107.5 18.5t-78.5 52t-48.5 81.5t-16.5 108v70q0 60 16.5 108t48.5 81.5t78.5 52t107.5 18.5t107.5 -18.5t78 -52t48 -81.5t16.5 -108v-70zM384 321q0 122 -89 122q-44 0 -67 -30.5t-23 -91.5v-70
q0 -61 23 -92t67 -31q89 0 89 123v70zM470 658q0 -8 -7 -14t-15 -6h-94q-8 0 -14.5 6t-6.5 14v93q0 8 6.5 14t14.5 6h94q8 0 15 -6t7 -14v-93zM253 658q0 -8 -6.5 -14t-14.5 -6h-94q-8 0 -15 6t-7 14v93q0 8 7 14t15 6h94q8 0 14.5 -6t6.5 -14v-93z" />
    <glyph glyph-name="divide" unicode="&#xf7;" 
d="M401 552q0 -8 -6 -14t-14 -6h-118q-8 0 -14 6t-6 14v112q0 8 6 14t14 6h118q8 0 14 -6t6 -14v-112zM552 346q0 -8 -6 -12t-14 -4h-419q-8 0 -14 4t-6 12v90q0 8 6 12t14 4h419q8 0 14 -4t6 -12v-90zM401 104q0 -8 -6 -13.5t-14 -5.5h-118q-8 0 -14 5.5t-6 13.5v112
q0 8 6 14t14 6h118q8 0 14 -6t6 -14v-112z" />
    <glyph glyph-name="oslash" unicode="&#xf8;" horiz-adv-x="589" 
d="M559 598q0 -7 -4 -11l-65 -87q55 -67 55 -179v-70q0 -60 -16.5 -108t-48 -81.5t-78 -52t-107.5 -18.5q-90 0 -150 40l-42 -56q-5 -7 -8 -8.5t-8 -1.5h-50q-8 0 -8 8q0 6 4 11l66 89q-55 67 -55 178v70q0 60 16.5 108t48.5 81.5t78.5 52t107.5 18.5q90 0 150 -40l40 55
q5 7 8 8.5t8 1.5h50q8 0 8 -8zM355 420q-23 23 -60 23q-44 0 -67 -30.5t-23 -91.5v-70q0 -8 0.5 -16t1.5 -16zM384 321q0 8 -0.5 16t-1.5 16l-148 -201q22 -24 61 -24q89 0 89 123v70z" />
    <glyph glyph-name="ugrave" unicode="&#xf9;" horiz-adv-x="612" 
d="M552 20q0 -8 -6 -14t-14 -6h-112q-8 0 -14 6t-6 14v24q-41 -29 -78 -40.5t-85 -11.5q-54 0 -88.5 17.5t-54 48.5t-27 72.5t-7.5 88.5v333q0 8 6.5 14.5t14.5 6.5h121q8 0 14 -6.5t6 -14.5v-333q0 -26 3 -44t11 -29t22.5 -15.5t37.5 -4.5q22 0 45 9t49 23v394q0 8 6 14.5
t14 6.5h121q8 0 14.5 -6.5t6.5 -14.5v-532zM397 637q0 -7 -9 -7h-107q-10 0 -14 3t-10 9l-122 122q-4 4 -4 8q0 7 11 7h132q11 0 15.5 -3.5t11.5 -11.5l92 -117q4 -5 4 -10z" />
    <glyph glyph-name="uacute" unicode="&#xfa;" horiz-adv-x="612" 
d="M552 20q0 -8 -6 -14t-14 -6h-112q-8 0 -14 6t-6 14v24q-41 -29 -78 -40.5t-85 -11.5q-54 0 -88.5 17.5t-54 48.5t-27 72.5t-7.5 88.5v333q0 8 6.5 14.5t14.5 6.5h121q8 0 14 -6.5t6 -14.5v-333q0 -26 3 -44t11 -29t22.5 -15.5t37.5 -4.5q22 0 45 9t49 23v394q0 8 6 14.5
t14 6.5h121q8 0 14.5 -6.5t6.5 -14.5v-532zM489 772q0 -4 -4 -8l-122 -122q-6 -6 -10 -9t-14 -3h-107q-9 0 -9 7q0 5 4 10l93 117q7 8 11.5 11.5t15.5 3.5h131q11 0 11 -7z" />
    <glyph glyph-name="ucircumflex" unicode="&#xfb;" horiz-adv-x="612" 
d="M552 20q0 -8 -6 -14t-14 -6h-112q-8 0 -14 6t-6 14v24q-41 -29 -78 -40.5t-85 -11.5q-54 0 -88.5 17.5t-54 48.5t-27 72.5t-7.5 88.5v333q0 8 6.5 14.5t14.5 6.5h121q8 0 14 -6.5t6 -14.5v-333q0 -26 3 -44t11 -29t22.5 -15.5t37.5 -4.5q22 0 45 9t49 23v394q0 8 6 14.5
t14 6.5h121q8 0 14.5 -6.5t6.5 -14.5v-532zM504 637q0 -7 -9 -7h-103q-10 0 -14 2.5t-10 9.5l-63 70l-64 -70q-6 -7 -10 -9.5t-14 -2.5h-103q-9 0 -9 7q0 5 4 10l89 117q7 8 11.5 11.5t15.5 3.5h160q11 0 15.5 -3t11.5 -12l88 -117q4 -5 4 -10z" />
    <glyph glyph-name="udieresis" unicode="&#xfc;" horiz-adv-x="612" 
d="M552 20q0 -8 -6 -14t-14 -6h-112q-8 0 -14 6t-6 14v24q-41 -29 -78 -40.5t-85 -11.5q-54 0 -88.5 17.5t-54 48.5t-27 72.5t-7.5 88.5v333q0 8 6.5 14.5t14.5 6.5h121q8 0 14 -6.5t6 -14.5v-333q0 -26 3 -44t11 -29t22.5 -15.5t37.5 -4.5q22 0 45 9t49 23v394q0 8 6 14.5
t14 6.5h121q8 0 14.5 -6.5t6.5 -14.5v-532zM483 658q0 -8 -7 -14t-15 -6h-94q-8 0 -14.5 6t-6.5 14v93q0 8 6.5 14t14.5 6h94q8 0 15 -6t7 -14v-93zM266 658q0 -8 -6.5 -14t-14.5 -6h-94q-8 0 -15 6t-7 14v93q0 8 7 14t15 6h94q8 0 14.5 -6t6.5 -14v-93z" />
    </font>
</defs>
</svg>
